<svg xmlns="http://www.w3.org/2000/svg" width="500" height="240" fill="none" viewBox="0 0 500 240"><g filter="url(#filter0_d_9938_2098)"><path fill="#3581FA" d="M125.024 157.135V142.123C125.024 135.4 130.192 133.333 135.673 133.333C141.155 133.333 146.356 135.5 146.356 142.123V157.135H183.378C189.689 157.135 192.069 161.376 192.069 165.517C192.069 169.759 189.582 173.899 183.378 173.899H103.926C97.7215 173.899 95.2349 169.759 95.2349 165.517C95.2349 161.376 97.6149 157.135 103.926 157.135H125.024ZM165.462 128.436H107.442C101.238 128.436 98.4438 123.88 98.4438 119.639C98.4438 115.505 101.118 110.849 107.442 110.849H166.699V102.072C166.72 101.727 166.668 101.381 166.547 101.058C166.424 100.734 166.235 100.441 165.991 100.196C165.747 99.9512 165.454 99.761 165.131 99.6382C164.808 99.5153 164.463 99.4624 164.118 99.4829H108.478C102.267 99.4829 99.3731 94.9339 99.3731 90.6927C99.3731 86.5517 102.167 81.8955 108.478 81.8955H171.459C183.144 81.8955 187.697 87.3811 187.697 97.0012V108.374C187.697 125.346 185.939 137.14 182.115 145.415C179.528 151.007 173.424 153.696 166.906 151.215C161.839 149.248 160.889 143.856 162.775 139.421C164.107 135.88 165.009 132.192 165.462 128.436Z"/><path fill="#3581FA" d="M286.59 156.412C293.001 156.412 295.481 160.967 295.481 165.202C295.481 169.55 292.894 173.899 286.59 173.899H207.572C201.261 173.899 198.681 169.55 198.681 165.202C198.681 160.967 201.161 156.412 207.572 156.412H286.59ZM280.487 82.0953C286.383 82.0953 288.448 86.8651 288.448 90.792C288.448 94.7188 286.276 99.3819 280.487 99.3819H228.155C225.983 99.3819 225.26 100.004 225.26 102.178V118.113C225.26 120.287 225.983 121.009 228.155 121.009H282.138C287.934 121.009 290.207 125.779 290.207 129.606C290.207 133.433 287.827 138.303 282.138 138.303H220.808C208.401 138.303 204.162 133.854 204.162 121.846V98.4318C204.162 86.5306 208.401 82.0752 220.808 82.0752L280.487 82.0953Z"/><path fill="#3581FA" d="M354.658 81.787C360.006 81.787 361.898 86.1353 361.898 89.8615C361.898 93.3804 359.933 97.7287 354.658 97.7287H328.386C326.427 97.7287 325.491 98.451 325.491 100.21V111.71C325.491 113.67 326.427 114.293 328.386 114.293H358.589C363.937 114.293 365.943 118.534 365.943 122.059C365.943 125.785 363.977 130.02 358.589 130.02H319.815C308.337 130.02 305.108 126.3 305.108 115.637V96.1699C305.108 85.5132 308.31 81.787 319.815 81.787H354.658ZM329.836 135.713H373.584C387.756 135.713 394.976 144.604 394.976 155.996C394.976 167.389 387.743 176.279 373.584 176.279H329.836C315.463 176.279 308.444 167.175 308.444 155.996C308.444 144.817 315.49 135.713 329.836 135.713ZM335.318 161.803H368.075C372.628 161.803 373.972 158.592 373.972 156.009C373.972 153.427 372.635 150.216 368.075 150.216H335.318C330.766 150.216 329.422 153.42 329.422 156.009C329.422 158.598 330.766 161.79 335.318 161.79V161.803ZM372.862 89.032C372.862 82.3086 377.615 78.7832 383.097 78.7832C388.445 78.7832 393.339 82.4092 393.339 89.032V97.521H396.547C402.852 97.521 404.716 102.278 404.716 106.418C404.716 110.559 402.751 115.323 396.547 115.323H393.339V133.224H372.862V89.032Z"/><path fill="#3581FA" d="M16.6643 125.686C14.475 125.689 12.3658 124.862 10.762 123.371C9.15819 121.879 8.17914 119.835 8.02225 117.649C7.86537 115.464 8.54231 113.301 9.91658 111.595C11.2908 109.89 13.2602 108.769 15.4275 108.459C23.3878 107.315 31.1599 105.112 38.538 101.911C53.4192 95.4145 89.5722 73.526 103.852 10.736C104.39 8.52812 105.776 6.62082 107.707 5.42588C109.639 4.23094 111.963 3.84424 114.178 4.34925C116.392 4.85427 118.319 6.21051 119.543 8.12513C120.767 10.0397 121.189 12.3592 120.718 14.5826C116.979 31.0306 111.062 46.9052 103.123 61.7853C88.6699 88.5442 69.2695 107.383 45.4572 117.778C36.668 121.594 27.4102 124.222 17.9278 125.592C17.5094 125.653 17.0872 125.684 16.6643 125.686Z"/><path fill="#3581FA" d="M483.287 125.685C482.863 125.684 482.444 125.653 482.024 125.591C472.543 124.221 463.284 121.594 454.493 117.778C430.681 107.382 411.281 88.5438 396.828 61.7848C388.889 46.9046 382.972 31.03 379.233 14.5821C378.723 12.343 379.123 9.99299 380.345 8.04905C381.567 6.10509 383.51 4.72643 385.747 4.21633C387.985 3.70624 390.333 4.10652 392.276 5.3291C394.219 6.55167 395.596 8.49642 396.106 10.7355C410.379 73.5251 446.532 95.4141 461.414 101.91C468.789 105.112 476.562 107.314 484.523 108.459C486.691 108.769 488.661 109.889 490.033 111.595C491.41 113.3 492.087 115.464 491.929 117.649C491.772 119.834 490.793 121.879 489.19 123.37C487.586 124.861 485.476 125.688 483.287 125.685Z"/><path fill="#3581FA" d="M249.922 62.6427C187.116 62.623 124.458 56.5249 62.8251 44.4331C60.5736 43.9895 58.5899 42.669 57.3114 40.7621C56.0325 38.8551 55.5632 36.518 56.0063 34.2647C56.4498 32.0114 57.7693 30.0266 59.6748 28.747C61.5803 27.4673 63.9161 26.9976 66.1677 27.4411C185.995 50.9986 309.229 51.3029 429.17 28.3376L433.817 27.4211C434.938 27.1947 436.093 27.193 437.214 27.4161C438.336 27.6392 439.403 28.0827 440.352 28.721C441.302 29.3592 442.115 30.1796 442.745 31.1344C443.376 32.0894 443.811 33.1599 444.025 34.2842C444.24 35.4084 444.229 36.564 443.994 37.6842C443.759 38.8043 443.305 39.8667 442.657 40.8099C442.009 41.7531 441.181 42.5584 440.22 43.1791C439.259 43.7999 438.184 44.2238 437.059 44.4264L432.326 45.3295C372.203 56.82 311.132 62.6169 249.922 62.6427Z"/><path fill="#3581FA" d="M95.3175 220.275L95.9467 219.82C96.7388 219.354 97.2981 219.121 97.6245 219.121C98.3468 219.121 99.1276 219.773 99.9665 221.079C100.479 221.896 100.735 222.548 100.735 223.038C100.735 223.528 100.573 223.936 100.246 224.262C99.9433 224.589 99.582 224.88 99.1625 225.137C98.7431 225.394 98.3354 225.638 97.9391 225.871C97.5664 226.105 96.7856 226.408 95.5971 226.781C94.4086 227.154 93.2551 227.341 92.1366 227.341C91.0412 227.341 89.9226 227.201 88.7809 226.921C87.6623 226.618 86.497 226.128 85.2854 225.452C84.0969 224.752 83.0251 223.913 82.0695 222.933C81.114 221.931 80.3218 220.66 79.6926 219.121C79.0866 217.558 78.7838 215.867 78.7838 214.049C78.7838 212.23 79.0866 210.586 79.6926 209.117C80.2986 207.624 81.0677 206.4 81.9996 205.444C82.9552 204.464 84.0388 203.648 85.2504 202.995C87.5343 201.736 89.8295 201.106 92.1366 201.106C93.232 201.106 94.3387 201.281 95.4573 201.631C96.599 201.958 97.4615 202.296 98.044 202.645L98.8829 203.135C99.3023 203.392 99.6287 203.602 99.8616 203.765C100.468 204.254 100.77 204.814 100.77 205.444C100.77 206.05 100.526 206.691 100.036 207.368C99.1276 208.627 98.3118 209.256 97.5895 209.256C97.1701 209.256 96.5759 209 95.8068 208.487C94.8281 207.694 93.523 207.298 91.8919 207.298C90.377 207.298 88.8858 207.822 87.4177 208.872C86.7186 209.385 86.1361 210.108 85.6699 211.04C85.2037 211.973 84.9708 213.034 84.9708 214.223C84.9708 215.39 85.2037 216.439 85.6699 217.372C86.1361 218.304 86.7304 219.039 87.4526 219.575C88.874 220.601 90.3539 221.114 91.8919 221.114C92.6141 221.114 93.2901 221.021 93.9193 220.834C94.5716 220.648 95.0378 220.462 95.3175 220.275ZM136.03 201.036C139.479 201.036 142.473 202.284 145.013 204.779C147.553 207.274 148.823 210.376 148.823 214.084C148.823 217.768 147.612 220.916 145.188 223.528C142.764 226.116 139.782 227.411 136.24 227.411C132.697 227.411 129.68 226.128 127.186 223.563C124.716 220.998 123.481 217.943 123.481 214.398C123.481 212.463 123.831 210.656 124.53 208.977C125.229 207.274 126.161 205.852 127.326 204.709C128.491 203.567 129.831 202.669 131.346 202.016C132.861 201.363 134.422 201.036 136.03 201.036ZM129.668 214.223C129.668 216.299 130.332 217.989 131.661 219.295C133.012 220.578 134.515 221.219 136.17 221.219C137.824 221.219 139.316 220.59 140.644 219.33C141.972 218.071 142.636 216.38 142.636 214.258C142.636 212.137 141.96 210.434 140.609 209.152C139.281 207.869 137.789 207.228 136.135 207.228C134.48 207.228 132.989 207.88 131.661 209.187C130.332 210.469 129.668 212.148 129.668 214.223ZM175.193 201.316L181.66 201.351C185.039 201.351 188.01 202.575 190.573 205.024C193.137 207.449 194.418 210.446 194.418 214.014C194.418 217.558 193.16 220.601 190.643 223.143C188.15 225.685 185.12 226.956 181.555 226.956H175.158C173.737 226.956 172.851 226.664 172.502 226.081C172.222 225.592 172.082 224.845 172.082 223.843V204.394C172.082 203.835 172.094 203.427 172.117 203.17C172.164 202.913 172.28 202.61 172.467 202.261C172.793 201.631 173.702 201.316 175.193 201.316ZM181.66 220.765C183.338 220.765 184.852 220.147 186.204 218.911C187.555 217.651 188.231 216.077 188.231 214.188C188.231 212.3 187.567 210.726 186.239 209.466C184.934 208.184 183.396 207.542 181.625 207.542H178.269V220.765H181.66ZM223.854 220.8H234.62C235.156 220.8 235.552 220.823 235.808 220.869C236.088 220.893 236.403 220.998 236.752 221.184C237.381 221.511 237.696 222.42 237.696 223.913C237.696 225.545 237.265 226.501 236.403 226.781C236.007 226.921 235.401 226.991 234.585 226.991H220.743C219.112 226.991 218.156 226.548 217.877 225.662C217.737 225.289 217.667 224.694 217.667 223.878V204.429C217.667 203.24 217.888 202.436 218.331 202.016C218.774 201.573 219.613 201.351 220.848 201.351H234.62C235.156 201.351 235.552 201.374 235.808 201.421C236.088 201.444 236.403 201.549 236.752 201.736C237.381 202.063 237.696 202.972 237.696 204.464C237.696 206.097 237.265 207.053 236.403 207.333C236.007 207.473 235.401 207.542 234.585 207.542H223.854V211.075H230.775C231.311 211.075 231.707 211.099 231.963 211.145C232.243 211.168 232.558 211.273 232.907 211.46C233.536 211.787 233.851 212.696 233.851 214.188C233.851 215.821 233.408 216.777 232.523 217.057C232.127 217.197 231.521 217.267 230.705 217.267H223.854V220.8ZM264.042 201.316L270.508 201.351C273.887 201.351 276.858 202.575 279.422 205.024C281.985 207.449 283.267 210.446 283.267 214.014C283.267 217.558 282.008 220.601 279.492 223.143C276.998 225.685 273.969 226.956 270.403 226.956H264.007C262.585 226.956 261.7 226.664 261.35 226.081C261.07 225.592 260.931 224.845 260.931 223.843V204.394C260.931 203.835 260.942 203.427 260.965 203.17C261.012 202.913 261.128 202.61 261.315 202.261C261.641 201.631 262.55 201.316 264.042 201.316ZM270.508 220.765C272.186 220.765 273.701 220.147 275.052 218.911C276.404 217.651 277.08 216.077 277.08 214.188C277.08 212.3 276.416 210.726 275.087 209.466C273.782 208.184 272.244 207.542 270.473 207.542H267.118V220.765H270.508ZM319.56 203.17L328.998 222.688C329.394 223.481 329.593 224.076 329.593 224.472C329.593 225.312 328.917 226.07 327.565 226.746C326.773 227.143 326.143 227.341 325.678 227.341C325.235 227.341 324.862 227.236 324.559 227.026C324.279 226.816 324.07 226.594 323.93 226.361C323.813 226.128 323.638 225.778 323.406 225.312L321.588 221.534H311.905L310.088 225.312C309.854 225.778 309.668 226.116 309.528 226.326C309.412 226.536 309.202 226.758 308.899 226.991C308.62 227.201 308.246 227.306 307.781 227.306C307.338 227.306 306.72 227.108 305.928 226.711C304.576 226.058 303.901 225.312 303.901 224.472C303.901 224.076 304.099 223.481 304.495 222.688L313.933 203.135C314.189 202.599 314.573 202.168 315.086 201.841C315.622 201.514 316.181 201.351 316.764 201.351C318.022 201.351 318.954 201.958 319.56 203.17ZM316.729 211.565L314.422 216.357H319.071L316.729 211.565ZM369.01 202.436C369.242 202.016 369.58 201.736 370.023 201.596C370.466 201.456 371.013 201.386 371.666 201.386C372.342 201.386 372.878 201.444 373.274 201.561C373.693 201.678 373.996 201.818 374.183 201.981C374.393 202.144 374.544 202.389 374.637 202.715C374.777 203.088 374.847 203.683 374.847 204.499V223.913C374.847 224.472 374.823 224.88 374.777 225.137C374.753 225.394 374.649 225.697 374.462 226.046C374.136 226.676 373.227 226.991 371.736 226.991C370.827 226.991 370.198 226.921 369.848 226.781C369.499 226.641 369.207 226.419 368.975 226.116C363.731 219.121 360.282 214.55 358.628 212.405V223.913C358.628 224.472 358.604 224.88 358.558 225.137C358.534 225.394 358.43 225.697 358.243 226.046C357.917 226.676 357.008 226.991 355.517 226.991C354.072 226.991 353.186 226.676 352.86 226.046C352.674 225.697 352.557 225.382 352.511 225.102C352.487 224.822 352.476 224.414 352.476 223.878V204.359C352.476 203.473 352.581 202.832 352.79 202.436C353.023 202.016 353.361 201.736 353.804 201.596C354.247 201.456 354.818 201.386 355.517 201.386C356.216 201.386 356.763 201.456 357.16 201.596C357.579 201.713 357.87 201.853 358.034 202.016C358.127 202.086 358.395 202.389 358.838 202.925C363.754 209.618 367.04 214.037 368.695 216.182V204.359C368.695 203.473 368.8 202.832 369.01 202.436ZM411.96 211.53H418.112C419.37 211.577 420.139 211.903 420.419 212.509C420.652 212.952 420.768 213.606 420.768 214.468V222.164C420.768 222.91 420.442 223.621 419.789 224.297C417.832 226.326 414.896 227.341 410.981 227.341C407.508 227.341 404.491 226.035 401.927 223.423C399.364 220.788 398.082 217.616 398.082 213.909C398.082 210.201 399.387 207.111 401.997 204.639C404.607 202.144 407.683 200.896 411.225 200.896C413.975 200.896 416.574 201.806 419.02 203.625C419.65 204.091 419.964 204.616 419.964 205.199C419.964 205.759 419.696 206.411 419.16 207.158C418.251 208.394 417.424 209.012 416.678 209.012C416.235 209.012 415.525 208.697 414.546 208.067C413.567 207.414 412.402 207.088 411.051 207.088C409.279 207.088 407.706 207.717 406.332 208.977C404.957 210.213 404.269 211.845 404.269 213.874C404.269 215.879 404.969 217.593 406.367 219.016C407.765 220.415 409.349 221.114 411.121 221.114C412.402 221.114 413.556 220.904 414.581 220.485V216.672H411.82C411.097 216.672 410.585 216.579 410.282 216.392C409.978 216.205 409.781 215.937 409.687 215.588C409.594 215.215 409.548 214.725 409.548 214.119C409.548 213.489 409.594 212.987 409.687 212.614C409.804 212.241 410.002 211.985 410.282 211.845C410.701 211.635 411.26 211.53 411.96 211.53Z"/></g><defs><filter id="filter0_d_9938_2098" width="499.952" height="239.41" x="0" y="0" color-interpolation-filters="sRGB" filterUnits="userSpaceOnUse"><feFlood flood-opacity="0" result="BackgroundImageFix"/><feColorMatrix in="SourceAlpha" result="hardAlpha" type="matrix" values="0 0 0 0 0 0 0 0 0 0 0 0 0 0 0 0 0 0 127 0"/><feOffset dy="4"/><feGaussianBlur stdDeviation="4"/><feComposite in2="hardAlpha" operator="out"/><feColorMatrix type="matrix" values="0 0 0 0 0 0 0 0 0 0 0 0 0 0 0 0 0 0 0.25 0"/><feBlend in2="BackgroundImageFix" mode="normal" result="effect1_dropShadow_9938_2098"/><feBlend in="SourceGraphic" in2="effect1_dropShadow_9938_2098" mode="normal" result="shape"/></filter></defs></svg>