<svg xmlns="http://www.w3.org/2000/svg" width="137" height="28" fill="none"><g clip-path="url(#a)"><path fill="#000" d="M47.351 21.3017c-1.8884 0-3.2862-.6367-4.1964-1.9115-.9102-1.2748-1.366-3.0706-1.366-5.3902s.4558-4.11534 1.366-5.39017C44.0648 7.335 45.464 6.6983 47.351 6.6983c.7278 0 1.3717.0984 1.9317.29375.56.19535 1.0419.46884 1.4456.81902.4052.35018.738.77561 1.0014 1.27483.2633.49923.4688 1.0592.6164 1.6786l-2.8318.6873c-.0811-.3372-.1751-.6468-.2837-.9304-.1085-.2837-.246-.52532-.4153-.7279-.1693-.20259-.3776-.36031-.6265-.47463-.2489-.11431-.5499-.17219-.9001-.17219-.8219 0-1.405.31979-1.7494.96082-.3444.641-.5152 1.5266-.5152 2.6596v2.4672c0 1.133.1722 2.0201.5152 2.6597.3444.641.9275.9608 1.7494.9608.7004 0 1.2097-.2156 1.5266-.6468.3169-.4312.5499-.984.6975-1.6583l2.8318.6873c-.149.6208-.3545 1.1793-.6164 1.6786-.2633.4992-.5962.9275-1.0013 1.2849-.4038.3574-.8871.6309-1.4456.819-.56.1882-1.2039.2837-1.9318.2837l.0015-.0015ZM59.0878 21.3017c-1.8884 0-3.2804-.6396-4.1761-1.9216-.8972-1.2807-1.3443-3.075-1.3443-5.3801 0-2.3051.4486-4.09942 1.3443-5.38004.8971-1.28062 2.2892-1.92166 4.1761-1.92166 1.8869 0 3.2804.64104 4.1761 1.92166.8972 1.28062 1.3443 3.07494 1.3443 5.38004 0 2.3051-.4486 4.0994-1.3443 5.3801-.8971 1.2806-2.2892 1.9216-4.1761 1.9216Zm0-2.4484c.8624 0 1.4601-.3198 1.79-.9608.3299-.6396.4949-1.5338.4949-2.6799v-2.4469c0-1.133-.165-2.0186-.4949-2.6596-.3299-.63963-.9276-.96087-1.79-.96087s-1.4601.31979-1.79.96087c-.3299.641-.4949 1.5266-.4949 2.6596v2.4672c0 1.133.165 2.02.4949 2.6596.3299.641.9276.9608 1.79.9608ZM66.5183 6.94141h4.5509c1.9014 0 3.3108.6063 4.2268 1.82036.9174 1.21405 1.3746 2.96063 1.3746 5.23823 0 2.2776-.4587 4.0256-1.3746 5.2383-.9174 1.214-2.3254 1.8203-4.2268 1.8203h-4.5509V6.94141Zm4.3483 11.73109c.903 0 1.5643-.2894 1.9824-.8697.4182-.5803.6266-1.4224.6266-2.528v-2.5684c0-1.0925-.2098-1.9275-.6266-2.5077-.4181-.58029-1.0794-.8697-1.9824-.8697h-1.3559v9.3449h1.3559v-.0014ZM78.7312 21.0586V6.94141h9.0208v2.48744h-5.9864v3.23555h5.7852v2.4874h-5.7852v3.4179h5.9864v2.4875h-9.0208v.0014ZM90.2278 6.94141h4.551c1.9013 0 3.3107.6063 4.2267 1.82036C99.9229 9.97582 100.38 11.7224 100.38 14c0 2.2776-.4585 4.0256-1.3745 5.2383-.9174 1.214-2.3254 1.8203-4.2267 1.8203h-4.551V6.94141Zm4.3484 11.73109c.9029 0 1.5642-.2894 1.9824-.8697.4182-.5803.6266-1.4224.6266-2.528v-2.5684c0-1.0925-.2099-1.9275-.6266-2.5077-.4182-.58029-1.0795-.8697-1.9824-.8697h-1.3559v9.3449h1.3559v-.0014ZM109.515 21.0586l-.89-3.3976h-3.863l-.87 3.3976h-3.075l3.823-14.11719h4.288l3.823 14.11719h-3.236Zm-2.73-11.18551h-.162l-1.375 5.33951h2.913l-1.375-5.33951h-.001ZM116.956 11.6732h-.223v9.3854h-2.589V6.94141h3.641L121 16.3268h.223V6.94141h2.589V21.0586h-3.641l-3.215-9.3854ZM133.416 19.0559h-.182c-.122.2966-.271.5803-.446.8494-.175.2706-.391.5094-.647.7177-.256.2099-.556.3748-.9.4949-.344.1216-.732.1823-1.163.1823-.688 0-1.298-.162-1.831-.4847-.532-.3241-.981-.7959-1.344-1.4152-.365-.6208-.637-1.3747-.819-2.266-.183-.89-.274-1.8942-.274-3.0142 0-2.4006.439-4.2369 1.314-5.51174.877-1.27483 2.232-1.91152 4.065-1.91152.728 0 1.369.0984 1.922.29375.552.19534 1.027.47173 1.425.82914.398.35742.725.78574.981 1.28496.256.49923.459 1.05201.606 1.65831l-2.832.6873c-.081-.2966-.172-.5831-.273-.8595-.101-.2764-.233-.5224-.395-.73799-.162-.21561-.365-.38781-.606-.51514-.244-.12734-.54-.19246-.89-.19246-.769 0-1.311.3169-1.628.95069-.317.6338-.476 1.5237-.476 2.6698v2.3051c0 1.146.172 2.0635.515 2.7508s.953 1.0317 1.83 1.0317c.688 0 1.2-.2026 1.537-.6063.337-.4051.505-.9232.505-1.557v-1.0317h-2.406v-2.1445h5.116v7.5448h-2.71v-2.0027h.006Z"/><path fill="#3581FA" d="M20.1092 0v3.53943l10.7529 4.34398-10.7529 4.34539v3.538l6.7388-2.7233 3.2819-1.3255 5.0964-2.05908V6.10791L20.1092 0ZM16.0069 0 .87384 6.1137v3.53943L16.0069 15.7668v-3.538L5.254 7.88341l10.7529-4.34398V0Z"/><path fill="#3581FA" d="M30.1226 19.5826v-5.2093l-3.2818 1.3255v5.2093l-8.7907 3.5524-8.79073-3.5524V13.0435L5.97751 11.718v11.404l3.28186 1.3255 4.41053 1.7828L18.0501 28l4.3801-1.7697 4.4106-1.7828 3.2818-1.3255v-3.5394Z"/></g><defs><clipPath id="a"><path fill="#fff" d="M.87384 0h135.252v28H.87384z"/></clipPath></defs></svg>