<svg xmlns="http://www.w3.org/2000/svg" width="146" height="20" fill="none"><g clip-path="url(#a)"><g fill="#171717"><path d="M52.4169 17.4776c-1.9637 0-3.429-.6647-4.3807-1.994-.9516-1.3293-1.4199-3.2024-1.4199-5.61933 0-2.41692.4683-4.29003 1.4199-5.61934.9517-1.3293 2.417-1.99395 4.3807-1.99395 1.9638 0 1.435.10574 2.0242.30211.5891.19638 1.0876.48339 1.5105.86103.423.36254.7704.81571 1.0423 1.3293.2719.5136.4834 1.10272.6496 1.75227l-2.9607.72508c-.0907-.34744-.1813-.67976-.3021-.96677-.1209-.28701-.2568-.54381-.4381-.75529-.1813-.21148-.3928-.37764-.6496-.49849-.2568-.12084-.574-.18127-.9365-.18127-.861 0-1.4653.33233-1.8278.99698-.3626.66465-.5438 1.60121-.5438 2.77946v2.56801c0 1.1782.1812 2.1148.5438 2.7794.3625.6647.9668.997 1.8278.997.861 0 1.2689-.2266 1.5861-.6798.3323-.4531.574-1.0271.7251-1.7371l2.9607.7251c-.1511.6495-.3777 1.2386-.6496 1.7522-.2719.5136-.6193.9668-1.0423 1.3444-.4229.3777-.9214.6647-1.5105.8611-.5892.1963-1.2538.3021-2.0242.3021v-.0302h.0151ZM64.6677 17.4775c-1.9638 0-3.429-.6647-4.3656-2.0091-.9365-1.3293-1.4048-3.2024-1.4048-5.6193 0-2.41692.4683-4.27492 1.4048-5.61933.9366-1.32931 2.3867-2.00907 4.3656-2.00907 1.9788 0 3.429.66466 4.3655 2.00907.9366 1.3293 1.4049 3.20241 1.4049 5.61933 0 2.4169-.4683 4.2749-1.4049 5.6193-.9365 1.3444-2.3867 2.0091-4.3655 2.0091Zm0-2.568c.9063 0 1.5257-.3323 1.8731-.997.3474-.6646.5136-1.6012.5136-2.7945V8.56511c0-1.17824-.1662-2.09969-.5136-2.77945-.3474-.66465-.9668-.99698-1.8731-.99698-.9064 0-1.5257.33233-1.8731.99698-.3475.66465-.5136 1.60121-.5136 2.77945v2.58309c0 1.1782.1661 2.1148.5136 2.7795.3474.6646.9667.9969 1.8731.9969v-.0151ZM72.432 2.47754h4.7583c1.9789 0 3.4592.63444 4.4109 1.90332.9517 1.26888 1.435 3.09668 1.435 5.46828 0 2.37156-.4833 4.19936-1.435 5.46826-.9517 1.2689-2.432 1.9033-4.4109 1.9033H72.432V2.47754Zm4.5317 12.25076c.9366 0 1.6314-.3021 2.0695-.9063.4381-.6043.6496-1.4804.6496-2.6436V8.48962c0-1.14803-.2266-2.00906-.6496-2.61329-.4381-.60423-1.1329-.90634-2.0695-.90634h-1.4199v9.75831h1.4199ZM85.1813 17.2207V2.47754h9.4108v2.59819h-6.2537v3.38368h6.0423v2.59819h-6.0423v3.565h6.2537v2.5981h-9.4108ZM97.1752 2.47754h4.7588c1.978 0 3.459.63444 4.41 1.90332.952 1.26888 1.435 3.09668 1.435 5.46828 0 2.37156-.483 4.19936-1.435 5.46826-.951 1.2689-2.432 1.9033-4.41 1.9033h-4.7588V2.47754Zm4.5468 12.25076c.937 0 1.631-.3021 2.07-.9063.438-.6043.649-1.4804.649-2.6436V8.48962c0-1.14803-.227-2.00906-.649-2.61329-.439-.60423-1.133-.90634-2.07-.90634h-1.42v9.75831h1.42ZM117.311 17.2207l-.936-3.5498h-4.034l-.906 3.5498h-3.202l3.988-14.74316h4.471l3.988 14.74316h-3.384.015Zm-2.84-11.6767h-.166l-1.435 5.574h3.036l-1.435-5.574ZM125.076 7.41712h-.227v9.80358h-2.704V2.47754h3.807l3.353 9.80366h.227V2.47754h2.704V17.2207h-3.807l-3.353-9.80358ZM142.266 15.121h-.197c-.12.3172-.287.6042-.468.8912-.181.2871-.408.5287-.68.7553-.271.2115-.574.3928-.936.5136-.363.1209-.771.1964-1.209.1964-.725 0-1.359-.1662-1.918-.5136-.559-.3323-1.027-.8308-1.405-1.4804-.377-.6495-.664-1.435-.861-2.3716-.196-.9365-.287-1.9788-.287-3.14195 0-2.50756.453-4.42598 1.375-5.75529.921-1.3293 2.326-1.99396 4.244-1.99396 1.919 0 1.435.10574 2.01.30212.574.19637 1.072.49849 1.48.86103.408.36253.755.8157 1.027 1.34441.272.5287.483 1.10271.635 1.73716l-2.961.72507c-.091-.31722-.181-.60423-.287-.89124-.106-.28701-.242-.5438-.408-.77039-.166-.22659-.378-.40785-.635-.54381-.256-.13595-.558-.19637-.936-.19637-.801 0-1.375.33233-1.692.99698-.317.66465-.498 1.5861-.498 2.77945v2.40179c0 1.1934.181 2.1601.543 2.8701.363.71.997 1.0725 1.919 1.0725.921 0 1.254-.2115 1.601-.6344.347-.423.529-.9668.529-1.6314v-1.0725h-2.508V9.33551h5.348v7.87009h-2.825V15.121Z"/></g><path fill="#3581FA" d="M30.9517 8.23263c1.6163-.61934 3.3232-1.43505 5.287-2.55287l-1.858-3.29305c-1.9185 1.08761-3.5499 1.87311-5.1209 2.43202C28.6405 3.39879 28.0514 1.81269 27.4471 0l-3.58 1.19335c.5589 1.67674 1.1178 3.18731 1.6918 4.57704-1.6767.27191-3.4743.37765-5.6646.42296-2.1753-.03021-3.988-.16616-5.6647-.46827.574-1.37463 1.1178-2.87009 1.6767-4.53173L12.3263 0c-.6042 1.78248-1.1783 3.33837-1.7825 4.7432-1.5861-.57402-3.23262-1.34441-5.18126-2.3716L3.59517 5.70997c1.94864 1.0423 3.64048 1.82779 5.2719 2.44713C6.76737 11.7825 4.16918 14.1843 0 16.7976L2.00906 20h.01511c5.03021-3.1722 8.08153-6.1178 10.55893-10.74018 2.1752.46828 4.4562.67976 7.2809.72507h.0303c0-.0151.0302-.0151.0302-.0151 2.8096-.06042 5.0906-.21148 7.296-.66465C29.6828 13.8973 32.7341 16.8429 37.7492 20l2.0091-3.2024c-4.139-2.5982-6.722-4.9849-8.8066-8.56497Z"/></g><defs><clipPath id="a"><path fill="#fff" d="M0 0h145.091v20H0z"/></clipPath></defs></svg>