<svg width="24" height="24" viewBox="0 0 24 24" fill="none" xmlns="http://www.w3.org/2000/svg">
<mask id="path-1-inside-1_103_850" fill="white">
<path fill-rule="evenodd" clip-rule="evenodd" d="M6 3C5.44772 3 5 3.44772 5 4V20C5 20.5523 5.44772 21 6 21H19V8H14V3H6Z"/>
</mask>
<path d="M19 21V22H20V21H19ZM19 8H20V7H19V8ZM14 8H13V9H14V8ZM14 3H15V2H14V3ZM6 4V4V2C4.89543 2 4 2.89543 4 4H6ZM6 20V4H4V20H6ZM6 20H6H4C4 21.1046 4.89543 22 6 22V20ZM19 20H6V22H19V20ZM18 8V21H20V8H18ZM19 7H14V9H19V7ZM15 8V3H13V8H15ZM6 4H14V2H6V4Z" fill="#D9D9D9" mask="url(#path-1-inside-1_103_850)"/>
<path d="M14.5 7.5V4.20711L17.7929 7.5H14.5Z" fill="#D9D9D9" stroke="#D9D9D9" stroke-linecap="round"/>
<path fill-rule="evenodd" clip-rule="evenodd" d="M21 17C21 19.7614 18.7614 22 16 22C13.2386 22 11 19.7614 11 17C11 14.2386 13.2386 12 16 12C18.7614 12 21 14.2386 21 17ZM17 14.5C17 15.0523 16.5523 15.5 16 15.5C15.4477 15.5 15 15.0523 15 14.5C15 13.9477 15.4477 13.5 16 13.5C16.5523 13.5 17 13.9477 17 14.5ZM16.75 20V16.5H15.25V20H16.75Z" fill="#D9D9D9"/>
</svg>
