<svg xmlns="http://www.w3.org/2000/svg" width="14" height="14" fill="none">
      <path
        fill="#619CFB"
        fill-rule="evenodd"
        d="M7 13c3.3137 0 6-2.6863 6-6 0-3.31371-2.6863-6-6-6-3.31371 0-6 2.68629-6 6 0 3.3137 2.68629 6 6 6Zm3.4286-7.6965c.1953-.19526.1953-.51184 0-.7071-.1952-.19526-.51182-.19526-.70708 0L5.97498 8.34294l-1.6965-1.69649c-.19526-.19527-.51184-.19527-.70711 0-.19526.19526-.19526.51184 0 .7071L5.62142 9.4036l.35356.35356.35355-.35356 4.10007-4.1001Z"
        clip-rule="evenodd"
      />
    </svg>