<svg xmlns="http://www.w3.org/2000/svg" width="16" height="16" fill="none">
      <path
        fill="#FF3B2F"
        d="M14 8c0 3.3137-2.6863 6-6 6-3.31371 0-6-2.6863-6-6 0-3.31371 2.68629-6 6-6 3.3137 0 6 2.68629 6 6Z"
      />
      <g stroke="#fff" stroke-linecap="round">
        <path d="m5.75 10.25 4.5-4.5M5.75 10.25l4.5-4.5M5.75 10.25l4.5-4.5M5.75 10.25l4.5-4.5M5.75 10.25l4.5-4.5M10.25 10.25l-4.5-4.5M10.25 10.25l-4.5-4.5M10.25 10.25l-4.5-4.5M10.25 10.25l-4.5-4.5M10.25 10.25l-4.5-4.5" />
      </g>
    </svg>