<svg
  xmlns="http://www.w3.org/2000/svg"
  width="77"
  height="73"
  viewBox="0 0 77 73"
  fill="none"
>
  <g filter="url(#filter0_f_7599_14191)">
    <path
      d="M15.037 34.317C11.938 34.7138 8.56032 35.536 4.55817 36.9293L5.52325 46.4606C9.43017 45.1105 12.6622 44.3101 15.6464 44.0317C15.7591 48.0125 15.7136 52.3861 15.5464 57.3356L22.2949 56.9016C22.4496 52.3234 22.4965 48.1595 22.4399 44.2863C25.4144 44.7988 28.4829 45.8115 32.1676 47.2537C35.7782 48.8736 38.7151 50.4997 41.3174 52.4436C39.4679 55.464 37.5906 58.8072 35.5802 62.5541L40.7808 68.072C42.9452 64.056 44.9122 60.5835 46.8317 57.5093C49.1064 60.0669 51.3545 63.1572 53.9404 67.1024L59.0549 60.0322C56.4789 56.0494 54.1648 52.8892 51.8439 50.1864C57.6992 42.6364 63.5928 38.4917 72.2454 34.9351L70.9694 25.5225L70.9442 25.5118C60.4923 29.8508 53.4897 35.0299 46.3576 44.7979C43.0312 42.0857 39.3617 39.9387 34.677 37.82L34.6266 37.7985C29.8985 35.9542 25.9337 34.7276 21.9593 34.2917C20.8283 21.0917 17.6464 11.5794 11.3244 0.145454L5.89472 6.70498C11.117 16.1231 13.8799 23.9091 15.037 34.317Z"
      fill="#9784E4"
    />
  </g>
  <defs>
    <filter
      id="filter0_f_7599_14191"
      x="0.558594"
      y="-3.85449"
      width="75.6865"
      height="75.9268"
      filterUnits="userSpaceOnUse"
      color-interpolation-filters="sRGB"
    >
      <feFlood flood-opacity="0" result="BackgroundImageFix" />
      <feBlend
        mode="normal"
        in="SourceGraphic"
        in2="BackgroundImageFix"
        result="shape"
      />
      <feGaussianBlur
        stdDeviation="2"
        result="effect1_foregroundBlur_7599_14191"
      />
    </filter>
  </defs>
</svg>
