<svg width="260" height="36" viewBox="0 0 260 36" fill="none" xmlns="http://www.w3.org/2000/svg">
<g clip-path="url(#clip0_29444_24233)">
<path d="M93.9297 31.3209C90.4107 31.3209 87.785 30.1299 86.0797 27.7478C84.3743 25.3657 83.5352 22.0091 83.5352 17.6781C83.5352 13.347 84.3743 9.99039 86.0797 7.6083C87.785 5.2262 90.4107 4.03516 93.9297 4.03516C97.4487 4.03516 96.5013 4.22464 97.557 4.57654C98.6127 4.92844 99.506 5.44276 100.264 6.11949C101.022 6.76915 101.644 7.58123 102.132 8.50158C102.619 9.42193 102.998 10.4776 103.296 11.6416L97.9901 12.9409C97.8277 12.3183 97.6653 11.7228 97.4487 11.2085C97.2322 10.6942 96.9886 10.234 96.6637 9.85504C96.3389 9.47607 95.9599 9.17831 95.4998 8.96176C95.0396 8.7452 94.4711 8.63693 93.8215 8.63693C92.2785 8.63693 91.1957 9.23245 90.5461 10.4235C89.8964 11.6145 89.5716 13.2928 89.5716 15.4042V20.006C89.5716 22.1174 89.8964 23.7957 90.5461 24.9867C91.1957 26.1778 92.2785 26.7733 93.8215 26.7733C95.3644 26.7733 96.0953 26.3673 96.6637 25.5552C97.2593 24.7431 97.6924 23.7145 97.9631 22.4422L103.269 23.7416C102.998 24.9055 102.592 25.9612 102.105 26.8816C101.617 27.8019 100.995 28.614 100.237 29.2908C99.4789 29.9675 98.5856 30.4818 97.5299 30.8337C96.4742 31.1856 95.2832 31.3751 93.9027 31.3751V31.3209H93.9297Z" fill="white"/>
<path d="M115.883 31.3204C112.364 31.3204 109.739 30.1294 108.06 27.7202C106.382 25.3381 105.543 21.9815 105.543 17.6504C105.543 13.3194 106.382 9.98984 108.06 7.58068C109.739 5.19858 112.337 3.98047 115.883 3.98047C119.429 3.98047 122.028 5.17152 123.706 7.58068C125.385 9.96277 126.224 13.3194 126.224 17.6504C126.224 21.9815 125.385 25.311 123.706 27.7202C122.028 30.1294 119.429 31.3204 115.883 31.3204ZM115.883 26.7186C117.508 26.7186 118.617 26.1231 119.24 24.9321C119.863 23.741 120.16 22.0627 120.16 19.9242V15.3495C120.16 13.2381 119.863 11.5869 119.24 10.3688C118.617 9.17776 117.508 8.58224 115.883 8.58224C114.259 8.58224 113.149 9.17776 112.527 10.3688C111.904 11.5599 111.606 13.2381 111.606 15.3495V19.9784C111.606 22.0898 111.904 23.7681 112.527 24.9591C113.149 26.1502 114.259 26.7457 115.883 26.7457V26.7186Z" fill="white"/>
<path d="M129.797 4.44141H138.324C141.87 4.44141 144.523 5.57831 146.228 7.85213C147.933 10.1259 148.799 13.4013 148.799 17.6512C148.799 21.9011 147.933 25.1764 146.228 27.4503C144.523 29.7241 141.87 30.861 138.324 30.861H129.797V4.44141ZM137.918 26.3946C139.596 26.3946 140.841 25.8532 141.626 24.7704C142.411 23.6876 142.79 22.1176 142.79 20.0333V15.215C142.79 13.1577 142.384 11.6148 141.626 10.532C140.841 9.44922 139.596 8.90783 137.918 8.90783H135.373V26.3946H137.918Z" fill="white"/>
<path d="M152.643 30.861V4.44141H169.507V9.09731H158.3V15.1608H169.128V19.8167H158.3V26.2051H169.507V30.861H152.643Z" fill="white"/>
<path d="M174.137 4.44141H182.664C186.21 4.44141 188.862 5.57831 190.568 7.85213C192.273 10.1259 193.139 13.4013 193.139 17.6512C193.139 21.9011 192.273 25.1764 190.568 27.4503C188.862 29.7241 186.21 30.861 182.664 30.861H174.137V4.44141ZM182.285 26.3946C183.963 26.3946 185.208 25.8532 185.993 24.7704C186.778 23.6876 187.157 22.1176 187.157 20.0333V15.215C187.157 13.1577 186.751 11.6148 185.993 10.532C185.208 9.44922 183.963 8.90783 182.285 8.90783H179.74V26.3946H182.285Z" fill="white"/>
<path d="M210.22 30.861L208.541 24.4997H201.314L199.69 30.861H193.951L201.097 4.44141H209.11L216.256 30.861H210.193H210.22ZM205.131 9.93646H204.833L202.261 19.925H207.702L205.131 9.93646Z" fill="white"/>
<path d="M224.132 13.293H223.726V30.861H218.881V4.44141H225.702L231.712 22.0093H232.118V4.44141H236.963V30.861H230.142L224.132 13.293Z" fill="white"/>
<path d="M254.937 27.0976H254.585C254.369 27.666 254.071 28.1804 253.746 28.6947C253.421 29.209 253.015 29.6421 252.528 30.0481C252.041 30.4271 251.5 30.7519 250.85 30.9685C250.2 31.1851 249.469 31.3204 248.684 31.3204C247.385 31.3204 246.248 31.0226 245.247 30.4C244.245 29.8045 243.406 28.9112 242.729 27.7473C242.052 26.5833 241.538 25.1757 241.186 23.4974C240.834 21.8191 240.672 19.9513 240.672 17.867C240.672 13.3735 241.484 9.9357 243.135 7.55361C244.786 5.17151 247.304 3.98047 250.742 3.98047C254.179 3.98047 253.313 4.16995 254.342 4.52185C255.37 4.87375 256.264 5.41514 256.995 6.0648C257.726 6.71446 258.348 7.52654 258.835 8.47396C259.323 9.42138 259.702 10.45 259.972 11.5869L254.667 12.8862C254.504 12.3178 254.342 11.8035 254.152 11.2892C253.963 10.7748 253.719 10.3147 253.421 9.90863C253.124 9.50259 252.745 9.17776 252.285 8.93414C251.824 8.69052 251.283 8.58224 250.606 8.58224C249.172 8.58224 248.143 9.17776 247.575 10.3688C247.006 11.5599 246.681 13.2111 246.681 15.3495V19.6536C246.681 21.792 247.006 23.5245 247.656 24.7967C248.305 26.069 249.442 26.7186 251.094 26.7186C252.745 26.7186 253.34 26.3397 253.963 25.5817C254.585 24.8238 254.91 23.8493 254.91 22.6582V20.7363H250.417V16.7301H259.999V30.8332H254.937V27.0976Z" fill="white"/>
<path d="M55.4649 14.7527C58.3613 13.6429 61.4201 12.1812 64.9391 10.178L61.6096 4.27694C58.1718 6.22592 55.2483 7.63352 52.4331 8.63509C51.3233 6.09058 50.2676 3.24831 49.1848 0L42.7694 2.13847C43.771 5.14315 44.7725 7.85008 45.8011 10.3404C42.7965 10.8277 39.5752 11.0172 35.6502 11.0984C31.7522 11.0442 28.5039 10.8006 25.4992 10.2592C26.5278 7.79594 27.5023 5.11609 28.5039 2.13847L22.0885 0C21.0057 3.19417 19.9771 5.9823 18.8943 8.49974C16.0521 7.47111 13.1015 6.09058 9.60958 4.24987L6.44248 10.2322C9.93441 12.0999 12.9662 13.5075 15.8896 14.6174C12.127 21.114 7.47111 25.418 0 30.101L3.60021 35.8397H3.62728C12.6413 30.1551 18.1093 24.8766 22.5487 16.5934C26.4466 17.4326 30.5341 17.8116 35.596 17.8928H35.6502C35.6502 17.8657 35.7043 17.8657 35.7043 17.8657C40.7392 17.7574 44.8267 17.4867 48.7788 16.6746C53.191 24.9037 58.659 30.1822 67.646 35.8397L71.2462 30.101C63.8293 25.4451 59.2004 21.1681 55.4649 14.7527Z" fill="#3581FA"/>
</g>
<defs>
<clipPath id="clip0_29444_24233">
<rect width="260" height="35.8397" fill="white"/>
</clipPath>
</defs>
</svg>
