<svg
  xmlns="http://www.w3.org/2000/svg"
  width="88"
  height="86"
  viewBox="0 0 88 86"
  fill="none"
>
  <path
    d="M61.5269 22.4325C64.5053 19.0078 67.518 14.8972 70.8368 9.62012L64.1257 1.32101C60.8799 6.46284 58.0053 10.4095 55.0751 13.6067C52.5736 9.85576 50.0008 5.56855 47.2095 0.603395L40.466 7.64379C43.048 12.2366 45.4936 16.3217 47.8726 20.0232C44.4786 22.4438 40.6877 24.4713 35.9998 26.6865C31.2826 28.6567 27.2606 29.9601 23.3955 30.6269C23.5055 25.8829 23.4512 20.7984 23.293 15.1919L14.5905 14.9405C14.7501 20.9592 14.7889 26.257 14.6385 31.1219C10.7458 30.872 6.56155 30.0796 1.51479 28.789L0.442312 40.664C5.50148 42.0007 9.79589 42.7964 13.8236 43.1417C12.2698 56.2087 8.63632 66.0102 1.78746 77.9473L8.75 85.8263L8.78259 85.812C17.0301 71.3509 21.1948 59.4583 22.7449 42.9873C27.8218 42.3555 32.9159 40.8388 39.0467 38.2989L39.1119 38.2703C45.1234 35.4216 49.9727 32.7226 54.3584 29.247C63.4392 40.9421 72.4394 47.0483 85.8495 51.9385L87.5549 40.2497C76.4936 36.2363 68.9623 31.3937 61.5269 22.4325Z"
    fill="#DDD8F8"
  />
</svg>

