<svg xmlns="http://www.w3.org/2000/svg" width="93" height="71" viewBox="0 0 93 71" fill="none">
  <g opacity="0.7" clip-path="url(#clip0_8515_22118)">
    <path d="M66.2688 22.8781C68.897 20.4006 71.5444 17.4722 74.4477 13.757L68.2495 8.87525C65.4096 12.4962 62.8841 15.3064 60.2954 17.6313C57.9737 15.3821 55.5785 12.7882 52.9743 9.76903L47.0114 14.9122C49.4202 17.7049 51.6972 20.177 53.9075 22.4038C50.8871 24.2587 47.5016 25.8888 43.3102 27.7137C39.088 29.381 35.4816 30.5565 32.0059 31.3036C32.0233 28.1952 31.8865 24.8775 31.6471 21.2272L23.7909 21.7639C24.0387 25.6835 24.1651 29.1417 24.1133 32.3324C20.5968 32.4827 16.8078 32.302 12.2321 31.8653L11.4692 39.7104C16.057 40.1762 19.9454 40.3502 23.5853 40.2513C22.4088 48.914 19.2995 55.6106 13.326 63.9616L19.7439 68.5486L19.773 68.5366C26.965 58.4239 30.5175 50.3182 31.632 39.4318C36.2017 38.61 40.7718 37.2088 46.2596 35.0554L46.3179 35.0315C46.3059 35.0023 46.3642 34.9784 46.3642 34.9784C51.739 32.6329 56.0215 30.532 59.9185 27.9078C68.3135 34.8175 76.5393 38.082 88.723 40.197L90.0601 32.4225C80.0108 30.6913 73.1321 28.134 66.2688 22.8781Z" fill="white"/>
  </g>
  <defs>
    <clipPath id="clip0_8515_22118">
      <rect width="82.9629" height="41.7336" fill="white" transform="translate(0 31.541) rotate(-22.3435)"/>
    </clipPath>
  </defs>
</svg>
