<svg
  xmlns="http://www.w3.org/2000/svg"
  width="224"
  height="262"
  viewBox="0 0 224 262"
  fill="none"
>
  <g filter="url(#filter0_f_7599_14186)">
    <path
      d="M181.699 141.204C191.466 142.079 202.374 141.735 215.58 139.932L219.04 107.509C206.154 109.236 195.707 109.611 186.372 108.423C188.707 95.0876 191.791 80.5558 195.636 64.193L174.657 60.8556C171.1 75.9912 168.152 89.8233 165.718 102.761C156.945 98.9466 148.22 93.3999 137.896 85.9862C127.919 78.0336 120.01 70.5375 113.342 62.2201C121.045 53.473 129.051 43.6707 137.737 32.6186L125.51 10.5587C116.171 22.3981 107.803 32.5672 99.8489 41.4441C94.598 31.3153 89.787 19.4317 84.5167 4.462L64.0776 24.3808C69.2925 39.469 74.2583 51.6318 79.5532 62.2769C56.5203 83.2683 35.6627 92.8935 6.74359 98.6051L4.31719 130.853L4.38724 130.906C39.3492 123.864 64.3028 111.581 92.7432 84.108C101.114 95.497 110.917 105.247 123.851 115.622L123.992 115.729C137.244 125.221 148.572 132.115 160.462 136.383C155.041 181.14 158.39 215.07 170.071 257.624L191.132 239.629C181.465 204.567 178.238 176.682 181.699 141.204Z"
      fill="#9784E4"
    />
  </g>
  <defs>
    <filter
      id="filter0_f_7599_14186"
      x="0.317383"
      y="0.461914"
      width="222.723"
      height="261.162"
      filterUnits="userSpaceOnUse"
      color-interpolation-filters="sRGB"
    >
      <feFlood flood-opacity="0" result="BackgroundImageFix" />
      <feBlend
        mode="normal"
        in="SourceGraphic"
        in2="BackgroundImageFix"
        result="shape"
      />
      <feGaussianBlur
        stdDeviation="2"
        result="effect1_foregroundBlur_7599_14186"
      />
    </filter>
  </defs>
</svg>
