<svg version="1.1" viewBox="0 0 99.618 92.147" xml:space="preserve" xmlns="http://www.w3.org/2000/svg"><defs><clipPath id="a"><path d="m0 595.28h841.89v-595.28h-841.89z"/></clipPath></defs><g transform="matrix(1 0 0 -1 -362.26 234.1)"><g clip-path="url(#a)"><g transform="translate(163.26 376.68)"><path d="m248.81-143.58c-26.953 0-48.808-17.256-48.808-38.555 0-13.681 9.052-25.693 22.646-32.549l-4.599-17.167c-0.176-0.527-0.03-1.085 0.352-1.465 0.263-0.265 0.614-0.411 0.995-0.411 0.294 0 0.586 0.117 0.85 0.322l19.775 13.36c2.872-0.41 5.802-0.644 8.789-0.644 26.953 0 48.81 17.255 48.81 38.554 0 21.299-21.857 38.555-48.81 38.555" fill="#3c1e1e"/></g></g></g></svg>
