<svg width="16" height="16" viewBox="0 0 16 16" fill="none" xmlns="http://www.w3.org/2000/svg">
<path d="M3.99919 14.0333V2.63295C3.99954 2.51753 4.03087 2.40439 4.08981 2.30572C4.14874 2.20704 4.23304 2.12656 4.33364 2.07295C4.43424 2.01933 4.54732 1.99461 4.66072 2.00144C4.77412 2.00827 4.88354 2.04639 4.9772 2.11171L13.0805 7.81187C13.4165 8.04811 13.4165 8.61686 13.0805 8.85373L4.9772 14.5539C4.88373 14.6199 4.77426 14.6586 4.66067 14.6658C4.54708 14.673 4.43373 14.6484 4.33292 14.5947C4.2321 14.5411 4.14769 14.4604 4.08886 14.3614C4.03002 14.2624 3.99901 14.1489 3.99919 14.0333Z" fill="white"/>
</svg>
