<svg width="18" height="18" viewBox="0 0 18 18" fill="none" xmlns="http://www.w3.org/2000/svg">
<path d="M8.59297 12.4622L2.61922 6.19261C2.5195 6.08799 2.46387 5.94901 2.46387 5.80448C2.46387 5.65995 2.5195 5.52097 2.61922 5.41636L2.62597 5.40961C2.67432 5.35872 2.73251 5.31819 2.79701 5.2905C2.86151 5.26281 2.93097 5.24853 3.00116 5.24853C3.07135 5.24853 3.14081 5.26281 3.20531 5.2905C3.26981 5.31819 3.328 5.35872 3.37635 5.40961L9.00135 11.3136L14.6241 5.40961C14.6724 5.35872 14.7306 5.31819 14.7951 5.2905C14.8596 5.26281 14.9291 5.24853 14.9993 5.24853C15.0695 5.24853 15.1389 5.26281 15.2034 5.2905C15.2679 5.31819 15.3261 5.35872 15.3745 5.40961L15.3812 5.41636C15.4809 5.52097 15.5366 5.65995 15.5366 5.80448C15.5366 5.94901 15.4809 6.08799 15.3812 6.19261L9.40747 12.4622C9.35494 12.5174 9.29175 12.5613 9.22175 12.5913C9.15175 12.6213 9.07638 12.6367 9.00022 12.6367C8.92406 12.6367 8.8487 12.6213 8.7787 12.5913C8.70869 12.5613 8.64551 12.5174 8.59297 12.4622Z" fill="#B0B0B0"/>
</svg>
