<svg width="18" height="18" viewBox="0 0 18 18" fill="none" xmlns="http://www.w3.org/2000/svg">
<path d="M8.59297 5.42449L2.61922 11.6941C2.5195 11.7987 2.46387 11.9377 2.46387 12.0822C2.46387 12.2268 2.5195 12.3657 2.61922 12.4704L2.62597 12.4771C2.67432 12.528 2.73251 12.5685 2.79701 12.5962C2.86151 12.6239 2.93097 12.6382 3.00116 12.6382C3.07135 12.6382 3.14081 12.6239 3.20531 12.5962C3.26981 12.5685 3.328 12.528 3.37635 12.4771L9.00135 6.57311L14.6241 12.4771C14.6724 12.528 14.7306 12.5685 14.7951 12.5962C14.8596 12.6239 14.9291 12.6382 14.9993 12.6382C15.0695 12.6382 15.1389 12.6239 15.2034 12.5962C15.2679 12.5685 15.3261 12.528 15.3745 12.4771L15.3812 12.4704C15.4809 12.3657 15.5366 12.2268 15.5366 12.0822C15.5366 11.9377 15.4809 11.7987 15.3812 11.6941L9.40747 5.42449C9.35494 5.36935 9.29176 5.32545 9.22175 5.29546C9.15175 5.26547 9.07638 5.25 9.00022 5.25C8.92407 5.25 8.8487 5.26547 8.7787 5.29546C8.70869 5.32545 8.64551 5.36935 8.59297 5.42449Z" fill="#3581FA"/>
</svg>
