<svg width="32" height="32" viewBox="0 0 32 32" fill="none" xmlns="http://www.w3.org/2000/svg">
<path d="M9.74282 16.6233L20.8888 27.2433C21.0748 27.4206 21.3219 27.5195 21.5788 27.5195C21.8358 27.5195 22.0828 27.4206 22.2688 27.2433L22.2808 27.2313C22.3713 27.1454 22.4433 27.0419 22.4926 26.9273C22.5418 26.8126 22.5672 26.6891 22.5672 26.5643C22.5672 26.4396 22.5418 26.3161 22.4926 26.2014C22.4433 26.0867 22.3713 25.9833 22.2808 25.8973L11.7848 15.8973L22.2808 5.90134C22.3713 5.81539 22.4433 5.71194 22.4926 5.59727C22.5418 5.48261 22.5672 5.35913 22.5672 5.23434C22.5672 5.10955 22.5418 4.98607 22.4926 4.87141C22.4433 4.75674 22.3713 4.65329 22.2808 4.56734L22.2688 4.55534C22.0828 4.37805 21.8358 4.27915 21.5788 4.27915C21.3219 4.27915 21.0748 4.37805 20.8888 4.55534L9.74282 15.1753C9.64479 15.2687 9.56675 15.3811 9.51343 15.5055C9.46011 15.63 9.43262 15.7639 9.43262 15.8993C9.43262 16.0347 9.46011 16.1687 9.51343 16.2932C9.56675 16.4176 9.64479 16.5299 9.74282 16.6233Z" fill="black"/>
</svg>
