<svg width="16" height="16" viewBox="0 0 16 16" fill="none" xmlns="http://www.w3.org/2000/svg">
<path d="M11.6662 13.7326V2.93234C11.6658 2.82299 11.6368 2.71581 11.582 2.62233C11.5273 2.52884 11.449 2.4526 11.3556 2.40181C11.2622 2.35102 11.1572 2.32759 11.0519 2.33406C10.9466 2.34053 10.845 2.37665 10.758 2.43853L3.2335 7.83868C2.92152 8.06249 2.92152 8.6013 3.2335 8.82571L10.758 14.2259C10.8448 14.2884 10.9465 14.325 11.0519 14.3318C11.1574 14.3387 11.2627 14.3154 11.3563 14.2646C11.4499 14.2137 11.5283 14.1373 11.5829 14.0435C11.6375 13.9497 11.6663 13.8422 11.6662 13.7326Z" fill="white"/>
</svg>
