<svg xmlns="http://www.w3.org/2000/svg" width="25" height="24" viewBox="0 0 25 24" fill="none">
  <g clip-path="url(#clip0_7117_4426)">
    <path d="M9.58435 4H12.5844L14.5844 6H19.5844C20.1148 6 20.6235 6.21071 20.9986 6.58579C21.3736 6.96086 21.5844 7.46957 21.5844 8V15C21.5844 15.5304 21.3736 16.0391 20.9986 16.4142C20.6235 16.7893 20.1148 17 19.5844 17H9.58435C9.05392 17 8.54521 16.7893 8.17014 16.4142C7.79506 16.0391 7.58435 15.5304 7.58435 15V6C7.58435 5.46957 7.79506 4.96086 8.17014 4.58579C8.54521 4.21071 9.05392 4 9.58435 4Z" stroke="#21272A" stroke-width="2" stroke-linecap="round" stroke-linejoin="round"/>
    <path d="M17.5844 17V19C17.5844 19.5304 17.3736 20.0391 16.9986 20.4142C16.6235 20.7893 16.1148 21 15.5844 21H5.58435C5.05392 21 4.54521 20.7893 4.17014 20.4142C3.79506 20.0391 3.58435 19.5304 3.58435 19V10C3.58435 9.46957 3.79506 8.96086 4.17014 8.58579C4.54521 8.21071 5.05392 8 5.58435 8H7.58435" stroke="#21272A" stroke-width="2" stroke-linecap="round" stroke-linejoin="round"/>
  </g>
  <defs>
    <clipPath id="clip0_7117_4426">
      <rect width="24" height="24" fill="white" transform="translate(0.584351)"/>
    </clipPath>
  </defs>
</svg>
