<svg width="16" height="16" viewBox="0 0 16 16" fill="none" xmlns="http://www.w3.org/2000/svg">
<path d="M1.15332 3.05131C1.15332 2.14126 1.89322 1.40137 2.80327 1.40137H6.92813V4.70126C6.92813 5.15757 7.29679 5.52623 7.7531 5.52623H11.053V9.12517L8.61159 11.5666C8.40019 11.778 8.25066 12.0435 8.17848 12.3323L7.79177 13.8817C7.73248 14.124 7.74537 14.3715 7.82786 14.5984H2.80327C1.89322 14.5984 1.15332 13.8585 1.15332 12.9484V3.05131ZM11.053 4.70126H7.7531V1.40137L11.053 4.70126ZM15.3274 7.47781L15.6986 7.84904C16.1008 8.25122 16.1008 8.90346 15.6986 9.30821L14.9407 10.0662L13.1103 8.23575L13.8682 7.47781C14.2704 7.07563 14.9226 7.07563 15.3274 7.47781ZM9.19423 12.1518L12.5251 8.82096L14.3555 10.6514L11.0246 13.9796C10.9189 14.0853 10.7875 14.1601 10.6405 14.1962L9.0911 14.5829C8.94931 14.619 8.80236 14.5777 8.69924 14.4746C8.59612 14.3715 8.55487 14.2245 8.59096 14.0827L8.97767 12.5333C9.01376 12.389 9.08853 12.2549 9.19423 12.1492V12.1518Z" fill="#8A8A8A"/>
</svg>
