<svg width="20" height="20" viewBox="0 0 20 20" fill="none" xmlns="http://www.w3.org/2000/svg">
<path d="M9.99996 13.3617C9.65486 13.3617 9.37954 13.0737 9.39506 12.729L9.47749 10.8982L7.93753 11.8888C7.64478 12.0771 7.25401 11.9819 7.0808 11.6799C6.90783 11.3784 7.02224 10.9935 7.33182 10.8355L8.96961 9.99923L7.33182 9.163C7.02224 9.00494 6.90783 8.62004 7.0808 8.31853C7.25401 8.0166 7.64478 7.92132 7.93753 8.10963L9.47749 9.10022L9.39506 7.26947C9.37954 6.92471 9.65486 6.63672 9.99996 6.63672C10.3451 6.63672 10.6204 6.92471 10.6049 7.26947L10.5224 9.10022L12.0624 8.10963C12.3551 7.92132 12.7459 8.0166 12.9191 8.31853C13.0921 8.62004 12.9777 9.00494 12.6681 9.163L11.0303 9.99923L12.6681 10.8355C12.9777 10.9935 13.0921 11.3784 12.9191 11.6799C12.7459 11.9819 12.3551 12.0771 12.0624 11.8888L10.5224 10.8982L10.6049 12.729C10.6204 13.0737 10.3451 13.3617 9.99996 13.3617Z" fill="#909799"/>
</svg>
