<svg width="16" height="16" viewBox="0 0 16 16" fill="none" xmlns="http://www.w3.org/2000/svg">
<path fill-rule="evenodd" clip-rule="evenodd" d="M3.33327 2.85706C2.59692 2.85706 2 3.45398 2 4.19032V13.5959C2 14.3322 2.59692 14.9291 3.33327 14.9291H13.6667C14.4031 14.9291 15 14.3322 15 13.5959V4.19032C15 3.45398 14.4031 2.85706 13.6667 2.85706H3.33327ZM11.8163 8.02976C12.1092 7.73686 12.1092 7.26198 11.8163 6.9691C11.5234 6.67621 11.0485 6.67623 10.7557 6.96913L7.57171 10.1532L6.24491 8.82637C5.95203 8.53347 5.47715 8.53345 5.18425 8.82634C4.89135 9.11923 4.89134 9.5941 5.18422 9.887L6.56997 11.2728C7.12321 11.8261 8.02021 11.8261 8.57345 11.2728L11.8163 8.02976Z" fill="#3581FA"/>
<rect x="4.53564" y="0.75" width="2.35714" height="4.21448" rx="1.17857" fill="#3581FA" stroke="white" stroke-width="0.5"/>
<rect x="10.1074" y="0.75" width="2.35714" height="4.21448" rx="1.17857" fill="#3581FA" stroke="white" stroke-width="0.5"/>
</svg>
