<svg width="16" height="16" viewBox="0 0 16 16" fill="none" xmlns="http://www.w3.org/2000/svg">
<g clip-path="url(#clip0_14696_28928)">
<path d="M13.666 1.92871C14.4023 1.92871 14.9999 2.52549 15 3.26172V13.5967C14.9999 14.3329 14.4023 14.9297 13.666 14.9297H2.33301C1.59684 14.9295 1.00009 14.3329 1 13.5967V3.26172C1.00014 2.52558 1.59687 1.92885 2.33301 1.92871H13.666ZM11.5303 6.39844C11.2374 6.10569 10.7626 6.10573 10.4697 6.39844L7 9.86816L5.53027 8.39844L5.47363 8.34668C5.17911 8.10655 4.74429 8.12402 4.46973 8.39844C4.19516 8.67298 4.17781 9.10775 4.41797 9.40234L4.46973 9.45898L5.99805 10.9883L6.10547 11.085C6.66188 11.5391 7.4832 11.507 8.00195 10.9883L11.5303 7.45898C11.823 7.1661 11.823 6.69128 11.5303 6.39844Z" fill="#3581FA"/>
<rect x="3.75" y="-0.320312" width="2.49995" height="4.50033" rx="1.24997" fill="#3581FA" stroke="white" stroke-width="0.5"/>
<rect x="9.75" y="-0.320312" width="2.49995" height="4.50033" rx="1.24997" fill="#3581FA" stroke="white" stroke-width="0.5"/>
</g>
<defs>
<clipPath id="clip0_14696_28928">
<rect width="16" height="16" fill="white"/>
</clipPath>
</defs>
</svg>
