<svg width="20" height="20" viewBox="0 0 20 20" fill="none" xmlns="http://www.w3.org/2000/svg">
<path d="M15.666 3.99902C16.4023 3.99902 16.9999 4.59581 17 5.33203V15.667C16.9999 16.4033 16.4023 17 15.666 17H4.33301C3.59684 16.9999 3.00009 16.4032 3 15.667V5.33203C3.00014 4.59589 3.59687 3.99916 4.33301 3.99902H15.666ZM13.5303 8.46875C13.2374 8.17601 12.7626 8.17604 12.4697 8.46875L9 11.9385L7.53027 10.4688L7.47363 10.417C7.17911 10.1769 6.74429 10.1943 6.46973 10.4688C6.19516 10.7433 6.17781 11.1781 6.41797 11.4727L6.46973 11.5293L7.99805 13.0586L8.10547 13.1553C8.66188 13.6094 9.4832 13.5773 10.002 13.0586L13.5303 9.5293C13.823 9.23641 13.823 8.7616 13.5303 8.46875Z" fill="#3581FA"/>
<rect x="5.75" y="1.75" width="2.49995" height="4.50033" rx="1.24997" fill="#3581FA" stroke="white" stroke-width="0.5"/>
<rect x="11.75" y="1.75" width="2.49995" height="4.50033" rx="1.24997" fill="#3581FA" stroke="white" stroke-width="0.5"/>
</svg>
