<svg width="16" height="16" viewBox="0 0 16 16" fill="none" xmlns="http://www.w3.org/2000/svg">
<g id="20 / Calendar">
<g id="Group 1171275441">
<path id="Subtract" fill-rule="evenodd" clip-rule="evenodd" d="M3.33327 2.85547C2.59692 2.85547 2 3.45239 2 4.18874V13.5943C2 14.3306 2.59692 14.9275 3.33327 14.9275H13.6667C14.4031 14.9275 15 14.3306 15 13.5943V4.18874C15 3.45239 14.4031 2.85547 13.6667 2.85547H3.33327ZM11.8164 8.02641C12.1093 7.73351 12.1092 7.25864 11.8163 6.96575C11.5234 6.67286 11.0486 6.67288 10.7557 6.96578L7.57174 10.1499L6.24494 8.82302C5.95206 8.53012 5.47718 8.53011 5.18428 8.82299C4.89138 9.11588 4.89137 9.59075 5.18426 9.88365L6.57 11.2695C7.12324 11.8227 8.02024 11.8227 8.57348 11.2695L11.8164 8.02641Z" fill="#3581FA"/>
<rect id="Rectangle 41716" x="4.53613" y="0.75" width="2.35714" height="4.21448" rx="1.17857" fill="#3581FA" stroke="white" stroke-width="0.5"/>
<rect id="Rectangle 41717" x="10.1074" y="0.75" width="2.35714" height="4.21448" rx="1.17857" fill="#3581FA" stroke="white" stroke-width="0.5"/>
</g>
</g>
</svg>
