<svg width="18" height="18" viewBox="0 0 18 18" fill="none" xmlns="http://www.w3.org/2000/svg">
<path d="M12.1667 1.5C12.5808 1.50019 12.9167 1.8359 12.9167 2.25V3.83203H13.8337C14.662 3.83225 15.3337 4.50374 15.3337 5.33203V14.207C15.3337 15.0353 14.662 15.7068 13.8337 15.707H4.16675C3.33834 15.707 2.66675 15.0354 2.66675 14.207V5.33203C2.66675 4.50361 3.33833 3.83205 4.16675 3.83203H5.08374V2.25C5.08374 1.83579 5.41953 1.5 5.83374 1.5C6.24779 1.50019 6.58374 1.8359 6.58374 2.25V3.83203H11.4167V2.25C11.4167 1.83589 11.7527 1.50018 12.1667 1.5ZM12.4099 7.39551C12.1171 7.10274 11.6423 7.103 11.3494 7.39551L8.28101 10.4639L6.6521 8.83496C6.35933 8.54219 5.88448 8.54243 5.59155 8.83496C5.29866 9.12785 5.29866 9.60262 5.59155 9.89551L7.75073 12.0547C8.04365 12.3472 8.51851 12.3474 8.81128 12.0547L12.4099 8.45605C12.7023 8.16326 12.7023 7.6883 12.4099 7.39551Z" fill="#3581FA"/>
</svg>
