<svg width="24" height="24" viewBox="0 0 24 24" fill="none" xmlns="http://www.w3.org/2000/svg">
<path d="M6.62891 6.00293C6.62929 7.07551 7.49865 7.94615 8.57129 7.94629C9.64389 7.94611 10.5143 7.07549 10.5146 6.00293V4.85938H13.4863V6.00293C13.4865 7.07568 14.356 7.94615 15.4287 7.94629C16.5015 7.94618 17.3719 7.07569 17.3721 6.00293V4.85938H17.8662C19.0443 4.85938 20 5.81406 20 6.99219V17.584C19.9996 18.7618 19.0441 19.7178 17.8662 19.7178H6.13281C4.95509 19.7175 4.00039 18.7617 4 17.584V6.99219C4.00003 5.8142 4.95487 4.8596 6.13281 4.85938H6.62891V6.00293ZM15.8828 9.13672C15.7485 9.13676 15.6154 9.16514 15.4922 9.21875C15.3691 9.27236 15.2576 9.34997 15.165 9.44727L10.707 14.1299L8.83691 12.166C8.74581 12.0681 8.63654 11.9887 8.51465 11.9336C8.39096 11.8778 8.25677 11.848 8.12109 11.8467C7.98532 11.8455 7.85033 11.8731 7.72559 11.9268C7.60102 11.9804 7.48809 12.059 7.39453 12.1572C7.30114 12.2554 7.22798 12.3716 7.17871 12.498C7.12941 12.6247 7.10434 12.7605 7.10547 12.8965C7.10664 13.0324 7.13414 13.1673 7.18555 13.293C7.23625 13.4169 7.31099 13.5292 7.4043 13.625L7.40332 13.626L9.95801 16.3096C10.0548 16.4113 10.1712 16.4928 10.2998 16.5488C10.4285 16.6048 10.5677 16.6338 10.708 16.6338C10.8482 16.6338 10.9867 16.6047 11.1152 16.5488C11.2439 16.4928 11.3602 16.4113 11.457 16.3096L16.5996 10.9082C16.7863 10.712 16.8886 10.4487 16.8887 10.1777C16.8887 9.90674 16.7863 9.64348 16.5996 9.44727C16.507 9.35001 16.3955 9.27233 16.2725 9.21875C16.1494 9.16527 16.017 9.13677 15.8828 9.13672ZM7.63574 13.4053L10.1904 16.0889L7.63477 13.4053C7.60217 13.3721 7.57253 13.3359 7.54688 13.2969C7.57264 13.3361 7.60295 13.372 7.63574 13.4053ZM7.47754 12.6143C7.46032 12.6585 7.44703 12.7043 7.43848 12.751C7.44695 12.7043 7.45937 12.6584 7.47656 12.6143C7.49381 12.57 7.51578 12.5278 7.54102 12.4883C7.51596 12.5279 7.49477 12.5701 7.47754 12.6143ZM16.3682 9.66797C16.4003 9.70171 16.4293 9.7382 16.4541 9.77734C16.4789 9.81642 16.4995 9.85818 16.5166 9.90137C16.4997 9.85838 16.4787 9.81724 16.4541 9.77832C16.4292 9.73897 16.4004 9.70189 16.3682 9.66797ZM9.71484 6.00293L9.71387 6.00391V4.85938H9.71484V6.00293ZM16.5723 6.00293L16.5713 6.00391V4.85938H16.5723V6.00293Z" fill="#909799"/>
<rect x="7.42773" y="2.57422" width="2.28566" height="4.5718" rx="1.14283" fill="#909799"/>
<rect x="14.2852" y="2.57422" width="2.28566" height="4.5718" rx="1.14283" fill="#909799"/>
</svg>
