<svg width="16" height="16" viewBox="0 0 16 16" fill="none" xmlns="http://www.w3.org/2000/svg">
<path d="M7.06667 8.93333L5.63333 7.5C5.51111 7.37778 5.35556 7.31667 5.16667 7.31667C4.97778 7.31667 4.82222 7.37778 4.7 7.5C4.57778 7.62222 4.51667 7.77778 4.51667 7.96667C4.51667 8.15555 4.57778 8.31111 4.7 8.43333L6.6 10.3333C6.73333 10.4667 6.88889 10.5333 7.06667 10.5333C7.24444 10.5333 7.4 10.4667 7.53333 10.3333L11.3 6.56667C11.4222 6.44444 11.4833 6.28889 11.4833 6.1C11.4833 5.91111 11.4222 5.75555 11.3 5.63333C11.1778 5.51111 11.0222 5.45 10.8333 5.45C10.6444 5.45 10.4889 5.51111 10.3667 5.63333L7.06667 8.93333ZM3.33333 14C2.96667 14 2.65289 13.8696 2.392 13.6087C2.13111 13.3478 2.00044 13.0338 2 12.6667V3.33333C2 2.96667 2.13067 2.65289 2.392 2.392C2.65333 2.13111 2.96711 2.00044 3.33333 2H12.6667C13.0333 2 13.3473 2.13067 13.6087 2.392C13.87 2.65333 14.0004 2.96711 14 3.33333V12.6667C14 13.0333 13.8696 13.3473 13.6087 13.6087C13.3478 13.87 13.0338 14.0004 12.6667 14H3.33333Z" fill="white"/>
</svg>
