<svg width="50" height="50" viewBox="0 0 50 50" fill="none" xmlns="http://www.w3.org/2000/svg">
<path d="M25 3.125C37.0812 3.125 46.875 12.9188 46.875 25C46.875 37.0812 37.0812 46.875 25 46.875C12.9188 46.875 3.125 37.0812 3.125 25C3.125 12.9188 12.9188 3.125 25 3.125ZM35.4072 17.7031C34.492 16.7879 33.0081 16.7879 32.0928 17.7031L22.4678 27.3271L17.9072 22.7666C16.992 21.8515 15.508 21.8515 14.5928 22.7666C13.6775 23.6818 13.6776 25.1657 14.5928 26.0811L19.7061 31.1943C21.2316 32.7198 23.705 32.7198 25.2305 31.1943L35.4072 21.0176C36.3224 20.1023 36.3224 18.6184 35.4072 17.7031Z" fill="#3581FA"/>
</svg>
