<svg viewBox="0 0 24 24" fill="none" xmlns="http://www.w3.org/2000/svg">
<mask id="mask0_21064_8118" style="mask-type:luminance" maskUnits="userSpaceOnUse" x="2" y="2" width="20" height="20">
<path d="M12 21C13.1821 21.0014 14.3528 20.7693 15.445 20.3169C16.5371 19.8645 17.5291 19.2008 18.3639 18.3639C19.2008 17.5291 19.8645 16.5371 20.3169 15.445C20.7693 14.3528 21.0014 13.1821 21 12C21.0014 10.8179 20.7693 9.64714 20.3169 8.55502C19.8645 7.4629 19.2008 6.47093 18.3639 5.6361C17.5291 4.79918 16.5371 4.13545 15.445 3.68307C14.3528 3.23068 13.1821 2.99855 12 3.00001C10.8179 2.99855 9.64714 3.23068 8.55502 3.68307C7.4629 4.13545 6.47093 4.79918 5.6361 5.6361C4.79918 6.47093 4.13545 7.4629 3.68307 8.55502C3.23068 9.64714 2.99855 10.8179 3.00001 12C2.99855 13.1821 3.23068 14.3528 3.68307 15.445C4.13545 16.5371 4.79918 17.5291 5.6361 18.3639C6.47093 19.2008 7.4629 19.8645 8.55502 20.3169C9.64714 20.7693 10.8179 21.0014 12 21Z" fill="white"/>
<path d="M12 2.00098C13.3134 1.99953 14.6147 2.25615 15.8281 2.7588C17.0411 3.26126 18.1429 3.99849 19.0703 4.92774L19.4102 5.28419C20.1813 6.1333 20.8013 7.10995 21.2412 8.17188C21.7437 9.38504 22.0013 10.6859 22 11.999L21.9883 12.4902C21.9332 13.6362 21.6812 14.7659 21.2412 15.8281C20.7388 17.0411 20.0005 18.1419 19.0713 19.0693C18.1435 19.9995 17.0419 20.7384 15.8281 21.2412C14.6147 21.7439 13.3134 22.0005 12 21.999L12.001 22C10.6872 22.0016 9.38564 21.744 8.17188 21.2412C6.95814 20.7384 5.85555 20.0005 4.92774 19.0703V19.0693C3.99871 18.142 3.26117 17.0408 2.7588 15.8281C2.25603 14.6144 1.99842 13.3128 2.00001 11.999C1.99868 10.6859 2.25627 9.38504 2.7588 8.17188C3.2616 6.95814 3.99956 5.85554 4.92969 4.92774C5.85711 3.99849 6.95896 3.26126 8.17188 2.7588C9.38564 2.25603 10.6872 1.99842 12.001 2.00001L12 2.00098ZM11.999 4.00001C10.9487 3.99871 9.90792 4.20546 8.93751 4.60743C7.96724 5.0094 7.08546 5.59922 6.34376 6.34278L6.34278 6.34376C5.59922 7.08546 5.0094 7.96724 4.60743 8.93751C4.20546 9.90792 3.99871 10.9487 4.00001 11.999V12.001C3.99871 13.0514 4.20546 14.0921 4.60743 15.0625C4.95909 15.9113 5.45397 16.6924 6.07032 17.3711L6.34278 17.6563L6.34376 17.6572C7.08546 18.4008 7.96724 18.9906 8.93751 19.3926C9.90792 19.7946 10.9487 20.0013 11.999 20H12.001C13.0514 20.0013 14.0921 19.7946 15.0625 19.3926C16.0328 18.9906 16.9146 18.4008 17.6563 17.6572L17.6572 17.6563C18.4008 16.9146 18.9906 16.0328 19.3926 15.0625C19.7946 14.0921 20.0013 13.0514 20 12.001V11.999C20.0013 10.9487 19.7946 9.90792 19.3926 8.93751C18.9906 7.96724 18.4008 7.08546 17.6572 6.34376L17.6563 6.34278C16.9146 5.59922 16.0328 5.0094 15.0625 4.60743C14.0921 4.20546 13.0514 3.99871 12.001 4.00001H11.999Z" fill="white"/>
<path d="M15.7926 8.59297C16.1831 8.20251 16.8161 8.20263 17.2067 8.59297C17.5972 8.98349 17.5972 9.61651 17.2067 10.007L11.8072 15.4074C11.4168 15.7977 10.7837 15.7976 10.3932 15.4074L7.69299 12.7072C7.3025 12.3167 7.30257 11.6837 7.69299 11.2932C8.08351 10.9026 8.71653 10.9026 9.10705 11.2932L11.0992 13.2854L15.7926 8.59297Z" fill="black"/>
</mask>
<g mask="url(#mask0_21064_8118)">
<path d="M1.19995 1.20007H22.7999V22.8H1.19995V1.20007Z" fill="currentColor"/>
</g>
</svg>
