<svg width="24" height="24" viewBox="0 0 24 24" fill="none" xmlns="http://www.w3.org/2000/svg">
<path fill-rule="evenodd" clip-rule="evenodd" d="M12 20C16.4183 20 20 16.4183 20 12C20 7.58172 16.4183 4 12 4C7.58172 4 4 7.58172 4 12C4 16.4183 7.58172 20 12 20ZM16.4537 9.62015C16.6489 9.42489 16.6489 9.10831 16.4537 8.91305C16.2584 8.71779 15.9418 8.71779 15.7465 8.91305L10.6333 14.0263L8.25346 11.6464C8.05819 11.4512 7.74161 11.4512 7.54635 11.6464C7.35109 11.8417 7.35109 12.1583 7.54635 12.3536L10.2797 15.087L10.6333 15.4405L10.9869 15.087L16.4537 9.62015Z" fill="#35C759"/>
</svg>
