<svg width="24" height="24" viewBox="0 0 24 24" fill="none" xmlns="http://www.w3.org/2000/svg">
<path fill-rule="evenodd" clip-rule="evenodd" d="M8 16C12.4183 16 16 12.4183 16 8C16 3.58172 12.4183 0 8 0C3.58172 0 0 3.58172 0 8C0 12.4183 3.58172 16 8 16ZM12.4537 5.62015C12.6489 5.42489 12.6489 5.10831 12.4537 4.91305C12.2584 4.71779 11.9418 4.71779 11.7465 4.91305L6.6333 10.0263L4.25346 7.64645C4.05819 7.45118 3.74161 7.45118 3.54635 7.64645C3.35109 7.84171 3.35109 8.15829 3.54635 8.35355L6.27975 11.087L6.6333 11.4405L6.98685 11.087L12.4537 5.62015Z" fill="#909799"/>
</svg>
