<svg width="20" height="20" viewBox="0 0 20 20" fill="none" xmlns="http://www.w3.org/2000/svg">
<path d="M10 3C13.866 3 17 6.13401 17 10C17 13.866 13.866 17 10 17C6.13401 17 3 13.866 3 10C3 6.13401 6.13401 3 10 3ZM10 6.25C9.58579 6.25 9.25 6.58579 9.25 7V9.64844L9.25684 9.78516C9.28744 10.1009 9.42301 10.3991 9.64453 10.6299L11.459 12.5195L11.5146 12.5723C11.8043 12.8185 12.2394 12.8099 12.5195 12.541C12.7994 12.2722 12.8256 11.8384 12.5918 11.5391L12.541 11.4805L10.75 9.61426V7C10.75 6.58579 10.4142 6.25 10 6.25Z" fill="#3581FA"/>
</svg>
