<svg width="16" height="16" viewBox="0 0 16 16" fill="none" xmlns="http://www.w3.org/2000/svg">
<path d="M8 1C11.866 1 15 4.13401 15 8C15 11.866 11.866 15 8 15C4.13401 15 1 11.866 1 8C1 4.13401 4.13401 1 8 1ZM8 4.25C7.58579 4.25 7.25 4.58579 7.25 5V7.64844L7.25684 7.78516C7.28744 8.10091 7.42301 8.39913 7.64453 8.62988L9.45898 10.5195L9.51465 10.5723C9.80427 10.8185 10.2394 10.8099 10.5195 10.541C10.7994 10.2722 10.8256 9.83844 10.5918 9.53906L10.541 9.48047L8.75 7.61426V5C8.75 4.58579 8.41421 4.25 8 4.25Z" fill="#FC5555"/>
</svg>
