<svg width="20" height="20" viewBox="0 0 20 20" fill="none" xmlns="http://www.w3.org/2000/svg">
<path d="M10 2C14.4183 2 18 5.58172 18 10C18 14.4183 14.4183 18 10 18C5.58172 18 2 14.4183 2 10C2 5.58172 5.58172 2 10 2ZM10 5.82129C9.58583 5.82129 9.25008 6.15714 9.25 6.57129V9.63672C9.25008 10.0022 9.39152 10.3535 9.64453 10.6172L11.7451 12.8047C12.032 13.1034 12.5059 13.113 12.8047 12.8262C13.1033 12.5394 13.1136 12.0654 12.8271 11.7666L10.75 9.60254V6.57129C10.7499 6.15714 10.4142 5.82129 10 5.82129Z" fill="#FC5555"/>
</svg>
