<svg width="20" height="20" viewBox="0 0 20 20" fill="none" xmlns="http://www.w3.org/2000/svg">
<path d="M13.7501 3.50492C14.8814 4.15806 15.8224 5.09531 16.48 6.22389C17.1377 7.35247 17.4892 8.63325 17.4998 9.93942C17.5103 11.2456 17.1795 12.5319 16.5402 13.6709C15.9008 14.81 14.9751 15.7623 13.8546 16.4337C12.7341 17.105 11.4576 17.472 10.1517 17.4985C8.8457 17.5249 7.55547 17.2098 6.40871 16.5844C5.26195 15.9589 4.29843 15.0448 3.61351 13.9326C2.9286 12.8203 2.54606 11.5485 2.50375 10.2429L2.5 9.99992L2.50375 9.75692C2.54575 8.46166 2.92267 7.19939 3.59774 6.09316C4.27282 4.98694 5.22302 4.07451 6.35572 3.44483C7.48841 2.81515 8.76494 2.48972 10.0608 2.50025C11.3568 2.51078 12.6278 2.85692 13.7501 3.50492ZM10.0001 5.49992C9.81639 5.49994 9.63908 5.56739 9.50181 5.68946C9.36453 5.81152 9.27683 5.97973 9.25533 6.16217L9.25008 6.24992V9.99992L9.25683 10.0982C9.27393 10.2283 9.32488 10.3516 9.40459 10.4559L9.46984 10.5309L11.7199 12.7809L11.7904 12.8424C11.9219 12.9445 12.0836 12.9999 12.2501 12.9999C12.4166 12.9999 12.5783 12.9445 12.7099 12.8424L12.7804 12.7802L12.8426 12.7097C12.9447 12.5781 13.0001 12.4164 13.0001 12.2499C13.0001 12.0834 12.9447 11.9217 12.8426 11.7902L12.7804 11.7197L10.7501 9.68867V6.24992L10.7449 6.16217C10.7234 5.97973 10.6357 5.81152 10.4984 5.68946C10.3611 5.56739 10.1838 5.49994 10.0001 5.49992Z" fill="#909799"/>
</svg>
