<svg width="16" height="16" viewBox="0 0 16 16" fill="none" xmlns="http://www.w3.org/2000/svg">
<g id="16 / CodeLaptop">
<path id="Union" fill-rule="evenodd" clip-rule="evenodd" d="M2.05737 4.41797C2.05737 3.58954 2.72895 2.91797 3.55737 2.91797H12.4425C13.2709 2.91797 13.9425 3.58954 13.9425 4.41797V8.84961C13.9425 9.67804 13.2709 10.3496 12.4425 10.3496H3.55737C2.72895 10.3496 2.05737 9.67804 2.05737 8.84961V4.41797ZM6.37217 6.63525L7.09255 5.91487V5.91254C7.31099 5.69643 7.30866 5.34321 7.09255 5.12477C6.87643 4.90633 6.52321 4.90633 6.30477 5.12477L5.18934 6.2402C4.9709 6.45631 4.9709 6.80953 5.18934 7.02797L6.30477 8.14341C6.52089 8.36185 6.87411 8.35952 7.09255 8.14341C7.31099 7.92729 7.31099 7.57407 7.09255 7.35563L6.37217 6.63525ZM10.8107 6.2402L9.69522 5.12477V5.12709C9.47911 4.90865 9.12589 4.91098 8.90745 5.12709C8.68901 5.34321 8.68901 5.69643 8.90745 5.91487L9.62783 6.63525L8.90745 7.35563C8.68901 7.57175 8.69134 7.92497 8.90745 8.14341C9.12357 8.36185 9.47679 8.36185 9.69522 8.14341L10.8107 7.02797C11.0291 6.81186 11.0291 6.45864 10.8107 6.2402ZM1.00989 11.0977C0.763569 11.0977 0.563721 11.2975 0.563721 11.5438C0.563721 12.5291 1.36311 13.0813 2.34841 13.0813H13.6515C14.6368 13.0813 15.4362 12.5291 15.4362 11.5438C15.4362 11.2975 15.2363 11.0977 14.99 11.0977H1.00989Z" fill="black"/>
</g>
</svg>
