<svg width="24" height="24" viewBox="0 0 24 24" fill="none" xmlns="http://www.w3.org/2000/svg">
<path d="M9.70703 6.70757C9.88919 6.51897 9.98998 6.26636 9.9877 6.00417C9.98543 5.74197 9.88026 5.49116 9.69485 5.30575C9.50944 5.12034 9.25863 5.01517 8.99643 5.0129C8.73423 5.01062 8.48163 5.11141 8.29303 5.29357L2.29303 11.2936C2.10556 11.4811 2.00024 11.7354 2.00024 12.0006C2.00024 12.2657 2.10556 12.52 2.29303 12.7076L8.29303 18.7076C8.48163 18.8897 8.73423 18.9905 8.99643 18.9882C9.25863 18.986 9.50944 18.8808 9.69485 18.6954C9.88026 18.51 9.98543 18.2592 9.9877 17.997C9.98998 17.7348 9.88919 17.4822 9.70703 17.2936L4.41403 12.0006L9.70703 6.70757ZM15.707 5.29357C15.6148 5.19806 15.5044 5.12188 15.3824 5.06947C15.2604 5.01706 15.1292 4.98947 14.9964 4.98832C14.8637 4.98717 14.732 5.01247 14.6091 5.06275C14.4862 5.11303 14.3745 5.18728 14.2806 5.28117C14.1867 5.37507 14.1125 5.48672 14.0622 5.60962C14.0119 5.73251 13.9866 5.86419 13.9878 5.99697C13.9889 6.12975 14.0165 6.26097 14.0689 6.38297C14.1213 6.50498 14.1975 6.61532 14.293 6.70757L19.586 12.0006L14.293 17.2936C14.1109 17.4822 14.0101 17.7348 14.0124 17.997C14.0146 18.2592 14.1198 18.51 14.3052 18.6954C14.4906 18.8808 14.7414 18.986 15.0036 18.9882C15.2658 18.9905 15.5184 18.8897 15.707 18.7076L21.707 12.7076C21.8945 12.52 21.9998 12.2657 21.9998 12.0006C21.9998 11.7354 21.8945 11.4811 21.707 11.2936L15.707 5.29357Z" fill="#474747"/>
</svg>
