<svg width="20" height="20" viewBox="0 0 20 20" fill="none" xmlns="http://www.w3.org/2000/svg">
<path d="M16.0089 15.3043H7.80718C7.39709 15.3043 7.04616 15.1561 6.75437 14.8596C6.46259 14.5632 6.31645 14.2063 6.31595 13.7892V3.18312C6.31595 2.76645 6.46209 2.40989 6.75437 2.11342C7.04665 1.81696 7.39759 1.66847 7.80718 1.66797H12.4113C12.6102 1.66797 12.7998 1.70585 12.9803 1.78161C13.1607 1.85736 13.319 1.96469 13.4552 2.10357L17.0714 5.77781C17.2081 5.9167 17.3138 6.07782 17.3883 6.26115C17.4629 6.44448 17.5002 6.63691 17.5002 6.83842V13.7892C17.5002 14.2058 17.3543 14.5627 17.0625 14.8596C16.7707 15.1566 16.4195 15.3048 16.0089 15.3043ZM16.0089 6.971L12.2809 3.18312V5.83463C12.2809 6.15029 12.3897 6.41872 12.6074 6.63994C12.8252 6.86115 13.0891 6.9715 13.3993 6.971H16.0089ZM4.82472 18.3346C4.41464 18.3346 4.0637 18.1864 3.77192 17.8899C3.48013 17.5935 3.33399 17.2366 3.3335 16.8195V6.971C3.3335 6.75635 3.40508 6.57655 3.54823 6.4316C3.69139 6.28665 3.86835 6.21393 4.07911 6.21342C4.28987 6.21292 4.46708 6.28564 4.61073 6.4316C4.75439 6.57756 4.82572 6.75736 4.82472 6.971V16.8195H12.2809C12.4921 16.8195 12.6693 16.8922 12.8125 17.0377C12.9556 17.1831 13.027 17.3629 13.0265 17.5771C13.026 17.7912 12.9544 17.9712 12.8117 18.1172C12.6691 18.2632 12.4921 18.3356 12.2809 18.3346H4.82472Z" fill="white"/>
</svg>
