<svg width="18" height="18" viewBox="0 0 18 18" fill="none" xmlns="http://www.w3.org/2000/svg">
<path d="M3.60039 13.05V10.0476L7.20759 12.1194C7.75315 12.4327 8.37128 12.5976 9.00039 12.5976C9.62951 12.5976 10.2476 12.4327 10.7932 12.1194L14.4004 10.0476V13.05C14.4005 13.1092 14.3889 13.1677 14.3664 13.2224C14.3439 13.2771 14.3108 13.3268 14.269 13.3686L14.2672 13.3695L14.2654 13.3722L14.2591 13.3776L14.2384 13.3974L14.1664 13.464C14.1034 13.521 14.0131 13.5954 13.8955 13.6872C13.5725 13.9358 13.2289 14.1565 12.8686 14.3469C11.6773 14.9782 10.3486 15.3056 9.00039 15.3C7.65212 15.3053 6.32341 14.9776 5.13219 14.346C4.77215 14.1556 4.42891 13.9349 4.10619 13.6863C3.98762 13.5946 3.87292 13.4979 3.76239 13.3965L3.74169 13.3767C3.69716 13.3348 3.66166 13.2841 3.63737 13.228C3.61307 13.1718 3.60049 13.1112 3.60039 13.05ZM16.8745 7.58974L10.345 11.3382C9.93583 11.5732 9.47223 11.6969 9.00039 11.6969C8.52855 11.6969 8.06496 11.5732 7.65579 11.3382L1.80039 7.97674V12.1491C1.80039 12.2685 1.75298 12.3829 1.66859 12.4673C1.5842 12.5517 1.46974 12.5991 1.35039 12.5991C1.23104 12.5991 1.11658 12.5517 1.03219 12.4673C0.947801 12.3829 0.900391 12.2685 0.900391 12.1491V7.20004C0.900346 7.11891 0.922236 7.03927 0.963746 6.96956C1.00525 6.89985 1.06484 6.84266 1.13619 6.80404L7.65579 3.06004C8.06496 2.82506 8.52855 2.70142 9.00039 2.70142C9.47223 2.70142 9.93583 2.82506 10.345 3.06004L16.8745 6.80944C16.9431 6.84887 17.0001 6.90571 17.0397 6.97421C17.0794 7.04271 17.1003 7.12045 17.1003 7.19959C17.1003 7.27873 17.0794 7.35647 17.0397 7.42497C17.0001 7.49347 16.9431 7.5503 16.8745 7.58974Z" fill="#9B9B9B"/>
</svg>
