<svg width="44" height="44" viewBox="0 0 44 44" fill="none" xmlns="http://www.w3.org/2000/svg">
<path d="M32.9991 6.28516C35.0242 6.28516 36.6661 7.9271 36.6661 9.95215V34.0439C36.6661 36.069 35.0242 37.7109 32.9991 37.7109H11.0021C8.97707 37.7109 7.33508 36.069 7.33508 34.0439V9.95215C7.33508 7.92714 8.97708 6.28521 11.0021 6.28516H32.9991ZM14.9913 26.8877C13.8346 26.8881 12.8967 27.8256 12.8966 28.9824C12.8967 30.1392 13.8347 31.0768 14.9913 31.0771H18.6046C19.7616 31.0771 20.7002 30.1394 20.7003 28.9824C20.7003 27.8254 19.7616 26.8877 18.6046 26.8877H14.9913ZM14.9913 19.9033C13.8346 19.9037 12.8966 20.8412 12.8966 21.998C12.8967 23.1548 13.8347 24.0924 14.9913 24.0928H29.0089C30.1659 24.0928 31.1045 23.155 31.1046 21.998C31.1046 20.841 30.166 19.9033 29.0089 19.9033H14.9913ZM14.9913 12.9199C13.8346 12.9203 12.8966 13.8588 12.8966 15.0156C12.8969 16.1722 13.8348 17.11 14.9913 17.1104H23.8068C24.9636 17.1104 25.9021 16.1724 25.9025 15.0156C25.9025 13.8586 24.9638 12.9199 23.8068 12.9199H14.9913Z" fill="#3581FA"/>
</svg>
