<svg width="24" height="24" viewBox="0 0 24 24" fill="none" xmlns="http://www.w3.org/2000/svg">
<path d="M12 17C12.5304 17 13.0391 17.2107 13.4142 17.5858C13.7893 17.9609 14 18.4696 14 19C14 19.5304 13.7893 20.0391 13.4142 20.4142C13.0391 20.7893 12.5304 21 12 21C11.4696 21 10.9609 20.7893 10.5858 20.4142C10.2107 20.0391 10 19.5304 10 19C10 18.4696 10.2107 17.9609 10.5858 17.5858C10.9609 17.2107 11.4696 17 12 17ZM12 10C12.5304 10 13.0391 10.2107 13.4142 10.5858C13.7893 10.9609 14 11.4696 14 12C14 12.5304 13.7893 13.0391 13.4142 13.4142C13.0391 13.7893 12.5304 14 12 14C11.4696 14 10.9609 13.7893 10.5858 13.4142C10.2107 13.0391 10 12.5304 10 12C10 11.4696 10.2107 10.9609 10.5858 10.5858C10.9609 10.2107 11.4696 10 12 10ZM12 3C12.5304 3 13.0391 3.21071 13.4142 3.58579C13.7893 3.96086 14 4.46957 14 5C14 5.53043 13.7893 6.03914 13.4142 6.41421C13.0391 6.78929 12.5304 7 12 7C11.4696 7 10.9609 6.78929 10.5858 6.41421C10.2107 6.03914 10 5.53043 10 5C10 4.46957 10.2107 3.96086 10.5858 3.58579C10.9609 3.21071 11.4696 3 12 3Z" fill="#474747"/>
</svg>
