<svg width="20" height="20" viewBox="0 0 20 20" fill="none" xmlns="http://www.w3.org/2000/svg">
<path d="M9.99984 18.3332C8.84706 18.3332 7.76373 18.1143 6.74984 17.6765C5.73595 17.2387 4.854 16.6451 4.10401 15.8957C3.354 15.1462 2.76039 14.2643 2.32317 13.2498C1.88595 12.2354 1.66706 11.1521 1.6665 9.99984C1.66595 8.84761 1.88484 7.76428 2.32317 6.74984C2.76151 5.73539 3.35512 4.85345 4.10401 4.104C4.85289 3.35456 5.73484 2.76095 6.74984 2.32317C7.76484 1.88539 8.84817 1.6665 9.99984 1.6665C11.1515 1.6665 12.2348 1.88539 13.2498 2.32317C14.2648 2.76095 15.1468 3.35456 15.8957 4.104C16.6446 4.85345 17.2384 5.73539 17.6773 6.74984C18.1162 7.76428 18.3348 8.84761 18.3332 9.99984V11.2082C18.3332 12.0276 18.0521 12.7257 17.4898 13.3023C16.9276 13.879 16.2365 14.1671 15.4165 14.1665C14.9304 14.1665 14.4721 14.0623 14.0415 13.854C13.6109 13.6457 13.2498 13.3471 12.9582 12.9582C12.5554 13.3609 12.1004 13.6632 11.5932 13.8648C11.0859 14.0665 10.5548 14.1671 9.99984 14.1665C8.84706 14.1665 7.86456 13.7601 7.05234 12.9473C6.24012 12.1346 5.83373 11.1521 5.83317 9.99984C5.83262 8.84761 6.23901 7.86512 7.05234 7.05234C7.86567 6.23956 8.84817 5.83317 9.99984 5.83317C11.1515 5.83317 12.1343 6.23956 12.9482 7.05234C13.7621 7.86512 14.1682 8.84761 14.1665 9.99984V11.2082C14.1665 11.5693 14.2846 11.8748 14.5207 12.1248C14.7568 12.3748 15.0554 12.4998 15.4165 12.4998C15.7776 12.4998 16.0762 12.3748 16.3123 12.1248C16.5485 11.8748 16.6665 11.5693 16.6665 11.2082V9.99984C16.6665 8.13873 16.0207 6.56234 14.729 5.27067C13.4373 3.979 11.8609 3.33317 9.99984 3.33317C8.13873 3.33317 6.56234 3.979 5.27067 5.27067C3.979 6.56234 3.33317 8.13873 3.33317 9.99984C3.33317 11.8609 3.979 13.4373 5.27067 14.729C6.56234 16.0207 8.13873 16.6665 9.99984 16.6665H13.3332C13.5693 16.6665 13.7673 16.7465 13.9273 16.9065C14.0873 17.0665 14.1671 17.2643 14.1665 17.4998C14.1659 17.7354 14.0859 17.9334 13.9265 18.094C13.7671 18.2546 13.5693 18.3343 13.3332 18.3332H9.99984ZM9.99984 12.4998C10.6943 12.4998 11.2846 12.2568 11.7707 11.7707C12.2568 11.2846 12.4998 10.6943 12.4998 9.99984C12.4998 9.30539 12.2568 8.71512 11.7707 8.229C11.2846 7.74289 10.6943 7.49984 9.99984 7.49984C9.30539 7.49984 8.71512 7.74289 8.229 8.229C7.74289 8.71512 7.49984 9.30539 7.49984 9.99984C7.49984 10.6943 7.74289 11.2846 8.229 11.7707C8.71512 12.2568 9.30539 12.4998 9.99984 12.4998Z" fill="#474747"/>
</svg>
