<?xml version="1.0" encoding="UTF-8"?>
<!DOCTYPE svg PUBLIC "-//W3C//DTD SVG 1.1//EN" "http://www.w3.org/Graphics/SVG/1.1/DTD/svg11.dtd">
<svg xmlns="http://www.w3.org/2000/svg" version="1.1" width="1024px" height="1024px" style="shape-rendering:geometricPrecision; text-rendering:geometricPrecision; image-rendering:optimizeQuality; fill-rule:evenodd; clip-rule:evenodd" xmlns:xlink="http://www.w3.org/1999/xlink">
<g><path style="opacity:0.004" fill="#050605" d="M 259.5,141.5 C 260.833,142.167 260.833,142.167 259.5,141.5 Z"/></g>
<g><path style="opacity:0.004" fill="#252322" d="M 504.5,143.5 C 505.525,143.897 505.692,144.563 505,145.5C 504.536,144.906 504.369,144.239 504.5,143.5 Z"/></g>
<g><path style="opacity:0.008" fill="#242423" d="M 506.5,144.5 C 506.897,143.475 507.563,143.308 508.5,144C 507.906,144.464 507.239,144.631 506.5,144.5 Z"/></g>
<g><path style="opacity:0.008" fill="#242423" d="M 515.5,143.5 C 516.833,144.167 516.833,144.167 515.5,143.5 Z"/></g>
<g><path style="opacity:0.004" fill="#242322" d="M 500.5,144.5 C 501.833,145.167 501.833,145.167 500.5,144.5 Z"/></g>
<g><path style="opacity:0.008" fill="#242321" d="M 503.5,146.5 C 502.833,145.167 502.833,145.167 503.5,146.5 Z"/></g>
<g><path style="opacity:0.004" fill="#242623" d="M 525.5,151.5 C 526.833,152.167 526.833,152.167 525.5,151.5 Z"/></g>
<g><path style="opacity:0.008" fill="#252423" d="M 496.5,153.5 C 495.833,152.167 495.833,152.167 496.5,153.5 Z"/></g>
<g><path style="opacity:0.004" fill="#252623" d="M 493.5,201.5 C 494.833,202.167 494.833,202.167 493.5,201.5 Z"/></g>
<g><path style="opacity:0.004" fill="#252524" d="M 278.5,216.5 C 279.833,217.167 279.833,217.167 278.5,216.5 Z"/></g>
<g><path style="opacity:0.004" fill="#252524" d="M 750.5,216.5 C 751.773,217.077 751.773,217.743 750.5,218.5C 749.537,218.03 749.537,217.363 750.5,216.5 Z"/></g>
<g><path style="opacity:0.004" fill="#242325" d="M 758.5,216.5 C 759.833,217.167 759.833,217.167 758.5,216.5 Z"/></g>
<g><path style="opacity:0.004" fill="#262623" d="M 261.5,217.5 C 262.833,218.167 262.833,218.167 261.5,217.5 Z"/></g>
<g><path style="opacity:0.008" fill="#252424" d="M 271.5,218.5 C 271.897,217.475 272.563,217.308 273.5,218C 272.906,218.464 272.239,218.631 271.5,218.5 Z"/></g>
<g><path style="opacity:0.008" fill="#232221" d="M 752.5,218.5 C 752.897,217.475 753.563,217.308 754.5,218C 753.906,218.464 753.239,218.631 752.5,218.5 Z"/></g>
<g><path style="opacity:0.02" fill="#242523" d="M 758.5,217.5 C 758.103,218.525 757.437,218.692 756.5,218C 757.094,217.536 757.761,217.369 758.5,217.5 Z"/></g>
<g><path style="opacity:0.004" fill="#212221" d="M 255.5,218.5 C 256.833,219.167 256.833,219.167 255.5,218.5 Z"/></g>
<g><path style="opacity:0.004" fill="#282825" d="M 744.5,219.5 C 745.833,220.167 745.833,220.167 744.5,219.5 Z"/></g>
<g><path style="opacity:0.008" fill="#272525" d="M 278.5,221.5 C 278.369,220.761 278.536,220.094 279,219.5C 279.692,220.437 279.525,221.103 278.5,221.5 Z"/></g>
<g><path style="opacity:0.008" fill="#252525" d="M 255.5,223.5 C 256.833,224.167 256.833,224.167 255.5,223.5 Z"/></g>
<g><path style="opacity:0.02" fill="#282926" d="M 282.5,223.5 C 283.833,224.167 283.833,224.167 282.5,223.5 Z"/></g>
<g><path style="opacity:0.004" fill="#252422" d="M 736.5,223.5 C 737.833,224.167 737.833,224.167 736.5,223.5 Z"/></g>
<g><path style="opacity:0.004" fill="#252323" d="M 741.5,224.5 C 740.833,223.167 740.833,223.167 741.5,224.5 Z"/></g>
<g><path style="opacity:0.012" fill="#292926" d="M 766.5,223.5 C 767.833,224.167 767.833,224.167 766.5,223.5 Z"/></g>
<g><path style="opacity:0.004" fill="#262526" d="M 285.5,224.5 C 286.833,225.167 286.833,225.167 285.5,224.5 Z"/></g>
<g><path style="opacity:0.004" fill="#262624" d="M 735.5,225.5 C 736.525,225.897 736.692,226.563 736,227.5C 735.536,226.906 735.369,226.239 735.5,225.5 Z"/></g>
<g><path style="opacity:0.004" fill="#272625" d="M 290.5,231.5 C 291.833,232.167 291.833,232.167 290.5,231.5 Z"/></g>
<g><path style="opacity:0.004" fill="#262924" d="M 730.5,232.5 C 731.833,233.167 731.833,233.167 730.5,232.5 Z"/></g>
<g><path style="opacity:0.008" fill="#272824" d="M 727.5,234.5 C 728.833,235.167 728.833,235.167 727.5,234.5 Z"/></g>
<g><path style="opacity:0.004" fill="#262624" d="M 251.5,239.5 C 252.833,240.167 252.833,240.167 251.5,239.5 Z"/></g>
<g><path style="opacity:0.004" fill="#272725" d="M 721.5,239.5 C 722.833,240.167 722.833,240.167 721.5,239.5 Z"/></g>
<g><path style="opacity:0.004" fill="#292625" d="M 300.5,240.5 C 301.833,241.167 301.833,241.167 300.5,240.5 Z"/></g>
<g><path style="opacity:0.004" fill="#262925" d="M 721.5,240.5 C 721.5,240.833 721.5,241.167 721.5,241.5C 720.83,241.019 720.83,240.685 721.5,240.5 Z"/></g>
<g><path style="opacity:0.004" fill="#272825" d="M 493.5,241.5 C 494.833,242.167 494.833,242.167 493.5,241.5 Z"/></g>
<g><path style="opacity:0.014" fill="#282826" d="M 721.5,241.5 C 722.492,241.328 723.158,241.662 723.5,242.5C 722.833,242.5 722.5,242.833 722.5,243.5C 721.662,243.158 721.328,242.492 721.5,241.5 Z"/></g>
<g><path style="opacity:0.008" fill="#262826" d="M 719.5,242.5 C 720.833,243.167 720.833,243.167 719.5,242.5 Z"/></g>
<g><path style="opacity:0.997" fill="#181918" d="M 766.5,224.5 C 770.743,230.546 771.243,236.879 768,243.5C 765.898,245.095 764.398,247.095 763.5,249.5C 758.167,252.833 753.833,257.167 750.5,262.5C 746.948,264.263 744.281,266.93 742.5,270.5C 739.5,272.833 736.833,275.5 734.5,278.5C 731.5,280.833 728.833,283.5 726.5,286.5C 723.5,288.833 720.833,291.5 718.5,294.5C 717.167,295.167 716.167,296.167 715.5,297.5C 713.5,298.833 711.833,300.5 710.5,302.5C 709.167,303.167 708.167,304.167 707.5,305.5C 705.5,306.833 703.833,308.5 702.5,310.5C 699.5,312.833 696.833,315.5 694.5,318.5C 684.572,329.144 674.739,329.144 665,318.5C 662.575,313.852 662.242,309.185 664,304.5C 670.455,297.558 676.622,290.558 682.5,283.5C 684.19,283.144 685.19,282.144 685.5,280.5C 687.833,279.5 689.5,277.833 690.5,275.5C 697.167,269.5 703.5,263.167 709.5,256.5C 712.167,254.5 714.5,252.167 716.5,249.5C 718.833,247.833 720.833,245.833 722.5,243.5C 723.167,243.5 723.5,243.167 723.5,242.5C 729.833,236.833 735.833,230.833 741.5,224.5C 749.833,217.833 758.167,217.833 766.5,224.5 Z"/></g>
<g><path style="opacity:0.999" fill="#181918" d="M 525.5,152.5 C 525.892,154.179 526.392,155.846 527,157.5C 527.667,195.833 527.667,234.167 527,272.5C 524.13,279.371 518.964,283.537 511.5,285C 513.901,285.805 513.734,286.638 511,287.5C 509.312,286.675 509.145,285.675 510.5,284.5C 505.926,283.546 501.926,281.546 498.5,278.5C 498.167,277.167 497.833,277.167 497.5,278.5C 495.899,279.643 495.233,278.976 495.5,276.5C 495.176,235.622 495.509,194.622 496.5,153.5C 498.614,150.93 500.947,148.597 503.5,146.5C 507.363,146.397 510.196,145.397 512,143.5C 513.722,143.611 513.888,144.111 512.5,145C 514.878,145.511 517.212,146.178 519.5,147C 521.37,149.04 523.37,150.873 525.5,152.5 Z"/></g>
<g><path style="opacity:0.008" fill="#2a2826" d="M 766.5,246.5 C 767.833,247.167 767.833,247.167 766.5,246.5 Z"/></g>
<g><path style="opacity:0.008" fill="#262928" d="M 716.5,249.5 C 715.833,248.167 715.833,248.167 716.5,249.5 Z"/></g>
<g><path style="opacity:0.004" fill="#282827" d="M 259.5,249.5 C 258.833,250.167 258.833,250.167 259.5,249.5 Z"/></g>
<g><path style="opacity:0.004" fill="#282a25" d="M 711.5,249.5 C 712.833,250.167 712.833,250.167 711.5,249.5 Z"/></g>
<g><path style="opacity:0.004" fill="#2a2826" d="M 763.5,249.5 C 764.833,250.167 764.833,250.167 763.5,249.5 Z"/></g>
<g><path style="opacity:0.004" fill="#292828" d="M 313.5,256.5 C 313.897,255.475 314.563,255.308 315.5,256C 314.906,256.464 314.239,256.631 313.5,256.5 Z"/></g>
<g><path style="opacity:0.012" fill="#282725" d="M 709.5,256.5 C 708.833,255.167 708.833,255.167 709.5,256.5 Z"/></g>
<g><path style="opacity:0.004" fill="#282926" d="M 264.5,257.5 C 265.833,258.167 265.833,258.167 264.5,257.5 Z"/></g>
<g><path style="opacity:0.004" fill="#31302f" d="M 272.5,262.5 C 271.833,263.167 271.833,263.167 272.5,262.5 Z"/></g>
<g><path style="opacity:0.012" fill="#302c2c" d="M 750.5,262.5 C 751.833,263.167 751.833,263.167 750.5,262.5 Z"/></g>
<g><path style="opacity:0.004" fill="#2b2c27" d="M 322.5,264.5 C 323.833,265.167 323.833,265.167 322.5,264.5 Z"/></g>
<g><path style="opacity:0.008" fill="#282a29" d="M 275.5,265.5 C 274.833,266.167 274.833,266.167 275.5,265.5 Z"/></g>
<g><path style="opacity:0.004" fill="#282929" d="M 695.5,266.5 C 696.833,267.167 696.833,267.167 695.5,266.5 Z"/></g>
<g><path style="opacity:0.004" fill="#2c2b29" d="M 742.5,270.5 C 743.833,271.167 743.833,271.167 742.5,270.5 Z"/></g>
<g><path style="opacity:0.004" fill="#2a2b29" d="M 330.5,272.5 C 331.833,273.167 331.833,273.167 330.5,272.5 Z"/></g>
<g><path style="opacity:0.004" fill="#2a2b28" d="M 281.5,274.5 C 282.833,275.167 282.833,275.167 281.5,274.5 Z"/></g>
<g><path style="opacity:0.004" fill="#2a2a29" d="M 284.5,274.5 C 283.833,275.167 283.833,275.167 284.5,274.5 Z"/></g>
<g><path style="opacity:0.008" fill="#2a292a" d="M 687.5,274.5 C 688.833,275.167 688.833,275.167 687.5,274.5 Z"/></g>
<g><path style="opacity:0.008" fill="#292a28" d="M 690.5,275.5 C 689.475,275.103 689.308,274.437 690,273.5C 690.464,274.094 690.631,274.761 690.5,275.5 Z"/></g>
<g><path style="opacity:0.004" fill="#2c2b28" d="M 687.5,276.5 C 688.833,277.167 688.833,277.167 687.5,276.5 Z"/></g>
<g><path style="opacity:0.004" fill="#2a2a28" d="M 283.5,277.5 C 284.833,278.167 284.833,278.167 283.5,277.5 Z"/></g>
<g><path style="opacity:0.016" fill="#302e2d" d="M 497.5,278.5 C 497.833,278.5 498.167,278.5 498.5,278.5C 498.315,279.17 497.981,279.17 497.5,278.5 Z"/></g>
<g><path style="opacity:0.008" fill="#2c2c2b" d="M 734.5,278.5 C 735.833,279.167 735.833,279.167 734.5,278.5 Z"/></g>
<g><path style="opacity:0.004" fill="#2b2a2b" d="M 685.5,280.5 C 684.833,279.167 684.833,279.167 685.5,280.5 Z"/></g>
<g><path style="opacity:0.004" fill="#2c2b2a" d="M 340.5,280.5 C 341.833,281.167 341.833,281.167 340.5,280.5 Z"/></g>
<g><path style="opacity:0.004" fill="#292a27" d="M 291.5,281.5 C 290.833,282.167 290.833,282.167 291.5,281.5 Z"/></g>
<g><path style="opacity:0.004" fill="#2b2a29" d="M 682.5,283.5 C 681.448,283.649 680.448,283.483 679.5,283C 680.749,282.26 681.749,282.427 682.5,283.5 Z"/></g>
<g><path style="opacity:0.016" fill="#2d2c2a" d="M 518.5,283.5 C 519.833,284.167 519.833,284.167 518.5,283.5 Z"/></g>
<g><path style="opacity:0.008" fill="#2f2d2d" d="M 505.5,285.5 C 505.897,284.475 506.563,284.308 507.5,285C 506.906,285.464 506.239,285.631 505.5,285.5 Z"/></g>
<g><path style="opacity:0.004" fill="#2d2b2c" d="M 296.5,286.5 C 295.833,287.167 295.833,287.167 296.5,286.5 Z"/></g>
<g><path style="opacity:0.008" fill="#2c2e2b" d="M 726.5,286.5 C 727.833,287.167 727.833,287.167 726.5,286.5 Z"/></g>
<g><path style="opacity:0.004" fill="#2a2e2b" d="M 350.5,287.5 C 351.833,288.167 351.833,288.167 350.5,287.5 Z"/></g>
<g><path style="opacity:0.004" fill="#2a2a2a" d="M 676.5,287.5 C 677.833,288.167 677.833,288.167 676.5,287.5 Z"/></g>
<g><path style="opacity:0.012" fill="#2c2b28" d="M 346.5,288.5 C 347.833,289.167 347.833,289.167 346.5,288.5 Z"/></g>
<g><path style="opacity:0.004" fill="#2b2c29" d="M 671.5,290.5 C 672.833,291.167 672.833,291.167 671.5,290.5 Z"/></g>
<g><path style="opacity:0.016" fill="#2a2a27" d="M 718.5,294.5 C 719.833,295.167 719.833,295.167 718.5,294.5 Z"/></g>
<g><path style="opacity:0.008" fill="#2f2e29" d="M 353.5,295.5 C 354.833,296.167 354.833,296.167 353.5,295.5 Z"/></g>
<g><path style="opacity:0.004" fill="#2c2b2a" d="M 668.5,295.5 C 669.833,296.167 669.833,296.167 668.5,295.5 Z"/></g>
<g><path style="opacity:0.004" fill="#2b2c2a" d="M 307.5,297.5 C 306.833,298.167 306.833,298.167 307.5,297.5 Z"/></g>
<g><path style="opacity:0.004" fill="#2d2c2a" d="M 355.5,297.5 C 356.833,298.167 356.833,298.167 355.5,297.5 Z"/></g>
<g><path style="opacity:0.004" fill="#2a2a29" d="M 715.5,297.5 C 716.833,298.167 716.833,298.167 715.5,297.5 Z"/></g>
<g><path style="opacity:0.004" fill="#2d2e2a" d="M 663.5,298.5 C 664.833,299.167 664.833,299.167 663.5,298.5 Z"/></g>
<g><path style="opacity:0.004" fill="#2d2f2c" d="M 358.5,300.5 C 359.833,301.167 359.833,301.167 358.5,300.5 Z"/></g>
<g><path style="opacity:0.004" fill="#2e2d2c" d="M 710.5,302.5 C 711.833,303.167 711.833,303.167 710.5,302.5 Z"/></g>
<g><path style="opacity:0.004" fill="#2c2c2a" d="M 707.5,305.5 C 708.833,306.167 708.833,306.167 707.5,305.5 Z"/></g>
<g><path style="opacity:0.004" fill="#2c2b29" d="M 314.5,308.5 C 315.833,309.167 315.833,309.167 314.5,308.5 Z"/></g>
<g><path style="opacity:1" fill="#181918" d="M 278.5,221.5 C 279.436,222.974 280.77,223.974 282.5,224.5C 284.263,228.052 286.93,230.719 290.5,232.5C 297.802,240.803 305.469,248.803 313.5,256.5C 316.167,259.833 319.167,262.833 322.5,265.5C 324.833,268.5 327.5,271.167 330.5,273.5C 335.5,279.167 340.833,284.5 346.5,289.5C 348.5,292.167 350.833,294.5 353.5,296.5C 353.833,297.5 354.5,298.167 355.5,298.5C 363.866,310.425 361.533,319.592 348.5,326C 345.5,326.667 342.5,326.667 339.5,326C 337.114,324.807 334.78,323.64 332.5,322.5C 329.5,318.833 326.167,315.5 322.5,312.5C 317.833,307.167 312.833,302.167 307.5,297.5C 304.167,293.5 300.5,289.833 296.5,286.5C 295.167,284.5 293.5,282.833 291.5,281.5C 289.5,278.833 287.167,276.5 284.5,274.5C 281.833,271.167 278.833,268.167 275.5,265.5C 274.833,264.167 273.833,263.167 272.5,262.5C 268.5,257.833 264.167,253.5 259.5,249.5C 251.892,240.969 251.559,232.135 258.5,223C 264.927,218.99 271.594,218.49 278.5,221.5 Z"/></g>
<g><path style="opacity:0.012" fill="#2f312e" d="M 702.5,310.5 C 703.833,311.167 703.833,311.167 702.5,310.5 Z"/></g>
<g><path style="opacity:0.012" fill="#2f2d2c" d="M 471.5,312.5 C 473.288,311.378 475.288,311.211 477.5,312C 475.527,312.495 473.527,312.662 471.5,312.5 Z"/></g>
<g><path style="opacity:0.004" fill="#2f2c29" d="M 557.5,311.5 C 558.833,312.167 558.833,312.167 557.5,311.5 Z"/></g>
<g><path style="opacity:0.004" fill="#2a2b2a" d="M 322.5,312.5 C 321.833,313.167 321.833,313.167 322.5,312.5 Z"/></g>
<g><path style="opacity:0.01" fill="#2d2d2a" d="M 467.5,313.5 C 467.897,312.475 468.563,312.308 469.5,313C 468.906,313.464 468.239,313.631 467.5,313.5 Z"/></g>
<g><path style="opacity:0.006" fill="#2e2d2c" d="M 557.5,312.5 C 556.749,313.573 555.749,313.74 554.5,313C 555.448,312.517 556.448,312.351 557.5,312.5 Z"/></g>
<g><path style="opacity:0.004" fill="#2f2e2c" d="M 463.5,314.5 C 463.897,313.475 464.563,313.308 465.5,314C 464.906,314.464 464.239,314.631 463.5,314.5 Z"/></g>
<g><path style="opacity:0.999" fill="#161615" d="M 558.5,314.5 C 565.667,317.292 573,319.125 580.5,320C 579.833,320.333 579.167,320.667 578.5,321C 580.436,321.813 582.436,322.313 584.5,322.5C 588.53,324.597 592.697,326.597 597,328.5C 597.414,328.043 597.914,327.709 598.5,327.5C 598.109,328.891 598.942,329.891 601,330.5C 601.333,329.833 601.667,329.167 602,328.5C 602.236,330.119 603.069,331.119 604.5,331.5C 604.842,332.338 605.508,332.672 606.5,332.5C 608.663,334.083 610.996,335.416 613.5,336.5C 614.514,337.674 615.847,338.34 617.5,338.5C 619.946,341.231 622.946,343.231 626.5,344.5C 627.29,345.401 628.29,346.068 629.5,346.5C 631.86,348.853 634.527,350.853 637.5,352.5C 642.794,356.823 648.127,361.156 653.5,365.5C 654.167,366.833 655.167,367.833 656.5,368.5C 656.833,369.5 657.5,370.167 658.5,370.5C 659.5,372.167 660.833,373.5 662.5,374.5C 662.833,375.5 663.5,376.167 664.5,376.5C 665.419,379.089 667.086,381.089 669.5,382.5C 679.175,394.957 688.175,408.957 696.5,424.5C 696.992,426.819 697.992,428.819 699.5,430.5C 699.66,432.153 700.326,433.486 701.5,434.5C 703.796,442.391 706.462,450.057 709.5,457.5C 711.522,466.775 713.355,476.108 715,485.5C 715.654,484.304 716.154,484.304 716.5,485.5C 715.954,486.772 715.621,488.106 715.5,489.5C 716.367,496.998 717.367,504.331 718.5,511.5C 722.304,561.157 726.471,610.49 731,659.5C 732,669.833 733,680.167 734,690.5C 734.5,691 735,691.5 735.5,692C 734.878,693.569 734.544,695.236 734.5,697C 735.591,708.498 736.591,719.998 737.5,731.5C 745.174,731.334 752.841,731.5 760.5,732C 765.033,733.011 769.367,734.511 773.5,736.5C 776.5,738.833 779.167,741.5 781.5,744.5C 784.728,749.34 786.895,754.673 788,760.5C 788.667,783.833 788.667,807.167 788,830.5C 786.986,836.177 785.153,841.511 782.5,846.5C 777.003,853.854 769.337,858.854 759.5,861.5C 758.666,860.252 757.333,859.585 755.5,859.5C 592.344,860.161 429.344,860.828 266.5,861.5C 266.167,861.5 265.833,861.5 265.5,861.5C 263.139,861.326 260.806,860.993 258.5,860.5C 256.574,859.514 254.574,858.514 252.5,857.5C 251.205,856.512 249.872,855.512 248.5,854.5C 247.564,853.026 246.23,852.026 244.5,851.5C 241.027,845.241 237.361,839.741 233.5,835C 234.789,831.598 235.456,827.931 235.5,824C 235.333,820.5 235.167,817 235,813.5C 234.667,816.833 234.333,820.167 234,823.5C 233.788,820.242 233.288,817.076 232.5,814C 233.252,813.329 233.586,812.496 233.5,811.5C 234.117,811.611 234.617,811.944 235,812.5C 235.667,805.167 235.667,797.833 235,790.5C 233.833,789.333 232.667,788.167 231.5,787C 233.108,786.342 234.275,786.842 235,788.5C 235.706,786.029 235.373,783.695 234,781.5C 233.444,783.595 232.944,783.762 232.5,782C 232.862,780.775 233.362,779.609 234,778.5C 234.333,778.833 234.667,779.167 235,779.5C 235.765,777.934 235.598,776.601 234.5,775.5C 234.714,773.856 234.38,772.356 233.5,771C 235.917,769.327 235.917,767.494 233.5,765.5C 233.846,764.304 234.346,764.304 235,765.5C 235.497,762.854 235.664,760.187 235.5,757.5C 237.147,753.576 238.814,749.576 240.5,745.5C 241.167,745.5 241.5,745.167 241.5,744.5C 244.526,741.805 247.526,739.138 250.5,736.5C 254.211,734.317 258.211,732.817 262.5,732C 269.081,731.813 275.581,731.313 282,730.5C 283.356,731.38 284.856,731.714 286.5,731.5C 286.762,723.637 287.429,715.804 288.5,708C 287.667,703.512 287.5,699.012 288,694.5C 288.333,696.833 288.667,699.167 289,701.5C 289.987,698.303 289.487,695.47 287.5,693C 288.056,692.617 288.389,692.117 288.5,691.5C 289.787,690.129 290.453,688.295 290.5,686C 291.498,676.853 292.165,667.686 292.5,658.5C 294.596,642.337 295.929,626.67 296.5,611.5C 300.336,580.799 302.836,550.132 304,519.5C 304.333,520.5 304.667,521.5 305,522.5C 306.344,500.944 309.177,479.944 313.5,459.5C 317.843,445.81 323.177,432.477 329.5,419.5C 331.008,417.819 332.008,415.819 332.5,413.5C 335.043,409.694 337.377,406.027 339.5,402.5C 342.34,399.489 344.007,396.156 344.5,392.5C 345.274,391.289 346.107,391.289 347,392.5C 348.093,390.651 349.426,388.984 351,387.5C 352.646,385.945 352.979,384.279 352,382.5C 352.718,383.451 353.551,383.617 354.5,383C 360.033,376.637 365.699,370.471 371.5,364.5C 373.791,363.458 374.791,361.958 374.5,360C 378.844,358.489 382.511,355.989 385.5,352.5C 387.23,351.974 388.564,350.974 389.5,349.5C 391.404,349.262 392.738,348.262 393.5,346.5C 398.655,344.022 403.989,340.855 409.5,337C 408.833,336.667 408.167,336.333 407.5,336C 412.388,335.901 416.721,334.068 420.5,330.5C 428.07,327.871 435.404,324.871 442.5,321.5C 475.275,310.544 508.775,307.544 543,312.5C 546.455,311.45 549.955,311.283 553.5,312C 551.167,312.333 548.833,312.667 546.5,313C 550.466,313.828 554.466,314.328 558.5,314.5 Z"/></g>
<g><path style="opacity:0.016" fill="#2d2e2a" d="M 558.5,313.5 C 559.833,314.167 559.833,314.167 558.5,313.5 Z"/></g>
<g><path style="opacity:0.004" fill="#2f2f2c" d="M 560.5,313.5 C 561.833,314.167 561.833,314.167 560.5,313.5 Z"/></g>
<g><path style="opacity:0.004" fill="#2e2e2a" d="M 566.5,314.5 C 565.833,313.167 565.833,313.167 566.5,314.5 Z"/></g>
<g><path style="opacity:0.004" fill="#2f2f2d" d="M 563.5,314.5 C 564.833,315.167 564.833,315.167 563.5,314.5 Z"/></g>
<g><path style="opacity:0.004" fill="#302f2c" d="M 566.5,314.5 C 567.833,315.167 567.833,315.167 566.5,314.5 Z"/></g>
<g><path style="opacity:0.004" fill="#2e2d2b" d="M 456.5,315.5 C 457.833,316.167 457.833,316.167 456.5,315.5 Z"/></g>
<g><path style="opacity:0.004" fill="#2e2b2b" d="M 323.5,317.5 C 324.833,318.167 324.833,318.167 323.5,317.5 Z"/></g>
<g><path style="opacity:0.02" fill="#323030" d="M 694.5,318.5 C 695.833,319.167 695.833,319.167 694.5,318.5 Z"/></g>
<g><path style="opacity:0.004" fill="#2d2e2e" d="M 431.5,319.5 C 432.833,320.167 432.833,320.167 431.5,319.5 Z"/></g>
<g><path style="opacity:0.004" fill="#302f2b" d="M 436.5,319.5 C 437.833,320.167 437.833,320.167 436.5,319.5 Z"/></g>
<g><path style="opacity:0.004" fill="#2d2c2b" d="M 442.5,321.5 C 440.645,321.728 439.812,321.061 440,319.5C 440.995,320.066 441.828,320.733 442.5,321.5 Z"/></g>
<g><path style="opacity:0.016" fill="#2b2b29" d="M 582.5,320.5 C 583.833,321.167 583.833,321.167 582.5,320.5 Z"/></g>
<g><path style="opacity:0.008" fill="#2d2e2b" d="M 588.5,320.5 C 589.833,321.167 589.833,321.167 588.5,320.5 Z"/></g>
<g><path style="opacity:0.008" fill="#2c2b2a" d="M 584.5,321.5 C 585.833,322.167 585.833,322.167 584.5,321.5 Z"/></g>
<g><path style="opacity:0.004" fill="#2d2c2b" d="M 332.5,322.5 C 331.833,323.167 331.833,323.167 332.5,322.5 Z"/></g>
<g><path style="opacity:0.004" fill="#2c2d29" d="M 435.5,322.5 C 436.833,323.167 436.833,323.167 435.5,322.5 Z"/></g>
<g><path style="opacity:0.004" fill="#2e2b2b" d="M 587.5,323.5 C 587.897,322.475 588.563,322.308 589.5,323C 588.906,323.464 588.239,323.631 587.5,323.5 Z"/></g>
<g><path style="opacity:0.004" fill="#2d2d2a" d="M 333.5,324.5 C 334.833,325.167 334.833,325.167 333.5,324.5 Z"/></g>
<g><path style="opacity:0.004" fill="#2f2e2c" d="M 592.5,324.5 C 593.833,325.167 593.833,325.167 592.5,324.5 Z"/></g>
<g><path style="opacity:0.004" fill="#33342f" d="M 335.5,325.5 C 336.833,326.167 336.833,326.167 335.5,325.5 Z"/></g>
<g><path style="opacity:0.004" fill="#30302d" d="M 685.5,326.5 C 686.833,327.167 686.833,327.167 685.5,326.5 Z"/></g>
<g><path style="opacity:0.005" fill="#2e2d2c" d="M 420.5,330.5 C 418.965,331.354 417.632,331.354 416.5,330.5C 417.474,329.365 418.641,328.365 420,327.5C 420.483,328.448 420.649,329.448 420.5,330.5 Z"/></g>
<g><path style="opacity:0.008" fill="#2e2e2e" d="M 416.5,330.5 C 415.833,329.167 415.833,329.167 416.5,330.5 Z"/></g>
<g><path style="opacity:0.008" fill="#2d2c2c" d="M 604.5,330.5 C 603.833,329.167 603.833,329.167 604.5,330.5 Z"/></g>
<g><path style="opacity:0.008" fill="#2c2b27" d="M 604.5,330.5 C 605.833,331.167 605.833,331.167 604.5,330.5 Z"/></g>
<g><path style="opacity:0.004" fill="#2d2d2a" d="M 606.5,331.5 C 607.833,332.167 607.833,332.167 606.5,331.5 Z"/></g>
<g><path style="opacity:0.004" fill="#30312d" d="M 411.5,333.5 C 412.833,334.167 412.833,334.167 411.5,333.5 Z"/></g>
<g><path style="opacity:0.008" fill="#2e2e2b" d="M 401.5,335.5 C 402.833,336.167 402.833,336.167 401.5,335.5 Z"/></g>
<g><path style="opacity:0.004" fill="#2e2e2d" d="M 403.5,335.5 C 404.833,336.167 404.833,336.167 403.5,335.5 Z"/></g>
<g><path style="opacity:0.016" fill="#2d2d28" d="M 613.5,335.5 C 614.833,336.167 614.833,336.167 613.5,335.5 Z"/></g>
<g><path style="opacity:0.004" fill="#2e2f2d" d="M 399.5,336.5 C 400.833,337.167 400.833,337.167 399.5,336.5 Z"/></g>
<g><path style="opacity:0.008" fill="#2e2d2a" d="M 617.5,337.5 C 616.833,336.167 616.833,336.167 617.5,337.5 Z"/></g>
<g><path style="opacity:0.004" fill="#2c2c29" d="M 617.5,337.5 C 618.833,338.167 618.833,338.167 617.5,337.5 Z"/></g>
<g><path style="opacity:0.008" fill="#2e2e2d" d="M 400.5,338.5 C 401.525,338.897 401.692,339.563 401,340.5C 400.536,339.906 400.369,339.239 400.5,338.5 Z"/></g>
<g><path style="opacity:0.008" fill="#302d2c" d="M 619.5,338.5 C 620.833,339.167 620.833,339.167 619.5,338.5 Z"/></g>
<g><path style="opacity:0.004" fill="#2e2d2e" d="M 394.5,343.5 C 395.833,344.167 395.833,344.167 394.5,343.5 Z"/></g>
<g><path style="opacity:0.02" fill="#2d2b2b" d="M 626.5,343.5 C 627.833,344.167 627.833,344.167 626.5,343.5 Z"/></g>
<g><path style="opacity:0.004" fill="#2e302e" d="M 394.5,344.5 C 393.833,345.167 393.833,345.167 394.5,344.5 Z"/></g>
<g><path style="opacity:0.012" fill="#2e2d2b" d="M 393.5,345.5 C 393.5,345.833 393.5,346.167 393.5,346.5C 392.83,346.019 392.83,345.685 393.5,345.5 Z"/></g>
<g><path style="opacity:0.008" fill="#2d2d29" d="M 629.5,345.5 C 630.833,346.167 630.833,346.167 629.5,345.5 Z"/></g>
<g><path style="opacity:0.004" fill="#2e2d2c" d="M 389.5,349.5 C 388.833,348.167 388.833,348.167 389.5,349.5 Z"/></g>
<g><path style="opacity:0.008" fill="#332e30" d="M 383.5,352.5 C 384.167,351.167 384.833,351.167 385.5,352.5C 384.833,352.5 384.167,352.5 383.5,352.5 Z"/></g>
<g><path style="opacity:0.02" fill="#2d2d29" d="M 637.5,351.5 C 638.833,352.167 638.833,352.167 637.5,351.5 Z"/></g>
<g><path style="opacity:0.008" fill="#2c2a2a" d="M 383.5,352.5 C 382.833,353.167 382.833,353.167 383.5,352.5 Z"/></g>
<g><path style="opacity:0.004" fill="#2c2d27" d="M 382.5,353.5 C 381.833,354.167 381.833,354.167 382.5,353.5 Z"/></g>
<g><path style="opacity:0.004" fill="#2f2e2b" d="M 643.5,355.5 C 644.833,356.167 644.833,356.167 643.5,355.5 Z"/></g>
<g><path style="opacity:0.004" fill="#2c2e2c" d="M 377.5,356.5 C 378.833,357.167 378.833,357.167 377.5,356.5 Z"/></g>
<g><path style="opacity:0.004" fill="#322f2d" d="M 369.5,359.5 C 370.833,360.167 370.833,360.167 369.5,359.5 Z"/></g>
<g><path style="opacity:0.004" fill="#2e2e2d" d="M 369.5,360.5 C 368.833,361.167 368.833,361.167 369.5,360.5 Z"/></g>
<g><path style="opacity:0.004" fill="#2e2e2d" d="M 650.5,361.5 C 651.833,362.167 651.833,362.167 650.5,361.5 Z"/></g>
<g><path style="opacity:0.004" fill="#30302f" d="M 368.5,361.5 C 368.631,362.239 368.464,362.906 368,363.5C 367.308,362.563 367.475,361.897 368.5,361.5 Z"/></g>
<g><path style="opacity:0.008" fill="#2e2e2c" d="M 371.5,364.5 C 370.833,363.167 370.833,363.167 371.5,364.5 Z"/></g>
<g><path style="opacity:0.004" fill="#2e2e2b" d="M 653.5,364.5 C 654.833,365.167 654.833,365.167 653.5,364.5 Z"/></g>
<g><path style="opacity:0.004" fill="#30322d" d="M 361.5,367.5 C 362.833,368.167 362.833,368.167 361.5,367.5 Z"/></g>
<g><path style="opacity:0.012" fill="#2f2d2c" d="M 656.5,367.5 C 657.833,368.167 657.833,368.167 656.5,367.5 Z"/></g>
<g><path style="opacity:0.006" fill="#30302e" d="M 361.5,368.5 C 361.103,369.525 360.437,369.692 359.5,369C 360.094,368.536 360.761,368.369 361.5,368.5 Z"/></g>
<g><path style="opacity:0.004" fill="#2d2e2b" d="M 364.5,368.5 C 365.833,369.167 365.833,369.167 364.5,368.5 Z"/></g>
<g><path style="opacity:0.004" fill="#2f2f2c" d="M 658.5,369.5 C 659.833,370.167 659.833,370.167 658.5,369.5 Z"/></g>
<g><path style="opacity:0.004" fill="#2e2d2a" d="M 662.5,373.5 C 663.833,374.167 663.833,374.167 662.5,373.5 Z"/></g>
<g><path style="opacity:0.004" fill="#2f2c2c" d="M 664.5,375.5 C 665.833,376.167 665.833,376.167 664.5,375.5 Z"/></g>
<g><path style="opacity:0.008" fill="#2e2b2b" d="M 668.5,376.5 C 668.897,375.475 669.563,375.308 670.5,376C 669.906,376.464 669.239,376.631 668.5,376.5 Z"/></g>
<g><path style="opacity:0.004" fill="#2e2c2a" d="M 666.5,377.5 C 667.833,378.167 667.833,378.167 666.5,377.5 Z"/></g>
<g><path style="opacity:0.004" fill="#2d2f2b" d="M 353.5,378.5 C 354.833,379.167 354.833,379.167 353.5,378.5 Z"/></g>
<g><path style="opacity:0.004" fill="#2e2e2c" d="M 351.5,380.5 C 352.833,381.167 352.833,381.167 351.5,380.5 Z"/></g>
<g><path style="opacity:0.012" fill="#2d2c2b" d="M 669.5,381.5 C 670.833,382.167 670.833,382.167 669.5,381.5 Z"/></g>
<g><path style="opacity:0.006" fill="#2e2c2c" d="M 339.5,402.5 C 338.427,401.749 338.26,400.749 339,399.5C 339.483,400.448 339.649,401.448 339.5,402.5 Z"/></g>
<g><path style="opacity:0.004" fill="#2b2a27" d="M 684.5,400.5 C 683.833,399.167 683.833,399.167 684.5,400.5 Z"/></g>
<g><path style="opacity:0.004" fill="#2c2a29" d="M 684.5,400.5 C 685.833,401.167 685.833,401.167 684.5,400.5 Z"/></g>
<g><path style="opacity:0.008" fill="#2e2f2a" d="M 335.5,402.5 C 336.833,403.167 336.833,403.167 335.5,402.5 Z"/></g>
<g><path style="opacity:0.004" fill="#2d2c2a" d="M 688.5,407.5 C 689.833,408.167 689.833,408.167 688.5,407.5 Z"/></g>
<g><path style="opacity:0.008" fill="#2a2a27" d="M 332.5,413.5 C 331.833,412.167 331.833,412.167 332.5,413.5 Z"/></g>
<g><path style="opacity:0.006" fill="#2d2b2b" d="M 329.5,419.5 C 327.647,420.614 327.147,419.948 328,417.5C 328.717,418.044 329.217,418.711 329.5,419.5 Z"/></g>
<g><path style="opacity:0.004" fill="#292929" d="M 694.5,418.5 C 695.833,419.167 695.833,419.167 694.5,418.5 Z"/></g>
<g><path style="opacity:0.016" fill="#2b2928" d="M 696.5,423.5 C 697.833,424.167 697.833,424.167 696.5,423.5 Z"/></g>
<g><path style="opacity:0.004" fill="#2d2b2a" d="M 323.5,427.5 C 324.833,428.167 324.833,428.167 323.5,427.5 Z"/></g>
<g><path style="opacity:0.004" fill="#2d2d29" d="M 699.5,429.5 C 700.833,430.167 700.833,430.167 699.5,429.5 Z"/></g>
<g><path style="opacity:0.008" fill="#2d2b2a" d="M 321.5,431.5 C 322.525,431.897 322.692,432.563 322,433.5C 321.536,432.906 321.369,432.239 321.5,431.5 Z"/></g>
<g><path style="opacity:0.004" fill="#2b2927" d="M 701.5,433.5 C 702.833,434.167 702.833,434.167 701.5,433.5 Z"/></g>
<g><path style="opacity:0.008" fill="#2c2b2a" d="M 319.5,435.5 C 320.833,436.167 320.833,436.167 319.5,435.5 Z"/></g>
<g><path style="opacity:0.004" fill="#2a2a27" d="M 312.5,448.5 C 313.833,449.167 313.833,449.167 312.5,448.5 Z"/></g>
<g><path style="opacity:0.004" fill="#2a2c29" d="M 707.5,448.5 C 708.833,449.167 708.833,449.167 707.5,448.5 Z"/></g>
<g><path style="opacity:0.004" fill="#2b2b2a" d="M 311.5,450.5 C 312.833,451.167 312.833,451.167 311.5,450.5 Z"/></g>
<g><path style="opacity:0.009" fill="#2d2a2a" d="M 313.5,459.5 C 311.354,459.304 311.188,458.304 313,456.5C 313.483,457.448 313.649,458.448 313.5,459.5 Z"/></g>
<g><path style="opacity:0.008" fill="#2b2828" d="M 710.5,457.5 C 710.167,457.5 709.833,457.5 709.5,457.5C 709.833,454.833 710.167,454.833 710.5,457.5 Z"/></g>
<g><path style="opacity:0.008" fill="#2b2a28" d="M 710.5,457.5 C 711.525,457.897 711.692,458.563 711,459.5C 710.536,458.906 710.369,458.239 710.5,457.5 Z"/></g>
<g><path style="opacity:0.004" fill="#2d2a27" d="M 311.5,460.5 C 312.833,461.167 312.833,461.167 311.5,460.5 Z"/></g>
<g><path style="opacity:0.004" fill="#2b2b27" d="M 713.5,471.5 C 714.833,472.167 714.833,472.167 713.5,471.5 Z"/></g>
<g><path style="opacity:0.004" fill="#2a2927" d="M 308.5,474.5 C 309.833,475.167 309.833,475.167 308.5,474.5 Z"/></g>
<g><path style="opacity:0.008" fill="#2b2b29" d="M 715.5,479.5 C 716.833,480.167 716.833,480.167 715.5,479.5 Z"/></g>
<g><path style="opacity:0.012" fill="#2d2c2b" d="M 307.5,479.5 C 308.573,480.251 308.74,481.251 308,482.5C 306.272,481.648 306.105,480.648 307.5,479.5 Z"/></g>
<g><path style="opacity:0.004" fill="#292a29" d="M 306.5,487.5 C 307.833,488.167 307.833,488.167 306.5,487.5 Z"/></g>
<g><path style="opacity:0.004" fill="#2c292a" d="M 303.5,490.5 C 304.833,491.167 304.833,491.167 303.5,490.5 Z"/></g>
<g><path style="opacity:0.004" fill="#2a2d29" d="M 305.5,490.5 C 306.833,491.167 306.833,491.167 305.5,490.5 Z"/></g>
<g><path style="opacity:0.008" fill="#2b282a" d="M 717.5,494.5 C 718.525,494.897 718.692,495.563 718,496.5C 717.536,495.906 717.369,495.239 717.5,494.5 Z"/></g>
<g><path style="opacity:0.005" fill="#2a2828" d="M 717.5,497.5 C 720.001,497.511 720.168,498.178 718,499.5C 717.536,498.906 717.369,498.239 717.5,497.5 Z"/></g>
<g><path style="opacity:0.004" fill="#2c2a2a" d="M 305.5,496.5 C 306.465,497.721 306.298,499.054 305,500.5C 303.413,499.154 303.58,497.821 305.5,496.5 Z"/></g>
<g><path style="opacity:0.004" fill="#2c292a" d="M 718.5,502.5 C 719.598,503.601 719.765,504.934 719,506.5C 718.51,505.207 718.343,503.873 718.5,502.5 Z"/></g>
<g><path style="opacity:0.004" fill="#2c2a2a" d="M 304.5,502.5 C 305.525,502.897 305.692,503.563 305,504.5C 304.536,503.906 304.369,503.239 304.5,502.5 Z"/></g>
<g><path style="opacity:0.004" fill="#2d2b2a" d="M 304.5,505.5 C 305.525,505.897 305.692,506.563 305,507.5C 304.536,506.906 304.369,506.239 304.5,505.5 Z"/></g>
<g><path style="opacity:0.004" fill="#2b2929" d="M 718.5,507.5 C 719.833,508.167 719.833,508.167 718.5,507.5 Z"/></g>
<g><path style="opacity:0.008" fill="#29282a" d="M 718.5,510.5 C 719.833,511.167 719.833,511.167 718.5,510.5 Z"/></g>
<g><path style="opacity:0.01" fill="#2d2b2c" d="M 303.5,511.5 C 304.613,512.946 304.78,514.613 304,516.5C 303.506,514.866 303.34,513.199 303.5,511.5 Z"/></g>
<g><path style="opacity:0.004" fill="#2c2d2b" d="M 303.5,517.5 C 304.833,518.167 304.833,518.167 303.5,517.5 Z"/></g>
<g><path style="opacity:0.004" fill="#292a28" d="M 721.5,538.5 C 722.833,539.167 722.833,539.167 721.5,538.5 Z"/></g>
<g><path style="opacity:0.012" fill="#2b2a29" d="M 723.5,559.5 C 724.573,560.251 724.74,561.251 724,562.5C 723.517,561.552 723.351,560.552 723.5,559.5 Z"/></g>
<g><path style="opacity:0.004" fill="#2c2c2c" d="M 299.5,561.5 C 300.525,561.897 300.692,562.563 300,563.5C 299.536,562.906 299.369,562.239 299.5,561.5 Z"/></g>
<g><path style="opacity:0.004" fill="#2a2a27" d="M 724.5,566.5 C 723.833,565.167 723.833,565.167 724.5,566.5 Z"/></g>
<g><path style="opacity:0.004" fill="#2b2b26" d="M 724.5,566.5 C 725.833,567.167 725.833,567.167 724.5,566.5 Z"/></g>
<g><path style="opacity:0.012" fill="#2c2b2b" d="M 298.5,572.5 C 299.833,573.167 299.833,573.167 298.5,572.5 Z"/></g>
<g><path style="opacity:0.999" fill="#e33031" d="M 705.5,731.5 C 705.389,730.883 705.056,730.383 704.5,730C 645.834,729.5 587.168,729.333 528.5,729.5C 528.832,679.664 528.499,629.997 527.5,580.5C 523.323,569.6 515.657,566.1 504.5,570C 501.567,572.264 499.4,575.098 498,578.5C 497.5,628.832 497.333,679.166 497.5,729.5C 438.167,730.167 378.833,730.833 319.5,731.5C 318.833,731.5 318.167,731.5 317.5,731.5C 324.636,652.508 331.802,573.508 339,494.5C 351.453,419.723 393.62,370.556 465.5,347C 541.824,330.182 604.324,352.015 653,412.5C 669.376,435.277 679.709,460.61 684,488.5C 691.702,569.714 698.869,650.714 705.5,731.5 Z"/></g>
<g><path style="opacity:0.999" fill="#c7221b" d="M 527.5,580.5 C 527.5,630.167 527.5,679.833 527.5,729.5C 517.5,729.5 507.5,729.5 497.5,729.5C 497.333,679.166 497.5,628.832 498,578.5C 499.4,575.098 501.567,572.264 504.5,570C 515.657,566.1 523.323,569.6 527.5,580.5 Z"/></g>
<g><path style="opacity:0.004" fill="#292927" d="M 724.5,574.5 C 725.833,575.167 725.833,575.167 724.5,574.5 Z"/></g>
<g><path style="opacity:0.008" fill="#2a2a29" d="M 298.5,576.5 C 299.833,577.167 299.833,577.167 298.5,576.5 Z"/></g>
<g><path style="opacity:0.004" fill="#2b2c2a" d="M 297.5,579.5 C 298.833,580.167 298.833,580.167 297.5,579.5 Z"/></g>
<g><path style="opacity:0.016" fill="#2b2a28" d="M 725.5,583.5 C 726.833,584.167 726.833,584.167 725.5,583.5 Z"/></g>
<g><path style="opacity:0.004" fill="#2c2a28" d="M 725.5,585.5 C 726.525,585.897 726.692,586.563 726,587.5C 725.536,586.906 725.369,586.239 725.5,585.5 Z"/></g>
<g><path style="opacity:0.008" fill="#2c2b2a" d="M 296.5,595.5 C 296.351,594.448 296.517,593.448 297,592.5C 297.74,593.749 297.573,594.749 296.5,595.5 Z"/></g>
<g><path style="opacity:0.004" fill="#292a28" d="M 726.5,593.5 C 727.833,594.167 727.833,594.167 726.5,593.5 Z"/></g>
<g><path style="opacity:0.004" fill="#2b2b27" d="M 296.5,595.5 C 295.833,596.167 295.833,596.167 296.5,595.5 Z"/></g>
<g><path style="opacity:0.008" fill="#282724" d="M 296.5,598.5 C 297.833,599.167 297.833,599.167 296.5,598.5 Z"/></g>
<g><path style="opacity:0.006" fill="#2d2b2b" d="M 296.5,611.5 C 295.357,608.024 295.19,604.358 296,600.5C 296.499,604.152 296.665,607.818 296.5,611.5 Z"/></g>
<g><path style="opacity:0.004" fill="#282a28" d="M 729.5,632.5 C 730.833,633.167 730.833,633.167 729.5,632.5 Z"/></g>
<g><path style="opacity:0.004" fill="#292a27" d="M 729.5,634.5 C 730.833,635.167 730.833,635.167 729.5,634.5 Z"/></g>
<g><path style="opacity:0.004" fill="#2b2c2a" d="M 730.5,639.5 C 731.833,640.167 731.833,640.167 730.5,639.5 Z"/></g>
<g><path style="opacity:0.004" fill="#2b2a2a" d="M 292.5,640.5 C 293.833,641.167 293.833,641.167 292.5,640.5 Z"/></g>
<g><path style="opacity:0.004" fill="#2c2d2a" d="M 291.5,649.5 C 292.833,650.167 292.833,650.167 291.5,649.5 Z"/></g>
<g><path style="opacity:0.008" fill="#2e2c2b" d="M 291.5,651.5 C 292.833,652.167 292.833,652.167 291.5,651.5 Z"/></g>
<g><path style="opacity:0.004" fill="#2c2c2c" d="M 732.5,654.5 C 731.833,653.167 731.833,653.167 732.5,654.5 Z"/></g>
<g><path style="opacity:0.004" fill="#2f2f2a" d="M 732.5,654.5 C 733.833,655.167 733.833,655.167 732.5,654.5 Z"/></g>
<g><path style="opacity:0.004" fill="#2a2b29" d="M 292.5,658.5 C 291.833,657.167 291.833,657.167 292.5,658.5 Z"/></g>
<g><path style="opacity:0.004" fill="#2c2d2a" d="M 290.5,660.5 C 291.833,661.167 291.833,661.167 290.5,660.5 Z"/></g>
<g><path style="opacity:0.008" fill="#2c2c2b" d="M 290.5,663.5 C 291.573,664.251 291.74,665.251 291,666.5C 290.517,665.552 290.351,664.552 290.5,663.5 Z"/></g>
<g><path style="opacity:0.004" fill="#2c2d2a" d="M 732.5,664.5 C 733.833,665.167 733.833,665.167 732.5,664.5 Z"/></g>
<g><path style="opacity:0.006" fill="#2e2f2d" d="M 289.5,671.5 C 290.525,671.897 290.692,672.563 290,673.5C 289.536,672.906 289.369,672.239 289.5,671.5 Z"/></g>
<g><path style="opacity:0.008" fill="#2d2c2a" d="M 289.5,674.5 C 290.573,675.251 290.74,676.251 290,677.5C 289.517,676.552 289.351,675.552 289.5,674.5 Z"/></g>
<g><path style="opacity:0.004" fill="#2e2c2d" d="M 734.5,678.5 C 735.833,679.167 735.833,679.167 734.5,678.5 Z"/></g>
<g><path style="opacity:0.008" fill="#2e2d2d" d="M 287.5,680.5 C 288.833,681.167 288.833,681.167 287.5,680.5 Z"/></g>
<g><path style="opacity:0.004" fill="#2a2e2b" d="M 734.5,681.5 C 735.833,682.167 735.833,682.167 734.5,681.5 Z"/></g>
<g><path style="opacity:0.008" fill="#2f2e2d" d="M 288.5,683.5 C 289.525,683.897 289.692,684.563 289,685.5C 288.536,684.906 288.369,684.239 288.5,683.5 Z"/></g>
<g><path style="opacity:0.004" fill="#2c2d29" d="M 734.5,683.5 C 735.833,684.167 735.833,684.167 734.5,683.5 Z"/></g>
<g><path style="opacity:0.008" fill="#2b2a2a" d="M 734.5,686.5 C 735.833,687.167 735.833,687.167 734.5,686.5 Z"/></g>
<g><path style="opacity:0.004" fill="#2f2c2c" d="M 288.5,689.5 C 289.833,690.167 289.833,690.167 288.5,689.5 Z"/></g>
<g><path style="opacity:0.008" fill="#312e2d" d="M 288.5,690.5 C 288.5,690.833 288.5,691.167 288.5,691.5C 287.83,691.019 287.83,690.685 288.5,690.5 Z"/></g>
<g><path style="opacity:0.004" fill="#2b2b29" d="M 737.5,719.5 C 738.833,720.167 738.833,720.167 737.5,719.5 Z"/></g>
<g><path style="opacity:0.004" fill="#2d2d2c" d="M 264.5,729.5 C 265.833,730.167 265.833,730.167 264.5,729.5 Z"/></g>
<g><path style="opacity:0.004" fill="#2e2f2c" d="M 268.5,730.5 C 268.897,729.475 269.563,729.308 270.5,730C 269.906,730.464 269.239,730.631 268.5,730.5 Z"/></g>
<g><path style="opacity:0.004" fill="#2c2c2a" d="M 275.5,730.5 C 276.251,729.427 277.251,729.26 278.5,730C 277.552,730.483 276.552,730.649 275.5,730.5 Z"/></g>
<g><path style="opacity:0.012" fill="#2b2b29" d="M 738.5,727.5 C 739.534,728.687 740.867,729.52 742.5,730C 741.207,730.49 739.873,730.657 738.5,730.5C 738.5,729.5 738.5,728.5 738.5,727.5 Z"/></g>
<g><path style="opacity:0.004" fill="#2d2c29" d="M 749.5,729.5 C 750.833,730.167 750.833,730.167 749.5,729.5 Z"/></g>
<g><path style="opacity:0.004" fill="#2b2b2b" d="M 757.5,730.5 C 757.897,729.475 758.563,729.308 759.5,730C 758.906,730.464 758.239,730.631 757.5,730.5 Z"/></g>
<g><path style="opacity:0.999" fill="#f13433" d="M 527.5,580.5 C 528.499,629.997 528.832,679.664 528.5,729.5C 587.168,729.333 645.834,729.5 704.5,730C 705.056,730.383 705.389,730.883 705.5,731.5C 576.833,731.5 448.167,731.5 319.5,731.5C 378.833,730.833 438.167,730.167 497.5,729.5C 507.5,729.5 517.5,729.5 527.5,729.5C 527.5,679.833 527.5,630.167 527.5,580.5 Z"/></g>
<g><path style="opacity:0.008" fill="#2b2a29" d="M 761.5,730.5 C 762.833,731.167 762.833,731.167 761.5,730.5 Z"/></g>
<g><path style="opacity:0.004" fill="#2a2b29" d="M 256.5,731.5 C 257.833,732.167 257.833,732.167 256.5,731.5 Z"/></g>
<g><path style="opacity:0.998" fill="#000808" d="M 317.5,731.5 C 318.167,731.5 318.833,731.5 319.5,731.5C 448.167,731.5 576.833,731.5 705.5,731.5C 641.098,732.168 576.598,732.835 512,733.5C 447.069,732.835 382.236,732.168 317.5,731.5 Z"/></g>
<g><path style="opacity:0.008" fill="#2b292b" d="M 250.5,736.5 C 249.761,736.631 249.094,736.464 248.5,736C 249.437,735.308 250.103,735.475 250.5,736.5 Z"/></g>
<g><path style="opacity:0.004" fill="#2b2b2a" d="M 773.5,735.5 C 774.833,736.167 774.833,736.167 773.5,735.5 Z"/></g>
<g><path style="opacity:0.004" fill="#262826" d="M 245.5,737.5 C 246.833,738.167 246.833,738.167 245.5,737.5 Z"/></g>
<g><path style="opacity:0.004" fill="#2a2928" d="M 241.5,744.5 C 240.833,744.5 240.5,744.833 240.5,745.5C 239.957,745.44 239.624,745.107 239.5,744.5C 240.257,743.227 240.923,743.227 241.5,744.5 Z"/></g>
<g><path style="opacity:0.008" fill="#2a2928" d="M 781.5,744.5 C 781.897,743.475 782.563,743.308 783.5,744C 782.906,744.464 782.239,744.631 781.5,744.5 Z"/></g>
<g><path style="opacity:0.004" fill="#262624" d="M 233.5,751.5 C 234.833,752.167 234.833,752.167 233.5,751.5 Z"/></g>
<g><path style="opacity:0.008" fill="#262525" d="M 786.5,752.5 C 786.897,751.475 787.563,751.308 788.5,752C 787.906,752.464 787.239,752.631 786.5,752.5 Z"/></g>
<g><path style="opacity:0.008" fill="#242624" d="M 235.5,752.5 C 236.833,753.167 236.833,753.167 235.5,752.5 Z"/></g>
<g><path style="opacity:0.004" fill="#272526" d="M 231.5,755.5 C 231.897,754.475 232.563,754.308 233.5,755C 232.906,755.464 232.239,755.631 231.5,755.5 Z"/></g>
<g><path style="opacity:0.004" fill="#252524" d="M 787.5,754.5 C 788.833,755.167 788.833,755.167 787.5,754.5 Z"/></g>
<g><path style="opacity:0.004" fill="#272929" d="M 235.5,757.5 C 234.833,756.167 234.833,756.167 235.5,757.5 Z"/></g>
<g><path style="opacity:0.012" fill="#2a2827" d="M 231.5,761.5 C 232.833,762.167 232.833,762.167 231.5,761.5 Z"/></g>
<g><path style="opacity:1" fill="#272827" d="M 268.5,761.5 C 430.5,761.333 592.5,761.5 754.5,762C 756.667,762.833 758.167,764.333 759,766.5C 759.667,786.167 759.667,805.833 759,825.5C 758.602,828.232 757.102,830.065 754.5,831C 592.5,831.667 430.5,831.667 268.5,831C 266.951,829.786 265.785,828.286 265,826.5C 264.333,806.5 264.333,786.5 265,766.5C 265.997,764.677 267.164,763.01 268.5,761.5 Z"/></g>
<g><path style="opacity:0.004" fill="#272625" d="M 789.5,765.5 C 790.833,766.167 790.833,766.167 789.5,765.5 Z"/></g>
<g><path style="opacity:0.008" fill="#262525" d="M 789.5,770.5 C 790.833,771.167 790.833,771.167 789.5,770.5 Z"/></g>
<g><path style="opacity:0.008" fill="#242424" d="M 789.5,774.5 C 790.833,775.167 790.833,775.167 789.5,774.5 Z"/></g>
<g><path style="opacity:0.008" fill="#272726" d="M 234.5,775.5 C 233.833,776.167 233.833,776.167 234.5,775.5 Z"/></g>
<g><path style="opacity:0.004" fill="#272523" d="M 789.5,782.5 C 790.525,782.897 790.692,783.563 790,784.5C 789.536,783.906 789.369,783.239 789.5,782.5 Z"/></g>
<g><path style="opacity:0.004" fill="#252421" d="M 789.5,786.5 C 790.833,787.167 790.833,787.167 789.5,786.5 Z"/></g>
<g><path style="opacity:0.008" fill="#282a27" d="M 231.5,790.5 C 232.833,791.167 232.833,791.167 231.5,790.5 Z"/></g>
<g><path style="opacity:0.008" fill="#252321" d="M 789.5,790.5 C 790.525,790.897 790.692,791.563 790,792.5C 789.536,791.906 789.369,791.239 789.5,790.5 Z"/></g>
<g><path style="opacity:0.005" fill="#292927" d="M 232.5,794.5 C 232.56,793.957 232.893,793.624 233.5,793.5C 234.583,794.365 234.749,795.365 234,796.5C 233.722,795.584 233.222,794.918 232.5,794.5 Z"/></g>
<g><path style="opacity:0.004" fill="#282928" d="M 232.5,794.5 C 231.833,795.167 231.833,795.167 232.5,794.5 Z"/></g>
<g><path style="opacity:0.004" fill="#262424" d="M 789.5,793.5 C 790.525,793.897 790.692,794.563 790,795.5C 789.536,794.906 789.369,794.239 789.5,793.5 Z"/></g>
<g><path style="opacity:0.004" fill="#262927" d="M 231.5,798.5 C 232.833,799.167 232.833,799.167 231.5,798.5 Z"/></g>
<g><path style="opacity:0.008" fill="#262726" d="M 789.5,798.5 C 790.833,799.167 790.833,799.167 789.5,798.5 Z"/></g>
<g><path style="opacity:0.005" fill="#292927" d="M 233.5,804.5 C 232.637,805.463 231.97,805.463 231.5,804.5C 233.102,800.815 233.768,800.815 233.5,804.5 Z"/></g>
<g><path style="opacity:0.008" fill="#272625" d="M 233.5,804.5 C 234.833,805.167 234.833,805.167 233.5,804.5 Z"/></g>
<g><path style="opacity:0.004" fill="#252725" d="M 789.5,806.5 C 790.833,807.167 790.833,807.167 789.5,806.5 Z"/></g>
<g><path style="opacity:0.006" fill="#292928" d="M 233.5,811.5 C 231.354,811.304 231.188,810.304 233,808.5C 233.483,809.448 233.649,810.448 233.5,811.5 Z"/></g>
<g><path style="opacity:0.004" fill="#252421" d="M 789.5,810.5 C 790.833,811.167 790.833,811.167 789.5,810.5 Z"/></g>
<g><path style="opacity:0.006" fill="#242223" d="M 789.5,814.5 C 790.525,814.897 790.692,815.563 790,816.5C 789.536,815.906 789.369,815.239 789.5,814.5 Z"/></g>
<g><path style="opacity:0.004" fill="#272725" d="M 231.5,818.5 C 232.833,819.167 232.833,819.167 231.5,818.5 Z"/></g>
<g><path style="opacity:0.004" fill="#252423" d="M 789.5,822.5 C 790.833,823.167 790.833,823.167 789.5,822.5 Z"/></g>
<g><path style="opacity:0.008" fill="#272725" d="M 232.5,825.5 C 235.199,828.272 234.866,828.772 231.5,827C 232.056,826.617 232.389,826.117 232.5,825.5 Z"/></g>
<g><path style="opacity:0.008" fill="#252624" d="M 231.5,832.5 C 232.833,833.167 232.833,833.167 231.5,832.5 Z"/></g>
<g><path style="opacity:0.008" fill="#262525" d="M 233.5,829.5 C 234.598,830.601 234.765,831.934 234,833.5C 233.51,832.207 233.343,830.873 233.5,829.5 Z"/></g>
<g><path style="opacity:0.004" fill="#272623" d="M 231.5,834.5 C 232.833,835.167 232.833,835.167 231.5,834.5 Z"/></g>
<g><path style="opacity:0.004" fill="#252321" d="M 789.5,834.5 C 790.833,835.167 790.833,835.167 789.5,834.5 Z"/></g>
<g><path style="opacity:0.004" fill="#262523" d="M 231.5,836.5 C 232.833,837.167 232.833,837.167 231.5,836.5 Z"/></g>
<g><path style="opacity:0.004" fill="#262825" d="M 787.5,836.5 C 788.833,837.167 788.833,837.167 787.5,836.5 Z"/></g>
<g><path style="opacity:0.004" fill="#242324" d="M 784.5,844.5 C 785.833,845.167 785.833,845.167 784.5,844.5 Z"/></g>
<g><path style="opacity:0.02" fill="#282725" d="M 782.5,846.5 C 783.833,847.167 783.833,847.167 782.5,846.5 Z"/></g>
<g><path style="opacity:0.004" fill="#262422" d="M 240.5,848.5 C 239.833,847.167 239.833,847.167 240.5,848.5 Z"/></g>
<g><path style="opacity:0.004" fill="#252522" d="M 240.5,848.5 C 241.833,849.167 241.833,849.167 240.5,848.5 Z"/></g>
<g><path style="opacity:0.004" fill="#272623" d="M 244.5,851.5 C 243.833,852.167 243.833,852.167 244.5,851.5 Z"/></g>
<g><path style="opacity:0.008" fill="#2a3031" d="M 248.5,854.5 C 247.833,855.167 247.833,855.167 248.5,854.5 Z"/></g>
<g><path style="opacity:0.004" fill="#252323" d="M 247.5,856.5 C 248.833,857.167 248.833,857.167 247.5,856.5 Z"/></g>
<g><path style="opacity:0.004" fill="#252524" d="M 252.5,857.5 C 252.103,858.525 251.437,858.692 250.5,858C 251.094,857.536 251.761,857.369 252.5,857.5 Z"/></g>
<g><path style="opacity:1" fill="#000000" d="M 759.5,861.5 C 758.5,861.5 757.5,861.5 756.5,861.5C 593.167,861.5 429.833,861.5 266.5,861.5C 429.344,860.828 592.344,860.161 755.5,859.5C 757.333,859.585 758.666,860.252 759.5,861.5 Z"/></g>
<g><path style="opacity:0.004" fill="#272926" d="M 766.5,860.5 C 767.833,861.167 767.833,861.167 766.5,860.5 Z"/></g>
<g><path style="opacity:0.008" fill="#272523" d="M 258.5,860.5 C 257.531,861.309 256.698,862.309 256,863.5C 255.517,862.552 255.351,861.552 255.5,860.5C 256.5,860.5 257.5,860.5 258.5,860.5 Z"/></g>
<g><path style="opacity:0.245" fill="#343333" d="M 265.5,861.5 C 265.833,861.5 266.167,861.5 266.5,861.5C 429.833,861.5 593.167,861.5 756.5,861.5C 738.431,862.173 720.264,862.839 702,863.5C 585.774,862.59 469.774,862.256 354,862.5C 352.342,862.675 351.009,863.342 350,864.5C 346.26,863.206 342.26,862.539 338,862.5C 315.402,862.316 292.735,862.649 270,863.5C 268.378,862.901 266.878,862.234 265.5,861.5 Z"/></g>
<g><path style="opacity:0.012" fill="#262725" d="M 763.5,861.5 C 764.833,862.167 764.833,862.167 763.5,861.5 Z"/></g>
<g><path style="opacity:0.004" fill="#272525" d="M 758.5,863.5 C 758.897,862.475 759.563,862.308 760.5,863C 759.906,863.464 759.239,863.631 758.5,863.5 Z"/></g>
<g><path style="opacity:0.004" fill="#0a0b09" d="M 307.5,933.5 C 308.833,934.167 308.833,934.167 307.5,933.5 Z"/></g>
<g><path style="opacity:0.004" fill="#000000" d="M 842.5,964.5 C 843.833,965.167 843.833,965.167 842.5,964.5 Z"/></g>
</svg>
