<svg xmlns="http://www.w3.org/2000/svg" width="24" height="24" viewBox="0 0 24 24" fill="none">
  <path d="M14.4154 20.1932L12.2927 18.072L13.0005 17.3643L14.0609 18.4247L14.4145 18.7783L14.768 18.4247L20.933 12.2597L21.021 12.1717L21.0575 12.0528L22.1475 8.50083L22.2357 8.21322L22.023 8.00052L19.539 5.51752L19.3253 5.30393L19.0368 5.39376L18.2464 5.63991L17.4469 4.84047L18.7399 4.43763C19.0009 4.3565 19.2792 4.34827 19.5447 4.41383C19.8101 4.4794 20.0526 4.61626 20.2459 4.80963L20.2459 4.8097L22.7289 7.29269C22.9215 7.48526 23.058 7.72661 23.1238 7.99087C23.1896 8.25512 23.1822 8.53231 23.1024 8.79269L21.9039 12.7046L14.4154 20.1932ZM18.6026 10.3316C18.522 10.3994 18.3569 10.4679 18.0578 10.4857L18.5244 8.76857C18.6287 8.82862 18.692 8.88159 18.7264 8.92247C18.8968 9.12564 18.9796 9.38818 18.9564 9.65235C18.9333 9.91651 18.8062 10.1607 18.6031 10.3311L18.6026 10.3316ZM16.3649 6.58663L16.3649 6.58669C16.5575 6.77926 16.694 7.02061 16.7598 7.28487C16.8256 7.54909 16.8182 7.82623 16.7384 8.08658C16.7384 8.08662 16.7384 8.08665 16.7384 8.08669L15.5399 11.9956L8.05142 19.4851L0.978659 12.4141L8.43679 4.95694L12.3759 3.73163C12.3759 3.73161 12.376 3.7316 12.376 3.73158C12.637 3.65049 12.9153 3.64228 13.1807 3.70783C13.4461 3.77339 13.6886 3.91026 13.8819 4.10363L14.0283 4.25015H14.0293L16.3649 6.58663ZM2.74693 12.0606L2.39338 12.4141L2.74693 12.7677L7.69693 17.7177L8.05051 18.0713L8.40407 17.7177L14.5681 11.5527L14.656 11.4647L14.6925 11.3458L15.7825 7.79383L15.8707 7.50622L15.658 7.29352L13.174 4.81052L12.9604 4.59702L12.672 4.68671L9.08699 5.80171L8.96918 5.83835L8.88193 5.9256L2.74693 12.0606ZM10.869 9.57582L10.8515 9.55932C10.7655 9.47132 10.6964 9.36814 10.6477 9.25491C10.5953 9.1329 10.5677 9.00168 10.5666 8.86891C10.5654 8.73613 10.5907 8.60445 10.641 8.48155C10.6913 8.35865 10.7656 8.247 10.8594 8.15311C10.9533 8.05922 11.065 7.98496 11.1879 7.93468C11.3108 7.8844 11.4425 7.8591 11.5752 7.86025C11.708 7.86141 11.8392 7.88899 11.9612 7.9414C12.0825 7.99347 12.1922 8.06901 12.2841 8.16366C12.4619 8.35259 12.5594 8.6033 12.5559 8.86283C12.5523 9.12321 12.4473 9.37193 12.2633 9.5561C12.0792 9.74028 11.8305 9.84538 11.5701 9.84906C11.3097 9.85274 11.0582 9.75471 10.869 9.57582Z" fill="#21272A" stroke="currentColor"/>
</svg>
