<svg xmlns="http://www.w3.org/2000/svg" width="25" height="24" viewBox="0 0 25 24" fill="none">
  <g clip-path="url(#clip0_7117_3292)">
    <path d="M12.1703 18.0711L13.5843 16.6571L14.9983 18.0711L21.1633 11.9061L22.2533 8.35415L19.7693 5.87115L18.6903 6.20715L17.0923 4.60915L19.1753 3.96015C19.5235 3.85197 19.8945 3.841 20.2484 3.92842C20.6023 4.01584 20.9256 4.19832 21.1833 4.45615L23.6663 6.93915C23.9231 7.19591 24.1051 7.51772 24.1928 7.87006C24.2805 8.2224 24.2707 8.59198 24.1643 8.93915L22.9293 12.9701L14.9993 20.9001L12.1693 18.0721L12.1703 18.0711ZM14.8203 3.75015L17.3023 6.23315C17.5591 6.48991 17.7411 6.81172 17.8288 7.16406C17.9165 7.5164 17.9067 7.88598 17.8003 8.23315L16.5653 12.2611L8.63535 20.1921L0.855347 12.4141L8.75435 4.51615L12.8113 3.25415C13.1595 3.14597 13.5305 3.135 13.8844 3.22242C14.2383 3.30984 14.5616 3.49232 14.8193 3.75015H14.8203ZM3.68435 12.4141L8.63435 17.3641L14.7983 11.1991L15.8883 7.64715L13.4043 5.16415L9.81935 6.27915L3.68435 12.4141ZM11.1083 9.93915C10.9651 9.80078 10.8508 9.63526 10.7722 9.45225C10.6936 9.26925 10.6522 9.07242 10.6505 8.87325C10.6487 8.67408 10.6867 8.47656 10.7621 8.29222C10.8375 8.10787 10.9489 7.94039 11.0898 7.79956C11.2306 7.65872 11.3981 7.54734 11.5824 7.47192C11.7668 7.39649 11.9643 7.35854 12.1634 7.36027C12.3626 7.362 12.5594 7.40338 12.7425 7.482C12.9255 7.56061 13.091 7.67488 13.2293 7.81815C13.4978 8.10186 13.645 8.4791 13.6397 8.86967C13.6344 9.26023 13.4769 9.63331 13.2008 9.90957C12.9246 10.1858 12.5516 10.3435 12.1611 10.349C11.7705 10.3545 11.3932 10.2075 11.1093 9.93915H11.1083ZM17.9943 10.9611L18.7763 8.08315C19.2263 8.23515 19.5313 8.40815 19.6933 8.60115C19.949 8.9059 20.0731 9.29971 20.0384 9.69596C20.0037 10.0922 19.813 10.4585 19.5083 10.7141C19.2183 10.9581 18.7133 11.0401 17.9943 10.9611Z" fill="#21272A"/>
  </g>
  <defs>
    <clipPath id="clip0_7117_3292">
      <rect width="24" height="24" fill="white" transform="translate(0.584351)"/>
    </clipPath>
  </defs>
</svg>
