<svg width="16" height="16" viewBox="0 0 16 16" fill="none" xmlns="http://www.w3.org/2000/svg">
<path fill-rule="evenodd" clip-rule="evenodd" d="M2.05713 4.41833C2.05713 3.58991 2.7287 2.91833 3.55713 2.91833H12.4423C13.2707 2.91833 13.9423 3.58991 13.9423 4.41833V8.84998C13.9423 9.6784 13.2707 10.35 12.4423 10.35H3.55713C2.7287 10.35 2.05713 9.6784 2.05713 8.84998V4.41833ZM6.37192 6.63562L7.0923 5.91523V5.91291C7.31074 5.69679 7.30842 5.34357 7.0923 5.12513C6.87619 4.90669 6.52297 4.90669 6.30453 5.12513L5.1891 6.24057C4.97066 6.45668 4.97066 6.8099 5.1891 7.02834L6.30453 8.14377C6.52065 8.36221 6.87387 8.35989 7.0923 8.14377C7.31074 7.92766 7.31074 7.57444 7.0923 7.356L6.37192 6.63562ZM10.8104 6.24057L9.69498 5.12513V5.12746C9.47887 4.90902 9.12565 4.91134 8.90721 5.12746C8.68877 5.34357 8.68877 5.69679 8.90721 5.91523L9.62759 6.63562L8.90721 7.356C8.68877 7.57211 8.69109 7.92533 8.90721 8.14377C9.12332 8.36221 9.47654 8.36221 9.69498 8.14377L10.8104 7.02834C11.0289 6.81222 11.0289 6.459 10.8104 6.24057ZM1.00965 11.098C0.763325 11.098 0.563477 11.2979 0.563477 11.5442C0.563477 12.5295 1.36287 13.0816 2.34817 13.0816H13.6512C14.6365 13.0816 15.4359 12.5295 15.4359 11.5442C15.4359 11.2979 15.2361 11.098 14.9897 11.098H1.00965Z" fill="#8A8A8A"/>
</svg>
