<svg width="17" height="16" viewBox="0 0 17 16" fill="none" xmlns="http://www.w3.org/2000/svg">
<path d="M4.42483 1.91895C3.33427 1.91895 2.4502 2.80302 2.4502 3.89358V12.3714C2.4502 13.462 3.33427 14.3461 4.42483 14.3461H7.57662C8.00624 14.3461 8.35451 13.9978 8.35451 13.5682C8.35451 13.1386 8.00624 12.7903 7.57662 12.7903H4.42483C4.19349 12.7903 4.00596 12.6028 4.00596 12.3714V3.89358C4.00596 3.66225 4.1935 3.47471 4.42483 3.47471H7.57662C8.00624 3.47471 8.35451 3.12644 8.35451 2.69683C8.35451 2.26722 8.00624 1.91895 7.57662 1.91895H4.42483Z" fill="white"/>
<path d="M10.4634 4.36481C10.7438 4.0844 11.1985 4.0844 11.4789 4.36481L13.9716 6.8575C14.6765 7.56247 14.6765 8.70545 13.9716 9.41042L11.4789 11.9031C11.1985 12.1835 10.7438 12.1835 10.4634 11.9031C10.183 11.6227 10.183 11.168 10.4634 10.8876L12.499 8.85201H6.55598C6.15941 8.85201 5.83793 8.53053 5.83793 8.13396C5.83793 7.73739 6.15941 7.41591 6.55598 7.41591L12.499 7.41591L10.4634 5.38029C10.183 5.09987 10.183 4.64523 10.4634 4.36481Z" fill="white"/>
</svg>
