<svg width="20" height="20" viewBox="0 0 20 20" fill="none" xmlns="http://www.w3.org/2000/svg">
<path d="M3.16947 3.42422H10.4621V5.63226C10.4621 6.03502 10.7886 6.36152 11.1914 6.36152V6.36152C11.5941 6.36152 11.9206 6.03502 11.9206 5.63226V2.62422C11.9206 2.18239 11.5941 1.82422 11.1914 1.82422H2.4402C2.03744 1.82422 1.71094 2.18239 1.71094 2.62422V17.0242C1.71094 17.466 2.03744 17.8242 2.4402 17.8242H11.1914C11.5941 17.8242 11.9206 17.466 11.9206 17.0242V14.0163C11.9206 13.6135 11.5941 13.287 11.1914 13.287V13.287C10.7886 13.287 10.4621 13.6135 10.4621 14.0163V16.2242H3.16947V3.42422Z" fill="white"/>
<path fill-rule="evenodd" clip-rule="evenodd" d="M13.7823 6.01621C14.0884 5.72907 14.5487 5.76852 14.8105 6.10432L17.7101 9.82423L14.8105 13.5441C14.5487 13.8799 14.0884 13.9194 13.7823 13.6323C13.4762 13.3451 13.4402 12.8401 13.702 12.5043L15.1674 10.6242H6.85817C6.45541 10.6242 6.12891 10.2661 6.12891 9.82423C6.12891 9.38241 6.45541 9.02423 6.85817 9.02423H15.1674L13.702 7.14415C13.4402 6.80834 13.4762 6.30335 13.7823 6.01621Z" fill="white"/>
</svg>
