<svg width="24" height="24" viewBox="0 0 24 24" fill="none" xmlns="http://www.w3.org/2000/svg">
<g clip-path="url(#clip0_20268_34053)">
<path d="M1.03809 3.90023C1.03809 2.41072 2.23413 1.19971 3.70522 1.19971H10.373V6.60076C10.373 7.34763 10.969 7.95103 11.7066 7.95103H17.0409V13.8416L13.0943 17.8375C12.7526 18.1835 12.5109 18.6181 12.3942 19.0907L11.7691 21.6267C11.6733 22.0233 11.6941 22.4284 11.8275 22.7997H3.70522C2.23413 22.7997 1.03809 21.5887 1.03809 20.0992V3.90023ZM17.0409 6.60076H11.7066V1.19971L17.0409 6.60076ZM23.9504 11.1452L24.5505 11.7529C25.2006 12.4111 25.2006 13.4787 24.5505 14.1411L23.3253 15.3817L20.3664 12.3858L21.5917 11.1452C22.2418 10.487 23.2961 10.487 23.9504 11.1452ZM14.0362 18.7953L19.4204 13.3436L22.3793 16.3395L16.995 21.787C16.8242 21.96 16.6116 22.0824 16.3741 22.1415L13.8695 22.7744C13.6403 22.8335 13.4027 22.766 13.236 22.5972C13.0693 22.4284 13.0027 22.1879 13.061 21.9558L13.6861 19.4198C13.7445 19.1835 13.8653 18.9641 14.0362 18.7911V18.7953Z" fill="#737373"/>
</g>
<defs>
<clipPath id="clip0_20268_34053">
<rect width="24" height="24" fill="white"/>
</clipPath>
</defs>
</svg>
