<svg width="32" height="32" viewBox="0 0 32 32" fill="none" xmlns="http://www.w3.org/2000/svg">
<g id="Frame 1171274988">
<path id="Vector" d="M14.8 22H17.2V14.8H14.8V22ZM16 12.4C16.34 12.4 16.6252 12.2848 16.8556 12.0544C17.086 11.824 17.2008 11.5392 17.2 11.2C17.1992 10.8608 17.084 10.576 16.8544 10.3456C16.6248 10.1152 16.34 10 16 10C15.66 10 15.3752 10.1152 15.1456 10.3456C14.916 10.576 14.8008 10.8608 14.8 11.2C14.7992 11.5392 14.9144 11.8244 15.1456 12.0556C15.3768 12.2868 15.6616 12.4016 16 12.4ZM16 28C14.34 28 12.78 27.6848 11.32 27.0544C9.86 26.424 8.59 25.5692 7.51 24.49C6.43 23.4108 5.5752 22.1408 4.9456 20.68C4.316 19.2192 4.0008 17.6592 4 16C3.9992 14.3408 4.3144 12.7808 4.9456 11.32C5.5768 9.8592 6.4316 8.5892 7.51 7.51C8.5884 6.4308 9.8584 5.576 11.32 4.9456C12.7816 4.3152 14.3416 4 16 4C17.6584 4 19.2184 4.3152 20.68 4.9456C22.1416 5.576 23.4116 6.4308 24.49 7.51C25.5684 8.5892 26.4236 9.8592 27.0556 11.32C27.6876 12.7808 28.0024 14.3408 28 16C27.9976 17.6592 27.6824 19.2192 27.0544 20.68C26.4264 22.1408 25.5716 23.4108 24.49 24.49C23.4084 25.5692 22.1384 26.4244 20.68 27.0556C19.2216 27.6868 17.6616 28.0016 16 28Z" fill="#C4C4C4"/>
</g>
</svg>
