<svg width="24" height="24" viewBox="0 0 24 24" fill="none" xmlns="http://www.w3.org/2000/svg">
<g clip-path="url(#clip0_20268_34045)">
<path d="M1.03711 3.90023C1.03711 2.41072 2.23315 1.19971 3.70424 1.19971H10.3721V6.60076C10.3721 7.34763 10.968 7.95103 11.7056 7.95103H17.0399V13.8416L13.0934 17.8375C12.7516 18.1835 12.5099 18.6181 12.3932 19.0907L11.7681 21.6267C11.6723 22.0233 11.6931 22.4284 11.8265 22.7997H3.70424C2.23315 22.7997 1.03711 21.5887 1.03711 20.0992V3.90023ZM17.0399 6.60076H11.7056V1.19971L17.0399 6.60076ZM23.9494 11.1452L24.5495 11.7529C25.1996 12.4111 25.1996 13.4787 24.5495 14.1411L23.3243 15.3817L20.3655 12.3858L21.5907 11.1452C22.2408 10.487 23.2951 10.487 23.9494 11.1452ZM14.0352 18.7953L19.4195 13.3436L22.3783 16.3395L16.994 21.787C16.8232 21.96 16.6106 22.0824 16.3731 22.1415L13.8685 22.7744C13.6393 22.8335 13.4018 22.766 13.2351 22.5972C13.0684 22.4284 13.0017 22.1879 13.06 21.9558L13.6851 19.4198C13.7435 19.1835 13.8643 18.9641 14.0352 18.7911V18.7953Z" fill="#9B9B9B"/>
</g>
<defs>
<clipPath id="clip0_20268_34045">
<rect width="24" height="24" fill="white"/>
</clipPath>
</defs>
</svg>
