<svg width="24" height="24" viewBox="0 0 24 24" fill="none" xmlns="http://www.w3.org/2000/svg">
<path d="M3.7832 6.06001C3.7832 4.96795 4.67108 4.08008 5.76314 4.08008H10.713V8.03995C10.713 8.58752 11.1554 9.02991 11.7029 9.02991H15.6628V13.3486L12.7331 16.2783C12.4794 16.532 12.3 16.8507 12.2134 17.1971L11.7493 19.0564C11.6782 19.3472 11.6937 19.6442 11.7927 19.9165H5.76314C4.67108 19.9165 3.7832 19.0286 3.7832 17.9365V6.06001ZM15.6628 8.03995H11.7029V4.08008L15.6628 8.03995ZM20.7921 11.3718L21.2376 11.8173C21.7202 12.2999 21.7202 13.0826 21.2376 13.5683L20.328 14.4778L18.1315 12.2813L19.0411 11.3718C19.5237 10.8892 20.3064 10.8892 20.7921 11.3718ZM13.4323 16.9806L17.4293 12.9836L19.6258 15.1801L15.6288 19.174C15.5019 19.3008 15.3442 19.3905 15.1678 19.4338L13.3085 19.8979C13.1384 19.9412 12.9621 19.8917 12.8383 19.768C12.7146 19.6442 12.6651 19.4679 12.7084 19.2977L13.1724 17.4384C13.2157 17.2652 13.3055 17.1043 13.4323 16.9775V16.9806Z" fill="#737373"/>
</svg>
