<svg xmlns="http://www.w3.org/2000/svg" width="24" height="25" viewBox="0 0 24 25" fill="none">
  <mask id="path-1-inside-1_504_6173" fill="white">
    <path fill-rule="evenodd" clip-rule="evenodd" d="M6 3.5C5.44772 3.5 5 3.94772 5 4.5V20.5C5 21.0523 5.44772 21.5 6 21.5H19V8.5H14V3.5H6Z"/>
  </mask>
  <path d="M19 21.5V22.5H20V21.5H19ZM19 8.5H20V7.5H19V8.5ZM14 8.5H13V9.5H14V8.5ZM14 3.5H15V2.5H14V3.5ZM6 4.5V4.5V2.5C4.89543 2.5 4 3.39543 4 4.5H6ZM6 20.5V4.5H4V20.5H6ZM6 20.5H6H4C4 21.6046 4.89543 22.5 6 22.5V20.5ZM19 20.5H6V22.5H19V20.5ZM18 8.5V21.5H20V8.5H18ZM19 7.5H14V9.5H19V7.5ZM15 8.5V3.5H13V8.5H15ZM6 4.5H14V2.5H6V4.5Z" fill="#171717" mask="url(#path-1-inside-1_504_6173)"/>
  <path d="M14.5 8V4.70711L17.7929 8H14.5Z" fill="#171717" stroke="#171717" stroke-linecap="round"/>
  <path fill-rule="evenodd" clip-rule="evenodd" d="M21 17.5C21 20.2614 18.7614 22.5 16 22.5C13.2386 22.5 11 20.2614 11 17.5C11 14.7386 13.2386 12.5 16 12.5C18.7614 12.5 21 14.7386 21 17.5ZM17 15C17 15.5523 16.5523 16 16 16C15.4477 16 15 15.5523 15 15C15 14.4477 15.4477 14 16 14C16.5523 14 17 14.4477 17 15ZM16.75 20.5V17H15.25V20.5H16.75Z" fill="#171717"/>
</svg>
