<svg width="20" height="20" viewBox="0 0 20 20" fill="none" xmlns="http://www.w3.org/2000/svg">
<path d="M11.6377 14.4141C11.9827 14.4142 12.2626 14.694 12.2627 15.0391C12.2626 15.3841 11.9827 15.6639 11.6377 15.6641H8.36133C8.01629 15.664 7.73645 15.3841 7.73633 15.0391C7.73639 14.694 8.01626 14.4141 8.36133 14.4141H11.6377ZM14.3701 9.91602C14.7151 9.9162 14.9951 10.196 14.9951 10.541C14.995 10.886 14.7151 11.1658 14.3701 11.166H5.62988C5.28478 11.166 5.005 10.8861 5.00488 10.541C5.00491 10.1959 5.28472 9.91602 5.62988 9.91602H14.3701ZM17.1016 5.41797C17.4466 5.41809 17.7266 5.69786 17.7266 6.04297C17.7264 6.38797 17.4466 6.66785 17.1016 6.66797H2.89746C2.55236 6.66797 2.27258 6.38804 2.27246 6.04297C2.27246 5.69779 2.55228 5.41797 2.89746 5.41797H17.1016Z" fill="#474747"/>
</svg>
