<svg width="28" height="28" viewBox="0 0 28 28" fill="none" xmlns="http://www.w3.org/2000/svg">
  <path fill-rule="evenodd" clip-rule="evenodd" d="M14 2C7.373 2 2 7.373 2 14c0 5.302 3.438 9.8 8.205 11.387.6.113.82-.258.82-.577 0-.285-.01-1.04-.015-2.04-3.338.724-4.042-1.61-4.042-1.61-.546-1.387-1.333-1.756-1.333-1.756-1.09-.745.083-.729.083-.729 1.205.084 1.84 1.237 1.84 1.237 1.07 1.834 2.807 1.304 3.492.997.108-.775.418-1.305.762-1.604-2.665-.305-5.467-1.334-5.467-5.931 0-1.31.468-2.381 1.236-3.221-.124-.303-.536-1.524.117-3.176 0 0 1.008-.322 3.3 1.23A11.513 11.513 0 0 1 14 8.803c1.02.005 2.047.138 3.006.404 2.29-1.552 3.297-1.23 3.297-1.23.654 1.653.242 2.874.118 3.176.77.84 1.235 1.911 1.235 3.221 0 4.609-2.807 5.624-5.479 5.921.43.372.823 1.102.823 2.222 0 1.606-.015 2.898-.015 3.293 0 .322.216.694.825.576C22.565 23.796 26 19.3 26 14c0-6.627-5.373-12-12-12Z" fill="white"/>
</svg>
