<svg width="48" height="48" viewBox="0 0 48 48" fill="none" xmlns="http://www.w3.org/2000/svg">
<rect width="48" height="48" rx="12" fill="black"/>
<path fill-rule="evenodd" clip-rule="evenodd" d="M23.9993 9C15.5277 9 8.66602 15.8617 8.66602 24.3333C8.66602 31.1183 13.0552 36.8492 19.1502 38.8808C19.9168 39.015 20.2043 38.555 20.2043 38.1525C20.2043 37.7883 20.1852 36.5808 20.1852 35.2967C16.3327 36.0058 15.336 34.3575 15.0293 33.495C14.8568 33.0542 14.1093 31.6933 13.4577 31.3292C12.921 31.0417 12.1543 30.3325 13.4385 30.3133C14.646 30.2942 15.5085 31.425 15.796 31.885C17.176 34.2042 19.3802 33.5525 20.2618 33.15C20.396 32.1533 20.7985 31.4825 21.2393 31.0992C17.8277 30.7158 14.2627 29.3933 14.2627 23.5283C14.2627 21.8608 14.8568 20.4808 15.8343 19.4075C15.681 19.0242 15.1443 17.4525 15.9877 15.3442C15.9877 15.3442 17.2718 14.9417 20.2043 16.9158C21.431 16.5708 22.7343 16.3983 24.0377 16.3983C25.341 16.3983 26.6443 16.5708 27.871 16.9158C30.8035 14.9225 32.0877 15.3442 32.0877 15.3442C32.931 17.4525 32.3943 19.0242 32.241 19.4075C33.2185 20.4808 33.8127 21.8417 33.8127 23.5283C33.8127 29.4125 30.2285 30.7158 26.8168 31.0992C27.3727 31.5783 27.8518 32.4983 27.8518 33.9358C27.8518 35.9867 27.8327 37.635 27.8327 38.1525C27.8327 38.555 28.1202 39.0342 28.8868 38.8808C34.9435 36.8492 39.3327 31.0992 39.3327 24.3333C39.3327 15.8617 32.471 9 23.9993 9Z" fill="white"/>
</svg>
