<svg width="48" height="48" viewBox="0 0 48 48" fill="none" xmlns="http://www.w3.org/2000/svg">
<rect x="0.5" y="0.5" width="47" height="47" rx="11.5" fill="white" stroke="#D8D8D8"/>
<path fill-rule="evenodd" clip-rule="evenodd" d="M40 24.3637C40 23.2292 39.8961 22.1383 39.7032 21.091H24.3265V27.2801H33.1132C32.7347 29.2801 31.5844 30.9746 29.8553 32.1092V36.1237H35.1317C38.2189 33.3382 40 29.2364 40 24.3637Z" fill="#4285F4"/>
<path fill-rule="evenodd" clip-rule="evenodd" d="M24.3265 39.9999C28.7347 39.9999 32.4304 38.5673 35.1317 36.1237L29.8553 32.1092C28.3933 33.0692 26.5232 33.6363 24.3265 33.6363C20.0742 33.6363 16.475 30.8218 15.1911 27.04H9.73656V31.1854C12.423 36.4145 17.9444 39.9999 24.3265 39.9999Z" fill="#34A853"/>
<path fill-rule="evenodd" clip-rule="evenodd" d="M15.1911 27.04C14.8646 26.08 14.679 25.0546 14.679 24.0001C14.679 22.9455 14.8646 21.9201 15.1911 20.9601V16.8146H9.73655C8.6308 18.9746 8 21.4182 8 24.0001C8 26.5819 8.63081 29.0254 9.73656 31.1854L15.1911 27.04Z" fill="#FBBC05"/>
<path fill-rule="evenodd" clip-rule="evenodd" d="M24.3265 14.3636C26.7236 14.3636 28.8757 15.1709 30.5677 16.7564L35.2505 12.1673C32.423 9.58545 28.7273 8 24.3265 8C17.9444 8 12.423 11.5855 9.73655 16.8146L15.1911 20.9601C16.475 17.1783 20.0742 14.3636 24.3265 14.3636Z" fill="#EA4335"/>
</svg>
