<svg width="32" height="32" viewBox="0 0 32 32" fill="none" xmlns="http://www.w3.org/2000/svg">
  <path d="M29.44 16.318c0-1.01-.082-1.984-.235-2.921H16v5.527h7.545a6.45 6.45 0 0 1-2.797 4.232v3.518h4.527c2.649-2.44 4.165-6.034 4.165-10.356Z" fill="#4285F4"/>
  <path d="M16 30c3.78 0 6.952-1.254 9.27-3.393l-4.527-3.518c-1.254.84-2.857 1.336-4.743 1.336-3.647 0-6.735-2.463-7.84-5.778H3.487v3.625A14 14 0 0 0 16 30Z" fill="#34A853"/>
  <path d="M8.16 18.647A8.424 8.424 0 0 1 7.72 16c0-.922.158-1.818.44-2.647V9.728H3.487A14.003 14.003 0 0 0 2 16c0 2.26.54 4.396 1.487 6.272l4.673-3.625Z" fill="#FBBC05"/>
  <path d="M16 7.575c2.055 0 3.9.707 5.35 2.094l4.012-4.013C23.046 3.384 19.874 2 16 2A14 14 0 0 0 3.487 9.728l4.673 3.625C9.265 10.038 12.353 7.575 16 7.575Z" fill="#EA4335"/>
</svg>
