<svg width="44" height="44" viewBox="0 0 44 44" fill="none" xmlns="http://www.w3.org/2000/svg">
<path fill-rule="evenodd" clip-rule="evenodd" d="M19.4113 5.88673C20.8545 4.49093 23.145 4.49083 24.5881 5.88673L25.2932 6.56935C26.1184 7.36763 27.2657 7.74075 28.4025 7.58009L29.3742 7.4424C31.3624 7.16118 33.2158 8.50756 33.5627 10.4854L33.7326 11.4522C33.9311 12.583 34.6403 13.5586 35.6545 14.0967L36.5207 14.5567C38.2945 15.4978 39.0022 17.6765 38.1203 19.4805L37.6897 20.3623C37.1855 21.3939 37.1854 22.6004 37.6897 23.6319L38.1203 24.5137C39.002 26.3176 38.2944 28.4954 36.5207 29.4365L35.6545 29.8965C34.6402 30.4347 33.931 31.411 33.7326 32.542L33.5627 33.5088C33.2156 35.4864 31.3623 36.832 29.3742 36.5508L28.4025 36.4141C27.2658 36.2534 26.1184 36.6257 25.2932 37.4238L24.5881 38.1065C23.1449 39.5026 20.8545 39.5025 19.4113 38.1065L18.7063 37.4238C17.881 36.6255 16.7328 36.2533 15.5959 36.4141L14.6242 36.5508C12.6363 36.8318 10.7838 35.4863 10.4367 33.5088L10.2668 32.542C10.0684 31.411 9.35926 30.4347 8.34493 29.8965L7.47774 29.4365C5.70443 28.4954 4.99672 26.3174 5.87813 24.5137L6.30978 23.6319C6.81396 22.6004 6.81383 21.3938 6.30978 20.3623L5.87813 19.4805C4.99638 17.6766 5.70416 15.4978 7.47774 14.5567L8.34493 14.0967C9.35908 13.5586 10.0683 12.5829 10.2668 11.4522L10.4367 10.4854C10.7836 8.50769 12.6362 7.1614 14.6242 7.4424L15.5959 7.58009C16.7329 7.74091 17.881 7.36773 18.7063 6.56935L19.4113 5.88673ZM19.9387 14.2246L14.549 29.7695H18.0275L19.2082 26.1836H24.8342L25.9934 29.7695H29.4494L24.0822 14.2246H19.9387ZM22.0637 17.7246L24.0178 23.6719H20.0246L21.9563 17.7246H22.0637Z" fill="#3581FA"/>
</svg>
