<svg width="36" height="36" viewBox="0 0 36 36" fill="none" xmlns="http://www.w3.org/2000/svg">
<path d="M7.1998 26.1001V20.0953L14.4142 24.2389C15.5053 24.8655 16.7416 25.1952 17.9998 25.1952C19.258 25.1952 20.4943 24.8655 21.5854 24.2389L28.7998 20.0953V26.1001C28.8 26.2183 28.7769 26.3355 28.7318 26.4448C28.6867 26.5542 28.6205 26.6535 28.537 26.7373L28.5334 26.7391L28.5298 26.7445L28.5172 26.7553L28.4758 26.7949L28.3318 26.9281C28.2058 27.0421 28.0252 27.1909 27.79 27.3745C27.144 27.8716 26.4569 28.313 25.7362 28.6939C23.3536 29.9564 20.6962 30.6111 17.9998 30.6001C15.3033 30.6106 12.6458 29.9552 10.2634 28.6921C9.54332 28.3111 8.85685 27.8697 8.2114 27.3727C7.97426 27.1891 7.74486 26.9957 7.5238 26.7931L7.48241 26.7535C7.39334 26.6695 7.32235 26.5683 7.27376 26.4559C7.22516 26.3436 7.2 26.2225 7.1998 26.1001ZM33.748 15.1795L20.689 22.6765C19.8707 23.1464 18.9435 23.3937 17.9998 23.3937C17.0561 23.3937 16.1289 23.1464 15.3106 22.6765L3.5998 15.9535V24.2983C3.5998 24.537 3.50498 24.7659 3.3362 24.9347C3.16742 25.1035 2.9385 25.1983 2.6998 25.1983C2.46111 25.1983 2.23219 25.1035 2.06341 24.9347C1.89463 24.7659 1.7998 24.537 1.7998 24.2983V14.4001C1.79971 14.2378 1.8435 14.0785 1.92651 13.9391C2.00953 13.7997 2.1287 13.6853 2.2714 13.6081L15.3106 6.12008C16.1289 5.65013 17.0561 5.40283 17.9998 5.40283C18.9435 5.40283 19.8707 5.65013 20.689 6.12008L33.748 13.6189C33.8852 13.6977 33.9992 13.8114 34.0785 13.9484C34.1578 14.0854 34.1995 14.2409 34.1995 14.3992C34.1995 14.5575 34.1578 14.7129 34.0785 14.8499C33.9992 14.9869 33.8852 15.1006 33.748 15.1795Z" fill="#3581FA"/>
</svg>
