<svg xmlns="http://www.w3.org/2000/svg" width="20" height="20" viewBox="0 0 20 20" fill="none">
  <path d="M18 18.168H18.5V17.668V6.80002V6.51692L18.2572 6.37127L10.2572 1.57127L10 1.41692L9.74275 1.57127L1.74275 6.37127L1.5 6.51692V6.80002V17.668V18.168H2H6H6.5V17.668V14.918C6.5 13.9898 6.86875 13.0995 7.52513 12.4431C8.1815 11.7868 9.07174 11.418 10 11.418C10.9283 11.418 11.8185 11.7868 12.4749 12.4431C13.1313 13.0995 13.5 13.9898 13.5 14.918V17.668V18.168H14H18ZM12.5 19.168V14.918C12.5 14.255 12.2366 13.6191 11.7678 13.1503C11.2989 12.6814 10.663 12.418 10 12.418C9.33696 12.418 8.70107 12.6814 8.23223 13.1503C7.76339 13.6191 7.5 14.255 7.5 14.918V19.168H2C1.60218 19.168 1.22064 19.01 0.93934 18.7287C0.658035 18.4474 0.5 18.0658 0.5 17.668V6.80002C0.499997 6.54099 0.567073 6.28637 0.694695 6.06096C0.822317 5.83555 1.00614 5.64703 1.22825 5.51376L9.22825 0.713766L8.97143 0.285739L9.22825 0.713764C9.46137 0.573888 9.72813 0.5 10 0.5C10.2719 0.5 10.5386 0.573888 10.7718 0.713764L11.029 0.285019L10.7718 0.713766L18.7718 5.51377C18.9939 5.64704 19.1777 5.83555 19.3053 6.06096C19.4329 6.28637 19.5 6.54098 19.5 6.80001V17.668C19.5 18.0658 19.342 18.4474 19.0607 18.7287C18.7794 19.01 18.3978 19.168 18 19.168H12.5Z" fill="black" stroke="currentColor"/>
</svg>
