<svg xmlns="http://www.w3.org/2000/svg" width="25" height="24" viewBox="0 0 25 24" fill="none">
  <path d="M20.5844 20V9.13205L12.5844 4.33205L4.58435 9.13205V20H8.58435V17.2501C8.58435 16.1892 9.00578 15.1718 9.75592 14.4216C10.5061 13.6715 11.5235 13.2501 12.5844 13.2501C13.6452 13.2501 14.6626 13.6715 15.4128 14.4216C16.1629 15.1718 16.5844 16.1892 16.5844 17.2501V20H20.5844ZM14.5844 22V17.2501C14.5844 16.7196 14.3736 16.2109 13.9986 15.8358C13.6235 15.4608 13.1148 15.2501 12.5844 15.2501C12.0539 15.2501 11.5452 15.4608 11.1701 15.8358C10.7951 16.2109 10.5844 16.7196 10.5844 17.2501V22H4.58435C4.05392 22 3.54521 21.7893 3.17014 21.4143C2.79506 21.0392 2.58435 20.5305 2.58435 20V9.13205C2.58435 8.78668 2.67378 8.44719 2.84394 8.14665C3.01411 7.8461 3.2592 7.59474 3.55535 7.41705L11.5554 2.61705C11.8662 2.43055 12.2219 2.33203 12.5844 2.33203C12.9468 2.33203 13.3025 2.43055 13.6134 2.61705L21.6133 7.41705C21.9095 7.59474 22.1546 7.8461 22.3248 8.14665C22.4949 8.44719 22.5844 8.78668 22.5844 9.13205V20C22.5844 20.5305 22.3736 21.0392 21.9986 21.4143C21.6235 21.7893 21.1148 22 20.5844 22H14.5844Z" fill="#3581FA"/>
</svg>
