<svg width="16" height="16" viewBox="0 0 16 16" fill="none" xmlns="http://www.w3.org/2000/svg">
<path d="M15.0045 7.98783C15.0045 8.42587 14.6395 8.769 14.2258 8.769H13.447L13.4641 12.6675C13.4641 12.7332 13.4592 12.7989 13.4519 12.8646V13.2564C13.4519 13.7943 13.0163 14.2299 12.4785 14.2299H12.0891C12.0624 14.2299 12.0356 14.2299 12.0088 14.2274C11.9747 14.2299 11.9407 14.2299 11.9066 14.2299H11.1157H10.5317C9.99385 14.2299 9.55824 13.7943 9.55824 13.2564V12.6724V11.1149C9.55824 10.6842 9.21025 10.3362 8.77951 10.3362H7.22205C6.79131 10.3362 6.44331 10.6842 6.44331 11.1149V12.6724V13.2564C6.44331 13.7943 6.00771 14.2299 5.4699 14.2299H4.88585H4.10955C4.07305 14.2299 4.03654 14.2274 4.00004 14.225C3.97084 14.2274 3.94164 14.2299 3.91243 14.2299H3.52307C2.98526 14.2299 2.54965 13.7943 2.54965 13.2564V10.5309C2.54965 10.509 2.54965 10.4846 2.55209 10.4627V8.769H1.77092C1.33288 8.769 0.992188 8.4283 0.992188 7.98783C0.992188 7.76881 1.06519 7.57413 1.23554 7.40378L7.47513 1.96482C7.64548 1.79448 7.84017 1.77014 8.01051 1.77014C8.18086 1.77014 8.37554 1.81881 8.52156 1.94049L14.7368 7.40378C14.9315 7.57413 15.0288 7.76881 15.0045 7.98783Z" fill="#8A8A8A"/>
</svg>
