<svg width="16" height="17" viewBox="0 0 16 17" fill="none" xmlns="http://www.w3.org/2000/svg">
<path fill-rule="evenodd" clip-rule="evenodd" d="M14 8.5C14 11.8138 11.3138 14.5 8 14.5C4.6862 14.5 2 11.8138 2 8.5C2 5.1862 4.6862 2.5 8 2.5C11.3138 2.5 14 5.1862 14 8.5ZM7.4 6.1C7.4 6.25913 7.46321 6.41174 7.57574 6.52426C7.68826 6.63679 7.84087 6.7 8 6.7H8.0048C8.16393 6.7 8.31654 6.63679 8.42906 6.52426C8.54159 6.41174 8.6048 6.25913 8.6048 6.1C8.6048 5.94087 8.54159 5.78826 8.42906 5.67574C8.31654 5.56321 8.16393 5.5 8.0048 5.5H8C7.84087 5.5 7.68826 5.56321 7.57574 5.67574C7.46321 5.78826 7.4 5.94087 7.4 6.1ZM8 11.5C8.15913 11.5 8.31174 11.4368 8.42426 11.3243C8.53679 11.2117 8.6 11.0591 8.6 10.9V7.9C8.6 7.74087 8.53679 7.58826 8.42426 7.47574C8.31174 7.36321 8.15913 7.3 8 7.3C7.84087 7.3 7.68826 7.36321 7.57574 7.47574C7.46321 7.58826 7.4 7.74087 7.4 7.9V10.9C7.4 11.0591 7.46321 11.2117 7.57574 11.3243C7.68826 11.4368 7.84087 11.5 8 11.5Z" fill="#3581FA"/>
</svg>
