<svg width="32" height="32" viewBox="0 0 32 32" fill="none" xmlns="http://www.w3.org/2000/svg">
<g id="24 / ImageUpload">
<path id="Subtract" fill-rule="evenodd" clip-rule="evenodd" d="M18.1046 27.9301H5.47352C3.92966 27.9301 2.6665 26.667 2.6665 25.1231V5.47401C2.6665 3.93015 3.92966 2.66699 5.47352 2.66699H25.1226C26.6665 2.66699 27.9297 3.93015 27.9297 5.47401V18.1051C26.7568 17.2241 25.2989 16.7021 23.7191 16.7021C22.5438 16.7021 21.436 16.991 20.4627 17.5018L19.3683 16.0424C19.0876 15.6635 18.5262 15.6635 18.2455 16.0284L13.8946 21.6284L10.9472 18.0775C10.6525 17.7266 10.1191 17.7407 9.85247 18.1056L6.35773 22.5968C5.99282 23.06 6.31563 23.7337 6.9051 23.7337H16.7016C16.7047 25.3081 17.2262 26.7608 18.1046 27.9301Z" fill="#333333" fill-opacity="0.3"/>
<path id="Subtract_2" fill-rule="evenodd" clip-rule="evenodd" d="M23.7195 29.3335C26.8201 29.3335 29.3335 26.8201 29.3335 23.7195C29.3335 20.619 26.8201 18.1055 23.7195 18.1055C20.619 18.1055 18.1055 20.619 18.1055 23.7195C18.1055 26.8201 20.619 29.3335 23.7195 29.3335ZM22.5853 20.7463C23.2118 20.1199 24.2274 20.1199 24.8538 20.7463L26.6927 22.5852C27.0059 22.8984 27.0059 23.4062 26.6927 23.7194C26.3795 24.0326 25.8717 24.0326 25.5585 23.7194L24.5216 22.6825V26.3604C24.5216 26.8033 24.1625 27.1624 23.7196 27.1624C23.2766 27.1624 22.9175 26.8033 22.9175 26.3604V22.6825L21.8806 23.7194C21.5674 24.0326 21.0596 24.0326 20.7464 23.7194C20.4332 23.4062 20.4332 22.8984 20.7464 22.5852L22.5853 20.7463Z" fill="#333333" fill-opacity="0.3"/>
</g>
</svg>
