<svg width="50" height="50" viewBox="0 0 50 50" fill="none" xmlns="http://www.w3.org/2000/svg">
<path fill-rule="evenodd" clip-rule="evenodd" d="M43.75 25C43.75 14.6444 35.3556 6.25 25 6.25C14.6444 6.25 6.25 14.6444 6.25 25C6.25 35.3556 14.6444 43.75 25 43.75C35.3556 43.75 43.75 35.3556 43.75 25ZM23.125 32.5C23.125 32.0027 23.3225 31.5258 23.6742 31.1742C24.0258 30.8225 24.5027 30.625 25 30.625H25.015C25.5123 30.625 25.9892 30.8225 26.3408 31.1742C26.6925 31.5258 26.89 32.0027 26.89 32.5C26.89 32.9973 26.6925 33.4742 26.3408 33.8258C25.9892 34.1775 25.5123 34.375 25.015 34.375H25C24.5027 34.375 24.0258 34.1775 23.6742 33.8258C23.3225 33.4742 23.125 32.9973 23.125 32.5ZM25 15.625C25.4973 15.625 25.9742 15.8225 26.3258 16.1742C26.6775 16.5258 26.875 17.0027 26.875 17.5V26.875C26.875 27.3723 26.6775 27.8492 26.3258 28.2008C25.9742 28.5525 25.4973 28.75 25 28.75C24.5027 28.75 24.0258 28.5525 23.6742 28.2008C23.3225 27.8492 23.125 27.3723 23.125 26.875V17.5C23.125 17.0027 23.3225 16.5258 23.6742 16.1742C24.0258 15.8225 24.5027 15.625 25 15.625Z" fill="#3581FA"/>
</svg>
