<svg width="30" height="30" viewBox="0 0 30 30" fill="none" xmlns="http://www.w3.org/2000/svg">
<path d="M15.0004 8.70158C15.3574 8.70158 15.6568 8.82254 15.8988 9.06446C16.1407 9.30638 16.2612 9.60542 16.2604 9.96158V15.0016C16.2604 15.3586 16.1394 15.6576 15.8975 15.8987C15.6556 16.1398 15.3565 16.2607 15.0004 16.2616C14.6442 16.2624 14.3452 16.1415 14.1033 15.8987C13.8613 15.6559 13.7404 15.3569 13.7404 15.0016V9.96158C13.7404 9.60458 13.8613 9.30512 14.1033 9.0632C14.3452 8.82128 14.6442 8.70074 15.0004 8.70158ZM15.0004 18.7816C15.3574 18.7816 15.6568 18.9025 15.8988 19.1444C16.1407 19.3864 16.2612 19.6854 16.2604 20.0416C16.2595 20.3977 16.1386 20.6968 15.8975 20.9387C15.6564 21.1806 15.3574 21.3016 15.0004 21.3016C14.6434 21.3016 14.3443 21.1806 14.1033 20.9387C13.8622 20.6968 13.7412 20.3977 13.7404 20.0416C13.7395 19.6854 13.8605 19.3859 14.1033 19.1432C14.346 18.9004 14.6451 18.7799 15.0004 18.7816ZM15.0004 2.40158C13.2574 2.40158 11.6194 2.73254 10.0864 3.39446C8.55339 4.05638 7.21989 4.95392 6.08589 6.08708C4.95189 7.22024 4.05435 8.55374 3.39327 10.0876C2.73219 11.6214 2.40123 13.2594 2.40039 15.0016C2.39955 16.7437 2.73051 18.3817 3.39327 19.9156C4.05603 21.4494 4.95357 22.7829 6.08589 23.9161C7.21821 25.0492 8.55171 25.9468 10.0864 26.6087C11.6211 27.2706 13.2591 27.6016 15.0004 27.6016C16.7417 27.6016 18.3797 27.2706 19.9144 26.6087C21.4491 25.9468 22.7826 25.0492 23.9149 23.9161C25.0472 22.7829 25.9452 21.4494 26.6088 19.9156C27.2724 18.3817 27.6029 16.7437 27.6004 15.0016C27.5979 13.2594 27.2669 11.6214 26.6075 10.0876C25.9481 8.55374 25.0506 7.22024 23.9149 6.08708C22.7792 4.95392 21.4457 4.05596 19.9144 3.3932C18.3831 2.73044 16.7451 2.3999 15.0004 2.40158Z" fill="#B0B0B0"/>
</svg>
