<svg width="50" height="50" viewBox="0 0 50 50" fill="none" xmlns="http://www.w3.org/2000/svg">
<path d="M25 14.0635C25.6198 14.0635 26.1397 14.2735 26.5597 14.6935C26.9797 15.1135 27.1889 15.6327 27.1875 16.251V25.001C27.1875 25.6208 26.9775 26.1399 26.5575 26.5585C26.1375 26.977 25.6183 27.187 25 27.1885C24.3817 27.1899 23.8625 26.9799 23.4425 26.5585C23.0225 26.137 22.8125 25.6179 22.8125 25.001V16.251C22.8125 15.6312 23.0225 15.1113 23.4425 14.6913C23.8625 14.2713 24.3817 14.062 25 14.0635ZM25 31.5635C25.6198 31.5635 26.1397 31.7735 26.5597 32.1935C26.9797 32.6135 27.1889 33.1327 27.1875 33.751C27.186 34.3693 26.976 34.8885 26.5575 35.3085C26.1389 35.7285 25.6198 35.9385 25 35.9385C24.3802 35.9385 23.861 35.7285 23.4425 35.3085C23.0239 34.8885 22.8139 34.3693 22.8125 33.751C22.811 33.1327 23.021 32.6128 23.4425 32.1913C23.8639 31.7698 24.3831 31.5606 25 31.5635ZM25 3.12601C21.9739 3.12601 19.1302 3.70059 16.4687 4.84976C13.8073 5.99892 11.4922 7.55715 9.52344 9.52444C7.55469 11.4917 5.99646 13.8068 4.84875 16.4698C3.70104 19.1327 3.12646 21.9764 3.125 25.001C3.12354 28.0256 3.69813 30.8693 4.84875 33.5322C5.99938 36.1952 7.5576 38.5103 9.52344 40.4775C11.4893 42.4448 13.8044 44.0031 16.4687 45.1522C19.1331 46.3014 21.9769 46.876 25 46.876C28.0231 46.876 30.8669 46.3014 33.5312 45.1522C36.1956 44.0031 38.5107 42.4448 40.4765 40.4775C42.4424 38.5103 44.0013 36.1952 45.1534 33.5322C46.3055 30.8693 46.8793 28.0256 46.875 25.001C46.8706 21.9764 46.296 19.1327 45.1512 16.4698C44.0064 13.8068 42.4482 11.4917 40.4765 9.52444C38.5049 7.55715 36.1898 5.9982 33.5312 4.84757C30.8727 3.69695 28.0289 3.12309 25 3.12601Z" fill="#FF3B2F"/>
</svg>
