<svg width="24" height="24" viewBox="0 0 24 24" fill="none" xmlns="http://www.w3.org/2000/svg">
<path d="M12.8685 7.70752C13.5578 7.7077 14.1163 8.26619 14.1165 8.95557C14.1165 9.50996 13.7552 9.97905 13.2552 10.1421L12.5306 14.6167L14.3763 13.7114C14.3746 13.6846 14.3734 13.6576 14.3734 13.6304C14.3734 12.9408 14.9319 12.3815 15.6214 12.3813C16.311 12.3813 16.8704 12.9407 16.8704 13.6304C16.8704 14.32 16.311 14.8794 15.6214 14.8794C15.3864 14.8793 15.1675 14.8126 14.9798 14.6997L12.305 16.0093L11.6439 20.0942C11.5929 20.4083 11.2968 20.6217 10.9827 20.5708C10.6688 20.5198 10.4554 20.2237 10.5062 19.9097L11.4085 14.3354L8.67316 12.6704C8.49321 12.771 8.28654 12.8295 8.06573 12.8296C7.37624 12.8296 6.81696 12.271 6.81671 11.5815C6.81671 10.8919 7.37609 10.3325 8.06573 10.3325C8.75522 10.3327 9.31378 10.892 9.31378 11.5815C9.31377 11.6241 9.31209 11.6661 9.30792 11.7075L11.6077 13.1079L12.1185 9.95264C11.816 9.72476 11.6194 9.36347 11.6194 8.95557C11.6196 8.26608 12.1789 7.70752 12.8685 7.70752Z" fill="url(#paint0_linear_21649_1465)"/>
<path d="M9.73303 3.53687C11.9032 3.08902 13.3848 4.01453 14.0914 4.82007C14.6126 4.62256 15.3029 4.47435 16.0192 4.48413C16.9753 4.49741 18.0592 4.79681 18.8326 5.7312C19.671 6.74444 19.8921 7.72572 19.8336 8.59448C19.7912 9.22278 19.5965 9.79244 19.444 10.2097C20.2787 11.0232 21.4362 12.692 20.7848 14.823C20.4449 15.934 19.6528 16.6984 18.8082 17.1638C17.9723 17.6242 17.032 17.8213 16.3073 17.7625C15.9997 17.7374 15.7706 17.4675 15.7955 17.1599C15.821 16.8526 16.0906 16.6231 16.3981 16.6482C16.8791 16.6872 17.6014 16.5515 18.2682 16.1843C18.9263 15.8216 19.4809 15.2625 19.7155 14.4958C20.2472 12.7559 19.1277 11.3733 18.4362 10.8054L18.1354 10.5593L18.2623 10.1912C18.4416 9.67094 18.6756 9.15205 18.7184 8.51929C18.7581 7.92887 18.6227 7.23138 17.9713 6.44409C17.473 5.84213 16.7524 5.61271 16.0035 5.60229C15.2452 5.59198 14.5367 5.81056 14.1832 6.00366L13.7115 6.26147L13.4352 5.80054C13.1339 5.29875 11.9765 4.21645 9.95959 4.63257C8.98106 4.83466 8.43796 5.33967 8.12854 5.87769C7.80746 6.43641 7.72311 7.06057 7.73401 7.47046L7.75549 8.27222L6.9967 8.0144C6.90473 7.98327 6.60269 7.91722 6.25452 7.95874C5.91953 7.99888 5.57027 8.13419 5.29749 8.47241C4.64429 9.28327 5.00452 10.0914 5.33948 10.6414L5.61292 11.0906L5.18225 11.3904C5.03078 11.4961 4.64254 11.8922 4.38733 12.5164C4.14084 13.1198 4.02565 13.9194 4.36584 14.8601C4.70084 15.7858 5.29426 16.2533 5.93225 16.488C6.59361 16.7311 7.32625 16.7302 7.89026 16.6521C8.1955 16.6103 8.47847 16.8235 8.52112 17.1287C8.5632 17.4339 8.34957 17.7166 8.04456 17.7595C7.37726 17.852 6.44121 17.8671 5.54553 17.5378C4.62608 17.1995 3.77107 16.503 3.31409 15.24C2.86765 14.0052 3.01537 12.918 3.35217 12.0935C3.57277 11.5539 3.8794 11.1177 4.16077 10.8162C3.81479 10.1044 3.49034 8.93333 4.42639 7.77124C4.92565 7.15176 5.57353 6.91407 6.1217 6.84839C6.31015 6.82589 6.49138 6.8227 6.65588 6.83179C6.71918 6.36639 6.86661 5.83013 7.15979 5.32007C7.62093 4.51835 8.42676 3.8067 9.73303 3.53687Z" fill="url(#paint1_linear_21649_1465)"/>
<defs>
<linearGradient id="paint0_linear_21649_1465" x1="9.3561" y1="11.0616" x2="18.6107" y2="17.7085" gradientUnits="userSpaceOnUse">
<stop stop-color="#FF6F73"/>
<stop offset="1" stop-color="#FFBA6E"/>
</linearGradient>
<linearGradient id="paint1_linear_21649_1465" x1="7.5662" y1="7.17149" x2="18.3902" y2="19.5732" gradientUnits="userSpaceOnUse">
<stop stop-color="#FF6F73"/>
<stop offset="1" stop-color="#FFBA6E"/>
</linearGradient>
</defs>
</svg>
