<svg width="24" height="24" viewBox="0 0 24 24" fill="none" xmlns="http://www.w3.org/2000/svg">
<path d="M18.9563 20.156L3.3999 4.59961" stroke="#333333" stroke-opacity="0.3" stroke-width="1.5"/>
<path fill-rule="evenodd" clip-rule="evenodd" d="M5.28296 7.40428C3.81976 8.60318 2.67574 10.1854 2 12C3.52321 16.0904 7.4259 19 12 19C13.4401 19 14.8137 18.7116 16.0674 18.1887L14.3128 16.4341C13.6212 16.7956 12.8345 17 12 17C9.23858 17 7 14.7614 7 12C7 11.1655 7.20441 10.3788 7.5659 9.68722L5.28296 7.40428ZM9.10161 11.2229C9.03534 11.4708 9 11.7313 9 12C9 13.6569 10.3431 15 12 15C12.2687 15 12.5292 14.9647 12.7771 14.8984L9.10161 11.2229ZM14.8984 12.7771L11.2229 9.10161C11.4708 9.03534 11.7313 9 12 9C13.6569 9 15 10.3431 15 12C15 12.2687 14.9647 12.5292 14.8984 12.7771ZM16.4341 14.3128C16.7956 13.6212 17 12.8345 17 12C17 9.23858 14.7614 7 12 7C11.1655 7 10.3788 7.20441 9.68722 7.5659L7.93262 5.8113C9.18632 5.28842 10.5599 5 12 5C16.5741 5 20.4768 7.90961 22 12C21.3243 13.8146 20.1802 15.3968 18.717 16.5957L16.4341 14.3128Z" fill="#333333" fill-opacity="0.3"/>
</svg>
