<svg width="20" height="14" viewBox="0 0 20 14" fill="none" xmlns="http://www.w3.org/2000/svg">
<path d="M9.52344 0C11.6241 0 13.5288 0.909658 15.0566 1.98828C16.5913 3.07091 17.8053 4.36664 18.54 5.2373L18.5469 5.24414C18.8748 5.64414 19.0469 6.15233 19.0469 6.66699C19.0469 7.18165 18.8748 7.68851 18.5469 8.08984L18.54 8.09668C17.8053 8.96735 16.5913 10.2631 15.0566 11.3457C13.5288 12.427 11.6241 13.334 9.52344 13.334C7.42278 13.334 5.51811 12.424 3.99023 11.3467C2.45558 10.2614 1.24152 8.96538 0.506836 8.09473L0.5 8.08789C0.17234 7.68929 1.06427e-07 7.18281 0 6.66699C0 6.15102 0.172142 5.64546 0.5 5.24414L0.506836 5.2373C1.24153 4.36664 2.45557 3.07093 3.99023 1.98828C5.5181 0.908313 7.42281 1.33701e-05 9.52344 0ZM9.52344 3.66699C8.71157 3.667 7.93248 3.9833 7.3584 4.5459C6.78453 5.10847 6.46191 5.87151 6.46191 6.66699C6.46191 7.46248 6.78453 8.22551 7.3584 8.78809C7.93248 9.35068 8.71157 9.66698 9.52344 9.66699C9.92544 9.66699 10.3239 9.58924 10.6953 9.43848C11.0666 9.28772 11.4043 9.06657 11.6885 8.78809C11.9725 8.50967 12.1978 8.17913 12.3516 7.81543C12.5054 7.45145 12.585 7.06096 12.585 6.66699C12.585 6.27303 12.5054 5.88253 12.3516 5.51855C12.1978 5.15486 11.9725 4.82432 11.6885 4.5459C11.4043 4.26741 11.0666 4.04627 10.6953 3.89551C10.3239 3.74474 9.92544 3.66699 9.52344 3.66699ZM9.52344 4.76172C10.5753 4.76182 11.4277 5.61508 11.4277 6.66699C11.4275 7.71874 10.5752 8.57119 9.52344 8.57129C8.47158 8.57129 7.61835 7.7188 7.61816 6.66699C7.61816 5.61502 8.47147 4.76172 9.52344 4.76172Z" fill="#FF9500"/>
</svg>
