<svg width="20" height="20" viewBox="0 0 20 20" fill="none" xmlns="http://www.w3.org/2000/svg">
<path fill-rule="evenodd" clip-rule="evenodd" d="M17.5 7.21971C17.5 9.82668 15.3775 11.9402 12.7601 11.9402C12.2831 11.9402 11.1956 11.8307 10.6669 11.3912L10.0054 12.0497C9.61618 12.4374 9.72117 12.5514 9.89442 12.7389C9.96642 12.8177 10.0504 12.9084 10.1157 13.0382C10.1157 13.0382 10.6669 13.8061 10.1157 14.5749C9.78492 15.0136 8.85869 15.6279 7.80122 14.5749L7.58072 14.7939C7.58072 14.7939 8.24146 15.5626 7.69097 16.3314C7.36023 16.7701 6.47825 17.2089 5.70651 16.4409L4.93553 17.2089C4.40604 17.7361 3.75956 17.4286 3.50306 17.2089L2.84083 16.5504C2.22359 15.9354 2.58358 15.2694 2.84083 15.0129L8.5722 9.30544C8.5722 9.30544 8.02096 8.42794 8.02096 7.22046C8.02096 4.61348 10.1434 2.5 12.7609 2.5C15.3783 2.5 17.5 4.61348 17.5 7.21971ZM12.7609 8.86669C13.1983 8.86749 13.6182 8.69452 13.9282 8.38581C14.2381 8.0771 14.4128 7.65793 14.4138 7.22046C14.4134 7.00378 14.3704 6.7893 14.2871 6.58926C14.2038 6.38923 14.0819 6.20756 13.9284 6.05462C13.7749 5.90168 13.5928 5.78048 13.3925 5.69792C13.1922 5.61536 12.9775 5.57308 12.7609 5.57347C12.5442 5.57308 12.3295 5.61536 12.1292 5.69792C11.9289 5.78048 11.7468 5.90168 11.5933 6.05462C11.4398 6.20756 11.3179 6.38923 11.2346 6.58926C11.1514 6.7893 11.1083 7.00378 11.1079 7.22046C11.1089 7.65793 11.2836 8.0771 11.5935 8.38581C11.9035 8.69452 12.3234 8.86749 12.7609 8.86669Z" fill="#3581FA"/>
</svg>
