<svg width="44" height="44" viewBox="0 0 44 44" fill="none" xmlns="http://www.w3.org/2000/svg">
<path d="M40.1237 29.8711C40.7458 29.8714 41.2504 30.4213 41.2506 31.0996C41.2506 33.8145 39.2307 35.3359 36.7408 35.3359H8.17737C5.68747 35.3359 3.6676 33.8145 3.6676 31.0996C3.66784 30.4212 4.17231 29.8712 4.79456 29.8711H40.1237ZM33.3512 7.33203C35.6293 7.33216 37.4762 9.17894 37.4762 11.457V23.6846C37.4761 25.9626 35.6292 27.8094 33.3512 27.8096H11.567C9.28892 27.8096 7.44214 25.9626 7.44202 23.6846V11.457C7.44202 9.17886 9.28884 7.33203 11.567 7.33203H33.3512ZM26.7428 13.4189C26.1967 12.8174 25.3045 12.8237 24.7526 13.4189C24.2006 14.0144 24.2006 14.988 24.7526 15.5898L26.5729 17.5742L24.7526 19.5596C24.2006 20.1551 24.2064 21.1286 24.7526 21.7305C25.2986 22.3319 26.1909 22.3319 26.7428 21.7305L29.5621 18.6562C30.1137 18.0608 30.1137 17.0881 29.5621 16.4863L26.7428 13.4121V13.4189ZM20.1666 13.4121C19.6206 12.8104 18.7274 12.8106 18.1754 13.4121L15.3571 16.4863C14.8051 17.0818 14.8051 18.0544 15.3571 18.6562L18.1754 21.7305C18.7216 22.3321 19.6147 22.3259 20.1666 21.7305C20.7183 21.1351 20.7182 20.1614 20.1666 19.5596L18.3453 17.5742L20.1666 15.5898V15.583C20.7182 14.9875 20.7125 14.0139 20.1666 13.4121Z" fill="#3581FA"/>
</svg>
