<svg width="16" height="16" viewBox="0 0 16 16" fill="none" xmlns="http://www.w3.org/2000/svg">
<path d="M11.9993 5.33203H11.3327V4.66536C11.3327 2.82736 9.83735 1.33203 7.99935 1.33203C6.16135 1.33203 4.66602 2.82736 4.66602 4.66536V5.33203H3.99935C3.64573 5.33203 3.30659 5.47251 3.05654 5.72256C2.80649 5.9726 2.66602 6.31174 2.66602 6.66536V13.332C2.66602 13.6857 2.80649 14.0248 3.05654 14.2748C3.30659 14.5249 3.64573 14.6654 3.99935 14.6654H11.9993C12.353 14.6654 12.6921 14.5249 12.9422 14.2748C13.1922 14.0248 13.3327 13.6857 13.3327 13.332V6.66536C13.3327 6.31174 13.1922 5.9726 12.9422 5.72256C12.6921 5.47251 12.353 5.33203 11.9993 5.33203ZM5.99935 4.66536C5.99935 3.5627 6.89668 2.66536 7.99935 2.66536C9.10202 2.66536 9.99935 3.5627 9.99935 4.66536V5.33203H5.99935V4.66536ZM8.66602 10.4807V11.9987H7.33268V10.4807C6.93602 10.25 6.66602 9.8247 6.66602 9.33203C6.66602 8.97841 6.80649 8.63927 7.05654 8.38922C7.30659 8.13917 7.64573 7.9987 7.99935 7.9987C8.35297 7.9987 8.69211 8.13917 8.94216 8.38922C9.19221 8.63927 9.33268 8.97841 9.33268 9.33203C9.33268 9.82403 9.06268 10.2494 8.66602 10.4807Z" fill="#8A8A8A"/>
</svg>
