<svg width="16" height="16" viewBox="0 0 16 16" fill="none" xmlns="http://www.w3.org/2000/svg">
<path d="M11.9993 5.33398H11.3327V4.66732C11.3327 2.82932 9.83735 1.33398 7.99935 1.33398C6.16135 1.33398 4.66602 2.82932 4.66602 4.66732V5.33398H3.99935C3.64573 5.33398 3.30659 5.47446 3.05654 5.72451C2.80649 5.97456 2.66602 6.3137 2.66602 6.66732V13.334C2.66602 13.6876 2.80649 14.0267 3.05654 14.2768C3.30659 14.5268 3.64573 14.6673 3.99935 14.6673H11.9993C12.353 14.6673 12.6921 14.5268 12.9422 14.2768C13.1922 14.0267 13.3327 13.6876 13.3327 13.334V6.66732C13.3327 6.3137 13.1922 5.97456 12.9422 5.72451C12.6921 5.47446 12.353 5.33398 11.9993 5.33398ZM5.99935 4.66732C5.99935 3.56465 6.89668 2.66732 7.99935 2.66732C9.10202 2.66732 9.99935 3.56465 9.99935 4.66732V5.33398H5.99935V4.66732ZM8.66602 10.4827V12.0007H7.33268V10.4827C6.93602 10.252 6.66602 9.82665 6.66602 9.33398C6.66602 8.98036 6.80649 8.64122 7.05654 8.39118C7.30659 8.14113 7.64573 8.00065 7.99935 8.00065C8.35297 8.00065 8.69211 8.14113 8.94216 8.39118C9.19221 8.64122 9.33268 8.98036 9.33268 9.33398C9.33268 9.82598 9.06268 10.2513 8.66602 10.4827Z" fill="#3581FA"/>
</svg>
