<svg width="20" height="20" viewBox="0 0 20 20" fill="none" xmlns="http://www.w3.org/2000/svg">
<path fill-rule="evenodd" clip-rule="evenodd" d="M9.16634 1.66663C8.5033 1.66663 7.86741 1.93002 7.39857 2.39886C6.92973 2.8677 6.66634 3.50358 6.66634 4.16663V15.8333C6.66634 16.4963 6.92973 17.1322 7.39857 17.6011C7.86741 18.0699 8.5033 18.3333 9.16634 18.3333H14.1663C14.8294 18.3333 15.4653 18.0699 15.9341 17.6011C16.4029 17.1322 16.6663 16.4963 16.6663 15.8333V4.16663C16.6663 3.50358 16.4029 2.8677 15.9341 2.39886C15.4653 1.93002 14.8294 1.66663 14.1663 1.66663H9.16634ZM10.2438 6.91079C10.4001 6.75457 10.612 6.6668 10.833 6.6668C11.054 6.6668 11.2659 6.75457 11.4222 6.91079L13.9222 9.41079C14.0784 9.56707 14.1662 9.77899 14.1662 9.99996C14.1662 10.2209 14.0784 10.4329 13.9222 10.5891L11.4222 13.0891C11.265 13.2409 11.0545 13.3249 10.836 13.323C10.6175 13.3211 10.4085 13.2335 10.254 13.079C10.0995 12.9245 10.0118 12.7155 10.0099 12.497C10.008 12.2785 10.092 12.068 10.2438 11.9108L11.3213 10.8333H4.16634C3.94533 10.8333 3.73337 10.7455 3.57709 10.5892C3.42081 10.4329 3.33301 10.221 3.33301 9.99996C3.33301 9.77894 3.42081 9.56698 3.57709 9.4107C3.73337 9.25442 3.94533 9.16663 4.16634 9.16663H11.3213L10.2438 8.08913C10.0876 7.93285 9.99985 7.72093 9.99985 7.49996C9.99985 7.27899 10.0876 7.06707 10.2438 6.91079Z" fill="#9B9B9B"/>
</svg>
