<svg width="20" height="20" viewBox="0 0 20 20" fill="none" xmlns="http://www.w3.org/2000/svg">
<path fill-rule="evenodd" clip-rule="evenodd" d="M5 1.66663C4.33696 1.66663 3.70107 1.93002 3.23223 2.39886C2.76339 2.8677 2.5 3.50358 2.5 4.16663V15.8333C2.5 16.4963 2.76339 17.1322 3.23223 17.6011C3.70107 18.0699 4.33696 18.3333 5 18.3333H10C10.663 18.3333 11.2989 18.0699 11.7678 17.6011C12.2366 17.1322 12.5 16.4963 12.5 15.8333V4.16663C12.5 3.50358 12.2366 2.8677 11.7678 2.39886C11.2989 1.93002 10.663 1.66663 10 1.66663H5ZM13.5775 6.07746C13.7338 5.92123 13.9457 5.83347 14.1667 5.83347C14.3876 5.83347 14.5996 5.92123 14.7558 6.07746L18.0892 9.41079C18.2454 9.56707 18.3332 9.77899 18.3332 9.99996C18.3332 10.2209 18.2454 10.4329 18.0892 10.5891L14.7558 13.9225C14.5987 14.0743 14.3882 14.1583 14.1697 14.1564C13.9512 14.1545 13.7422 14.0668 13.5877 13.9123C13.4331 13.7578 13.3455 13.5488 13.3436 13.3303C13.3417 13.1118 13.4257 12.9013 13.5775 12.7441L15.4883 10.8333H8.33333C8.11232 10.8333 7.90036 10.7455 7.74408 10.5892C7.5878 10.4329 7.5 10.221 7.5 9.99996C7.5 9.77894 7.5878 9.56698 7.74408 9.4107C7.90036 9.25442 8.11232 9.16663 8.33333 9.16663H15.4883L13.5775 7.25579C13.4213 7.09952 13.3335 6.8876 13.3335 6.66663C13.3335 6.44566 13.4213 6.23373 13.5775 6.07746Z" fill="#9B9B9B"/>
</svg>
