<svg width="16" height="16" viewBox="0 0 16 16" fill="none" xmlns="http://www.w3.org/2000/svg">
<path fill-rule="evenodd" clip-rule="evenodd" d="M8.00004 8.0009C9.95516 8.0009 11.5401 6.41596 11.5401 4.46084C11.5401 2.50572 9.95516 0.920776 8.00004 0.920776C6.04491 0.920776 4.45997 2.50572 4.45997 4.46084C4.45997 6.41596 6.04491 8.0009 8.00004 8.0009ZM14.6369 13.1183C15.0523 14.1418 14.1261 15.0684 13.0215 15.0684H2.97839C1.87382 15.0684 0.94758 14.1418 1.36302 13.1183C1.40894 13.0052 1.4589 12.8931 1.51288 12.7823C1.86574 12.0575 2.38295 11.3989 3.03496 10.8442C3.68697 10.2895 4.46102 9.84944 5.31291 9.54923C6.1648 9.24901 7.07786 9.0945 7.99994 9.0945C8.92202 9.0945 9.83507 9.24901 10.687 9.54923C11.5389 9.84944 12.3129 10.2895 12.9649 10.8442C13.6169 11.3989 14.1341 12.0575 14.487 12.7823C14.541 12.8931 14.5909 13.0052 14.6369 13.1183Z" fill="#8A8A8A"/>
</svg>
