<svg width="20" height="20" viewBox="0 0 20 20" fill="none" xmlns="http://www.w3.org/2000/svg">
<path d="M15.8332 5.83464C15.8332 5.39261 15.6576 4.96868 15.345 4.65612C15.0325 4.34356 14.6085 4.16797 14.1665 4.16797H13.3332V1.66797H11.6665V4.16797H8.33317V1.66797H6.6665V4.16797H5.83317C5.39114 4.16797 4.96722 4.34356 4.65466 4.65612C4.3421 4.96868 4.1665 5.39261 4.1665 5.83464V6.66797H1.6665V8.33464H4.1665V11.668H1.6665V13.3346H4.1665V14.168C4.1665 14.61 4.3421 15.0339 4.65466 15.3465C4.96722 15.659 5.39114 15.8346 5.83317 15.8346H6.6665V18.3346H8.33317V15.8346H11.6665V18.3346H13.3332V15.8346H14.1665C14.6085 15.8346 15.0325 15.659 15.345 15.3465C15.6576 15.0339 15.8332 14.61 15.8332 14.168V13.3346H18.3332V11.668H15.8332V8.33464H18.3332V6.66797H15.8332V5.83464ZM12.4998 12.5013H7.49984V7.5013H12.4998V12.5013Z" fill="#909799"/>
</svg>
