<svg xmlns="http://www.w3.org/2000/svg" width="28" height="28" viewBox="0 0 28 28" fill="none">
  <path d="M7.00195 15.748C6.75695 15.748 6.6362 15.748 6.5347 15.734C6.21394 15.6895 5.91648 15.5415 5.68749 15.3125C5.4585 15.0835 5.3105 14.7861 5.26595 14.4653C5.25195 14.3655 5.25195 14.243 5.25195 13.998C5.25195 13.753 5.25195 13.6323 5.26595 13.5308C5.3105 13.21 5.4585 12.9126 5.68749 12.6836C5.91648 12.4546 6.21394 12.3066 6.5347 12.262C6.63445 12.248 6.75695 12.248 7.00195 12.248C7.24695 12.248 7.3677 12.248 7.4692 12.262C7.78996 12.3066 8.08743 12.4546 8.31641 12.6836C8.5454 12.9126 8.69341 13.21 8.73795 13.5308C8.75195 13.6305 8.75195 13.753 8.75195 13.998C8.75195 14.243 8.75195 14.3638 8.73795 14.4653C8.69341 14.7861 8.5454 15.0835 8.31641 15.3125C8.08743 15.5415 7.78996 15.6895 7.4692 15.734C7.36945 15.748 7.24695 15.748 7.00195 15.748ZM14.002 15.748C13.757 15.748 13.6362 15.748 13.5347 15.734C13.2139 15.6895 12.9165 15.5415 12.6875 15.3125C12.4585 15.0835 12.3105 14.7861 12.266 14.4653C12.252 14.3655 12.252 14.243 12.252 13.998C12.252 13.753 12.252 13.6323 12.266 13.5308C12.3105 13.21 12.4585 12.9126 12.6875 12.6836C12.9165 12.4546 13.2139 12.3066 13.5347 12.262C13.6345 12.248 13.757 12.248 14.002 12.248C14.247 12.248 14.3677 12.248 14.4692 12.262C14.79 12.3066 15.0874 12.4546 15.3164 12.6836C15.5454 12.9126 15.6934 13.21 15.738 13.5308C15.752 13.6305 15.752 13.753 15.752 13.998C15.752 14.243 15.752 14.3638 15.738 14.4653C15.6934 14.7861 15.5454 15.0835 15.3164 15.3125C15.0874 15.5415 14.79 15.6895 14.4692 15.734C14.3695 15.748 14.247 15.748 14.002 15.748ZM21.002 15.748C20.7587 15.748 20.6362 15.748 20.5347 15.734C20.2145 15.6892 19.9176 15.5413 19.689 15.3127C19.4604 15.0841 19.3125 14.7872 19.2677 14.467C19.2537 14.3638 19.2537 14.243 19.2537 13.9998C19.2537 13.7565 19.2537 13.6323 19.2677 13.5325C19.3125 13.2124 19.4604 12.9155 19.689 12.6869C19.9176 12.4583 20.2145 12.3104 20.5347 12.2655C20.6362 12.2515 20.7587 12.2515 21.002 12.2515C21.2452 12.2515 21.3677 12.2515 21.4692 12.2655C21.7894 12.3104 22.0863 12.4583 22.3149 12.6869C22.5435 12.9155 22.6914 13.2124 22.7362 13.5325C22.7502 13.634 22.7502 13.7565 22.7502 13.9998C22.7502 14.243 22.7502 14.3655 22.7362 14.467C22.6914 14.7872 22.5435 15.0841 22.3149 15.3127C22.0863 15.5413 21.7894 15.6892 21.4692 15.734C21.3677 15.748 21.2452 15.748 21.002 15.748Z" fill="#B0B0B0"/>
</svg>
