<svg width="16" height="16" viewBox="0 0 16 16" fill="none" xmlns="http://www.w3.org/2000/svg">
<path d="M7.99941 1C7.52531 1 7.14228 1.39102 7.14228 1.875V2.4C5.18695 2.80469 3.71375 4.57109 3.71375 6.6875V7.20156C3.71375 8.48672 3.25036 9.72812 2.41466 10.6906L2.21645 10.9176C1.99145 11.1746 1.93788 11.5437 2.07449 11.8582C2.21109 12.1727 2.51912 12.375 2.85662 12.375H13.1422C13.4797 12.375 13.785 12.1727 13.9243 11.8582C14.0636 11.5437 14.0074 11.1746 13.7824 10.9176L13.5842 10.6906C12.7485 9.72812 12.2851 8.48945 12.2851 7.20156V6.6875C12.2851 4.57109 10.8119 2.80469 8.85654 2.4V1.875C8.85654 1.39102 8.47351 1 7.99941 1ZM9.21279 14.4887C9.41762 14.2796 9.5648 14.0227 9.64462 13.7436C9.72055 13.4781 9.48981 13.25 9.21367 13.25H7.99941H6.78515C6.509 13.25 6.27827 13.4781 6.3542 13.7436C6.43402 14.0227 6.5812 14.2796 6.78603 14.4887C7.10746 14.8168 7.54406 15 7.99941 15C8.45476 15 8.89136 14.8168 9.21279 14.4887Z" fill="#8A8A8A"/>
</svg>
