<svg xmlns="http://www.w3.org/2000/svg" width="18" height="21" viewBox="0 0 18 21" fill="none">
  <path d="M8.99911 0C8.28796 0 7.71342 0.586523 7.71342 1.3125V2.1C4.78042 2.70703 2.57063 5.35664 2.57063 8.53125V9.30234C2.57063 11.2301 1.87555 13.0922 0.621991 14.5359L0.324673 14.8764C-0.0128225 15.2619 -0.0931786 15.8156 0.111729 16.2873C0.316637 16.759 0.778685 17.0625 1.28493 17.0625H16.7133C17.2195 17.0625 17.6776 16.759 17.8865 16.2873C18.0954 15.8156 18.011 15.2619 17.6736 14.8764L17.3762 14.5359C16.1227 13.0922 15.4276 11.2342 15.4276 9.30234V8.53125C15.4276 5.35664 13.2178 2.70703 10.2848 2.1V1.3125C10.2848 0.586523 9.71026 0 8.99911 0ZM10.8192 20.233C11.1804 19.8642 11.4221 19.3965 11.5206 18.8918C11.5756 18.6099 11.3377 18.375 11.0505 18.375H8.99911H6.94772C6.66053 18.375 6.4226 18.6099 6.47761 18.8918C6.57612 19.3965 6.81781 19.8642 7.17905 20.233C7.66118 20.7252 8.31609 21 8.99911 21C9.68214 21 10.337 20.7252 10.8192 20.233Z" fill="#3581FA"/>
</svg>
