<svg xmlns="http://www.w3.org/2000/svg" width="25" height="24" viewBox="0 0 25 24" fill="none">
  <path d="M17.2992 13.782L16.6332 13.186V8C16.6332 6.93913 16.2118 5.92172 15.4616 5.17157C14.7115 4.42143 13.694 4 12.6332 4C11.5723 4 10.5549 4.42143 9.80476 5.17157C9.05461 5.92172 8.63318 6.93913 8.63318 8V13.186L7.96718 13.782C7.00073 14.6445 6.29305 15.7586 5.92318 17H19.3432C18.9733 15.7586 18.2656 14.6445 17.2992 13.782ZM15.6332 19C15.6332 19.7956 15.3171 20.5587 14.7545 21.1213C14.1919 21.6839 13.4288 22 12.6332 22C11.8375 22 11.0745 21.6839 10.5119 21.1213C9.94925 20.5587 9.63318 19.7956 9.63318 19H3.63318C3.63182 17.7335 3.89842 16.4811 4.41547 15.325C4.93251 14.1689 5.6883 13.1353 6.63318 12.292V8C6.63318 6.4087 7.26533 4.88258 8.39054 3.75736C9.51576 2.63214 11.0419 2 12.6332 2C14.2245 2 15.7506 2.63214 16.8758 3.75736C18.001 4.88258 18.6332 6.4087 18.6332 8V12.292C19.5781 13.1353 20.3339 14.1689 20.8509 15.325C21.3679 16.4811 21.6345 17.7335 21.6332 19H15.6332ZM12.6332 20C12.8984 20 13.1528 19.8946 13.3403 19.7071C13.5278 19.5196 13.6332 19.2652 13.6332 19H11.6332C11.6332 19.2652 11.7385 19.5196 11.9261 19.7071C12.1136 19.8946 12.368 20 12.6332 20Z" fill="#21272A"/>
</svg>
