<svg width="44" height="44" viewBox="0 0 44 44" fill="none" xmlns="http://www.w3.org/2000/svg">
<path d="M28.8787 6.73706L25.7558 9.85975L34.1438 18.2471L37.2668 15.1244C38.8798 13.5115 38.8798 10.8985 37.2668 9.28553L34.7245 6.73706C33.1114 5.1241 30.4983 5.1241 28.8852 6.73706H28.8787ZM24.2976 11.3179L9.25718 26.3635C8.58614 27.0345 8.09576 27.8668 7.82476 28.7765L5.54064 36.5381C5.37933 37.0865 5.52773 37.6736 5.92778 38.0736C6.32782 38.4736 6.91499 38.622 7.45698 38.4672L15.2191 36.1832C16.1289 35.9122 16.9613 35.4219 17.6323 34.7509L32.6856 19.7052L24.2976 11.3179Z" fill="#3581FA"/>
</svg>
