<svg width="16" height="16" viewBox="0 0 16 16" fill="none" xmlns="http://www.w3.org/2000/svg">
<path d="M10.7329 1.93559L9.49249 3.17596L12.824 6.50751L14.0644 5.26715C14.7051 4.62646 14.7051 3.58856 14.0644 2.94787L13.0547 1.93559C12.414 1.29491 11.3761 1.29491 10.7354 1.93559H10.7329ZM8.91331 3.75513L2.93957 9.73143C2.67305 9.99796 2.47828 10.3286 2.37065 10.6899L1.46344 13.7729C1.39937 13.9907 1.45831 14.2239 1.6172 14.3828C1.77609 14.5417 2.0093 14.6006 2.22457 14.5391L5.30754 13.6319C5.66889 13.5243 5.99948 13.3295 6.26601 13.063L12.2449 7.08669L8.91331 3.75513Z" fill="white"/>
</svg>
