<svg width="24" height="24" viewBox="0 0 24 24" fill="none" xmlns="http://www.w3.org/2000/svg">
<path fill-rule="evenodd" clip-rule="evenodd" d="M11.969 13.3135C13.0769 13.3135 14.1739 13.4997 15.1975 13.8604C16.2211 14.2211 17.1514 14.7496 17.9348 15.416C18.7183 16.0825 19.3399 16.8743 19.7639 17.7451C20.4519 19.1582 19.1324 20.4922 17.5608 20.4922H6.37624C4.80482 20.4919 3.48523 19.158 4.17312 17.7451C4.59716 16.8742 5.21872 16.0826 6.00222 15.416C6.78565 14.7495 7.71595 14.2211 8.73952 13.8604C9.76325 13.4996 10.8609 13.3135 11.969 13.3135ZM11.969 3.49219C14.3185 3.49219 16.2229 5.39759 16.2229 7.74707C16.2227 10.0964 14.3184 12.001 11.969 12.001C9.61967 12.001 7.7153 10.0964 7.71511 7.74707C7.71511 5.3976 9.61955 3.49221 11.969 3.49219Z" fill="#909799"/>
</svg>
