<svg viewBox="0 0 24 24" fill="none" xmlns="http://www.w3.org/2000/svg">
<path d="M12 13.4286C17.5 13.4286 22 17 22 19.8571C22 20.4255 21.7742 20.9705 21.3724 21.3724C20.9705 21.7742 20.4255 22 19.8571 22H4.14286C3.57454 22 3.02949 21.7742 2.62763 21.3724C2.22576 20.9705 2 20.4255 2 19.8571C2 17 6.5 13.4286 12 13.4286ZM12 2C13.3261 2 14.5979 2.52678 15.5355 3.46447C16.4732 4.40215 17 5.67392 17 7C17 8.32608 16.4732 9.59785 15.5355 10.5355C14.5979 11.4732 13.3261 12 12 12C10.6739 12 9.40215 11.4732 8.46447 10.5355C7.52678 9.59785 7 8.32608 7 7C7 5.67392 7.52678 4.40215 8.46447 3.46447C9.40215 2.52678 10.6739 2 12 2Z" fill="currentColor"/>
</svg>
