<svg width="16" height="16" viewBox="0 0 16 16" fill="none" xmlns="http://www.w3.org/2000/svg">
<g id="Frame 1171274898">
<path id="Union" fill-rule="evenodd" clip-rule="evenodd" d="M8.00004 8.00102C9.95516 8.00102 11.5401 6.41608 11.5401 4.46096C11.5401 2.50584 9.95516 0.920898 8.00004 0.920898C6.04491 0.920898 4.45997 2.50584 4.45997 4.46096C4.45997 6.41608 6.04491 8.00102 8.00004 8.00102ZM14.6369 13.1184C15.0523 14.1419 14.1261 15.0685 13.0215 15.0685H2.97839C1.87382 15.0685 0.94758 14.1419 1.36302 13.1184C1.40894 13.0053 1.4589 12.8932 1.51288 12.7824C1.86574 12.0576 2.38295 11.399 3.03496 10.8443C3.68697 10.2896 4.46102 9.84957 5.31291 9.54935C6.1648 9.24914 7.07786 9.09462 7.99994 9.09462C8.92202 9.09462 9.83507 9.24914 10.687 9.54935C11.5389 9.84956 12.3129 10.2896 12.9649 10.8443C13.6169 11.399 14.1341 12.0576 14.487 12.7824C14.541 12.8932 14.5909 13.0053 14.6369 13.1184Z" fill="#3581FA"/>
</g>
</svg>
