<svg width="19" height="18" viewBox="0 0 19 18" fill="none" xmlns="http://www.w3.org/2000/svg">
<path d="M9.5 1.125C13.8492 1.125 17.375 4.65076 17.375 9C17.375 13.3492 13.8492 16.875 9.5 16.875C5.15076 16.875 1.625 13.3492 1.625 9C1.625 4.65076 5.15076 1.125 9.5 1.125ZM9.5 5.00586C9.03404 5.00589 8.65625 5.38364 8.65625 5.84961V8.15625H6.34961C5.88365 8.15628 5.50586 8.53403 5.50586 9C5.50628 9.46561 5.88391 9.84372 6.34961 9.84375H8.65625V12.1494C8.65651 12.6152 9.0342 12.9931 9.5 12.9932C9.96569 12.993 10.3435 12.6151 10.3438 12.1494V9.84375H12.6494L12.7363 9.83887C13.1614 9.79556 13.4928 9.43642 13.4932 9C13.4932 8.56322 13.1617 8.20347 12.7363 8.16016L12.6494 8.15625H10.3438V5.84961C10.3438 5.38372 9.96585 5.00602 9.5 5.00586Z" fill="white"/>
</svg>
