<svg width="20" height="20" viewBox="0 0 20 20" fill="none" xmlns="http://www.w3.org/2000/svg">
<path d="M10 1.66797C14.6024 1.66797 18.333 5.3986 18.333 10.001C18.333 14.6033 14.6024 18.334 10 18.334C5.39763 18.334 1.66699 14.6033 1.66699 10.001C1.66699 5.3986 5.39763 1.66797 10 1.66797ZM9.99902 5.54297C9.37804 5.54336 8.87402 6.04689 8.87402 6.66797V8.87598H6.66602C6.04498 8.87614 5.54125 9.37995 5.54102 10.001C5.54122 10.622 6.04496 11.1258 6.66602 11.126H8.87402V13.335C8.8743 13.9558 9.37821 14.4596 9.99902 14.46C10.6202 14.46 11.1238 13.956 11.124 13.335V11.126H13.333C13.9541 11.1259 14.4578 10.6221 14.458 10.001C14.4578 9.37989 13.9541 8.87604 13.333 8.87598H11.124V6.66797C11.124 6.04665 10.6203 5.54297 9.99902 5.54297Z" fill="#F2F6F7"/>
</svg>
