<svg width="36" height="36" viewBox="0 0 36 36" fill="none" xmlns="http://www.w3.org/2000/svg">
<path d="M25.7012 5.81396C26.6564 5.81414 27.4305 6.58817 27.4307 7.54346V8.92334C27.9341 8.77942 28.6659 8.7183 29.4004 8.97607C30.2357 9.26923 30.9738 9.94148 31.3418 11.0894C31.5958 11.8818 31.5237 12.8427 31.2812 13.73C31.032 14.6417 30.5699 15.6003 29.9033 16.4243C29.235 17.2504 28.3354 17.9715 27.208 18.3403C26.158 18.6838 24.9745 18.6991 23.6992 18.2905C22.8931 19.2436 22.0271 20.0641 21.1758 20.7075C20.7039 21.0642 20.3975 21.6073 20.3975 22.1987V23.5806C20.3975 24.5361 21.1724 25.311 22.1279 25.311H22.7422C23.6053 25.3112 24.5448 26.0623 24.5449 26.9595V28.2144H24.5459C24.5459 28.2202 24.545 28.2261 24.5449 28.2319V28.4556C24.5448 29.4109 23.7708 30.185 22.8154 30.1851H22.5938C22.587 30.1851 22.58 30.186 22.5732 30.186H13.5322C13.5254 30.186 13.5185 30.1851 13.5117 30.1851H13.29C12.3348 30.1849 11.5607 29.4108 11.5605 28.4556V26.936C11.5605 26.0387 12.501 25.311 13.3643 25.311H13.9785C14.9339 25.3109 15.708 24.536 15.708 23.5806V22.1987C15.7079 21.6072 15.4016 21.0642 14.9297 20.7075C14.0705 20.0582 13.1963 19.2286 12.3838 18.2642C11.0769 18.7004 9.8647 18.6913 8.79199 18.3403C7.66464 17.9715 6.76499 17.2504 6.09668 16.4243C5.43013 15.6003 4.96798 14.6417 4.71875 13.73C4.47627 12.8427 4.40427 11.8818 4.6582 11.0894C5.02616 9.94156 5.76438 9.26926 6.59961 8.97607C7.37608 8.70357 8.15047 8.78624 8.6543 8.94775L8.6748 8.95361V7.54346C8.67492 6.58806 9.44985 5.81396 10.4053 5.81396H25.7012ZM8.02051 10.9243C7.85357 10.8708 7.55248 10.8419 7.28711 10.9351C7.08058 11.0076 6.8091 11.1794 6.63477 11.7231C6.55004 11.988 6.53627 12.5049 6.72168 13.1831C6.90056 13.8374 7.23719 14.533 7.71094 15.1187C8.18314 15.7024 8.76673 16.1472 9.4375 16.3667C9.8965 16.5169 10.4313 16.5701 11.0527 16.4634C10.0366 14.8894 9.2375 13.093 8.87988 11.1997L8.02051 10.9243ZM28.7129 10.9351C28.4477 10.842 28.1475 10.8709 27.9805 10.9243L27.2314 11.1636C26.876 13.0765 26.0695 14.8913 25.042 16.479C25.6233 16.5645 26.127 16.5092 26.5625 16.3667C27.2333 16.1472 27.8168 15.7024 28.2891 15.1187C28.7628 14.533 29.0994 13.8374 29.2783 13.1831C29.4637 12.5048 29.45 11.988 29.3652 11.7231C29.1909 11.1792 28.9194 11.0075 28.7129 10.9351Z" fill="black"/>
</svg>
