<svg width="24" height="24" viewBox="0 0 24 24" fill="none" xmlns="http://www.w3.org/2000/svg">
<path d="M17.7041 2.97266C18.4116 2.97286 18.9852 3.54638 18.9854 4.25391V5.27637C19.3583 5.16979 19.9003 5.1245 20.4443 5.31543C21.0631 5.5326 21.6102 6.03057 21.8828 6.88086C22.0709 7.46786 22.0175 8.1797 21.8379 8.83691C21.6533 9.51225 21.3111 10.2226 20.8174 10.833C20.3223 11.445 19.6554 11.9787 18.8203 12.252C18.0413 12.5068 17.1632 12.5179 16.2168 12.2139C15.6199 12.9194 14.9818 13.5295 14.3516 14.0059C14.0021 14.2701 13.7755 14.6723 13.7754 15.1104V16.1348C13.7756 16.8424 14.349 17.416 15.0566 17.416H15.5117C16.1512 17.416 16.8477 17.973 16.8477 18.6377V19.7451C16.8477 20.4528 16.2741 21.0262 15.5664 21.0264H15.4053C15.3992 21.0264 15.3928 21.0273 15.3867 21.0273H8.68945C8.68326 21.0273 8.67708 21.0264 8.6709 21.0264H8.51074C7.80293 21.0264 7.22852 20.4529 7.22852 19.7451V18.6191C7.2288 17.9547 7.92519 17.4162 8.56445 17.416H9.01953C9.7272 17.416 10.3015 16.8424 10.3018 16.1348V15.1104C10.3017 14.6722 10.0742 14.2701 9.72461 14.0059C9.08831 13.525 8.4435 12.9085 7.8418 12.1943C6.87241 12.5186 5.97329 12.5122 5.17773 12.252C4.3427 11.9787 3.67668 11.4449 3.18164 10.833C2.68778 10.2225 2.34578 9.51237 2.16113 8.83691C1.98148 8.17958 1.92806 7.46795 2.11621 6.88086C2.38876 6.03068 2.93507 5.53265 3.55371 5.31543C4.12864 5.11365 4.70195 5.1744 5.0752 5.29395L5.09082 5.29883V4.25391C5.091 3.54625 5.66535 2.97266 6.37305 2.97266H17.7041ZM4.60645 6.75879C4.4828 6.71915 4.26004 6.69765 4.06348 6.7666C3.91051 6.82029 3.70926 6.94691 3.58008 7.34961C3.51721 7.5457 3.50711 7.92892 3.64453 8.43164C3.77705 8.9164 4.02594 9.43231 4.37695 9.86621C4.72674 10.2986 5.15939 10.6275 5.65625 10.79C5.99625 10.9013 6.39223 10.9404 6.85254 10.8613C6.09999 9.69554 5.50808 8.36511 5.24316 6.96289L4.60645 6.75879ZM19.9346 6.7666C19.7383 6.69783 19.5162 6.71924 19.3926 6.75879L18.8369 6.93555C18.5736 8.35251 17.9769 9.69691 17.2158 10.873C17.6463 10.9364 18.0193 10.8955 18.3418 10.79C18.8386 10.6275 19.2713 10.2985 19.6211 9.86621C19.9721 9.43232 20.221 8.91639 20.3535 8.43164C20.4909 7.9289 20.4808 7.54571 20.418 7.34961C20.2888 6.94697 20.0875 6.82028 19.9346 6.7666Z" fill="#9B9B9B"/>
</svg>
