<svg width="36" height="36" viewBox="0 0 36 36" fill="none" xmlns="http://www.w3.org/2000/svg">
<path d="M26.5547 4.45898C27.6164 4.45898 28.4775 5.32012 28.4775 6.38184V7.91504C29.037 7.75515 29.8499 7.68722 30.666 7.97363C31.5939 8.29939 32.4143 9.04524 32.8232 10.3203C33.1056 11.2011 33.0254 12.2697 32.7559 13.2559C32.4789 14.269 31.9654 15.3343 31.2246 16.25C30.4821 17.1678 29.4829 17.9681 28.2305 18.3779C27.0637 18.7597 25.7482 18.7772 24.3311 18.3232C23.4353 19.3823 22.4723 20.2929 21.5264 21.0078C21.002 21.4042 20.6621 22.0087 20.6621 22.666V24.2012C20.6621 25.2628 21.5225 26.1238 22.584 26.124H23.2676C24.2267 26.1243 25.2715 26.9591 25.2715 27.9561V29.6182C25.2713 30.6797 24.4102 31.54 23.3486 31.54H23.0986C23.0925 31.5401 23.0863 31.541 23.0801 31.541H13.0342C13.028 31.541 13.0217 31.5401 13.0156 31.54H12.7646C11.7032 31.5399 10.843 30.6796 10.8428 29.6182V27.9297C10.8428 26.9326 11.8875 26.124 12.8467 26.124H13.5293C14.591 26.124 15.4521 25.2629 15.4521 24.2012V22.666C15.4521 22.0086 15.1114 21.4042 14.5869 21.0078C13.6322 20.2862 12.6596 19.3657 11.7568 18.2939C10.305 18.7784 8.95836 18.7678 7.7666 18.3779C6.51397 17.9681 5.51408 17.1679 4.77148 16.25C4.03071 15.3343 3.51819 14.269 3.24121 13.2559C2.97161 12.2697 2.89048 11.2011 3.17285 10.3203C3.58179 9.04505 4.40298 8.29935 5.33105 7.97363C6.19375 7.67095 7.0535 7.76195 7.61328 7.94141L7.63574 7.94824V6.38184C7.63574 5.32012 8.49688 4.45898 9.55859 4.45898H26.5547ZM6.9082 10.1387C6.72266 10.0793 6.38943 10.047 6.09473 10.1504C5.86522 10.2309 5.56389 10.421 5.37012 11.0254C5.2759 11.3196 5.25978 11.8936 5.46582 12.6475C5.6646 13.3746 6.03891 14.148 6.56543 14.7988C7.09007 15.4473 7.73819 15.9417 8.4834 16.1855C8.99373 16.3525 9.58925 16.4147 10.2803 16.2959C9.15049 14.5466 8.262 12.5498 7.86426 10.4453L6.9082 10.1387ZM29.9014 10.1504C29.6066 10.047 29.2733 10.0792 29.0879 10.1387L28.2549 10.4053C27.8596 12.531 26.9643 14.5482 25.8223 16.3125C26.4683 16.4076 27.0287 16.3439 27.5127 16.1855C28.2581 15.9417 28.9069 15.4474 29.4316 14.7988C29.9581 14.148 30.3315 13.3745 30.5303 12.6475C30.7363 11.8938 30.7211 11.3197 30.627 11.0254C30.4332 10.421 30.1309 10.2309 29.9014 10.1504Z" fill="#3581FA"/>
</svg>
