<svg width="20" height="20" viewBox="0 0 20 20" fill="none" xmlns="http://www.w3.org/2000/svg">
<path d="M8.33327 17.3158C7.60816 17.1506 6.91165 16.8785 6.2666 16.5083M11.6666 2.6875C13.3234 3.06589 14.8026 3.99558 15.8621 5.32434C16.9216 6.6531 17.4986 8.30221 17.4986 10.0017C17.4986 11.7011 16.9216 13.3502 15.8621 14.679C14.8026 16.0078 13.3234 16.9374 11.6666 17.3158M3.81577 14.2458C3.36168 13.5851 3.01647 12.8559 2.79327 12.0858M2.60327 8.75167C2.7366 7.96 2.99327 7.21 3.35327 6.5225L3.4941 6.26833M5.75577 3.8175C6.53594 3.28157 7.4105 2.89815 8.33327 2.6875" stroke="black" stroke-width="2" stroke-linecap="round" stroke-linejoin="round"/>
</svg>
