<svg width="16" height="16" viewBox="0 0 16 16" fill="none" xmlns="http://www.w3.org/2000/svg">
<path fill-rule="evenodd" clip-rule="evenodd" d="M11.7849 7.24125C11.7849 9.92516 9.24316 12.1009 6.10778 12.1009C5.08211 12.1009 4.11997 11.8681 3.28956 11.4608L1.8358 11.8503C1.68708 11.8902 1.551 11.7541 1.59085 11.6054L1.88889 10.4931C0.982413 9.63189 0.430664 8.49172 0.430664 7.24125C0.430664 4.55733 2.97239 2.38159 6.10778 2.38159C9.24316 2.38159 11.7849 4.55733 11.7849 7.24125ZM12.4803 7.29958C12.4803 10.2423 9.90833 12.6279 6.73568 12.6279C6.64091 12.6279 6.54667 12.6258 6.45302 12.6216C7.40745 13.2446 8.59943 13.6146 9.89236 13.6146C10.9048 13.6146 11.8554 13.3877 12.6785 12.9901L13.9744 13.3373C14.1231 13.3772 14.2592 13.2411 14.2193 13.0924L13.9644 12.1411C14.9578 11.2659 15.5695 10.0716 15.5695 8.75492C15.5695 6.48135 13.7455 4.57245 11.2819 4.04188C12.0332 4.94258 12.4803 6.07266 12.4803 7.29958Z" fill="#8A8A8A"/>
</svg>
