<svg width="16" height="16" viewBox="0 0 16 16" fill="none" xmlns="http://www.w3.org/2000/svg">
<g id="16 / Clock">
<path id="Subtract" fill-rule="evenodd" clip-rule="evenodd" d="M8 1C4.13401 1 1 4.13401 1 8C1 11.866 4.13401 15 8 15C11.866 15 15 11.866 15 8C15 4.13401 11.866 1 8 1ZM8.75 5C8.75 4.58579 8.41421 4.25 8 4.25C7.58579 4.25 7.25 4.58579 7.25 5V7.64846C7.25 8.01418 7.39143 8.36572 7.6447 8.62955L9.45896 10.5194C9.74582 10.8182 10.2206 10.8279 10.5194 10.541C10.8182 10.2542 10.8279 9.77941 10.541 9.4806L8.75 7.61493V5Z" fill="#FC5555"/>
</g>
</svg>
