<svg width="16" height="16" viewBox="0 0 16 16" fill="none" xmlns="http://www.w3.org/2000/svg">
<path d="M12.8452 1.18066C13.2315 1.18103 13.5444 1.49449 13.5444 1.88086V4.90332C13.5442 5.28948 13.2313 5.60217 12.8452 5.60254H9.82275C9.43631 5.60254 9.12281 5.28971 9.12256 4.90332C9.12256 4.51672 9.43615 4.20312 9.82275 4.20312H11.0171C10.3292 3.65097 9.50079 3.29374 8.61963 3.17773C7.56324 3.03877 6.48964 3.25241 5.56689 3.78516C4.64427 4.31797 3.92289 5.14068 3.51514 6.125C3.10741 7.10939 3.03634 8.20127 3.31201 9.23047C3.58779 10.2596 4.19534 11.1697 5.04053 11.8184C5.88586 12.467 6.92228 12.8183 7.98779 12.8184C9.0534 12.8184 10.0896 12.467 10.9351 11.8184C11.7805 11.1696 12.3878 10.2598 12.6636 9.23047C12.7637 8.85737 13.1478 8.63572 13.521 8.73535C13.8943 8.83539 14.116 9.21942 14.0161 9.59277C13.6605 10.9198 12.8766 12.0924 11.7866 12.9287C10.6967 13.7649 9.3615 14.2187 7.98779 14.2188C6.6142 14.2187 5.27875 13.7648 4.18896 12.9287C3.09924 12.0924 2.31501 10.9196 1.95947 9.59277C1.60403 8.26586 1.69647 6.85801 2.22217 5.58887C2.74793 4.31989 3.67813 3.2591 4.86768 2.57227C6.05719 1.88564 7.44051 1.61089 8.80225 1.79004C10.0479 1.95403 11.212 2.49085 12.145 3.32422V1.88086C12.145 1.49426 12.4586 1.18066 12.8452 1.18066Z" fill="white"/>
</svg>
