<svg width="20" height="20" viewBox="0 0 20 20" fill="none" xmlns="http://www.w3.org/2000/svg">
<path fill-rule="evenodd" clip-rule="evenodd" d="M16.0558 1.47656C16.5389 1.47668 16.9307 1.86845 16.9308 2.35156V6.12891C16.9308 6.61208 16.5389 7.00379 16.0558 7.00391H12.2784C11.7952 7.00391 11.4034 6.61216 11.4034 6.12891C11.4036 5.6458 11.7953 5.25391 12.2784 5.25391H13.7716C12.9115 4.56372 11.8761 4.11768 10.7745 3.97266C9.45397 3.79888 8.11258 4.06549 6.95908 4.73145C5.80566 5.3974 4.90442 6.42581 4.39463 7.65625C3.88493 8.88677 3.79514 10.2515 4.13975 11.5381C4.48445 12.8246 5.24436 13.9616 6.30088 14.7725C7.35756 15.5833 8.65257 16.0233 9.98447 16.0234C11.3166 16.0234 12.6122 15.5834 13.669 14.7725C14.7256 13.9616 15.4855 12.8246 15.8302 11.5381C15.9554 11.0717 16.4349 10.795 16.9015 10.9199C17.3681 11.045 17.6455 11.5245 17.5206 11.9912C17.0762 13.6498 16.0967 15.1157 14.7345 16.1611C13.372 17.2066 11.7018 17.7734 9.98447 17.7734C8.26734 17.7733 6.59775 17.2065 5.23545 16.1611C3.87326 15.1157 2.89374 13.6498 2.44932 11.9912C2.00495 10.3325 2.1203 8.57281 2.77744 6.98633C3.43466 5.39999 4.59704 4.07438 6.08408 3.21582C7.57122 2.35724 9.30053 2.01323 11.003 2.2373C12.5598 2.44226 14.0147 3.11282 15.1808 4.1543V2.35156C15.1808 1.86843 15.5726 1.47664 16.0558 1.47656Z" fill="#C4C4C4"/>
</svg>
