<svg width="146" height="50" viewBox="0 0 146 50" fill="none" xmlns="http://www.w3.org/2000/svg">
<mask id="path-1-inside-1_4154_14698" fill="white">
<path fill-rule="evenodd" clip-rule="evenodd" d="M65 14.3125C64.4477 14.3125 64 14.7602 64 15.3125V33.5631C64 34.1154 64.4477 34.5631 65 34.5631H79.7505V19.9377H74.1253V14.3125H65Z"/>
</mask>
<path d="M79.7505 34.5631V35.5631H80.7505V34.5631H79.7505ZM79.7505 19.9377H80.7505V18.9377H79.7505V19.9377ZM74.1253 19.9377H73.1253V20.9377H74.1253V19.9377ZM74.1253 14.3125H75.1253V13.3125H74.1253V14.3125ZM65 15.3125V15.3125V13.3125C63.8954 13.3125 63 14.2079 63 15.3125H65ZM65 33.5631V15.3125H63V33.5631H65ZM65 33.5631H65H63C63 34.6677 63.8954 35.5631 65 35.5631V33.5631ZM79.7505 33.5631H65V35.5631H79.7505V33.5631ZM78.7505 19.9377V34.5631H80.7505V19.9377H78.7505ZM79.7505 18.9377H74.1253V20.9377H79.7505V18.9377ZM75.1253 19.9377V14.3125H73.1253V19.9377H75.1253ZM65 15.3125H74.1253V13.3125H65V15.3125Z" fill="#787E80" mask="url(#path-1-inside-1_4154_14698)"/>
<path d="M74.626 19.4374V15.5194L78.544 19.4374H74.626Z" fill="#787E80" stroke="#787E80" stroke-linecap="round"/>
<rect x="73" y="26" width="9" height="9" fill="white"/>
<path d="M73 31L73 27L77 27" stroke="#787E80" stroke-linecap="round" stroke-linejoin="round"/>
<path d="M79 33L73 27" stroke="#787E80" stroke-linecap="round" stroke-linejoin="round"/>
</svg>
