<svg width="24" height="24" viewBox="0 0 24 24" fill="none" xmlns="http://www.w3.org/2000/svg">
<mask id="path-1-inside-1_4282_9456" fill="white">
<path fill-rule="evenodd" clip-rule="evenodd" d="M4 1.3125C3.44772 1.3125 3 1.76021 3 2.3125V20.5631C3 21.1154 3.44771 21.5631 4 21.5631H18.7505V6.93766H13.1253V1.3125H4Z"/>
</mask>
<path d="M18.7505 21.5631V22.5631H19.7505V21.5631H18.7505ZM18.7505 6.93766H19.7505V5.93766H18.7505V6.93766ZM13.1253 6.93766H12.1253V7.93766H13.1253V6.93766ZM13.1253 1.3125H14.1253V0.3125H13.1253V1.3125ZM4 2.3125V2.3125V0.3125C2.89543 0.3125 2 1.20793 2 2.3125H4ZM4 20.5631V2.3125H2V20.5631H4ZM4 20.5631H4H2C2 21.6677 2.89543 22.5631 4 22.5631V20.5631ZM18.7505 20.5631H4V22.5631H18.7505V20.5631ZM17.7505 6.93766V21.5631H19.7505V6.93766H17.7505ZM18.7505 5.93766H13.1253V7.93766H18.7505V5.93766ZM14.1253 6.93766V1.3125H12.1253V6.93766H14.1253ZM4 2.3125H13.1253V0.3125H4V2.3125Z" fill="#787E80" mask="url(#path-1-inside-1_4282_9456)"/>
<path d="M13.626 6.43742V2.51936L17.544 6.43742H13.626Z" fill="#787E80" stroke="#787E80" stroke-linecap="round"/>
<rect x="12" y="13" width="9" height="9" fill="white"/>
<path d="M12 18L12 14L16 14" stroke="#787E80" stroke-linecap="round" stroke-linejoin="round"/>
<path d="M18 20L12 14" stroke="#787E80" stroke-linecap="round" stroke-linejoin="round"/>
</svg>
