<svg xmlns="http://www.w3.org/2000/svg" width="12" height="13" viewBox="0 0 12 13" fill="none">
  <path d="M11.9667 4.2309C12.0463 4.45185 11.9792 4.69818 11.8076 4.85564L11.2047 5.41587C10.9074 5.69219 10.7731 6.09535 10.7731 6.50127C10.7731 6.90719 10.9074 7.31034 11.2047 7.58667L11.8076 8.1469C11.9792 8.30436 12.0463 8.55069 11.9667 8.77164C11.8573 9.07384 11.7255 9.36335 11.5738 9.6427L11.457 9.84841C11.2928 10.1278 11.1088 10.3919 10.9074 10.6407C10.7607 10.8236 10.517 10.8845 10.2982 10.8134L9.52538 10.5626C9.14268 10.4384 8.72936 10.522 8.38263 10.7261C8.04233 10.9264 7.76966 11.2391 7.6869 11.6252L7.50816 12.4591C7.45842 12.6902 7.28436 12.873 7.05559 12.9111C6.71243 12.9695 6.35932 13 5.99876 13C5.63819 13 5.28509 12.9695 4.94193 12.9111C4.71315 12.873 4.53909 12.6902 4.48936 12.4591L4.31044 11.6244C4.22778 11.2388 3.95549 10.9265 3.6156 10.7265C3.26849 10.5223 2.85457 10.4391 2.47177 10.5642L1.70181 10.816C1.48299 10.8871 1.23929 10.8236 1.09258 10.6433C0.891162 10.3944 0.70715 10.1303 0.54303 9.85095L0.426157 9.64524C0.274471 9.36589 0.142678 9.07638 0.0332654 8.77417C-0.0463076 8.55323 0.0208321 8.3069 0.192411 8.14944L0.793423 7.59093C1.092 7.31347 1.22686 6.90886 1.22686 6.50127C1.22686 6.09535 1.09263 5.6922 0.795275 5.41587L0.192411 4.85564C0.0208321 4.69818 -0.0463076 4.45185 0.0332654 4.2309C0.142678 3.9287 0.274471 3.63919 0.426157 3.35984L0.54303 3.15413C0.70715 2.87478 0.891162 2.61067 1.09258 2.36179C1.23929 2.17894 1.48299 2.11799 1.70181 2.1891L2.47462 2.4399C2.85731 2.5641 3.27063 2.48056 3.61737 2.27647C3.95767 2.07616 4.23033 1.76344 4.3131 1.37733L4.49184 0.543465C4.54157 0.312366 4.71564 0.129517 4.94441 0.0914241C5.28757 0.0304747 5.64068 0 6.00124 0C6.36181 0 6.71491 0.0304747 7.05807 0.0888845C7.28684 0.126978 7.46091 0.309826 7.51064 0.540926L7.68939 1.37479C7.77215 1.7609 8.04482 2.07362 8.38512 2.27393C8.73185 2.47802 9.14517 2.56156 9.52787 2.43736L10.3007 2.18656C10.5195 2.11545 10.7632 2.17894 10.9099 2.35925C11.1113 2.60813 11.2953 2.87224 11.4595 3.15159L11.5763 3.3573C11.728 3.63665 11.8598 3.92616 11.9692 4.22836L11.9667 4.2309ZM6.00124 8.53292C6.52884 8.53292 7.03484 8.31887 7.40791 7.93786C7.78098 7.55685 7.99057 7.0401 7.99057 6.50127C7.99057 5.96244 7.78098 5.44569 7.40791 5.06468C7.03484 4.68367 6.52884 4.46962 6.00124 4.46962C5.47364 4.46962 4.96765 4.68367 4.59458 5.06468C4.22151 5.44569 4.01192 5.96244 4.01192 6.50127C4.01192 7.0401 4.22151 7.55685 4.59458 7.93786C4.96765 8.31887 5.47364 8.53292 6.00124 8.53292Z" fill="#B0B0B0"/>
</svg>
