<svg width="20" height="20" viewBox="0 0 20 20" fill="none" xmlns="http://www.w3.org/2000/svg">
<path d="M12.0791 1.23242C12.4696 0.841898 13.1026 0.841898 13.4932 1.23242L15.0146 2.75391V2.75488C14.399 3.37049 14.399 4.36877 15.0146 4.98438C15.6303 5.59989 16.6286 5.59995 17.2441 4.98438V4.9834L18.7666 6.50586C19.1571 6.89638 19.1571 7.5294 18.7666 7.91992L7.91992 18.7666C7.5294 19.1571 6.89638 19.1571 6.50586 18.7666L4.9834 17.2441C5.59884 16.6286 5.59887 15.6312 4.9834 15.0156C4.36784 14.4001 3.36952 14.3992 2.75391 15.0146L1.23242 13.4932C0.841898 13.1026 0.841898 12.4696 1.23242 12.0791L8.88574 4.42578L9.44238 4.9834L10.1494 4.27637L9.59277 3.71875L12.0791 1.23242ZM15.0146 10.5566L15.5713 11.1143L16.2783 10.4072L15.7217 9.84961L15.0146 10.5566ZM13.3438 8.88672L14.458 10.001L15.165 9.29395L14.0508 8.17969L13.3438 8.88672ZM11.6709 7.21387L12.7852 8.32812L13.4922 7.62109L12.3779 6.50586L11.6709 7.21387ZM10 5.54004L11.1143 6.65527L11.8213 5.94824L10.707 4.83301L10 5.54004Z" fill="#3581FA"/>
</svg>
