<svg width="24" height="24" viewBox="0 0 24 24" fill="none" xmlns="http://www.w3.org/2000/svg">
<path d="M18.4837 7.869L14.2575 3.522C13.9338 3.189 13.4875 3 13.0238 3H6.75C5.7875 3 5.00875 3.81 5.00875 4.8L5 19.2C5 20.19 5.77875 21 6.74125 21H17.25C18.2125 21 19 20.19 19 19.2V9.147C19 8.67 18.8162 8.211 18.4837 7.869ZM10.4512 16.761L8.59625 14.853C8.51524 14.7697 8.45098 14.6708 8.40714 14.5619C8.3633 14.453 8.34073 14.3363 8.34073 14.2185C8.34073 14.1007 8.3633 13.984 8.40714 13.8751C8.45098 13.7662 8.51524 13.6673 8.59625 13.584C8.67726 13.5007 8.77343 13.4346 8.87927 13.3895C8.98512 13.3444 9.09856 13.3212 9.21312 13.3212C9.32769 13.3212 9.44113 13.3444 9.54698 13.3895C9.65282 13.4346 9.74899 13.5007 9.83 13.584L11.0638 14.853L14.1613 11.667C14.2423 11.5837 14.3384 11.5176 14.4443 11.4725C14.5501 11.4274 14.6636 11.4042 14.7781 11.4042C14.8927 11.4042 15.0061 11.4274 15.112 11.4725C15.2178 11.5176 15.314 11.5837 15.395 11.667C15.476 11.7503 15.5403 11.8492 15.5841 11.9581C15.628 12.067 15.6505 12.1837 15.6505 12.3015C15.6505 12.4193 15.628 12.536 15.5841 12.6449C15.5403 12.7538 15.476 12.8527 15.395 12.936L11.685 16.752C11.3525 17.112 10.7925 17.112 10.4512 16.761ZM13.75 9.3C13.2688 9.3 12.875 8.895 12.875 8.4V4.35L17.6875 9.3H13.75Z" fill="#9B9B9B"/>
</svg>
