<svg width="24" height="24" viewBox="0 0 24 24" fill="none" xmlns="http://www.w3.org/2000/svg">
<path d="M19.41 7.41L14.58 2.58C14.21 2.21 13.7 2 13.17 2H6C4.9 2 4.01 2.9 4.01 4L4 20C4 21.1 4.89 22 5.99 22H18C19.1 22 20 21.1 20 20V8.83C20 8.3 19.79 7.79 19.41 7.41ZM10.23 17.29L8.11 15.17C8.01742 15.0774 7.94398 14.9675 7.89387 14.8465C7.84377 14.7256 7.81798 14.5959 7.81798 14.465C7.81798 14.3341 7.84377 14.2044 7.89387 14.0835C7.94398 13.9625 8.01742 13.8526 8.11 13.76C8.20258 13.6674 8.31249 13.594 8.43346 13.5439C8.55442 13.4938 8.68407 13.468 8.815 13.468C8.94593 13.468 9.07558 13.4938 9.19654 13.5439C9.31751 13.594 9.42742 13.6674 9.52 13.76L10.93 15.17L14.47 11.63C14.5626 11.5374 14.6725 11.464 14.7935 11.4139C14.9144 11.3638 15.0441 11.338 15.175 11.338C15.3059 11.338 15.4356 11.3638 15.5565 11.4139C15.6775 11.464 15.7874 11.5374 15.88 11.63C15.9726 11.7226 16.046 11.8325 16.0961 11.9535C16.1462 12.0744 16.172 12.2041 16.172 12.335C16.172 12.4659 16.1462 12.5956 16.0961 12.7165C16.046 12.8375 15.9726 12.9474 15.88 13.04L11.64 17.28C11.26 17.68 10.62 17.68 10.23 17.29ZM14 9C13.45 9 13 8.55 13 8V3.5L18.5 9H14Z" fill="#737373"/>
</svg>
