<svg width="22" height="18" viewBox="0 0 22 18" fill="none" xmlns="http://www.w3.org/2000/svg">
<path d="M2.5579 14.022L5.25602 16.7927C5.38368 16.9238 5.4475 17.0906 5.4475 17.2932C5.4475 17.4958 5.38368 17.6627 5.25602 17.7937C5.12837 17.9248 4.9659 17.9904 4.76862 17.9904C4.57134 17.9904 4.40887 17.9248 4.28122 17.7937L1.07828 14.5046C1.00865 14.4331 0.959212 14.3557 0.929968 14.2723C0.900723 14.1888 0.886566 14.0995 0.887494 14.0041C0.888422 13.9088 0.903044 13.8194 0.93136 13.736C0.959676 13.6526 1.00888 13.5751 1.07897 13.5036L4.28191 10.2145C4.42117 10.0715 4.58666 10 4.77837 10C4.97008 10 5.13533 10.0715 5.27413 10.2145C5.41292 10.3575 5.48255 10.5274 5.48302 10.7243C5.48348 10.9212 5.41385 11.0909 5.27413 11.2334L2.5579 14.022ZM11.2163 13.9862L8.51821 11.2155C8.39056 11.0845 8.32673 10.9176 8.32673 10.715C8.32673 10.5124 8.39056 10.3456 8.51821 10.2145C8.64587 10.0834 8.80833 10.0179 9.00562 10.0179C9.2029 10.0179 9.36537 10.0834 9.49302 10.2145L12.696 13.5036C12.7656 13.5751 12.815 13.6526 12.8443 13.736C12.8735 13.8194 12.8879 13.9088 12.8874 14.0041C12.887 14.0995 12.8726 14.1888 12.8443 14.2723C12.816 14.3557 12.7665 14.4331 12.696 14.5046L9.49302 17.7937C9.35376 17.9367 9.19129 18.0054 9.00562 17.9997C8.81994 17.9939 8.65747 17.9193 8.51821 17.7759C8.37895 17.6324 8.30933 17.4627 8.30933 17.2668C8.30933 17.0709 8.37895 16.9009 8.51821 16.757L11.2163 13.9862Z" fill="black"/>
<path d="M14.2551 0C14.7196 0.00016985 15.1649 0.189902 15.4933 0.527344L20.5988 5.77246C20.9274 6.10988 21.1123 6.56767 21.1125 7.04492V16.2002C21.1124 16.6774 20.9282 17.1352 20.5998 17.4727C20.2712 17.8102 19.8252 18 19.3605 18H11.8488V16.6504H19.3605C19.4766 16.6504 19.588 16.6028 19.6701 16.5186C19.7522 16.4342 19.799 16.3195 19.799 16.2002V7.2002H15.8566C15.392 7.2002 14.946 7.01038 14.6174 6.67285C14.2889 6.33538 14.1038 5.87764 14.1037 5.40039V1.34961H8.84784C8.73181 1.34961 8.62039 1.39724 8.53827 1.48145C8.45617 1.56579 8.40941 1.68053 8.40936 1.7998V9H7.09589V1.7998C7.09594 1.32258 7.28016 0.864845 7.60858 0.527344C7.93717 0.189778 8.38315 0 8.84784 0H14.2551ZM15.4182 5.40039C15.4183 5.51939 15.4643 5.63352 15.5461 5.71777C15.6282 5.80217 15.7405 5.84961 15.8566 5.84961H18.8176L15.4182 2.3584V5.40039Z" fill="black"/>
</svg>
