<svg xmlns="http://www.w3.org/2000/svg" width="18" height="18" viewBox="0 0 18 18" fill="none">
  <path d="M15.6799 10.9669C15.9564 11.3534 16.1485 11.7937 16.2439 12.2592C16.3392 12.7248 16.3357 13.2051 16.2334 13.6692C16.1171 14.1904 15.6371 14.5264 15.1046 14.5752C14.195 14.6586 13.2787 14.6324 12.3754 14.4972M15.6799 10.9669C15.9564 10.5805 16.1485 10.1402 16.2439 9.67465C16.3392 9.20912 16.3357 8.72874 16.2334 8.26469C16.1171 7.74269 15.6371 7.40669 15.1046 7.35794C14.195 7.27451 13.2787 7.30069 12.3754 7.43594M15.6799 10.9669H13.5004M1.68262 3.36719V8.99219V14.6187M1.68262 8.99294H9.55762M9.55762 8.99294V3.36794M9.55762 8.99294V14.6187" stroke="black" stroke-width="1.2" stroke-linecap="round" stroke-linejoin="round"/>
</svg>
