<svg xmlns="http://www.w3.org/2000/svg" width="20" height="20" viewBox="0 0 20 20" fill="none">
  <path d="M1.8573 2.48047V17.5159C1.8573 17.6816 1.92315 17.8406 2.04036 17.9578C2.15757 18.075 2.31654 18.1409 2.4823 18.1409H17.5177C17.6834 18.1409 17.8424 18.075 17.9596 17.9578C18.0768 17.8406 18.1427 17.6816 18.1427 17.5159V2.48047C18.1427 2.31471 18.0768 2.15574 17.9596 2.03853C17.8424 1.92132 17.6834 1.85547 17.5177 1.85547H2.4823C2.31654 1.85547 2.15757 1.92132 2.04036 2.03853C1.92315 2.15574 1.8573 2.31471 1.8573 2.48047ZM13.1307 3.10547H16.8925V6.86719H13.1307V3.10547ZM13.1307 8.11719H16.8925V11.8789H13.1307V8.11719ZM13.1307 13.1289H16.8925V16.8906H13.1307V13.1289ZM8.11902 3.10547H11.8807V6.86719H8.11902V3.10547ZM8.11902 8.11719H11.8807V11.8789H8.11902V8.11719ZM8.11902 13.1289H11.8807V16.8906H8.11902V13.1289ZM3.1073 3.10547H6.86902V6.86719H3.1073V3.10547ZM3.1073 8.11719H6.86902V11.8789H3.1073V8.11719ZM3.1073 13.1289H6.86902V16.8906H3.1073V13.1289Z" fill="black"/>
</svg>
