<svg xmlns="http://www.w3.org/2000/svg" width="16" height="16" viewBox="0 0 16 16" fill="none">
  <g clip-path="url(#clip0_16270_8072)">
    <path d="M6.66668 8.66795C6.95298 9.0507 7.31825 9.3674 7.73771 9.59657C8.15717 9.82574 8.62102 9.96202 9.09778 9.99617C9.57454 10.0303 10.0531 9.96152 10.5009 9.79447C10.9487 9.62741 11.3554 9.36599 11.6933 9.02795L13.6933 7.02795C14.3005 6.39927 14.6365 5.55726 14.6289 4.68328C14.6213 3.80929 14.2708 2.97324 13.6527 2.35522C13.0347 1.73719 12.1987 1.38663 11.3247 1.37903C10.4507 1.37144 9.60868 1.70742 8.98001 2.31461L7.83334 3.45461M9.33331 7.33458C9.04701 6.95183 8.68174 6.63513 8.26228 6.40596C7.84282 6.17678 7.37898 6.0405 6.90221 6.00636C6.42545 5.97222 5.94692 6.041 5.49908 6.20806C5.05124 6.37512 4.64457 6.63654 4.30665 6.97458L2.30665 8.97458C1.69945 9.60326 1.36347 10.4453 1.37107 11.3193C1.37866 12.1932 1.72923 13.0293 2.34725 13.6473C2.96528 14.2653 3.80132 14.6159 4.67531 14.6235C5.5493 14.6311 6.39131 14.2951 7.01998 13.6879L8.15998 12.5479" stroke="#171717" stroke-width="1.33" stroke-linecap="round" stroke-linejoin="round"/>
  </g>
  <defs>
    <clipPath id="clip0_16270_8072">
      <rect width="16" height="16" fill="white"/>
    </clipPath>
  </defs>
</svg>
