<svg xmlns="http://www.w3.org/2000/svg" width="18" height="18" viewBox="0 0 18 18" fill="none">
  <path d="M11.3794 5.21314L6.43988 10.1526C6.29662 10.291 6.18234 10.4565 6.10373 10.6395C6.02512 10.8225 5.98374 11.0194 5.98201 11.2185C5.98027 11.4177 6.01823 11.6152 6.09365 11.7996C6.16907 11.9839 6.28045 12.1514 6.42129 12.2922C6.56213 12.4331 6.72961 12.5444 6.91395 12.6199C7.09829 12.6953 7.29581 12.7332 7.49498 12.7315C7.69415 12.7298 7.89098 12.6884 8.07399 12.6098C8.25699 12.5312 8.42251 12.4169 8.56088 12.2736L13.3714 7.33414C13.9179 6.76833 14.2202 6.01052 14.2134 5.22393C14.2066 4.43734 13.8911 3.6849 13.3348 3.12868C12.7786 2.57246 12.0262 2.25695 11.2396 2.25011C10.453 2.24328 9.69519 2.54566 9.12938 3.09214L4.31813 8.03089C3.47415 8.87487 3 10.0196 3 11.2131C3 12.4067 3.47415 13.5514 4.31813 14.3954C5.16212 15.2394 6.30681 15.7135 7.50038 15.7135C8.69396 15.7135 9.83865 15.2394 10.6826 14.3954L15.3754 9.71314" stroke="black" stroke-width="1.2" stroke-linecap="round" stroke-linejoin="round"/>
</svg>
