<svg width="20" height="20" viewBox="0 0 20 20" fill="none" xmlns="http://www.w3.org/2000/svg">
<path d="M5.83399 16.6673C5.37565 16.6673 4.98343 16.5043 4.65732 16.1782C4.33121 15.852 4.16788 15.4595 4.16732 15.0007V5.83398C3.93121 5.83398 3.73343 5.75398 3.57399 5.59398C3.41454 5.43398 3.33454 5.23621 3.33399 5.00065C3.33343 4.7651 3.41343 4.56732 3.57399 4.40732C3.73454 4.24732 3.93232 4.16732 4.16732 4.16732H7.50065C7.50065 3.93121 7.58065 3.73343 7.74065 3.57398C7.90065 3.41454 8.09843 3.33454 8.33399 3.33398H11.6673C11.9034 3.33398 12.1015 3.41398 12.2615 3.57398C12.4215 3.73398 12.5012 3.93176 12.5007 4.16732H15.834C16.0701 4.16732 16.2682 4.24732 16.4282 4.40732C16.5882 4.56732 16.6679 4.7651 16.6673 5.00065C16.6668 5.23621 16.5868 5.43426 16.4273 5.59482C16.2679 5.75537 16.0701 5.8351 15.834 5.83398V15.0007C15.834 15.459 15.6709 15.8515 15.3448 16.1782C15.0187 16.5048 14.6262 16.6679 14.1673 16.6673H5.83399ZM8.33399 14.1673C8.5701 14.1673 8.76815 14.0873 8.92815 13.9273C9.08815 13.7673 9.16788 13.5695 9.16732 13.334V8.33398C9.16732 8.09787 9.08732 7.9001 8.92732 7.74065C8.76732 7.58121 8.56954 7.50121 8.33399 7.50065C8.09843 7.5001 7.90065 7.5801 7.74065 7.74065C7.58065 7.90121 7.50065 8.09898 7.50065 8.33398V13.334C7.50065 13.5701 7.58065 13.7682 7.74065 13.9282C7.90065 14.0882 8.09843 14.1679 8.33399 14.1673ZM11.6673 14.1673C11.9034 14.1673 12.1015 14.0873 12.2615 13.9273C12.4215 13.7673 12.5012 13.5695 12.5007 13.334V8.33398C12.5007 8.09787 12.4207 7.9001 12.2607 7.74065C12.1007 7.58121 11.9029 7.50121 11.6673 7.50065C11.4318 7.5001 11.234 7.5801 11.074 7.74065C10.914 7.90121 10.834 8.09898 10.834 8.33398V13.334C10.834 13.5701 10.914 13.7682 11.074 13.9282C11.234 14.0882 11.4318 14.1679 11.6673 14.1673Z" fill="#9B9B9B"/>
</svg>
