<svg width="16" height="16" viewBox="0 0 16 16" fill="none" xmlns="http://www.w3.org/2000/svg">
<path d="M4.66651 13.3337C4.29984 13.3337 3.98606 13.2032 3.72517 12.9423C3.46428 12.6814 3.33362 12.3674 3.33317 12.0003V4.66699C3.14428 4.66699 2.98606 4.60299 2.85851 4.47499C2.73095 4.34699 2.66695 4.18877 2.66651 4.00033C2.66606 3.81188 2.73006 3.65366 2.85851 3.52566C2.98695 3.39766 3.14517 3.33366 3.33317 3.33366H5.99984C5.99984 3.14477 6.06384 2.98655 6.19184 2.85899C6.31984 2.73144 6.47806 2.66744 6.66651 2.66699H9.33317C9.52206 2.66699 9.68051 2.73099 9.80851 2.85899C9.93651 2.98699 10.0003 3.14521 9.99984 3.33366H12.6665C12.8554 3.33366 13.0138 3.39766 13.1418 3.52566C13.2698 3.65366 13.3336 3.81188 13.3332 4.00033C13.3327 4.18877 13.2687 4.34721 13.1412 4.47566C13.0136 4.6041 12.8554 4.66788 12.6665 4.66699V12.0003C12.6665 12.367 12.5361 12.681 12.2752 12.9423C12.0143 13.2037 11.7003 13.3341 11.3332 13.3337H4.66651ZM6.66651 11.3337C6.8554 11.3337 7.01384 11.2697 7.14184 11.1417C7.26984 11.0137 7.33362 10.8554 7.33317 10.667V6.66699C7.33317 6.4781 7.26917 6.31988 7.14117 6.19233C7.01317 6.06477 6.85495 6.00077 6.66651 6.00033C6.47806 5.99988 6.31984 6.06388 6.19184 6.19233C6.06384 6.32077 5.99984 6.47899 5.99984 6.66699V10.667C5.99984 10.8559 6.06384 11.0143 6.19184 11.1423C6.31984 11.2703 6.47806 11.3341 6.66651 11.3337ZM9.33317 11.3337C9.52206 11.3337 9.68051 11.2697 9.80851 11.1417C9.93651 11.0137 10.0003 10.8554 9.99984 10.667V6.66699C9.99984 6.4781 9.93584 6.31988 9.80784 6.19233C9.67984 6.06477 9.52162 6.00077 9.33317 6.00033C9.14473 5.99988 8.98651 6.06388 8.85851 6.19233C8.73051 6.32077 8.66651 6.47899 8.66651 6.66699V10.667C8.66651 10.8559 8.73051 11.0143 8.85851 11.1423C8.98651 11.2703 9.14473 11.3341 9.33317 11.3337Z" fill="#FC5555"/>
</svg>
