<svg width="19" height="18" viewBox="0 0 19 18" fill="none" xmlns="http://www.w3.org/2000/svg">
<path d="M6.82411 1.66948L6.60714 2.10938H3.71429C3.18092 2.10938 2.75 2.54927 2.75 3.09375C2.75 3.63823 3.18092 4.07812 3.71429 4.07812H15.2857C15.8191 4.07812 16.25 3.63823 16.25 3.09375C16.25 2.54927 15.8191 2.10938 15.2857 2.10938H12.3929L12.1759 1.66948C12.0132 1.33418 11.6787 1.125 11.3141 1.125H7.68594C7.32132 1.125 6.98683 1.33418 6.82411 1.66948ZM15.2219 6.10394C15.2565 5.5388 14.7824 5.0625 14.1852 5.0625H4.8148C4.21761 5.0625 3.74346 5.5388 3.77808 6.10394L4.35312 15.4907C4.40134 16.269 5.03415 16.875 5.79654 16.875H13.2035C13.9658 16.875 14.5987 16.269 14.6469 15.4907L15.2219 6.10394Z" fill="white"/>
</svg>
