<svg width="16" height="16" viewBox="0 0 16 16" fill="none" xmlns="http://www.w3.org/2000/svg">
<path d="M4.66675 13.3307C4.30008 13.3307 3.98631 13.2003 3.72542 12.9394C3.46453 12.6785 3.33386 12.3645 3.33342 11.9974V4.66406C3.14453 4.66406 2.98631 4.60006 2.85875 4.47206C2.73119 4.34406 2.66719 4.18584 2.66675 3.9974C2.66631 3.80895 2.73031 3.65073 2.85875 3.52273C2.98719 3.39473 3.14542 3.33073 3.33342 3.33073H6.00008C6.00008 3.14184 6.06408 2.98362 6.19208 2.85606C6.32008 2.72851 6.47831 2.66451 6.66675 2.66406H9.33342C9.52231 2.66406 9.68075 2.72806 9.80875 2.85606C9.93675 2.98406 10.0005 3.14228 10.0001 3.33073H12.6668C12.8556 3.33073 13.0141 3.39473 13.1421 3.52273C13.2701 3.65073 13.3339 3.80895 13.3334 3.9974C13.333 4.18584 13.269 4.34428 13.1414 4.47273C13.0139 4.60117 12.8556 4.66495 12.6668 4.66406V11.9974C12.6668 12.3641 12.5363 12.6781 12.2754 12.9394C12.0145 13.2007 11.7005 13.3312 11.3334 13.3307H4.66675ZM6.66675 11.3307C6.85564 11.3307 7.01408 11.2667 7.14208 11.1387C7.27008 11.0107 7.33386 10.8525 7.33342 10.6641V6.66406C7.33342 6.47517 7.26942 6.31695 7.14142 6.1894C7.01342 6.06184 6.8552 5.99784 6.66675 5.9974C6.47831 5.99695 6.32008 6.06095 6.19208 6.1894C6.06408 6.31784 6.00008 6.47606 6.00008 6.66406V10.6641C6.00008 10.853 6.06408 11.0114 6.19208 11.1394C6.32008 11.2674 6.47831 11.3312 6.66675 11.3307ZM9.33342 11.3307C9.52231 11.3307 9.68075 11.2667 9.80875 11.1387C9.93675 11.0107 10.0005 10.8525 10.0001 10.6641V6.66406C10.0001 6.47517 9.93608 6.31695 9.80808 6.1894C9.68008 6.06184 9.52186 5.99784 9.33342 5.9974C9.14497 5.99695 8.98675 6.06095 8.85875 6.1894C8.73075 6.31784 8.66675 6.47606 8.66675 6.66406V10.6641C8.66675 10.853 8.73075 11.0114 8.85875 11.1394C8.98675 11.2674 9.14497 11.3312 9.33342 11.3307Z" fill="#9B9B9B"/>
</svg>
