<svg width="20" height="20" viewBox="0 0 20 20" fill="none" xmlns="http://www.w3.org/2000/svg">
<path d="M17.2668 9.93066C17.6117 9.9309 17.8917 10.2108 17.8918 10.5557V15.1172C17.8918 16.3828 16.8655 17.4091 15.5999 17.4092H4.40063C3.13498 17.4092 2.10864 16.3828 2.10864 15.1172V10.5557C2.10882 10.2106 2.38857 9.93066 2.73364 9.93066C3.07867 9.93071 3.35847 10.2107 3.35864 10.5557V15.1172C3.35864 15.6925 3.82534 16.1592 4.40063 16.1592H15.5999C16.1751 16.1591 16.6418 15.6924 16.6418 15.1172V10.5557C16.642 10.2106 16.9218 9.93066 17.2668 9.93066ZM10.0002 2.5957C10.1703 2.59578 10.3336 2.66538 10.4514 2.78809L13.5657 6.03223L13.6428 6.13184C13.7977 6.37753 13.7647 6.70597 13.5471 6.91504C13.2982 7.15394 12.9024 7.14618 12.6633 6.89746L10.6252 4.77344V12.4277C10.6251 12.7727 10.3452 13.0526 10.0002 13.0527C9.65517 13.0527 9.37542 12.7728 9.37524 12.4277V4.77344L7.33716 6.89746C7.09819 7.14631 6.70237 7.1538 6.45337 6.91504C6.20463 6.67612 6.19624 6.28122 6.43481 6.03223L9.54907 2.78809C9.66693 2.66532 9.83006 2.5957 10.0002 2.5957Z" fill="#B0B0B0"/>
</svg>
