<svg width="20" height="20" viewBox="0 0 20 20" fill="none" xmlns="http://www.w3.org/2000/svg">
<path d="M7.039 7.06862L9.1 5.02361V13.5504C9.1 13.7862 9.19482 14.0124 9.3636 14.1791C9.53239 14.3459 9.7613 14.4396 10 14.4396C10.2387 14.4396 10.4676 14.3459 10.6364 14.1791C10.8052 14.0124 10.9 13.7862 10.9 13.5504V5.02361L12.961 7.06862C13.0447 7.15196 13.1442 7.21811 13.2539 7.26325C13.3636 7.30839 13.4812 7.33163 13.6 7.33163C13.7188 7.33163 13.8364 7.30839 13.9461 7.26325C14.0558 7.21811 14.1553 7.15196 14.239 7.06862C14.3234 6.98597 14.3903 6.88763 14.436 6.77928C14.4817 6.67093 14.5052 6.55471 14.5052 6.43734C14.5052 6.31996 14.4817 6.20374 14.436 6.0954C14.3903 5.98705 14.3234 5.88871 14.239 5.80605L10.639 2.24951C10.5534 2.16856 10.4525 2.10511 10.342 2.06279C10.1229 1.97386 9.87712 1.97386 9.658 2.06279C9.54752 2.10511 9.44659 2.16856 9.361 2.24951L5.761 5.80605C5.67709 5.88895 5.61052 5.98737 5.56511 6.09569C5.51969 6.204 5.49632 6.3201 5.49632 6.43734C5.49632 6.55458 5.51969 6.67067 5.56511 6.77899C5.61052 6.8873 5.67709 6.98572 5.761 7.06862C5.84491 7.15152 5.94454 7.21728 6.05418 7.26215C6.16382 7.30702 6.28133 7.33011 6.4 7.33011C6.51867 7.33011 6.63618 7.30702 6.74582 7.26215C6.85546 7.21728 6.95509 7.15152 7.039 7.06862ZM18.1 9.10474C17.8613 9.10474 17.6324 9.19842 17.4636 9.36516C17.2948 9.53191 17.2 9.75806 17.2 9.99388V15.3287C17.2 15.5645 17.1052 15.7907 16.9364 15.9574C16.7676 16.1241 16.5387 16.2178 16.3 16.2178H3.7C3.46131 16.2178 3.23239 16.1241 3.0636 15.9574C2.89482 15.7907 2.8 15.5645 2.8 15.3287V9.99388C2.8 9.75806 2.70518 9.53191 2.5364 9.36516C2.36761 9.19842 2.13869 9.10474 1.9 9.10474C1.66131 9.10474 1.43239 9.19842 1.2636 9.36516C1.09482 9.53191 1 9.75806 1 9.99388V15.3287C1 16.0361 1.28446 16.7146 1.79081 17.2148C2.29716 17.7151 2.98392 17.9961 3.7 17.9961H16.3C17.0161 17.9961 17.7028 17.7151 18.2092 17.2148C18.7155 16.7146 19 16.0361 19 15.3287V9.99388C19 9.75806 18.9052 9.53191 18.7364 9.36516C18.5676 9.19842 18.3387 9.10474 18.1 9.10474Z" fill="#FFF"/>
</svg>
