<svg width="20" height="20" viewBox="0 0 20 20" fill="none" xmlns="http://www.w3.org/2000/svg">
<path d="M7.039 7.07253L9.1 5.02752V13.5543C9.1 13.7901 9.19482 14.0163 9.3636 14.183C9.53239 14.3498 9.7613 14.4435 10 14.4435C10.2387 14.4435 10.4676 14.3498 10.6364 14.183C10.8052 14.0163 10.9 13.7901 10.9 13.5543V5.02752L12.961 7.07253C13.0447 7.15587 13.1442 7.22201 13.2539 7.26715C13.3636 7.31229 13.4812 7.33553 13.6 7.33553C13.7188 7.33553 13.8364 7.31229 13.9461 7.26715C14.0558 7.22201 14.1553 7.15587 14.239 7.07253C14.3234 6.98987 14.3903 6.89153 14.436 6.78318C14.4817 6.67483 14.5052 6.55862 14.5052 6.44124C14.5052 6.32387 14.4817 6.20765 14.436 6.0993C14.3903 5.99095 14.3234 5.89261 14.239 5.80996L10.639 2.25342C10.5534 2.17247 10.4525 2.10901 10.342 2.0667C10.1229 1.97777 9.87712 1.97777 9.658 2.0667C9.54752 2.10901 9.44659 2.17247 9.361 2.25342L5.761 5.80996C5.67709 5.89286 5.61052 5.99128 5.56511 6.09959C5.51969 6.20791 5.49632 6.324 5.49632 6.44124C5.49632 6.55848 5.51969 6.67458 5.56511 6.78289C5.61052 6.89121 5.67709 6.98963 5.761 7.07253C5.84491 7.15543 5.94454 7.22119 6.05418 7.26606C6.16382 7.31092 6.28133 7.33402 6.4 7.33402C6.51867 7.33402 6.63618 7.31092 6.74582 7.26606C6.85546 7.22119 6.95509 7.15543 7.039 7.07253ZM18.1 9.10865C17.8613 9.10865 17.6324 9.20232 17.4636 9.36907C17.2948 9.53581 17.2 9.76197 17.2 9.99778V15.3326C17.2 15.5684 17.1052 15.7946 16.9364 15.9613C16.7676 16.1281 16.5387 16.2217 16.3 16.2217H3.7C3.46131 16.2217 3.23239 16.1281 3.0636 15.9613C2.89482 15.7946 2.8 15.5684 2.8 15.3326V9.99778C2.8 9.76197 2.70518 9.53581 2.5364 9.36907C2.36761 9.20232 2.13869 9.10865 1.9 9.10865C1.66131 9.10865 1.43239 9.20232 1.2636 9.36907C1.09482 9.53581 1 9.76197 1 9.99778V15.3326C1 16.04 1.28446 16.7185 1.79081 17.2187C2.29716 17.719 2.98392 18 3.7 18H16.3C17.0161 18 17.7028 17.719 18.2092 17.2187C18.7155 16.7185 19 16.04 19 15.3326V9.99778C19 9.76197 18.9052 9.53581 18.7364 9.36907C18.5676 9.20232 18.3387 9.10865 18.1 9.10865Z" fill="#3581FA"/>
</svg>
