<svg width="32" height="32" viewBox="0 0 32 32" fill="none" xmlns="http://www.w3.org/2000/svg">
<path fill-rule="evenodd" clip-rule="evenodd" d="M26.3479 7.1941C26.552 6.98997 26.6667 6.71311 26.6667 6.42442C26.6667 6.13574 26.552 5.85888 26.3479 5.65475C26.1438 5.45062 25.8669 5.33594 25.5782 5.33594C25.2895 5.33594 25.0127 5.45062 24.8085 5.65475L16 14.4633L7.19153 5.65475C6.9874 5.45062 6.71054 5.33594 6.42186 5.33594C6.13317 5.33594 5.85631 5.45062 5.65218 5.65475C5.44805 5.85888 5.33337 6.13574 5.33337 6.42442C5.33337 6.71311 5.44805 6.98997 5.65218 7.1941L14.4607 16.0026L5.65218 24.8111C5.44805 25.0152 5.33337 25.2921 5.33337 25.5808C5.33337 25.8695 5.44805 26.1463 5.65218 26.3505C5.85631 26.5546 6.13317 26.6693 6.42186 26.6693C6.71054 26.6693 6.9874 26.5546 7.19153 26.3505L16 17.542L24.8085 26.3505C25.0127 26.5546 25.2895 26.6693 25.5782 26.6693C25.8669 26.6693 26.1438 26.5546 26.3479 26.3505C26.552 26.1463 26.6667 25.8695 26.6667 25.5808C26.6667 25.2921 26.552 25.0152 26.3479 24.8111L17.5394 16.0026L26.3479 7.1941Z" fill="#484C4D"/>
</svg>
