<svg xmlns="http://www.w3.org/2000/svg" width="111" height="52" fill="none" viewBox="0 0 111 52"><path fill="#3581FA" d="M26.7828 35.0233V31.59C26.7828 30.0524 27.9655 29.5796 29.2201 29.5796C30.4747 29.5796 31.665 30.0753 31.665 31.59V35.0233H40.1381C41.5825 35.0233 42.1271 35.9934 42.1271 36.9404C42.1271 37.9105 41.558 38.8575 40.1381 38.8575H21.9541C20.5342 38.8575 19.9651 37.9105 19.9651 36.9404C19.9651 35.9934 20.5098 35.0233 21.9541 35.0233H26.7828ZM36.0377 28.4596H22.7589C21.339 28.4596 20.6995 27.4177 20.6995 26.4477C20.6995 25.5021 21.3115 24.4373 22.7589 24.4373H36.3208V22.4299C36.3257 22.351 36.3138 22.272 36.2859 22.198C36.2579 22.124 36.2146 22.0569 36.1588 22.0009C36.103 21.9449 36.0359 21.9014 35.962 21.8733C35.8881 21.8452 35.8091 21.8331 35.7302 21.8378H22.996C21.5746 21.8378 20.9122 20.7974 20.9122 19.8274C20.9122 18.8803 21.5517 17.8154 22.996 17.8154H37.4101C40.0846 17.8154 41.1265 19.07 41.1265 21.2702V23.8712C41.1265 27.7528 40.7241 30.4502 39.849 32.3428C39.2569 33.6219 37.86 34.2369 36.3682 33.6693C35.2085 33.2195 34.9912 31.9863 35.4227 30.9719C35.7275 30.1621 35.934 29.3187 36.0377 28.4596Z"/><path fill="#3581FA" d="M63.7598 34.8578C65.227 34.8578 65.7947 35.8997 65.7947 36.8682C65.7947 37.8627 65.2026 38.8572 63.7598 38.8572H45.6752C44.2308 38.8572 43.6403 37.8627 43.6403 36.8682C43.6403 35.8997 44.2079 34.8578 45.6752 34.8578H63.7598ZM62.3629 17.861C63.7123 17.861 64.1851 18.9519 64.1851 19.85C64.1851 20.7481 63.6879 21.8146 62.3629 21.8146H50.386C49.8888 21.8146 49.7235 21.9568 49.7235 22.4541V26.0986C49.7235 26.5958 49.8888 26.761 50.386 26.761H62.7408C64.0673 26.761 64.5875 27.8519 64.5875 28.7271C64.5875 29.6023 64.0428 30.7161 62.7408 30.7161H48.7046C45.8649 30.7161 44.8949 29.6986 44.8949 26.9523V21.5973C44.8949 18.8754 45.8649 17.8564 48.7046 17.8564L62.3629 17.861Z"/><path fill="#3581FA" d="M79.3383 17.7905C80.5623 17.7905 80.9953 18.785 80.9953 19.6372C80.9953 20.442 80.5455 21.4365 79.3383 21.4365H73.3254C72.8771 21.4365 72.6629 21.6017 72.6629 22.0041V24.6342C72.6629 25.0825 72.8771 25.2248 73.3254 25.2248H80.2379C81.4619 25.2248 81.9209 26.1948 81.9209 27.0011C81.9209 27.8533 81.4711 28.8218 80.2379 28.8218H71.3639C68.7369 28.8218 67.9979 27.9711 67.9979 25.5323V21.08C67.9979 18.6427 68.7308 17.7905 71.3639 17.7905H79.3383ZM73.6574 30.1238H83.6697C86.9133 30.1238 88.5657 32.1572 88.5657 34.7628C88.5657 37.3684 86.9103 39.4017 83.6697 39.4017H73.6574C70.3679 39.4017 68.7614 37.3194 68.7614 34.7628C68.7614 32.2061 70.374 30.1238 73.6574 30.1238ZM74.912 36.0908H82.409C83.4509 36.0908 83.7585 35.3564 83.7585 34.7658C83.7585 34.1753 83.4525 33.4409 82.409 33.4409H74.912C73.8701 33.4409 73.5625 34.1737 73.5625 34.7658C73.5625 35.3579 73.8701 36.0878 74.912 36.0878V36.0908ZM83.5045 19.4475C83.5045 17.9098 84.5923 17.1035 85.8469 17.1035C87.0709 17.1035 88.1909 17.9328 88.1909 19.4475V21.389H88.9253C90.3681 21.389 90.7949 22.4769 90.7949 23.4239C90.7949 24.371 90.3451 25.4604 88.9253 25.4604H88.1909V29.5547H83.5045V19.4475Z"/><path fill="#3581FA" d="M1.98296 27.8305C1.4819 27.8313 0.999172 27.642 0.632121 27.301C0.26507 26.9599 0.0409994 26.4923 0.00509318 25.9925C-0.030813 25.4928 0.124117 24.998 0.438639 24.6079C0.753162 24.2179 1.20388 23.9616 1.69991 23.8907C3.52175 23.6289 5.30051 23.1251 6.98912 22.3929C10.3949 20.9072 18.6691 15.9011 21.9372 1.54048C22.0605 1.03552 22.3775 0.599303 22.8196 0.32601C23.2618 0.0527171 23.7937 -0.0357262 24.3005 0.0797757C24.8073 0.195278 25.2483 0.505461 25.5284 0.943352C25.8085 1.38124 25.9051 1.91171 25.7974 2.42023C24.9417 6.18203 23.5874 9.81269 21.7705 13.2159C18.4626 19.3359 14.0225 23.6444 8.57267 26.022C6.56113 26.8947 4.44233 27.4957 2.27213 27.8091C2.17637 27.823 2.07974 27.8302 1.98296 27.8305Z"/><path fill="#3581FA" d="M108.777 27.8305C108.68 27.8302 108.584 27.823 108.488 27.809C106.318 27.4957 104.199 26.8947 102.187 26.022C96.7374 23.6444 92.2974 19.3359 88.9895 13.2159C87.1726 9.81266 85.8183 6.18201 84.9626 2.42021C84.8459 1.90812 84.9374 1.37065 85.2171 0.926053C85.4967 0.481453 85.9415 0.16614 86.4535 0.0494776C86.9656 -0.0671846 87.5031 0.0243625 87.9477 0.303976C88.3923 0.58359 88.7076 1.02837 88.8243 1.54046C92.0908 15.901 100.365 20.9072 103.771 22.3928C105.459 23.1251 107.238 23.6289 109.06 23.8907C109.556 23.9615 110.007 24.2178 110.321 24.6079C110.636 24.9979 110.791 25.4927 110.755 25.9925C110.719 26.4923 110.495 26.9599 110.128 27.3009C109.761 27.642 109.278 27.8312 108.777 27.8305Z"/><path fill="#3581FA" d="M55.3677 13.412C40.9935 13.4075 26.6533 12.0128 12.5476 9.2473C12.0323 9.14586 11.5783 8.84385 11.2857 8.40771C10.993 7.97158 10.8856 7.43705 10.987 6.9217C11.0885 6.40636 11.3905 5.95242 11.8266 5.65975C12.2627 5.36708 12.7973 5.25966 13.3126 5.3611C40.737 10.7489 68.941 10.8185 96.3916 5.56612L97.455 5.35651C97.7115 5.30473 97.9759 5.30434 98.2326 5.35537C98.4893 5.4064 98.7334 5.50784 98.9507 5.65381C99.168 5.79978 99.3541 5.9874 99.4984 6.20579C99.6427 6.42419 99.7423 6.66903 99.7914 6.92616C99.8404 7.18328 99.838 7.44758 99.7843 7.70377C99.7305 7.95995 99.6265 8.20293 99.4782 8.41865C99.3299 8.63437 99.1404 8.81855 98.9204 8.96052C98.7005 9.10249 98.4546 9.19945 98.197 9.24577L97.1138 9.45232C83.3537 12.0803 69.3765 13.4061 55.3677 13.412Z"/><path fill="#3581FA" d="M19.984 49.464L20.128 49.36C20.3093 49.2533 20.4373 49.2 20.512 49.2C20.6773 49.2 20.856 49.3493 21.048 49.648C21.1653 49.8347 21.224 49.984 21.224 50.096C21.224 50.208 21.1867 50.3013 21.112 50.376C21.0427 50.4507 20.96 50.5173 20.864 50.576C20.768 50.6347 20.6747 50.6907 20.584 50.744C20.4987 50.7973 20.32 50.8667 20.048 50.952C19.776 51.0373 19.512 51.08 19.256 51.08C19.0053 51.08 18.7493 51.048 18.488 50.984C18.232 50.9147 17.9653 50.8027 17.688 50.648C17.416 50.488 17.1707 50.296 16.952 50.072C16.7333 49.8427 16.552 49.552 16.408 49.2C16.2693 48.8427 16.2 48.456 16.2 48.04C16.2 47.624 16.2693 47.248 16.408 46.912C16.5467 46.5707 16.7227 46.2907 16.936 46.072C17.1547 45.848 17.4027 45.6613 17.68 45.512C18.2027 45.224 18.728 45.08 19.256 45.08C19.5067 45.08 19.76 45.12 20.016 45.2C20.2773 45.2747 20.4747 45.352 20.608 45.432L20.8 45.544C20.896 45.6027 20.9707 45.6507 21.024 45.688C21.1627 45.8 21.232 45.928 21.232 46.072C21.232 46.2107 21.176 46.3573 21.064 46.512C20.856 46.8 20.6693 46.944 20.504 46.944C20.408 46.944 20.272 46.8853 20.096 46.768C19.872 46.5867 19.5733 46.496 19.2 46.496C18.8533 46.496 18.512 46.616 18.176 46.856C18.016 46.9733 17.8827 47.1387 17.776 47.352C17.6693 47.5653 17.616 47.808 17.616 48.08C17.616 48.3467 17.6693 48.5867 17.776 48.8C17.8827 49.0133 18.0187 49.1813 18.184 49.304C18.5093 49.5387 18.848 49.656 19.2 49.656C19.3653 49.656 19.52 49.6347 19.664 49.592C19.8133 49.5493 19.92 49.5067 19.984 49.464ZM29.3017 45.064C30.091 45.064 30.7764 45.3493 31.3577 45.92C31.939 46.4907 32.2297 47.2 32.2297 48.048C32.2297 48.8907 31.9524 49.6107 31.3977 50.208C30.843 50.8 30.1604 51.096 29.3497 51.096C28.539 51.096 27.8484 50.8027 27.2777 50.216C26.7124 49.6293 26.4297 48.9307 26.4297 48.12C26.4297 47.6773 26.5097 47.264 26.6697 46.88C26.8297 46.4907 27.043 46.1653 27.3097 45.904C27.5764 45.6427 27.883 45.4373 28.2297 45.288C28.5764 45.1387 28.9337 45.064 29.3017 45.064ZM27.8457 48.08C27.8457 48.5547 27.9977 48.9413 28.3017 49.24C28.611 49.5333 28.955 49.68 29.3337 49.68C29.7124 49.68 30.0537 49.536 30.3577 49.248C30.6617 48.96 30.8137 48.5733 30.8137 48.088C30.8137 47.6027 30.659 47.2133 30.3497 46.92C30.0457 46.6267 29.7044 46.48 29.3257 46.48C28.947 46.48 28.6057 46.6293 28.3017 46.928C27.9977 47.2213 27.8457 47.6053 27.8457 48.08ZM38.2648 45.128L39.7448 45.136C40.5181 45.136 41.1981 45.416 41.7848 45.976C42.3715 46.5307 42.6648 47.216 42.6648 48.032C42.6648 48.8427 42.3768 49.5387 41.8008 50.12C41.2301 50.7013 40.5368 50.992 39.7208 50.992H38.2568C37.9315 50.992 37.7288 50.9253 37.6488 50.792C37.5848 50.68 37.5528 50.5093 37.5528 50.28V45.832C37.5528 45.704 37.5555 45.6107 37.5608 45.552C37.5715 45.4933 37.5981 45.424 37.6408 45.344C37.7155 45.2 37.9235 45.128 38.2648 45.128ZM39.7448 49.576C40.1288 49.576 40.4755 49.4347 40.7848 49.152C41.0941 48.864 41.2488 48.504 41.2488 48.072C41.2488 47.64 41.0968 47.28 40.7928 46.992C40.4941 46.6987 40.1421 46.552 39.7368 46.552H38.9688V49.576H39.7448ZM49.4016 49.584H51.8656C51.9883 49.584 52.079 49.5893 52.1376 49.6C52.2016 49.6053 52.2736 49.6293 52.3536 49.672C52.4976 49.7467 52.5696 49.9547 52.5696 50.296C52.5696 50.6693 52.471 50.888 52.2736 50.952C52.183 50.984 52.0443 51 51.8576 51H48.6896C48.3163 51 48.0976 50.8987 48.0336 50.696C48.0016 50.6107 47.9856 50.4747 47.9856 50.288V45.84C47.9856 45.568 48.0363 45.384 48.1376 45.288C48.239 45.1867 48.431 45.136 48.7136 45.136H51.8656C51.9883 45.136 52.079 45.1413 52.1376 45.152C52.2016 45.1573 52.2736 45.1813 52.3536 45.224C52.4976 45.2987 52.5696 45.5067 52.5696 45.848C52.5696 46.2213 52.471 46.44 52.2736 46.504C52.183 46.536 52.0443 46.552 51.8576 46.552H49.4016V47.36H50.9856C51.1083 47.36 51.199 47.3653 51.2576 47.376C51.3216 47.3813 51.3936 47.4053 51.4736 47.448C51.6176 47.5227 51.6896 47.7307 51.6896 48.072C51.6896 48.4453 51.5883 48.664 51.3856 48.728C51.295 48.76 51.1563 48.776 50.9696 48.776H49.4016V49.584ZM58.5992 45.128L60.0792 45.136C60.8525 45.136 61.5325 45.416 62.1192 45.976C62.7059 46.5307 62.9992 47.216 62.9992 48.032C62.9992 48.8427 62.7112 49.5387 62.1352 50.12C61.5645 50.7013 60.8712 50.992 60.0552 50.992H58.5912C58.2659 50.992 58.0632 50.9253 57.9832 50.792C57.9192 50.68 57.8872 50.5093 57.8872 50.28V45.832C57.8872 45.704 57.8899 45.6107 57.8952 45.552C57.9059 45.4933 57.9325 45.424 57.9752 45.344C58.0499 45.2 58.2579 45.128 58.5992 45.128ZM60.0792 49.576C60.4632 49.576 60.8099 49.4347 61.1192 49.152C61.4285 48.864 61.5832 48.504 61.5832 48.072C61.5832 47.64 61.4312 47.28 61.1272 46.992C60.8285 46.6987 60.4765 46.552 60.0712 46.552H59.3032V49.576H60.0792ZM71.3056 45.552L73.4656 50.016C73.5562 50.1973 73.6016 50.3333 73.6016 50.424C73.6016 50.616 73.4469 50.7893 73.1376 50.944C72.9562 51.0347 72.8122 51.08 72.7056 51.08C72.6042 51.08 72.5189 51.056 72.4496 51.008C72.3856 50.96 72.3376 50.9093 72.3056 50.856C72.2789 50.8027 72.2389 50.7227 72.1856 50.616L71.7696 49.752H69.5536L69.1376 50.616C69.0842 50.7227 69.0416 50.8 69.0096 50.848C68.9829 50.896 68.9349 50.9467 68.8656 51C68.8016 51.048 68.7162 51.072 68.6096 51.072C68.5082 51.072 68.3669 51.0267 68.1856 50.936C67.8762 50.7867 67.7216 50.616 67.7216 50.424C67.7216 50.3333 67.7669 50.1973 67.8576 50.016L70.0176 45.544C70.0762 45.4213 70.1642 45.3227 70.2816 45.248C70.4042 45.1733 70.5322 45.136 70.6656 45.136C70.9536 45.136 71.1669 45.2747 71.3056 45.552ZM70.6576 47.472L70.1296 48.568H71.1936L70.6576 47.472ZM82.6228 45.384C82.6761 45.288 82.7534 45.224 82.8548 45.192C82.9561 45.16 83.0814 45.144 83.2308 45.144C83.3854 45.144 83.5081 45.1573 83.5988 45.184C83.6948 45.2107 83.7641 45.2427 83.8068 45.28C83.8548 45.3173 83.8894 45.3733 83.9108 45.448C83.9428 45.5333 83.9588 45.6693 83.9588 45.856V50.296C83.9588 50.424 83.9534 50.5173 83.9428 50.576C83.9374 50.6347 83.9134 50.704 83.8708 50.784C83.7961 50.928 83.5881 51 83.2468 51C83.0388 51 82.8948 50.984 82.8148 50.952C82.7348 50.92 82.6681 50.8693 82.6148 50.8C81.4148 49.2 80.6254 48.1547 80.2468 47.664V50.296C80.2468 50.424 80.2414 50.5173 80.2308 50.576C80.2254 50.6347 80.2014 50.704 80.1588 50.784C80.0841 50.928 79.8761 51 79.5348 51C79.2041 51 79.0014 50.928 78.9268 50.784C78.8841 50.704 78.8574 50.632 78.8468 50.568C78.8414 50.504 78.8388 50.4107 78.8388 50.288V45.824C78.8388 45.6213 78.8628 45.4747 78.9108 45.384C78.9641 45.288 79.0414 45.224 79.1428 45.192C79.2441 45.16 79.3748 45.144 79.5348 45.144C79.6948 45.144 79.8201 45.16 79.9108 45.192C80.0068 45.2187 80.0734 45.2507 80.1108 45.288C80.1321 45.304 80.1934 45.3733 80.2948 45.496C81.4201 47.0267 82.1721 48.0373 82.5508 48.528V45.824C82.5508 45.6213 82.5748 45.4747 82.6228 45.384ZM92.4526 47.464H93.8606C94.1486 47.4747 94.3246 47.5493 94.3886 47.688C94.4419 47.7893 94.4686 47.9387 94.4686 48.136V49.896C94.4686 50.0667 94.3939 50.2293 94.2446 50.384C93.7966 50.848 93.1246 51.08 92.2286 51.08C91.4339 51.08 90.7432 50.7813 90.1566 50.184C89.5699 49.5813 89.2766 48.856 89.2766 48.008C89.2766 47.16 89.5752 46.4533 90.1726 45.888C90.7699 45.3173 91.4739 45.032 92.2846 45.032C92.9139 45.032 93.5086 45.24 94.0686 45.656C94.2126 45.7627 94.2846 45.8827 94.2846 46.016C94.2846 46.144 94.2232 46.2933 94.1006 46.464C93.8926 46.7467 93.7032 46.888 93.5326 46.888C93.4312 46.888 93.2686 46.816 93.0446 46.672C92.8206 46.5227 92.5539 46.448 92.2446 46.448C91.8392 46.448 91.4792 46.592 91.1646 46.88C90.8499 47.1627 90.6926 47.536 90.6926 48C90.6926 48.4587 90.8526 48.8507 91.1726 49.176C91.4926 49.496 91.8552 49.656 92.2606 49.656C92.5539 49.656 92.8179 49.608 93.0526 49.512V48.64H92.4206C92.2552 48.64 92.1379 48.6187 92.0686 48.576C91.9992 48.5333 91.9539 48.472 91.9326 48.392C91.9112 48.3067 91.9006 48.1947 91.9006 48.056C91.9006 47.912 91.9112 47.7973 91.9326 47.712C91.9592 47.6267 92.0046 47.568 92.0686 47.536C92.1646 47.488 92.2926 47.464 92.4526 47.464Z"/></svg>