<svg xmlns="http://www.w3.org/2000/svg" viewBox="0 0 194.32 227.51" class="fill-current text-green-200"><defs><style>.cls-1{fill:#231815}</style></defs><g id="레이어_2" data-name="레이어 2"><path d="M37.65,195.62a95.77,95.77,0,0,1-12.17-12.81C5.35,160.23-17.64,101,20.62,47.26,36.41,25.1,59.07,10.19,81.57,4.14,134.06-10,174.4,14.85,192.86,34.83c2,2.23,1.77,5.07.2,6.38-2.29,1.92-4.35.92-9-.42a47.43,47.43,0,0,0-20-1.73c-15.42,2-28.78,16.27-26.93,36.24,1.69,18.24,15.75,31.41,25.63,40.11C197.43,146,185.83,178.69,183,185.88c-9.59,24.41-34.16,41.63-66,41.63-13.24,0-32.35-3.43-51.57-15.61-.75-.33-1.48-1.32-.57-3,1.47-3.71,7.6-14.54,10.25-17.67,9.55,11,25.67,21.43,43.58,22.08,24.47.9,40.24-12.35,46-29.16,6.49-18.89-.41-38.14-18.71-55.51-15.77-15-29.83-28.83-30.65-52.58-1-30.42,25.44-48.49,50-47.28.75,0-34-25-78.65-10.11A92.62,92.62,0,0,0,45.55,46.26a1.79,1.79,0,0,0,0,2.46c.7,1,15.86,22.15,15.86,22.15L34,64.58a1.63,1.63,0,0,0-1.71.66c-8.7,15-21.52,58.36,7.11,97.86,0,0,24.37-38.62,72.78-41.91,3.22-.21,2.81.94.7,1.71-43.24,15.89-60.31,47.6-71.33,72A2.37,2.37,0,0,1,37.65,195.62Z" class="cls-1"/><path d="M82.22,165.82s2.7-1.2,3.46-1.62V183h3.39V160.89l-.55-.36-.17.09c-2.47,1.22-5,2.38-7.14,3.25Z" class="cls-1"/><path d="M100.23,171.92c2.76,0,4.09,1.42,4.09,4.33s-1.84,4.91-4.71,4.91a5.38,5.38,0,0,1-4-2l-.42-.49-.82,2.92.27.13a10.9,10.9,0,0,0,4.89,1.13c4.84,0,8.35-3,8.35-7,0-3.72-2.87-4.78-4.62-5.09a5.59,5.59,0,0,0,3.62-5.19c0-3.09-2.43-5-6.34-5a6.54,6.54,0,0,0-5,2.15L97,165.24l.25-.72a3.47,3.47,0,0,1,3.19-2.28c1.4,0,3,.92,3,3.53,0,2-.57,4.45-3.23,4.45l-1.75-.14v2.08A7.52,7.52,0,0,1,100.23,171.92Z" class="cls-1"/><path d="M112.53,178.48l.9,3.57a7.39,7.39,0,0,0,3.38.81c5.66,0,9.61-5.31,9.61-12.92,0-8.47-5.16-9.38-7.38-9.38-4.31,0-7.31,2.9-7.31,7.06s2.46,6.59,6.43,6.59a5.78,5.78,0,0,0,4.77-2.27c-.24,4.74-2.1,9.06-6,9.08A5.08,5.08,0,0,1,112.53,178.48Zm6.17-6.12c-2.38,0-3.53-1.55-3.53-4.74s1.54-5.38,3.84-5.38,3.84,1.83,3.84,4.56S121.42,172.36,118.7,172.36Z" class="cls-1"/><path d="M139.9,170.18a5.11,5.11,0,0,0,3.17-4.67c0-2.29-1.66-4.95-6.34-4.95-3.56,0-6.24,2.29-6.24,5.32a4.77,4.77,0,0,0,3.2,4.47,6.22,6.22,0,0,0-4.31,6c0,3.87,3,6.48,7.35,6.48a7,7,0,0,0,7.36-7.2A5.42,5.42,0,0,0,139.9,170.18Zm-6.16-4.26c0-.86.22-3.68,3-3.68s3.06,2.57,3.06,3.68c0,.86-.22,3.68-3.06,3.68S133.74,166.78,133.74,165.92Zm3,15.24c-2.33,0-3.91-2-3.91-4.94s1.58-4.93,3.91-4.93,3.9,2,3.9,4.93S139.1,181.16,136.73,181.16Z" class="cls-1"/></g></svg>
