<svg width="16" height="16" viewBox="0 0 16 16" fill="none" xmlns="http://www.w3.org/2000/svg">
<path fill-rule="evenodd" clip-rule="evenodd" d="M2.5 0.5C2.5 0.223858 2.72386 0 3 0H13C13.2761 0 13.5 0.223858 13.5 0.5C13.5 1.03752 13.4881 1.54912 13.4655 2.0359C14.9013 2.25956 16 3.50147 16 5C16 6.65685 14.6569 8 13 8C12.7711 8 12.5478 7.97428 12.3331 7.92549C11.5432 9.79077 10.4549 10.7027 9.5 10.9374V13.1096L10.9254 13.466C11.1193 13.5144 11.3016 13.6012 11.4616 13.7212L13.3 15.1C13.4722 15.2291 13.5424 15.4539 13.4743 15.6581C13.4063 15.8623 13.2152 16 13 16H3C2.78478 16 2.59372 15.8623 2.52566 15.6581C2.4576 15.4539 2.52783 15.2291 2.7 15.1L4.53845 13.7212C4.69839 13.6012 4.88069 13.5144 5.07464 13.466L6.5 13.1096V10.9374C5.54507 10.7027 4.45678 9.79077 3.66695 7.92549C3.45217 7.97428 3.22889 8 3 8C1.34315 8 0 6.65685 0 5C0 3.50147 1.09871 2.25956 2.53451 2.0359C2.51187 1.54912 2.5 1.03752 2.5 0.5ZM2.599 3.04021C1.6866 3.22591 1 4.03277 1 5C1 6.10457 1.89543 7 3 7C3.10849 7 3.21477 6.9914 3.31826 6.97489C2.98587 5.92537 2.73063 4.62948 2.599 3.04021ZM12.6817 6.97489C12.7852 6.9914 12.8915 7 13 7C14.1046 7 15 6.10457 15 5C15 4.03277 14.3134 3.22591 13.401 3.04021C13.2694 4.62948 13.0141 5.92537 12.6817 6.97489ZM3.5036 1C3.51112 1.51676 3.53029 2.00597 3.55982 2.4689C3.68916 4.49692 4.0168 6.01531 4.42982 7.13583C5.29421 9.48089 6.48369 10 7 10C7.27614 10 7.5 10.2239 7.5 10.5V13.1096C7.5 13.5685 7.1877 13.9685 6.74254 14.0798L5.31718 14.4361C5.25253 14.4523 5.19176 14.4812 5.13845 14.5212L4.5 15H11.5L10.8616 14.5212C10.8082 14.4812 10.7475 14.4523 10.6828 14.4361L9.25746 14.0798C8.8123 13.9685 8.5 13.5685 8.5 13.1096V10.5C8.5 10.2239 8.72386 10 9 10C9.51631 10 10.7058 9.48089 11.5702 7.13583C11.9832 6.01531 12.3108 4.49692 12.4402 2.4689C12.4697 2.00597 12.4889 1.51676 12.4964 1H3.5036Z" fill="#7C7A7B"/>
</svg>
