<svg width="14" height="15" viewBox="0 0 14 15" fill="none" xmlns="http://www.w3.org/2000/svg">
<path fill-rule="evenodd" clip-rule="evenodd" d="M9.33333 3.5175C9.33333 4.81261 8.28866 5.8625 7 5.8625C5.71134 5.8625 4.66667 4.81261 4.66667 3.5175C4.66667 2.22239 5.71134 1.1725 7 1.1725C8.28866 1.1725 9.33333 2.22239 9.33333 3.5175ZM7 7.035C8.933 7.035 10.5 5.46016 10.5 3.5175C10.5 1.57484 8.933 0 7 0C5.067 0 3.5 1.57484 3.5 3.5175C3.5 5.46016 5.067 7.035 7 7.035ZM14 12.8975C14 14.07 12.8333 14.07 12.8333 14.07H1.16667C1.16667 14.07 0 14.07 0 12.8975C0 11.725 1.16667 8.2075 7 8.2075C12.8333 8.2075 14 11.725 14 12.8975ZM12.8335 12.894C12.8318 12.6047 12.6541 11.7379 11.8627 10.9425C11.1017 10.1777 9.67076 9.38062 7.00013 9.38062C4.3295 9.38062 2.89855 10.1777 2.13759 10.9425C1.34619 11.7379 1.16847 12.6047 1.16681 12.894H12.8335Z" fill="#7A7C7B"/>
</svg>
