<svg width="18" height="19" viewBox="0 0 18 19" fill="none" xmlns="http://www.w3.org/2000/svg">
<path d="M5.5168 2.52626C6.13058 2.0591 6.87987 1.80714 7.6498 1.80899C7.91571 1.803 8.17882 1.86451 8.41479 1.98783C8.65077 2.11115 8.85198 2.29229 8.9998 2.5145C9.14763 2.29229 9.34884 2.11115 9.58482 1.98783C9.82079 1.86451 10.0839 1.803 10.3498 1.80899C11.1197 1.80714 11.869 2.0591 12.4828 2.52626C12.9553 2.8953 13.3198 3.40634 13.4485 4.02411C13.7437 4.04673 14.0137 4.16974 14.2405 4.35516C14.5843 4.63556 14.8345 5.05615 14.992 5.50116C15.2386 6.1931 15.3052 7.07499 15.0496 7.82573C15.1144 7.85648 15.1783 7.89266 15.2404 7.93427C15.4879 8.09979 15.676 8.33677 15.8146 8.61626C16.0873 9.16348 16.1998 9.92688 16.1998 10.854C16.1998 11.886 15.8083 12.5789 15.3115 13.0067C15.0368 13.2434 14.7126 13.415 14.3629 13.5087C14.2729 14.0134 14.0209 14.5977 13.6258 15.0934C13.1128 15.7401 12.3172 16.281 11.2498 16.281C10.4038 16.281 9.73061 15.8107 9.29321 15.3494C9.18863 15.2392 9.09066 15.1229 8.9998 15.0011C8.90896 15.1229 8.81099 15.2392 8.7064 15.3494C8.269 15.8107 7.5967 16.281 6.7498 16.281C5.6824 16.281 4.8877 15.7401 4.3738 15.0934C4.00459 14.6326 3.7517 14.0889 3.6367 13.5087C3.28704 13.415 2.96283 13.2434 2.6881 13.0067C2.1913 12.5789 1.7998 11.8851 1.7998 10.854C1.7998 9.92688 1.9132 9.16258 2.185 8.61626C2.31382 8.34217 2.51178 8.10673 2.7592 7.93336C2.81999 7.89292 2.88378 7.85724 2.95 7.82663C2.6944 7.07409 2.761 6.1931 3.0076 5.50116C3.1651 5.05615 3.4153 4.63556 3.7591 4.35516C3.9859 4.16974 4.2559 4.04763 4.5511 4.02411C4.6807 3.40634 5.0452 2.8953 5.5177 2.52626H5.5168ZM8.5498 4.07024V4.0612L8.54801 4.01597C8.53476 3.78017 8.48808 3.54748 8.4094 3.32494C8.35339 3.15693 8.25801 3.00493 8.1313 2.88173C7.99837 2.76539 7.82588 2.70512 7.6498 2.71349C7.08005 2.71153 6.52521 2.89635 6.0694 3.23991C5.6518 3.56644 5.3998 4.00874 5.3998 4.52249C5.39975 4.59412 5.38277 4.6647 5.35027 4.72844C5.31776 4.79217 5.27065 4.84724 5.21283 4.8891C5.15501 4.93097 5.08811 4.95843 5.01766 4.96923C4.94721 4.98003 4.87522 4.97386 4.8076 4.95123C4.6384 4.89515 4.4872 4.9268 4.3261 5.05705C4.1497 5.20177 3.9778 5.45865 3.8545 5.80507C3.6034 6.51239 3.6295 7.36895 3.9742 7.88995C4.02343 7.96414 4.04974 8.05131 4.0498 8.14049H4.7248C5.26187 8.14049 5.77693 8.35491 6.1567 8.73657C6.53646 9.11823 6.7498 9.63587 6.7498 10.1756V10.4786C7.05005 10.5853 7.3031 10.7952 7.46424 11.0713C7.62537 11.3473 7.68421 11.6718 7.63036 11.9872C7.57651 12.3027 7.41343 12.5888 7.16995 12.7951C6.92647 13.0014 6.61826 13.1145 6.2998 13.1145C5.98135 13.1145 5.67314 13.0014 5.42966 12.7951C5.18618 12.5888 5.0231 12.3027 4.96925 11.9872C4.91539 11.6718 4.97424 11.3473 5.13537 11.0713C5.29651 10.7952 5.54956 10.5853 5.8498 10.4786V10.1756C5.8498 9.55151 5.3458 9.04499 4.7248 9.04499H3.1498C3.096 9.0449 3.04266 9.0351 2.9923 9.01605L2.9896 9.02148C2.8114 9.37875 2.6998 9.97211 2.6998 10.854C2.6998 11.631 2.9833 12.0687 3.274 12.3193C3.5863 12.5888 3.9328 12.663 4.0498 12.663C4.16915 12.663 4.28361 12.7106 4.368 12.7955C4.45239 12.8803 4.4998 12.9953 4.4998 13.1152C4.4998 13.4481 4.6798 14.0297 5.0758 14.529C5.4619 15.0129 6.0172 15.3765 6.7498 15.3765C7.2538 15.3765 7.7056 15.0934 8.0548 14.7253C8.2267 14.5444 8.36081 14.3571 8.44811 14.2034C8.48784 14.1352 8.52186 14.0638 8.5498 13.9899V6.78374H7.5733C7.46715 7.08549 7.25827 7.33981 6.98359 7.50175C6.7089 7.66369 6.3861 7.72283 6.07222 7.6687C5.75835 7.61458 5.47362 7.45069 5.26836 7.20599C5.06309 6.96129 4.95051 6.65155 4.95051 6.33149C4.95051 6.01144 5.06309 5.70169 5.26836 5.457C5.47362 5.2123 5.75835 5.0484 6.07222 4.99428C6.3861 4.94016 6.7089 4.9993 6.98359 5.16124C7.25827 5.32318 7.46715 5.5775 7.5733 5.87924H8.5498V4.07024ZM9.4498 13.1143V13.989C9.47776 14.0629 9.51177 14.1343 9.5515 14.2025C9.6397 14.3562 9.7729 14.5434 9.9439 14.7243C10.294 15.0925 10.7467 15.3756 11.2498 15.3756C11.9824 15.3756 12.5377 15.012 12.9238 14.5281C13.3198 14.0288 13.4998 13.4472 13.4998 13.1143C13.4998 12.9944 13.5472 12.8794 13.6316 12.7946C13.716 12.7097 13.8305 12.6621 13.9498 12.6621C14.0668 12.6621 14.4133 12.5879 14.7256 12.3184C15.0163 12.0678 15.2998 11.6301 15.2998 10.8531C15.2998 9.9712 15.1873 9.37875 15.01 9.02057C14.9507 8.8872 14.8576 8.7718 14.74 8.68591C14.6387 8.6208 14.52 8.5883 14.3998 8.59274C14.3184 8.5927 14.2385 8.57047 14.1687 8.52842C14.0989 8.48637 14.0417 8.42608 14.0033 8.35396C13.9649 8.28184 13.9467 8.2006 13.9506 8.11888C13.9544 8.03717 13.9803 7.95805 14.0254 7.88995C14.371 7.36895 14.3962 6.51239 14.1451 5.80507C14.0218 5.45865 13.8499 5.20087 13.6735 5.05705C13.5124 4.9268 13.3612 4.89424 13.192 4.95123C13.1244 4.97386 13.0524 4.98003 12.9819 4.96923C12.9115 4.95843 12.8446 4.93097 12.7868 4.8891C12.729 4.84724 12.6819 4.79217 12.6493 4.72844C12.6168 4.6647 12.5999 4.59412 12.5998 4.52249C12.5998 4.00874 12.3478 3.56644 11.9293 3.23991C11.4738 2.89653 10.9192 2.71173 10.3498 2.71349C10.1737 2.70512 10.0012 2.76539 9.86831 2.88173C9.74122 3.00479 9.64551 3.15681 9.5893 3.32494C9.50362 3.5612 9.45651 3.80982 9.4498 4.0612V12.2107H10.1248C10.7458 12.2107 11.2498 11.7042 11.2498 11.0801V9.42036C10.9496 9.31368 10.6965 9.10375 10.5354 8.8277C10.3742 8.55164 10.3154 8.22722 10.3692 7.91178C10.4231 7.59633 10.5862 7.31018 10.8297 7.10389C11.0731 6.8976 11.3813 6.78445 11.6998 6.78445C12.0183 6.78445 12.3265 6.8976 12.57 7.10389C12.8134 7.31018 12.9765 7.59633 13.0304 7.91178C13.0842 8.22722 13.0254 8.55164 12.8642 8.8277C12.7031 9.10375 12.4501 9.31368 12.1498 9.42036V11.0801C12.1498 11.6199 11.9365 12.1375 11.5567 12.5192C11.1769 12.9008 10.6619 13.1152 10.1248 13.1152H9.4498V13.1143ZM5.8498 6.33149C5.8498 6.45144 5.89722 6.56647 5.98161 6.65128C6.066 6.7361 6.18046 6.78374 6.2998 6.78374C6.41915 6.78374 6.53361 6.7361 6.618 6.65128C6.70239 6.56647 6.7498 6.45144 6.7498 6.33149C6.7498 6.21155 6.70239 6.09652 6.618 6.0117C6.53361 5.92689 6.41915 5.87924 6.2998 5.87924C6.18046 5.87924 6.066 5.92689 5.98161 6.0117C5.89722 6.09652 5.8498 6.21155 5.8498 6.33149ZM11.6998 8.59274C11.8192 8.59274 11.9336 8.5451 12.018 8.46028C12.1024 8.37547 12.1498 8.26044 12.1498 8.14049C12.1498 8.02055 12.1024 7.90552 12.018 7.8207C11.9336 7.73589 11.8192 7.68824 11.6998 7.68824C11.5805 7.68824 11.466 7.73589 11.3816 7.8207C11.2972 7.90552 11.2498 8.02055 11.2498 8.14049C11.2498 8.26044 11.2972 8.37547 11.3816 8.46028C11.466 8.5451 11.5805 8.59274 11.6998 8.59274ZM6.2998 11.3062C6.18046 11.3062 6.066 11.3539 5.98161 11.4387C5.89722 11.5235 5.8498 11.6385 5.8498 11.7585C5.8498 11.8784 5.89722 11.9935 5.98161 12.0783C6.066 12.1631 6.18046 12.2107 6.2998 12.2107C6.41915 12.2107 6.53361 12.1631 6.618 12.0783C6.70239 11.9935 6.7498 11.8784 6.7498 11.7585C6.7498 11.6385 6.70239 11.5235 6.618 11.4387C6.53361 11.3539 6.41915 11.3062 6.2998 11.3062Z" fill="#7A7C7B"/>
</svg>
