<svg width="16" height="17" viewBox="0 0 16 17" fill="none" xmlns="http://www.w3.org/2000/svg">
<path fill-rule="evenodd" clip-rule="evenodd" d="M8.1857 1.04598C8.06649 0.997824 7.93351 0.997824 7.8143 1.04598L1.84629 3.45672L4.25 4.42769L10.4037 1.94193L8.1857 1.04598ZM11.75 2.48576L5.59629 4.97152L8 5.94248L14.1537 3.45672L11.75 2.48576ZM15 4.20252L8.5 6.82817V14.8293L15 12.2036V4.20252ZM7.5 14.8293V6.82817L1 4.20252V12.2036L7.5 14.8293ZM7.44291 0.108343C7.80053 -0.0361143 8.19947 -0.0361144 8.55709 0.108343L15.6857 2.98791C15.8755 3.06459 16 3.25026 16 3.45672V12.2036C16 12.6166 15.751 12.9879 15.3714 13.1413L8.1857 16.0439C8.06649 16.092 7.93351 16.092 7.8143 16.0439L0.628609 13.1413C0.248951 12.9879 0 12.6166 0 12.2036V3.45672C0 3.25026 0.124475 3.06459 0.314305 2.98791L7.44291 0.108343Z" fill="#7A7C7B"/>
</svg>
