<svg width="116" height="137" viewBox="0 0 116 137" fill="none" xmlns="http://www.w3.org/2000/svg">
<path d="M22.4777 117.143C19.8253 114.816 17.3931 112.249 15.212 109.473C3.194 95.9525 -10.5315 60.4871 12.3105 28.309C21.7374 15.0402 35.2659 6.11246 48.6988 2.48988C80.0363 -5.97679 104.12 8.90275 115.141 20.8663C116.335 22.2015 116.198 23.902 115.26 24.6864C113.893 25.8361 112.663 25.2373 109.887 24.4349C106.026 23.2392 101.955 22.886 97.9469 23.3991C88.7409 24.5966 80.7647 33.1411 81.8692 45.0986C82.8781 56.0203 91.2722 63.9061 97.1708 69.1155C117.869 87.432 110.944 107.006 109.254 111.311C103.529 125.927 88.8603 136.238 69.8512 136.238C61.9466 136.238 50.5376 134.184 39.0629 126.891C38.6151 126.694 38.1793 126.101 38.7226 125.095C39.6002 122.873 43.2599 116.389 44.842 114.515C50.5436 121.101 60.1675 127.346 70.8601 127.735C85.4692 128.274 94.8842 120.341 98.323 110.275C102.198 98.9643 98.0782 87.4379 87.1528 77.0372C77.7378 68.0556 69.3437 59.7746 68.8542 45.5537C68.2571 27.339 84.0423 16.5192 98.7051 17.2437C99.1529 17.2437 78.4065 2.27432 51.7496 11.1901C42.221 14.3592 33.7323 20.0701 27.1942 27.7102C27.0065 27.9093 26.9019 28.1728 26.9019 28.4467C26.9019 28.7207 27.0065 28.9842 27.1942 29.1832C27.6121 29.782 36.6629 42.4461 36.6629 42.4461L20.2986 38.6798C20.1085 38.6354 19.9096 38.6494 19.7275 38.7198C19.5455 38.7903 19.3887 38.914 19.2777 39.075C14.0836 48.0566 6.42985 74.0194 23.5225 97.671C23.5225 97.671 38.0719 74.5463 66.9735 72.5764C68.8959 72.4506 68.6512 73.1392 67.3915 73.6003C41.5764 83.1148 31.3852 102.102 24.8061 116.712C24.7152 116.929 24.5719 117.121 24.3889 117.268C24.2059 117.416 23.9891 117.516 23.7581 117.559C23.527 117.602 23.289 117.586 23.0655 117.513C22.8419 117.441 22.6399 117.314 22.4777 117.143V117.143Z" fill="#8DC63F"/>
<path d="M49.0869 99.2998C49.0869 99.2998 50.6989 98.5813 51.1526 98.3298V109.587H53.1765V96.3479L52.8482 96.1323L52.7467 96.1862C51.272 96.9167 49.7616 97.6113 48.4839 98.1322L49.0869 99.2998Z" fill="#8DC63F"/>
<path d="M59.8392 102.952C61.4869 102.952 62.281 103.803 62.281 105.545C62.281 107.287 61.1825 108.485 59.469 108.485C59.0086 108.469 58.5571 108.354 58.145 108.147C57.733 107.94 57.3701 107.647 57.0809 107.287L56.8302 106.994L56.3406 108.742L56.5018 108.82C57.4092 109.271 58.4089 109.502 59.4213 109.497C62.3108 109.497 64.4064 107.701 64.4064 105.306C64.4064 103.078 62.6929 102.443 61.6481 102.258C62.2793 102.019 62.8236 101.595 63.2094 101.04C63.5952 100.485 63.8043 99.8265 63.8093 99.1501C63.8093 97.2999 62.3586 96.1563 60.0242 96.1563C59.4637 96.1433 58.9069 96.2516 58.3918 96.4737C57.8767 96.6958 57.4154 97.0266 57.0391 97.4436L57.9108 98.9525L58.0601 98.5214C58.2032 98.1278 58.4617 97.7868 58.8016 97.5432C59.1415 97.2995 59.5469 97.1646 59.9645 97.1562C60.8004 97.1562 61.7556 97.7071 61.7556 99.2699C61.7556 100.467 61.4153 101.934 59.8272 101.934L58.7824 101.851V103.096C59.1277 103.006 59.4825 102.958 59.8392 102.952Z" fill="#8DC63F"/>
<path d="M67.1824 106.88L67.7197 109.018C68.3443 109.338 69.0361 109.504 69.7376 109.503C73.1168 109.503 75.475 106.323 75.475 101.767C75.475 96.6951 72.3944 96.1502 71.069 96.1502C68.4958 96.1502 66.7048 97.8867 66.7048 100.378C66.7048 102.868 68.1734 104.324 70.5436 104.324C71.0918 104.34 71.6361 104.226 72.1314 103.989C72.6266 103.753 73.0586 103.402 73.3914 102.964C73.2481 105.802 72.1376 108.389 69.8093 108.401C69.2768 108.401 68.7538 108.261 68.2926 107.994C67.8315 107.727 67.4486 107.343 67.1824 106.88V106.88ZM70.866 103.216C69.4451 103.216 68.7585 102.288 68.7585 100.378C68.7585 98.4675 69.6779 97.1562 71.0511 97.1562C72.4242 97.1562 73.3436 98.2519 73.3436 99.8866C73.3436 101.521 72.4899 103.216 70.866 103.216V103.216Z" fill="#8DC63F"/>
<path d="M83.5231 101.91C84.0775 101.682 84.5527 101.295 84.8892 100.798C85.2258 100.301 85.4089 99.7152 85.4156 99.1142C85.4156 97.743 84.4246 96.1502 81.6305 96.1502C79.5051 96.1502 77.9051 97.5214 77.9051 99.3357C77.9093 99.925 78.0952 100.499 78.4372 100.978C78.7793 101.457 79.2607 101.818 79.8156 102.012C79.0602 102.257 78.4027 102.737 77.9396 103.384C77.4765 104.03 77.2322 104.809 77.2424 105.605C77.2424 107.922 79.0335 109.485 81.6305 109.485C82.2073 109.515 82.7841 109.425 83.3244 109.22C83.8648 109.015 84.3569 108.7 84.7698 108.295C85.1827 107.89 85.5073 107.404 85.7233 106.866C85.9393 106.329 86.0419 105.753 86.0246 105.174C86.0482 104.424 85.8118 103.688 85.3557 103.093C84.8996 102.498 84.252 102.08 83.5231 101.91V101.91ZM79.8454 99.3597C79.8454 98.8447 79.9768 97.1562 81.6365 97.1562C83.2962 97.1562 83.4634 98.695 83.4634 99.3597C83.4634 99.8746 83.332 101.563 81.6365 101.563C79.941 101.563 79.8454 99.8746 79.8454 99.3597V99.3597ZM81.6365 108.485C80.2454 108.485 79.3022 107.287 79.3022 105.527C79.3022 103.767 80.2454 102.575 81.6365 102.575C83.0276 102.575 83.9649 103.773 83.9649 105.527C83.9649 107.281 83.0455 108.485 81.6305 108.485H81.6365Z" fill="#8DC63F"/>
</svg>
