<svg width="24" height="24" viewBox="0 0 24 24" fill="none" xmlns="http://www.w3.org/2000/svg">
<g filter="url(#filter0_d_5634_3382)">
<path fill-rule="evenodd" clip-rule="evenodd" d="M18 1H6C5.44772 1 5 1.44772 5 2V14C5 14.5523 5.44772 15 6 15H18C18.5523 15 19 14.5523 19 14V2C19 1.44772 18.5523 1 18 1ZM6 0C4.89543 0 4 0.895431 4 2V14C4 15.1046 4.89543 16 6 16H18C19.1046 16 20 15.1046 20 14V2C20 0.895431 19.1046 0 18 0H6Z" fill="#7A7C7B"/>
<path fill-rule="evenodd" clip-rule="evenodd" d="M10.8536 4.64645C11.0488 4.84171 11.0488 5.15829 10.8536 5.35355L8.20711 8L10.8536 10.6464C11.0488 10.8417 11.0488 11.1583 10.8536 11.3536C10.6583 11.5488 10.3417 11.5488 10.1464 11.3536L7.14645 8.35355C6.95118 8.15829 6.95118 7.84171 7.14645 7.64645L10.1464 4.64645C10.3417 4.45118 10.6583 4.45118 10.8536 4.64645Z" fill="#7A7C7B"/>
<path fill-rule="evenodd" clip-rule="evenodd" d="M13.1464 4.64645C12.9512 4.84171 12.9512 5.15829 13.1464 5.35355L15.7929 8L13.1464 10.6464C12.9512 10.8417 12.9512 11.1583 13.1464 11.3536C13.3417 11.5488 13.6583 11.5488 13.8536 11.3536L16.8536 8.35355C17.0488 8.15829 17.0488 7.84171 16.8536 7.64645L13.8536 4.64645C13.6583 4.45118 13.3417 4.45118 13.1464 4.64645Z" fill="#7A7C7B"/>
</g>
<defs>
<filter id="filter0_d_5634_3382" x="0" y="0" width="24" height="24" filterUnits="userSpaceOnUse" color-interpolation-filters="sRGB">
<feFlood flood-opacity="0" result="BackgroundImageFix"/>
<feColorMatrix in="SourceAlpha" type="matrix" values="0 0 0 0 0 0 0 0 0 0 0 0 0 0 0 0 0 0 127 0" result="hardAlpha"/>
<feOffset dy="4"/>
<feGaussianBlur stdDeviation="2"/>
<feComposite in2="hardAlpha" operator="out"/>
<feColorMatrix type="matrix" values="0 0 0 0 0 0 0 0 0 0 0 0 0 0 0 0 0 0 0.25 0"/>
<feBlend mode="normal" in2="BackgroundImageFix" result="effect1_dropShadow_5634_3382"/>
<feBlend mode="normal" in="SourceGraphic" in2="effect1_dropShadow_5634_3382" result="shape"/>
</filter>
</defs>
</svg>
