<svg width="16" height="18" viewBox="0 0 16 18" fill="none" xmlns="http://www.w3.org/2000/svg">
<path d="M3.20027 2.14453H11.7338C12.912 2.14453 13.8671 3.1273 13.8671 4.33962V15.3151C13.8671 16.5274 12.912 17.5101 11.7338 17.5101H3.20027C2.02204 17.5101 1.06689 16.5274 1.06689 15.3151H2.13358C2.13358 15.9212 2.61115 16.4126 3.20027 16.4126H11.7338C12.3229 16.4126 12.8004 15.9212 12.8004 15.3151V4.33962C12.8004 3.73346 12.3229 3.24207 11.7338 3.24207H3.20027C2.61115 3.24207 2.13358 3.73346 2.13358 4.33962H1.06689C1.06689 3.1273 2.02204 2.14453 3.20027 2.14453Z" fill="#7A7C7B"/>
<path d="M5.33357 0H13.8671C15.0453 0 16.0004 0.982774 16.0004 2.19509V13.1705C16.0004 14.3828 15.0453 15.3656 13.8671 15.3656V14.2681C14.4562 14.2681 14.9337 13.7767 14.9337 13.1705V2.19509C14.9337 1.58893 14.4562 1.09754 13.8671 1.09754H5.33357C4.74445 1.09754 4.26688 1.58893 4.26688 2.19509H3.2002C3.2002 0.982773 4.15534 0 5.33357 0Z" fill="#7A7C7B"/>
<path d="M1.06669 6.47704V5.86035C1.06669 5.58421 1.29054 5.36035 1.56669 5.36035H1.63337C1.90951 5.36035 2.13337 5.58421 2.13337 5.86035V6.47704H2.70006C2.9762 6.47704 3.20006 6.7009 3.20006 6.97704V7.09372C3.20006 7.36987 2.9762 7.59372 2.70006 7.59372H0.5C0.223858 7.59372 0 7.36987 0 7.09372V6.97704C0 6.7009 0.223858 6.47704 0.5 6.47704H1.06669Z" fill="#7A7C7B"/>
<path d="M1.06669 9.8271V9.21041C1.06669 8.93427 1.29054 8.71041 1.56669 8.71041H1.63337C1.90951 8.71041 2.13337 8.93427 2.13337 9.21041V9.8271H2.70006C2.9762 9.8271 3.20006 10.051 3.20006 10.3271V10.4438C3.20006 10.7199 2.9762 10.9438 2.70006 10.9438H0.5C0.223858 10.9438 0 10.7199 0 10.4438V10.3271C0 10.051 0.223858 9.8271 0.5 9.8271H1.06669Z" fill="#7A7C7B"/>
<path d="M1.06669 13.1772V12.5605C1.06669 12.2843 1.29054 12.0605 1.56669 12.0605H1.63337C1.90951 12.0605 2.13337 12.2843 2.13337 12.5605V13.1772H2.70006C2.9762 13.1772 3.20006 13.401 3.20006 13.6772V13.7938C3.20006 14.07 2.9762 14.2938 2.70006 14.2938H0.5C0.223858 14.2938 0 14.07 0 13.7938V13.6772C0 13.401 0.223858 13.1772 0.5 13.1772H1.06669Z" fill="#7A7C7B"/>
</svg>
