<svg width="502" height="642" viewBox="0 0 502 642" fill="none" xmlns="http://www.w3.org/2000/svg">
<mask id="mask0_15732_10004" style="mask-type:alpha" maskUnits="userSpaceOnUse" x="0" y="0" width="502" height="642">
<rect width="502" height="642" rx="20" fill="#619CFB"/>
</mask>
<g mask="url(#mask0_15732_10004)">
<path d="M383.634 419.211C375.771 413.89 376.916 401.963 385.649 398.225L496.913 350.601C501.318 348.715 506.419 349.632 509.889 352.933L561.346 401.883C567.536 407.771 565.761 418.07 557.955 421.552L461.07 464.774C457.286 466.462 452.901 466.078 449.471 463.757L383.634 419.211Z" fill="#183040"/>
<rect width="130.525" height="139.706" rx="13.2113" transform="matrix(0.913305 -0.407277 0.406196 0.913786 395.459 342.201)" fill="#8A9BAF"/>
<path d="M400.198 345.55L402.037 338.979L404.162 343.364L400.198 345.55Z" fill="#8A9BAF"/>
<rect width="130.525" height="139.706" rx="13.2113" transform="matrix(0.913305 -0.407277 0.406196 0.913786 397.165 336.359)" fill="#A2BFE1"/>
<rect width="117.945" height="125.782" rx="8.80756" transform="matrix(0.913305 -0.407277 0.406196 0.913786 405.737 340.158)" fill="white"/>
<rect width="69.9805" height="41.3083" rx="5.8717" transform="matrix(0.913305 -0.407277 0.406196 0.913786 443.82 405.504)" fill="#95A4C7"/>
<rect width="43.2464" height="5.56966" rx="2.78483" transform="matrix(0.913305 -0.407277 0.406196 0.913786 442.488 330.885)" fill="#A2BFE1"/>
<rect width="101.039" height="3.71311" rx="1.85655" transform="matrix(0.913305 -0.407277 0.406196 0.913786 422.704 358.002)" fill="#B2B6C2"/>
<rect width="101.039" height="3.71311" rx="1.85655" transform="matrix(0.913305 -0.407277 0.406196 0.913786 436.279 388.539)" fill="#B2B6C2"/>
<rect width="101.039" height="3.71311" rx="1.85655" transform="matrix(0.913305 -0.407277 0.406196 0.913786 426.098 365.637)" fill="#B2B6C2"/>
<rect width="101.039" height="3.71311" rx="1.85655" transform="matrix(0.913305 -0.407277 0.406196 0.913786 439.672 396.174)" fill="#B2B6C2"/>
<rect width="101.039" height="3.71311" rx="1.85655" transform="matrix(0.913305 -0.407277 0.406196 0.913786 429.491 373.271)" fill="#B2B6C2"/>
<rect width="101.039" height="3.71311" rx="1.85655" transform="matrix(0.913305 -0.407277 0.406196 0.913786 432.885 380.904)" fill="#B2B6C2"/>
<path d="M35.682 293.907C23.9625 286.375 25.3059 268.82 38.0361 263.143L464.245 73.0805C469.636 70.6766 475.871 71.1497 480.834 74.3391L633.689 172.576C645.409 180.108 644.065 197.663 631.335 203.34L205.126 393.403C199.735 395.807 193.5 395.334 188.537 392.144L35.682 293.907Z" fill="#183040"/>
<path d="M100.775 147.635L533.399 -45.2886C542.575 -49.3804 553.322 -45.2549 557.403 -36.0745L649.094 170.197L657.079 169.405L653.141 183.984C652.848 190.662 648.878 196.93 642.362 199.836L209.351 392.932C200.175 397.024 189.429 392.899 185.348 383.718L91.1633 171.839C89.6595 168.456 89.2707 164.859 89.8386 161.459L89.8154 161.462L89.88 161.221C90.063 160.208 90.3316 159.214 90.6806 158.249L95.3988 140.737L100.775 147.635Z" fill="#ACBFCB"/>
<rect width="510.497" height="268.251" rx="18.1913" transform="matrix(0.913305 -0.407277 0.406196 0.913786 88.189 138.312)" fill="url(#paint0_linear_15732_10004)"/>
<rect width="485.063" height="199.143" rx="12.7339" transform="matrix(0.913305 -0.407277 0.406196 0.913786 121.965 182.989)" fill="#383C4A"/>
<rect width="127.17" height="127.306" rx="9.09566" transform="matrix(0.913305 -0.407277 0.406196 0.913786 145.945 192.208)" fill="#5370D1"/>
<rect width="119.903" height="120.031" rx="7.27653" transform="matrix(0.913305 -0.407277 0.406196 0.913786 152.582 189.249)" fill="url(#paint1_linear_15732_10004)"/>
<rect width="48.143" height="10.9119" rx="5.45596" transform="matrix(0.913305 -0.407277 0.406196 0.913786 318.184 49.6885)" fill="#43464F"/>
<ellipse cx="5.45015" cy="5.45596" rx="5.45015" ry="5.45596" transform="matrix(0.913305 -0.407277 0.406196 0.913786 303.251 56.3477)" fill="#43464F"/>
<ellipse cx="5.45015" cy="5.45596" rx="5.45015" ry="5.45596" transform="matrix(0.913305 -0.407277 0.406196 0.913786 289.977 62.2666)" fill="#43464F"/>
<rect width="160.779" height="7.27461" rx="3.63731" transform="matrix(0.913305 -0.407277 0.406196 0.913786 280.716 142.065)" fill="#767A86"/>
<rect width="124.445" height="30.0078" rx="5.4574" transform="matrix(0.913305 -0.407277 0.406196 0.913786 442.49 69.9248)" fill="#67759F"/>
<rect width="124.445" height="30.0078" rx="5.4574" transform="matrix(0.913305 -0.407277 0.406196 0.913786 473.516 139.722)" fill="#67759F"/>
<rect width="124.445" height="30.0078" rx="5.4574" transform="matrix(0.913305 -0.407277 0.406196 0.913786 458.003 104.823)" fill="#67759F"/>
<rect width="124.445" height="30.0078" rx="5.4574" transform="matrix(0.913305 -0.407277 0.406196 0.913786 489.03 174.622)" fill="#67759F"/>
<rect width="160.779" height="7.27461" rx="3.63731" transform="matrix(0.913305 -0.407277 0.406196 0.913786 287.365 157.021)" fill="#767A86"/>
<rect width="160.779" height="7.27461" rx="3.63731" transform="matrix(0.913305 -0.407277 0.406196 0.913786 294.013 171.979)" fill="#767A86"/>
<rect width="209.831" height="20.9145" rx="5.4574" transform="matrix(0.913305 -0.407277 0.406196 0.913786 289.476 282.528)" fill="#767A86"/>
<ellipse cx="23.1631" cy="23.1878" rx="23.1631" ry="23.1878" transform="matrix(0.913305 -0.407277 0.406196 0.913786 306.711 208.467)" fill="#2EB0E2"/>
<ellipse cx="23.1631" cy="23.1878" rx="23.1631" ry="23.1878" transform="matrix(0.913305 -0.407277 0.406196 0.913786 358.229 185.667)" fill="#0053B2"/>
<ellipse cx="23.1631" cy="23.1878" rx="23.1631" ry="23.1878" transform="matrix(0.913305 -0.407277 0.406196 0.913786 410.945 161.668)" fill="#2EB0E2"/>
<rect width="160.779" height="7.27461" rx="3.63731" transform="matrix(0.913305 -0.407277 0.406196 0.913786 300.662 186.937)" fill="#767A86"/>
<ellipse cx="23.1631" cy="23.1878" rx="23.1631" ry="23.1878" transform="matrix(0.913305 -0.407277 0.406196 0.913786 308.049 203.554)" fill="#7AD4F7"/>
<ellipse cx="23.1631" cy="23.1878" rx="23.1631" ry="23.1878" transform="matrix(0.913305 -0.407277 0.406196 0.913786 360.315 180.247)" fill="#268AFC"/>
<ellipse cx="23.1631" cy="23.1878" rx="23.1631" ry="23.1878" transform="matrix(0.913305 -0.407277 0.406196 0.913786 412.58 156.939)" fill="#7AD4F7"/>
<path d="M215.643 324.729C214.764 323.429 213.275 323.12 211.847 323.756C209.925 324.614 209.219 326.699 210.41 329.357C211.603 332.064 213.613 332.889 215.528 332.035C216.923 331.413 217.704 330.131 217.375 328.625L219.5 327.677C220.179 330.078 219.122 332.708 216.339 333.949C213.241 335.331 209.962 334.099 208.285 330.305C206.588 326.51 207.896 323.243 210.971 321.872C213.567 320.714 216.242 321.33 217.768 323.781L215.643 324.729ZM230.42 320.434C232.117 324.229 230.792 327.504 227.718 328.875C224.627 330.254 221.323 329.033 219.647 325.239C217.95 321.444 219.258 318.176 222.349 316.798C225.423 315.427 228.739 316.632 230.42 320.434ZM221.772 324.291C222.958 326.981 224.959 327.83 226.873 326.976C228.796 326.119 229.497 324.065 228.294 321.382C227.108 318.692 225.116 317.84 223.193 318.697C221.279 319.551 220.57 321.608 221.772 324.291ZM238.845 309.636L244.07 321.389L242.187 322.228L233.05 316.674L232.953 316.718L236.525 324.753L234.416 325.694L229.191 313.941L231.106 313.087L240.21 318.655L240.324 318.605L236.752 310.569L238.845 309.636ZM240.788 310.89L240.002 309.12L249.363 304.945L250.15 306.715L246.532 308.328L250.97 318.312L248.86 319.252L244.422 309.269L240.788 310.89ZM255.744 316.183L250.52 304.43L258.162 301.022L258.948 302.791L253.416 305.259L254.844 308.473L259.971 306.186L260.758 307.956L255.631 310.242L257.06 313.456L262.625 310.975L263.419 312.76L255.744 316.183ZM267.52 300.719C266.963 299.752 265.852 299.547 264.59 300.12C263.248 300.709 262.741 301.712 263.127 302.601C263.559 303.595 264.786 303.534 265.86 303.327L267.093 303.127C269.026 302.752 271.125 302.924 272.034 304.97C272.95 307.031 271.948 309.171 269.133 310.426C266.399 311.645 264.078 311.105 262.957 308.823L265.034 307.897C265.676 309.079 266.973 309.22 268.315 308.632C269.699 308.005 270.357 306.904 269.917 305.894C269.498 304.973 268.481 304.959 267.063 305.202L265.581 305.455C263.427 305.813 261.793 305.374 261.043 303.686C260.119 301.608 261.347 299.407 263.821 298.303C266.312 297.193 268.632 297.841 269.548 299.815L267.52 300.719ZM269.796 297.954L269.009 296.185L278.371 292.01L279.157 293.779L275.539 295.393L279.977 305.376L277.868 306.317L273.43 296.333L269.796 297.954Z" fill="white"/>
<path d="M389.474 179.24C387.979 178.6 386.301 178.627 384.744 179.32C383.179 180.017 382.03 181.244 381.507 182.775C380.979 184.323 381.147 186.032 381.979 187.588C383.621 190.657 387.183 192.162 389.919 190.944C392.656 189.726 393.917 186.074 392.739 182.798C392.147 181.153 390.988 179.889 389.474 179.24ZM404.228 198.502L385.962 206.634C385.724 206.744 385.465 206.799 385.203 206.796C384.941 206.792 384.684 206.731 384.449 206.616C383.932 206.363 383.551 205.873 383.404 205.271C382.76 202.646 383.218 199.997 384.729 197.608C386.071 195.486 388.177 193.71 390.659 192.605C393.141 191.5 395.87 191.124 398.345 191.545C401.131 192.021 403.406 193.453 404.926 195.688C405.275 196.2 405.384 196.811 405.226 197.364C405.155 197.616 405.028 197.849 404.855 198.046C404.683 198.242 404.468 198.398 404.228 198.502Z" fill="white"/>
<path d="M455.118 164.319C454.7 163.971 454.219 163.707 453.701 163.541L441.801 158.973C441.076 158.691 440.303 158.556 439.525 158.576C438.747 158.595 437.981 158.769 437.272 159.087L431.485 161.664C430.972 161.89 430.508 162.216 430.122 162.622C429.735 163.028 429.432 163.506 429.23 164.029C429.028 164.552 428.932 165.11 428.946 165.671C428.96 166.231 429.085 166.783 429.313 167.296L431.89 173.083C432.205 173.796 432.658 174.44 433.224 174.976C433.789 175.513 434.456 175.933 435.185 176.21L447.084 180.778C447.609 180.98 448.169 181.075 448.731 181.059C449.293 181.05 449.847 180.929 450.361 180.7C451.393 180.226 452.194 179.362 452.59 178.298L454.377 173.669L456.151 169.045C456.353 168.52 456.449 167.96 456.433 167.398C456.399 166.266 455.921 165.193 455.103 164.411L455.118 164.319ZM440.715 171.126C440.047 171.424 439.307 171.516 438.586 171.392C437.866 171.269 437.199 170.934 436.668 170.431C436.138 169.928 435.769 169.279 435.608 168.566C435.447 167.853 435.5 167.109 435.762 166.426C436.024 165.744 436.483 165.155 437.079 164.733C437.676 164.311 438.385 164.076 439.115 164.057C439.846 164.038 440.566 164.235 441.184 164.625C441.802 165.015 442.291 165.58 442.588 166.248C442.789 166.692 442.901 167.172 442.917 167.66C442.933 168.148 442.852 168.634 442.68 169.09C442.507 169.547 442.246 169.965 441.912 170.32C441.577 170.676 441.176 170.962 440.731 171.162L440.715 171.126Z" fill="#003598"/>
<path d="M349.682 218.177L346.887 219.422C346.722 219.496 346.576 219.605 346.459 219.743C346.343 219.882 346.259 220.044 346.214 220.219L344.775 225.701C344.729 225.877 344.644 226.041 344.526 226.179C344.409 226.318 344.262 226.428 344.096 226.502C343.929 226.576 343.749 226.612 343.567 226.606C343.385 226.601 343.207 226.555 343.046 226.471L338.009 223.872C337.849 223.788 337.671 223.742 337.491 223.736C337.31 223.731 337.13 223.766 336.965 223.84L334.184 225.078C332.344 225.897 330.204 225.075 329.384 223.235L325.934 215.486C325.115 213.646 325.937 211.506 327.777 210.686L343.275 203.786C345.116 202.966 347.256 203.789 348.075 205.629L351.525 213.378C352.344 215.218 351.523 217.358 349.682 218.177Z" fill="#003598"/>
<path d="M251.997 182.359C250.775 181.946 249.482 181.781 248.195 181.873C246.908 181.965 245.652 182.312 244.501 182.894L239.666 185.046C238.482 183.754 236.979 182.796 235.308 182.266C234.072 181.859 232.768 181.699 231.47 181.796C230.172 181.893 228.906 182.245 227.744 182.831L207.125 192.011C205.861 192.473 204.704 193.185 203.721 194.104C202.739 195.023 201.951 196.131 201.406 197.36C200.693 198.947 200.422 200.697 200.622 202.426L195.856 204.548C194.632 205.012 193.513 205.716 192.566 206.619C191.619 207.522 190.862 208.606 190.34 209.806C189.795 211.037 189.501 212.365 189.474 213.711C189.448 215.057 189.69 216.395 190.187 217.646C192.184 222.007 195.261 225.787 199.126 228.627C203.043 231.546 207.591 233.504 212.403 234.342L216.139 234.995L218.89 235.354C221.918 237.346 225.373 238.594 228.974 238.997L231.631 244.964L230.315 245.55C227.895 246.627 226.001 248.633 225.056 251.109C224.107 253.591 224.183 256.348 225.267 258.774L225.767 259.896C226.01 260.45 226.36 260.951 226.796 261.37C227.233 261.789 227.748 262.118 228.312 262.337C229.452 262.772 230.72 262.736 231.831 262.237L263.265 248.242C264.102 247.88 264.81 247.274 265.297 246.502C265.783 245.731 266.026 244.831 265.992 243.92C265.976 243.318 265.835 242.718 265.582 242.169L265.084 241.05C264.002 238.619 262.005 236.717 259.53 235.764C257.056 234.813 254.306 234.88 251.882 235.952L250.56 236.54L247.887 230.536C250.013 227.589 251.41 224.179 251.964 220.588L253.591 218.239L255.5 215.154C258.099 210.998 259.693 206.294 260.156 201.414C260.62 196.591 259.848 191.728 257.915 187.284C256.658 184.935 254.535 183.169 251.997 182.359ZM202.463 224.205C199.448 221.939 197.047 218.955 195.479 215.526C195.164 214.684 195.108 213.768 195.315 212.895C195.523 212.021 195.986 211.229 196.645 210.619C197.082 210.221 197.594 209.904 198.152 209.704L202.579 207.733L210.644 225.847C211.104 226.802 211.611 227.727 212.165 228.623C208.654 227.859 205.345 226.35 202.463 224.205ZM236.417 204.135C236.56 204.753 236.509 205.4 236.271 205.988L235.006 209.151L236.937 212.028C237.269 212.543 237.455 213.137 237.478 213.749C237.501 214.36 237.359 214.967 237.067 215.505C236.731 216.029 236.267 216.46 235.72 216.759L235.517 216.849C235.018 217.062 234.475 217.151 233.934 217.107L230.511 216.884L228.353 219.592C227.986 220.09 227.472 220.461 226.884 220.652C226.308 220.874 225.68 220.923 225.077 220.795C224.474 220.668 223.92 220.368 223.484 219.932C223.039 219.498 222.724 218.949 222.575 218.346L221.693 214.997L218.496 213.821C217.91 213.61 217.401 213.228 217.033 212.725C216.606 212.254 216.341 211.659 216.277 211.027C216.196 210.43 216.311 209.823 216.604 209.297C216.858 208.725 217.276 208.242 217.806 207.909L220.654 206.112L220.82 202.581C220.826 201.98 221.02 201.396 221.377 200.912C221.723 200.404 222.203 200.002 222.764 199.753C223.325 199.503 223.945 199.414 224.554 199.497C225.17 199.552 225.753 199.806 226.212 200.221L228.898 202.438L232.24 201.478C232.832 201.334 233.452 201.35 234.035 201.526C234.619 201.702 235.144 202.031 235.558 202.479C236 202.902 236.291 203.459 236.385 204.064L236.417 204.135ZM254.722 200.942C254.352 204.514 253.261 207.974 251.515 211.112C251.206 210.071 250.847 209.052 250.438 208.053L242.401 190.003L246.927 187.988C247.447 187.712 248.019 187.546 248.605 187.502C249.192 187.457 249.782 187.535 250.338 187.729C251.409 188.064 252.317 188.798 252.87 189.774C254.407 193.285 255.044 197.123 254.722 200.942Z" fill="white"/>
<path d="M316.444 403.776C319.03 402.514 322.117 402.914 324.295 404.792L353.332 429.842C357.328 433.289 356.377 439.728 351.555 441.879L317.969 456.856L321.211 465.627C321.593 466.661 320.67 467.705 319.598 467.452L302.996 463.533L275.933 475.601C273.455 476.707 270.567 476.324 268.464 474.611L240.784 452.076C236.706 448.756 237.45 442.319 242.179 440.011L316.444 403.776Z" fill="#183040"/>
<path d="M331.423 389.12C336.297 386.947 342.006 389.139 344.174 394.016L359.028 427.432C361.196 432.309 359.003 438.025 354.128 440.199L323.731 453.754L322.862 465.27C322.779 466.367 321.51 466.933 320.641 466.261L311.515 459.201L280.49 473.037C275.615 475.211 269.906 473.019 267.738 468.142L252.884 434.725C250.716 429.848 252.91 424.132 257.784 421.959L331.423 389.12Z" fill="#3466BA"/>
<path d="M359.523 433.637L360.849 428.134L357.62 431.847L359.523 433.637Z" fill="#3466BA"/>
<path d="M255.956 421.272L253.087 426.697L255.78 425.537L255.956 421.272Z" fill="#3466BA"/>
<path d="M322.885 464.801L324.573 459.465L321.211 460.812L322.885 464.801Z" fill="#3466BA"/>
<path d="M332.734 383.936C337.609 381.762 343.318 383.954 345.486 388.831L360.027 421.543C362.195 426.42 360.001 432.135 355.126 434.309L325.27 447.623L324.416 458.945C324.333 460.042 323.065 460.607 322.195 459.935L313.224 452.995L282.747 466.586C277.872 468.759 272.163 466.569 269.995 461.692L255.454 428.979C253.286 424.102 255.48 418.386 260.355 416.212L332.734 383.936Z" fill="#9DC2FF"/>
<ellipse cx="7.23823" cy="7.24595" rx="7.23823" ry="7.24595" transform="matrix(0.913305 -0.407277 0.406196 0.913786 273.877 433.09)" fill="#3466BA"/>
<ellipse cx="6.54888" cy="6.55586" rx="6.54888" ry="6.55586" transform="matrix(0.913305 -0.407277 0.406196 0.913786 275.835 430.705)" fill="white"/>
<ellipse cx="7.23823" cy="7.24595" rx="7.23823" ry="7.24595" transform="matrix(0.913305 -0.407277 0.406196 0.913786 297.802 422.42)" fill="#3466BA"/>
<ellipse cx="6.54888" cy="6.55586" rx="6.54888" ry="6.55586" transform="matrix(0.913305 -0.407277 0.406196 0.913786 299.76 420.035)" fill="white"/>
<ellipse cx="7.23823" cy="7.24595" rx="7.23823" ry="7.24595" transform="matrix(0.913305 -0.407277 0.406196 0.913786 321.727 411.751)" fill="#3466BA"/>
<ellipse cx="6.54888" cy="6.55586" rx="6.54888" ry="6.55586" transform="matrix(0.913305 -0.407277 0.406196 0.913786 323.685 409.366)" fill="white"/>
<path d="M95.7397 426.115L66.6781 379.261C66.3989 378.312 66.4429 376.305 68.8531 375.873C71.2633 375.441 73.3655 376.445 74.1154 377.001L152.083 413.29L95.7397 426.115Z" fill="#183040"/>
<ellipse cx="133.5" cy="422.505" rx="39.5" ry="19.8697" fill="#0053D7"/>
<ellipse cx="133.5" cy="419.154" rx="35.1909" ry="17.4758" fill="#003283"/>
<path d="M165.659 411.853H101.339L129.23 339.915H137.769L165.659 411.853Z" fill="#0053D7"/>
<ellipse cx="133.5" cy="413.888" rx="32.3182" ry="16.0394" fill="#0053D7"/>
<ellipse cx="133.5" cy="341.112" rx="4.61688" ry="3.11212" fill="#0053D7"/>
<ellipse cx="133.5" cy="340.872" rx="3.59091" ry="1.91515" fill="white"/>
<mask id="mask1_15732_10004" style="mask-type:alpha" maskUnits="userSpaceOnUse" x="101" y="338" width="65" height="92">
<path d="M165.659 411.853H101.339L129.23 339.915H137.769L165.659 411.853Z" fill="#0053D7"/>
<ellipse cx="133.5" cy="413.888" rx="32.3182" ry="16.0394" fill="#0053D7"/>
<ellipse cx="133.5" cy="341.112" rx="4.61688" ry="3.11212" fill="#0053D7"/>
<ellipse cx="133.5" cy="340.873" rx="3.11212" ry="1.43636" fill="white"/>
</mask>
<g mask="url(#mask1_15732_10004)">
<path d="M160.117 355.715C163.712 358.3 165.818 361.434 165.818 364.812C165.818 373.671 151.349 380.852 133.5 380.853C115.651 380.853 101.182 373.671 101.182 364.812C101.182 361.434 103.287 358.3 106.882 355.715C112.712 359.908 122.459 362.658 133.5 362.658C144.541 362.658 154.288 359.908 160.117 355.715Z" fill="white"/>
<path d="M160.117 385.878C163.712 388.463 165.818 391.597 165.818 394.976C165.818 403.834 151.349 411.016 133.5 411.016C115.651 411.016 101.182 403.834 101.182 394.976C101.182 391.597 103.287 388.463 106.882 385.878C112.712 390.071 122.459 392.82 133.5 392.82C144.541 392.82 154.288 390.071 160.117 385.878Z" fill="white"/>
</g>
<path d="M437.469 576.293L400.915 517.36C400.564 516.166 400.62 513.641 403.651 513.098C406.683 512.555 409.327 513.818 410.27 514.517L508.339 560.162L437.469 576.293Z" fill="#183040"/>
<ellipse cx="482.5" cy="573.481" rx="46.5" ry="23.3909" fill="#0053D7"/>
<ellipse cx="482.5" cy="569.536" rx="41.4273" ry="20.5727" fill="#003283"/>
<path d="M520.359 560.941H444.639L477.473 476.254H487.525L520.359 560.941Z" fill="#0053D7"/>
<ellipse cx="482.5" cy="563.337" rx="38.0455" ry="18.8818" fill="#0053D7"/>
<ellipse cx="482.5" cy="477.664" rx="5.43507" ry="3.66364" fill="#0053D7"/>
<ellipse cx="482.5" cy="477.382" rx="4.22727" ry="2.25455" fill="white"/>
<mask id="mask2_15732_10004" style="mask-type:alpha" maskUnits="userSpaceOnUse" x="444" y="474" width="77" height="109">
<path d="M520.359 560.941H444.639L477.473 476.254H487.525L520.359 560.941Z" fill="#0053D7"/>
<ellipse cx="482.5" cy="563.337" rx="38.0455" ry="18.8818" fill="#0053D7"/>
<ellipse cx="482.5" cy="477.664" rx="5.43507" ry="3.66364" fill="#0053D7"/>
<ellipse cx="482.5" cy="477.382" rx="3.66364" ry="1.69091" fill="white"/>
</mask>
<g mask="url(#mask2_15732_10004)">
<path d="M513.834 494.854C518.066 497.897 520.545 501.585 520.545 505.562C520.545 515.991 503.512 524.444 482.5 524.444C461.488 524.444 444.454 515.991 444.454 505.562C444.454 501.585 446.933 497.897 451.164 494.854C458.027 499.79 469.502 503.026 482.5 503.026C495.498 503.026 506.971 499.789 513.834 494.854Z" fill="white"/>
<path d="M513.834 530.364C518.066 533.408 520.545 537.097 520.545 541.074C520.545 551.502 503.512 559.956 482.5 559.956C461.488 559.956 444.454 551.502 444.454 541.074C444.454 537.097 446.933 533.408 451.164 530.364C458.027 535.3 469.502 538.536 482.5 538.536C495.498 538.536 506.971 535.3 513.834 530.364Z" fill="white"/>
</g>
</g>
<defs>
<linearGradient id="paint0_linear_15732_10004" x1="184.397" y1="177.773" x2="461.604" y2="10.7185" gradientUnits="userSpaceOnUse">
<stop stop-color="white"/>
<stop offset="1" stop-color="#E9EDF0"/>
</linearGradient>
<linearGradient id="paint1_linear_15732_10004" x1="1.71955e-06" y1="108.725" x2="120.005" y2="11.4317" gradientUnits="userSpaceOnUse">
<stop stop-color="#A0B6FF"/>
<stop offset="1" stop-color="#809EFF"/>
</linearGradient>
</defs>
</svg>
