<svg width="220" height="250" viewBox="0 0 220 250" fill="none" xmlns="http://www.w3.org/2000/svg">
<g clip-path="url(#clip0_23196_6509)">
<rect width="220" height="250" rx="8" fill="#619CFB"/>
<path d="M20.3917 178.323L7.76904 157.973C7.64776 157.56 7.6669 156.689 8.71375 156.501C9.7606 156.313 10.6737 156.75 10.9994 156.991L44.8642 172.753L20.3917 178.323Z" fill="#183040"/>
<ellipse cx="35.9429" cy="177.352" rx="16.0572" ry="8.07725" fill="#0053D7"/>
<ellipse cx="35.9422" cy="175.99" rx="14.3055" ry="7.10408" fill="#003283"/>
<path d="M49.0156 173.022H22.8682L34.2061 143.778H37.6768L49.0156 173.022Z" fill="#0053D7"/>
<ellipse cx="35.9414" cy="173.849" rx="13.1377" ry="6.52019" fill="#0053D7"/>
<ellipse cx="35.9422" cy="144.265" rx="1.87681" ry="1.26511" fill="#0053D7"/>
<ellipse cx="35.9422" cy="144.168" rx="1.45974" ry="0.77853" fill="white"/>
<mask id="mask0_23196_6509" style="mask-type:alpha" maskUnits="userSpaceOnUse" x="22" y="143" width="28" height="38">
<path d="M49.0156 173.022H22.8682L34.2061 143.778H37.6768L49.0156 173.022Z" fill="#0053D7"/>
<ellipse cx="35.9414" cy="173.849" rx="13.1377" ry="6.52019" fill="#0053D7"/>
<ellipse cx="35.9422" cy="144.265" rx="1.87681" ry="1.26511" fill="#0053D7"/>
<ellipse cx="35.9419" cy="144.168" rx="1.26511" ry="0.583897" fill="white"/>
</mask>
<g mask="url(#mask0_23196_6509)">
<path d="M46.7607 150.201C48.2228 151.252 49.0801 152.525 49.0801 153.899C49.0799 157.5 43.198 160.42 35.9424 160.42C28.6868 160.42 22.8049 157.5 22.8047 153.899C22.8047 152.525 23.662 151.252 25.124 150.201C27.494 151.905 31.4548 153.023 35.9424 153.023C40.4299 153.023 44.3907 151.905 46.7607 150.201Z" fill="white"/>
<path d="M46.7607 162.463C48.2228 163.515 49.08 164.788 49.0801 166.162C49.0801 169.763 43.1981 172.682 35.9424 172.682C28.6867 172.682 22.8047 169.763 22.8047 166.162C22.8047 164.788 23.662 163.514 25.124 162.463C27.494 164.167 31.4549 165.286 35.9424 165.286C40.4298 165.286 44.3907 164.167 46.7607 162.463Z" fill="white"/>
</g>
<path d="M45.9174 202.076C41.6593 199.339 42.1473 192.961 46.7727 190.898L201.63 121.842C203.589 120.968 205.854 121.14 207.657 122.299L263.195 157.992C267.453 160.729 266.965 167.107 262.34 169.17L107.483 238.226C105.524 239.1 103.258 238.928 101.455 237.769L45.9174 202.076Z" fill="#183040"/>
<path d="M69.5681 148.93L226.756 78.8336C230.09 77.3472 233.995 78.8459 235.477 82.1813L268.792 157.127L271.693 156.84L270.261 162.138C270.154 164.564 268.714 166.841 266.347 167.897L109.017 238.056C105.684 239.542 101.779 238.043 100.296 234.707L66.0755 157.724C65.529 156.495 65.3882 155.188 65.5947 153.952L65.5846 153.954L65.6141 153.842C65.6789 153.491 65.7717 153.147 65.8914 152.812L67.614 146.424L69.5681 148.93Z" fill="#ACBFCB"/>
<rect width="185.482" height="97.4656" rx="6.60958" transform="matrix(0.913305 -0.407277 0.406196 0.913786 64.9941 145.543)" fill="url(#paint0_linear_23196_6509)"/>
<rect width="176.241" height="72.3558" rx="4.6267" transform="matrix(0.913305 -0.407277 0.406196 0.913786 77.2666 161.776)" fill="#383C4A"/>
<rect width="46.2056" height="46.2549" rx="3.30479" transform="matrix(0.913305 -0.407277 0.406196 0.913786 85.9795 165.125)" fill="#5370D1"/>
<rect width="43.5653" height="43.6117" rx="2.64383" transform="matrix(0.913305 -0.407277 0.406196 0.913786 88.3906 164.05)" fill="url(#paint1_linear_23196_6509)"/>
<rect width="17.4921" height="3.9647" rx="1.98235" transform="matrix(0.913305 -0.407277 0.406196 0.913786 148.561 113.342)" fill="#43464F"/>
<ellipse cx="1.98024" cy="1.98235" rx="1.98024" ry="1.98235" transform="matrix(0.913305 -0.407277 0.406196 0.913786 143.134 115.762)" fill="#43464F"/>
<ellipse cx="1.98024" cy="1.98235" rx="1.98024" ry="1.98235" transform="matrix(0.913305 -0.407277 0.406196 0.913786 138.312 117.912)" fill="#43464F"/>
<rect width="58.4171" height="2.64313" rx="1.32157" transform="matrix(0.913305 -0.407277 0.406196 0.913786 134.946 146.906)" fill="#767A86"/>
<rect width="45.2155" height="10.9029" rx="1.98287" transform="matrix(0.913305 -0.407277 0.406196 0.913786 193.726 120.695)" fill="#67759F"/>
<rect width="45.2155" height="10.9029" rx="1.98287" transform="matrix(0.913305 -0.407277 0.406196 0.913786 204.999 146.055)" fill="#67759F"/>
<rect width="45.2155" height="10.9029" rx="1.98287" transform="matrix(0.913305 -0.407277 0.406196 0.913786 199.362 133.375)" fill="#67759F"/>
<rect width="45.2155" height="10.9029" rx="1.98287" transform="matrix(0.913305 -0.407277 0.406196 0.913786 210.635 158.735)" fill="#67759F"/>
<rect width="58.4171" height="2.64313" rx="1.32157" transform="matrix(0.913305 -0.407277 0.406196 0.913786 137.362 152.34)" fill="#767A86"/>
<rect width="58.4171" height="2.64313" rx="1.32157" transform="matrix(0.913305 -0.407277 0.406196 0.913786 139.778 157.775)" fill="#767A86"/>
<rect width="76.2392" height="7.59901" rx="1.98287" transform="matrix(0.913305 -0.407277 0.406196 0.913786 138.13 197.942)" fill="#767A86"/>
<ellipse cx="8.41602" cy="8.42499" rx="8.41602" ry="8.42499" transform="matrix(0.913305 -0.407277 0.406196 0.913786 144.392 171.032)" fill="#2EB0E2"/>
<ellipse cx="8.41602" cy="8.42499" rx="8.41602" ry="8.42499" transform="matrix(0.913305 -0.407277 0.406196 0.913786 163.11 162.748)" fill="#0053B2"/>
<ellipse cx="8.41602" cy="8.42499" rx="8.41602" ry="8.42499" transform="matrix(0.913305 -0.407277 0.406196 0.913786 182.264 154.029)" fill="#2EB0E2"/>
<rect width="58.4171" height="2.64313" rx="1.32157" transform="matrix(0.913305 -0.407277 0.406196 0.913786 142.195 163.21)" fill="#767A86"/>
<ellipse cx="8.41602" cy="8.42499" rx="8.41602" ry="8.42499" transform="matrix(0.913305 -0.407277 0.406196 0.913786 144.879 169.247)" fill="#7AD4F7"/>
<ellipse cx="8.41602" cy="8.42499" rx="8.41602" ry="8.42499" transform="matrix(0.913305 -0.407277 0.406196 0.913786 163.868 160.779)" fill="#268AFC"/>
<ellipse cx="8.41602" cy="8.42499" rx="8.41602" ry="8.42499" transform="matrix(0.913305 -0.407277 0.406196 0.913786 182.857 152.311)" fill="#7AD4F7"/>
<path d="M111.231 213.113C110.911 212.641 110.37 212.529 109.852 212.76C109.153 213.071 108.897 213.829 109.329 214.795C109.763 215.778 110.493 216.078 111.189 215.768C111.696 215.542 111.98 215.076 111.86 214.529L112.632 214.184C112.879 215.057 112.495 216.012 111.484 216.463C110.358 216.965 109.166 216.518 108.557 215.139C107.941 213.76 108.416 212.573 109.533 212.075C110.476 211.654 111.448 211.878 112.003 212.769L111.231 213.113ZM116.6 211.553C117.216 212.932 116.735 214.122 115.618 214.62C114.495 215.121 113.295 214.677 112.685 213.298C112.069 211.92 112.544 210.732 113.667 210.231C114.784 209.733 115.989 210.171 116.6 211.553ZM113.458 212.954C113.889 213.931 114.616 214.24 115.311 213.93C116.01 213.618 116.264 212.872 115.827 211.897C115.397 210.92 114.673 210.61 113.974 210.922C113.278 211.232 113.021 211.979 113.458 212.954ZM119.661 207.629L121.559 211.9L120.875 212.205L117.555 210.187L117.52 210.202L118.818 213.122L118.052 213.464L116.153 209.193L116.849 208.883L120.157 210.906L120.198 210.888L118.9 207.968L119.661 207.629ZM120.367 208.085L120.081 207.442L123.483 205.925L123.768 206.568L122.454 207.154L124.066 210.782L123.3 211.123L121.687 207.496L120.367 208.085ZM125.801 210.008L123.903 205.738L126.679 204.5L126.965 205.142L124.955 206.039L125.474 207.207L127.337 206.376L127.623 207.019L125.76 207.85L126.279 209.017L128.301 208.116L128.589 208.765L125.801 210.008ZM130.08 204.39C129.877 204.038 129.473 203.964 129.015 204.172C128.527 204.386 128.343 204.75 128.483 205.073C128.64 205.434 129.086 205.412 129.476 205.337L129.925 205.264C130.627 205.128 131.389 205.191 131.72 205.934C132.053 206.683 131.688 207.46 130.665 207.917C129.672 208.359 128.829 208.163 128.422 207.334L129.176 206.998C129.41 207.427 129.881 207.478 130.369 207.264C130.871 207.037 131.11 206.637 130.951 206.27C130.798 205.935 130.429 205.93 129.914 206.019L129.375 206.11C128.592 206.24 127.999 206.081 127.726 205.467C127.391 204.712 127.837 203.913 128.736 203.512C129.641 203.108 130.483 203.344 130.816 204.061L130.08 204.39ZM130.906 203.385L130.621 202.742L134.022 201.225L134.308 201.868L132.993 202.454L134.606 206.082L133.839 206.423L132.227 202.796L130.906 203.385Z" fill="white"/>
<path d="M174.463 160.413C173.919 160.181 173.31 160.191 172.744 160.442C172.175 160.696 171.758 161.141 171.568 161.698C171.376 162.26 171.437 162.881 171.739 163.446C172.336 164.561 173.63 165.108 174.624 164.666C175.619 164.223 176.077 162.896 175.649 161.706C175.434 161.108 175.012 160.649 174.463 160.413ZM179.823 167.412L173.186 170.366C173.1 170.406 173.006 170.426 172.911 170.425C172.816 170.424 172.722 170.402 172.637 170.36C172.449 170.268 172.31 170.09 172.257 169.871C172.023 168.918 172.19 167.955 172.738 167.087C173.226 166.316 173.991 165.671 174.893 165.269C175.795 164.868 176.787 164.731 177.686 164.884C178.698 165.057 179.525 165.577 180.077 166.389C180.204 166.575 180.243 166.797 180.186 166.998C180.16 167.09 180.114 167.175 180.051 167.246C179.988 167.317 179.91 167.374 179.823 167.412Z" fill="white"/>
<path d="M198.314 154.992C198.162 154.865 197.988 154.769 197.799 154.709L193.476 153.049C193.212 152.947 192.931 152.898 192.649 152.905C192.366 152.912 192.088 152.975 191.83 153.091L189.727 154.027C189.541 154.109 189.373 154.228 189.232 154.375C189.092 154.523 188.982 154.696 188.908 154.886C188.835 155.076 188.8 155.279 188.805 155.483C188.81 155.686 188.856 155.887 188.938 156.073L189.875 158.176C189.989 158.435 190.154 158.669 190.359 158.864C190.565 159.059 190.807 159.211 191.072 159.312L195.395 160.972C195.586 161.045 195.789 161.08 195.994 161.074C196.198 161.071 196.399 161.027 196.586 160.943C196.961 160.771 197.252 160.457 197.396 160.071L198.045 158.389L198.69 156.709C198.763 156.518 198.798 156.315 198.792 156.111C198.78 155.699 198.606 155.309 198.309 155.025L198.314 154.992ZM193.081 157.465C192.839 157.573 192.569 157.607 192.308 157.562C192.046 157.517 191.804 157.395 191.611 157.212C191.418 157.03 191.284 156.794 191.226 156.535C191.167 156.276 191.187 156.005 191.282 155.757C191.377 155.51 191.543 155.295 191.76 155.142C191.977 154.989 192.235 154.903 192.5 154.896C192.765 154.889 193.027 154.961 193.252 155.103C193.476 155.245 193.654 155.45 193.762 155.692C193.835 155.854 193.876 156.028 193.881 156.206C193.887 156.383 193.858 156.559 193.795 156.725C193.732 156.891 193.637 157.043 193.516 157.172C193.394 157.301 193.249 157.405 193.087 157.478L193.081 157.465Z" fill="#003598"/>
<path d="M160.006 174.561L158.99 175.013C158.93 175.04 158.877 175.079 158.835 175.13C158.792 175.18 158.762 175.239 158.746 175.302L158.223 177.294C158.206 177.358 158.175 177.418 158.132 177.468C158.09 177.518 158.036 177.558 157.976 177.585C157.915 177.612 157.85 177.625 157.784 177.623C157.718 177.621 157.653 177.604 157.594 177.574L155.764 176.63C155.706 176.599 155.642 176.582 155.576 176.58C155.51 176.578 155.445 176.591 155.385 176.618L154.375 177.068C153.706 177.365 152.928 177.067 152.631 176.398L151.377 173.583C151.079 172.914 151.378 172.136 152.047 171.839L157.678 169.332C158.347 169.034 159.124 169.333 159.422 170.001L160.675 172.817C160.973 173.485 160.675 174.263 160.006 174.561Z" fill="#003598"/>
<path d="M124.514 161.546C124.069 161.397 123.6 161.336 123.132 161.37C122.664 161.403 122.208 161.529 121.79 161.741L120.033 162.523C119.603 162.053 119.057 161.705 118.45 161.513C118.001 161.365 117.527 161.307 117.055 161.342C116.584 161.377 116.124 161.505 115.701 161.718L108.21 165.054C107.751 165.221 107.33 165.48 106.973 165.814C106.616 166.148 106.33 166.55 106.132 166.997C105.873 167.574 105.774 168.209 105.847 168.837L104.115 169.608C103.671 169.777 103.264 170.033 102.92 170.361C102.576 170.689 102.301 171.083 102.111 171.519C101.913 171.966 101.806 172.449 101.797 172.938C101.787 173.427 101.875 173.913 102.056 174.368C102.781 175.952 103.899 177.325 105.304 178.357C106.727 179.418 108.379 180.129 110.128 180.434L111.485 180.671L112.485 180.801C113.585 181.525 114.84 181.979 116.148 182.125L117.114 184.293L116.636 184.506C115.756 184.898 115.068 185.626 114.725 186.526C114.38 187.428 114.408 188.429 114.802 189.311L114.983 189.718C115.071 189.92 115.198 190.102 115.357 190.254C115.516 190.406 115.703 190.526 115.908 190.606C116.322 190.764 116.783 190.75 117.186 190.569L128.608 185.484C128.912 185.353 129.169 185.132 129.346 184.852C129.523 184.572 129.611 184.245 129.598 183.914C129.593 183.695 129.541 183.477 129.449 183.278L129.268 182.871C128.875 181.988 128.15 181.297 127.25 180.951C126.352 180.605 125.353 180.629 124.472 181.019L123.991 181.232L123.02 179.051C123.792 177.98 124.3 176.741 124.502 175.436L125.093 174.583L125.786 173.462C126.73 171.952 127.31 170.243 127.478 168.47C127.646 166.717 127.366 164.951 126.664 163.336C126.207 162.483 125.436 161.841 124.514 161.546ZM106.516 176.751C105.42 175.927 104.548 174.843 103.978 173.597C103.864 173.291 103.843 172.959 103.919 172.641C103.994 172.324 104.163 172.036 104.402 171.814C104.561 171.67 104.747 171.554 104.949 171.482L106.558 170.766L109.488 177.347C109.656 177.694 109.84 178.03 110.041 178.356C108.765 178.078 107.563 177.53 106.516 176.751ZM118.853 169.459C118.905 169.683 118.886 169.918 118.8 170.132L118.34 171.281L119.042 172.326C119.162 172.513 119.23 172.729 119.238 172.952C119.247 173.174 119.195 173.394 119.089 173.59C118.967 173.78 118.798 173.937 118.6 174.045L118.526 174.078C118.344 174.156 118.147 174.188 117.95 174.172L116.707 174.091L115.923 175.074C115.789 175.255 115.603 175.39 115.389 175.46C115.18 175.54 114.952 175.558 114.732 175.512C114.513 175.465 114.312 175.356 114.154 175.198C113.992 175.04 113.878 174.841 113.823 174.622L113.503 173.405L112.341 172.978C112.128 172.901 111.943 172.762 111.81 172.58C111.655 172.409 111.558 172.192 111.535 171.962C111.506 171.746 111.547 171.525 111.654 171.334C111.746 171.126 111.898 170.951 112.09 170.83L113.125 170.177L113.186 168.894C113.188 168.675 113.259 168.463 113.388 168.287C113.514 168.103 113.688 167.957 113.892 167.866C114.096 167.775 114.321 167.743 114.542 167.773C114.766 167.793 114.978 167.886 115.145 168.036L116.121 168.842L117.335 168.493C117.55 168.441 117.775 168.447 117.987 168.511C118.199 168.575 118.39 168.694 118.54 168.857C118.701 169.01 118.807 169.213 118.841 169.433L118.853 169.459ZM125.503 168.298C125.369 169.596 124.973 170.853 124.338 171.993C124.226 171.615 124.096 171.245 123.947 170.882L121.027 164.324L122.671 163.592C122.86 163.491 123.068 163.431 123.281 163.415C123.494 163.399 123.709 163.427 123.911 163.498C124.3 163.619 124.63 163.886 124.83 164.241C125.389 165.516 125.62 166.911 125.503 168.298Z" fill="white"/>
<path d="M176.49 248.155L160.712 222.716C160.56 222.201 160.584 221.111 161.892 220.877C163.201 220.642 164.342 221.188 164.75 221.49L207.082 241.192L176.49 248.155Z" fill="#183040"/>
<ellipse cx="195.929" cy="246.942" rx="20.072" ry="10.0968" fill="#0053D7"/>
<ellipse cx="195.929" cy="245.239" rx="17.8823" ry="8.88034" fill="#003283"/>
<path d="M212.271 241.529H179.586L193.759 204.973H198.098L212.271 241.529Z" fill="#0053D7"/>
<ellipse cx="195.928" cy="242.563" rx="16.4226" ry="8.15045" fill="#0053D7"/>
<ellipse cx="195.929" cy="205.581" rx="2.34608" ry="1.58143" fill="#0053D7"/>
<ellipse cx="195.929" cy="205.46" rx="1.82473" ry="0.973188" fill="white"/>
<mask id="mask1_23196_6509" style="mask-type:alpha" maskUnits="userSpaceOnUse" x="179" y="204" width="34" height="47">
<path d="M212.271 241.529H179.586L193.759 204.973H198.098L212.271 241.529Z" fill="#0053D7"/>
<ellipse cx="195.928" cy="242.563" rx="16.4226" ry="8.15045" fill="#0053D7"/>
<ellipse cx="195.929" cy="205.581" rx="2.34608" ry="1.58143" fill="#0053D7"/>
<ellipse cx="195.929" cy="205.46" rx="1.58143" ry="0.729891" fill="white"/>
</mask>
<g mask="url(#mask1_23196_6509)">
<path d="M209.453 213.002C211.281 214.316 212.353 215.907 212.353 217.625C212.352 222.126 204.999 225.775 195.93 225.775C186.86 225.775 179.507 222.126 179.507 217.625C179.507 215.907 180.578 214.315 182.405 213.002C185.368 215.132 190.32 216.53 195.93 216.53C201.539 216.53 206.491 215.132 209.453 213.002Z" fill="white"/>
<path d="M209.453 228.33C211.281 229.644 212.353 231.236 212.353 232.953C212.353 237.454 205 241.103 195.93 241.103C186.86 241.103 179.507 237.454 179.507 232.953C179.507 231.236 180.578 229.644 182.405 228.33C185.368 230.46 190.32 231.857 195.93 231.857C201.539 231.857 206.491 230.46 209.453 228.33Z" fill="white"/>
</g>
</g>
<defs>
<linearGradient id="paint0_linear_23196_6509" x1="66.9981" y1="64.5916" x2="167.718" y2="3.89444" gradientUnits="userSpaceOnUse">
<stop stop-color="white"/>
<stop offset="1" stop-color="#E9EDF0"/>
</linearGradient>
<linearGradient id="paint1_linear_23196_6509" x1="6.24776e-07" y1="39.5036" x2="43.6021" y2="4.15356" gradientUnits="userSpaceOnUse">
<stop stop-color="#A0B6FF"/>
<stop offset="1" stop-color="#809EFF"/>
</linearGradient>
<clipPath id="clip0_23196_6509">
<rect width="220" height="250" rx="8" fill="white"/>
</clipPath>
</defs>
</svg>
