<svg width="220" height="250" viewBox="0 0 220 250" fill="none" xmlns="http://www.w3.org/2000/svg">
<g clip-path="url(#clip0_23196_6639)">
<rect width="220" height="250" rx="8" fill="#00183E"/>
<path d="M167 225.905H117.476L74.8574 256.857H207.238L167 225.905Z" fill="#565A72"/>
<rect x="136.912" y="205.579" width="11.9298" height="15.4386" fill="white"/>
<ellipse cx="142.877" cy="207.509" rx="5.96492" ry="2.98246" fill="#D9DBE5"/>
<path d="M142.877 214.351L165.86 223.649H120.07L142.877 214.351Z" fill="white"/>
<ellipse cx="142.878" cy="225.755" rx="24.9123" ry="5.4386" fill="white"/>
<rect x="83.5791" y="134" width="118.597" height="73.3334" rx="7.01755" fill="white"/>
<rect x="87.0879" y="137.509" width="111.579" height="66.3158" rx="4.91229" fill="#383C4A"/>
<path d="M129.311 137.001C128.922 136.076 129.601 135.052 130.605 135.052H155.149C156.153 135.052 156.832 136.076 156.443 137.001L154.818 140.86C154.599 141.381 154.089 141.719 153.524 141.719H132.23C131.665 141.719 131.156 141.381 130.937 140.86L129.311 137.001Z" fill="white"/>
<rect x="91.2979" y="147.333" width="35.4386" height="5.96492" rx="1.40351" fill="#33E664"/>
<rect x="91.2979" y="160.316" width="35.4386" height="2.80702" rx="1.40351" fill="#B2B6C2"/>
<rect x="91.2979" y="179.263" width="35.4386" height="2.80702" rx="1.40351" fill="#B2B6C2"/>
<rect x="91.2979" y="166.631" width="35.4386" height="2.80702" rx="1.40351" fill="#B2B6C2"/>
<rect x="91.2979" y="185.579" width="35.4386" height="2.80702" rx="1.40351" fill="#B2B6C2"/>
<rect x="91.2979" y="172.948" width="35.4386" height="2.80702" rx="1.40351" fill="#B2B6C2"/>
<rect x="91.2979" y="191.895" width="35.4386" height="2.80702" rx="1.40351" fill="#B2B6C2"/>
<rect x="53.4033" y="166.983" width="54.386" height="31.579" rx="2.80702" fill="#ACDAE6"/>
<path d="M53.4033 189.79H107.789V195.755C107.789 197.305 106.533 198.562 104.982 198.562H56.2103C54.6601 198.562 53.4033 197.305 53.4033 195.755V189.79Z" fill="#1CA843"/>
<path d="M107.789 189.79L106.386 188.035V189.79H107.789Z" fill="#1CA843"/>
<path d="M53.0525 196.456L54.2806 197.684L54.4561 196.456H53.0525Z" fill="#1CA843"/>
<rect x="52" y="165.579" width="54.386" height="31.579" rx="2.80702" fill="white"/>
<path d="M52 188.035H106.386V194.351C106.386 195.901 105.129 197.158 103.579 197.158H54.807C53.2567 197.158 52 195.901 52 194.351V188.035Z" fill="#33E664"/>
<rect x="55.5088" y="169.79" width="15.0877" height="15.0877" rx="1.40351" fill="#67AFF7"/>
<rect x="72.7021" y="171.193" width="29.4737" height="2.10527" rx="1.05263" fill="#D9D9D9"/>
<rect x="72.7021" y="174.702" width="29.4737" height="2.10527" rx="1.05263" fill="#D9D9D9"/>
<rect x="72.7021" y="181.369" width="15.7895" height="2.10527" rx="1.05263" fill="#D9D9D9"/>
<path d="M64.5079 172.535C64.0811 172.074 63.4851 171.82 62.8272 171.82C62.1658 171.82 61.5677 172.072 61.1429 172.53C60.7136 172.993 60.5043 173.622 60.5535 174.302C60.6508 175.642 61.6708 176.732 62.8272 176.732C63.9835 176.732 65.0017 175.642 65.1006 174.302C65.1504 173.629 64.9399 173.001 64.5079 172.535ZM66.6868 181.645H58.9675C58.8665 181.646 58.7664 181.625 58.6746 181.583C58.5828 181.54 58.5016 181.478 58.4368 181.401C58.2943 181.23 58.2368 180.997 58.2793 180.762C58.4644 179.735 59.0421 178.873 59.95 178.267C60.7565 177.73 61.7783 177.434 62.8272 177.434C63.8761 177.434 64.8978 177.73 65.7044 178.267C66.6122 178.873 67.1899 179.735 67.375 180.762C67.4175 180.997 67.3601 181.23 67.2175 181.4C67.1528 181.478 67.0715 181.54 66.9797 181.582C66.8879 181.625 66.7879 181.646 66.6868 181.645Z" fill="white"/>
<path d="M57.0476 192.2C56.9983 191.871 56.7454 191.672 56.3979 191.67C55.9353 191.672 55.629 192.025 55.629 192.653C55.629 193.294 55.9395 193.633 56.3938 193.635C56.733 193.633 56.988 193.448 57.0476 193.125L57.6726 193.129C57.6048 193.68 57.1422 194.182 56.3856 194.182C55.5899 194.182 54.9999 193.621 54.9999 192.653C54.9999 191.68 55.6002 191.123 56.3856 191.123C57.0723 191.123 57.5904 191.516 57.6726 192.2H57.0476ZM60.7042 192.653C60.7042 193.625 60.1018 194.182 59.3144 194.182C58.5208 194.182 57.9205 193.621 57.9205 192.653C57.9205 191.68 58.5208 191.123 59.3144 191.123C60.1018 191.123 60.7042 191.68 60.7042 192.653ZM58.5496 192.653C58.5496 193.288 58.8518 193.633 59.3144 193.635C59.7728 193.633 60.0771 193.288 60.0751 192.653C60.0771 192.015 59.7728 191.672 59.3144 191.67C58.8518 191.672 58.5496 192.015 58.5496 192.653ZM62.0705 194.141H61.0219V191.164H62.0828C62.9792 191.164 63.5281 191.721 63.5261 192.648C63.5281 193.58 62.9792 194.141 62.0705 194.141ZM61.6387 193.611H62.0458C62.6132 193.611 62.9093 193.317 62.9093 192.648C62.9093 191.986 62.6132 191.694 62.0499 191.694H61.6387V193.611ZM63.8479 194.141V191.164H65.8463V191.674H64.4647V192.398H65.7435V192.907H64.4647V193.631H65.8504V194.141H63.8479ZM67.2496 194.141H66.2011V191.164H67.2619C68.1583 191.164 68.7072 191.721 68.7052 192.648C68.7072 193.58 68.1583 194.141 67.2496 194.141ZM66.8178 193.611H67.2249C67.7923 193.611 68.0884 193.317 68.0884 192.648C68.0884 191.986 67.7923 191.694 67.229 191.694H66.8178V193.611ZM69.356 194.141H68.6899L69.7219 191.164H70.5155L71.5435 194.141H70.8815L70.6574 193.454H69.5801L69.356 194.141ZM69.7363 192.973H70.5011L70.129 191.834H70.1085L69.7363 192.973ZM74.2379 191.164V194.141H73.7034L72.3958 192.25H72.3711V194.141H71.7544V191.164H72.2971L73.5965 193.055H73.6252V191.164H74.2379ZM76.591 192.122C76.5067 191.842 76.2826 191.672 75.9578 191.67C75.4973 191.672 75.1848 192.023 75.1848 192.648C75.1848 193.278 75.487 193.633 75.9619 193.635C76.3875 193.633 76.6404 193.393 76.6486 193.018H76.003V192.554H77.2448V192.924C77.2448 193.705 76.7082 194.182 75.9578 194.182C75.1231 194.182 74.5557 193.598 74.5557 192.657C74.5557 191.69 75.1601 191.123 75.9455 191.123C76.6178 191.123 77.1338 191.536 77.216 192.122H76.591Z" fill="white"/>
<rect x="135.509" y="149.439" width="76.4913" height="26.3158" rx="3.50878" fill="#2E3ECD"/>
<rect x="133.755" y="147.333" width="76.4913" height="26.3158" rx="3.50878" fill="#4784FF"/>
<rect x="139.72" y="151.193" width="18.2456" height="18.2456" rx="9.12282" fill="white"/>
<path d="M147.597 159.899H150.086C150.005 158.684 149.666 157.5 149.091 156.427H148.591C148.017 157.5 147.678 158.684 147.597 159.899ZM146.769 159.899C146.834 158.772 147.105 157.667 147.569 156.638C146.868 156.876 146.249 157.309 145.785 157.887C145.322 158.465 145.033 159.163 144.953 159.899H146.769ZM150.914 159.899H152.73C152.652 159.165 152.366 158.469 151.907 157.892C151.447 157.314 150.833 156.879 150.136 156.638C150.592 157.668 150.856 158.774 150.914 159.899ZM150.914 160.732C150.849 161.859 150.578 162.965 150.114 163.994C150.815 163.756 151.434 163.322 151.898 162.745C152.361 162.167 152.65 161.469 152.73 160.732H150.914ZM146.769 160.732H144.953C145.031 161.466 145.317 162.162 145.776 162.74C146.236 163.317 146.85 163.752 147.547 163.994C147.091 162.963 146.827 161.858 146.769 160.732ZM150.086 160.732H147.597C147.679 161.947 148.018 163.131 148.591 164.205H149.091C149.666 163.131 150.005 161.947 150.086 160.732ZM148.841 153.649C148.677 153.649 148.516 153.698 148.379 153.789C148.241 153.881 148.135 154.011 148.072 154.163C148.009 154.316 147.992 154.483 148.024 154.645C148.056 154.807 148.136 154.955 148.252 155.072C148.369 155.188 148.517 155.268 148.679 155.3C148.841 155.332 149.008 155.315 149.16 155.252C149.313 155.189 149.443 155.082 149.534 154.945C149.626 154.808 149.675 154.647 149.675 154.482C149.675 154.261 149.587 154.049 149.431 153.893C149.274 153.737 149.062 153.649 148.841 153.649ZM148.841 165.316C148.677 165.316 148.516 165.365 148.379 165.456C148.241 165.548 148.135 165.678 148.072 165.83C148.009 165.982 147.992 166.15 148.024 166.312C148.056 166.473 148.136 166.622 148.252 166.738C148.369 166.855 148.517 166.934 148.679 166.966C148.841 166.999 149.008 166.982 149.16 166.919C149.313 166.856 149.443 166.749 149.534 166.612C149.626 166.475 149.675 166.314 149.675 166.149C149.675 165.928 149.587 165.716 149.431 165.56C149.274 165.404 149.062 165.316 148.841 165.316ZM153.558 155.599C153.441 155.481 153.292 155.401 153.129 155.368C152.966 155.336 152.797 155.352 152.643 155.415C152.49 155.479 152.359 155.586 152.266 155.724C152.174 155.862 152.125 156.025 152.125 156.191C152.125 156.357 152.174 156.519 152.266 156.657C152.359 156.795 152.49 156.903 152.643 156.966C152.797 157.03 152.966 157.046 153.129 157.013C153.292 156.98 153.441 156.9 153.558 156.782C153.713 156.624 153.8 156.412 153.8 156.191C153.8 155.969 153.713 155.757 153.558 155.599ZM145.308 163.849C145.191 163.731 145.042 163.651 144.879 163.618C144.716 163.586 144.547 163.602 144.393 163.665C144.24 163.729 144.109 163.836 144.016 163.974C143.924 164.112 143.875 164.275 143.875 164.441C143.875 164.607 143.924 164.769 144.016 164.907C144.109 165.045 144.24 165.153 144.393 165.216C144.547 165.28 144.716 165.296 144.879 165.263C145.042 165.23 145.191 165.15 145.308 165.032C145.463 164.874 145.55 164.662 145.55 164.441C145.55 164.219 145.463 164.007 145.308 163.849ZM155.508 160.316C155.508 160.151 155.459 159.99 155.368 159.853C155.276 159.716 155.146 159.609 154.994 159.546C154.841 159.483 154.674 159.466 154.512 159.498C154.351 159.531 154.202 159.61 154.086 159.726C153.969 159.843 153.89 159.991 153.857 160.153C153.825 160.315 153.842 160.482 153.905 160.635C153.968 160.787 154.075 160.917 154.212 161.009C154.349 161.1 154.51 161.149 154.675 161.149C154.896 161.149 155.108 161.061 155.264 160.905C155.42 160.749 155.508 160.537 155.508 160.316ZM143.841 160.316C143.841 160.151 143.793 159.99 143.701 159.853C143.609 159.716 143.479 159.609 143.327 159.546C143.175 159.483 143.007 159.466 142.846 159.498C142.684 159.531 142.535 159.61 142.419 159.726C142.302 159.843 142.223 159.991 142.191 160.153C142.159 160.315 142.175 160.482 142.238 160.635C142.301 160.787 142.408 160.917 142.545 161.009C142.682 161.1 142.843 161.149 143.008 161.149C143.229 161.149 143.441 161.061 143.597 160.905C143.754 160.749 143.841 160.537 143.841 160.316ZM153.558 165.032C153.676 164.915 153.756 164.766 153.789 164.603C153.822 164.44 153.805 164.271 153.742 164.118C153.679 163.964 153.571 163.833 153.433 163.74C153.295 163.648 153.133 163.599 152.966 163.599C152.8 163.599 152.638 163.648 152.5 163.74C152.362 163.833 152.254 163.964 152.191 164.118C152.128 164.271 152.111 164.44 152.144 164.603C152.177 164.766 152.257 164.915 152.375 165.032C152.533 165.187 152.745 165.274 152.966 165.274C153.188 165.274 153.4 165.187 153.558 165.032ZM145.308 156.782C145.426 156.665 145.506 156.516 145.539 156.353C145.572 156.19 145.555 156.021 145.492 155.868C145.429 155.714 145.321 155.583 145.183 155.49C145.045 155.398 144.883 155.349 144.716 155.349C144.55 155.349 144.388 155.398 144.25 155.49C144.112 155.583 144.004 155.714 143.941 155.868C143.878 156.021 143.861 156.19 143.894 156.353C143.927 156.516 144.007 156.665 144.125 156.782C144.283 156.937 144.495 157.024 144.716 157.024C144.938 157.024 145.15 156.937 145.308 156.782Z" fill="#2E3ECD"/>
<path d="M169.919 169.161C174.957 169.161 179.042 165.077 179.042 160.038C179.042 155 174.957 150.915 169.919 150.915C164.88 150.915 160.796 155 160.796 160.038C160.796 165.076 164.88 169.161 169.919 169.161Z" fill="white"/>
<path d="M175.227 162.692C175.227 163.044 175.087 163.381 174.838 163.63C174.59 163.879 174.252 164.019 173.9 164.019H165.938C165.586 164.019 165.249 163.879 165 163.63C164.751 163.381 164.611 163.044 164.611 162.692V157.384C164.611 157.032 164.751 156.695 165 156.446C165.249 156.197 165.586 156.058 165.938 156.058H173.9C174.074 156.058 174.247 156.092 174.408 156.158C174.569 156.225 174.715 156.323 174.838 156.446C174.961 156.569 175.059 156.715 175.126 156.876C175.193 157.037 175.227 157.21 175.227 157.384V162.692Z" fill="#2E3ECD"/>
<path d="M173.899 156.058H165.938C165.586 156.058 165.249 156.197 165 156.446C164.751 156.695 164.611 157.032 164.611 157.384V158.048H175.226V157.384C175.226 157.21 175.192 157.038 175.125 156.877C175.058 156.716 174.961 156.569 174.838 156.446C174.714 156.323 174.568 156.225 174.407 156.159C174.246 156.092 174.074 156.058 173.899 156.058Z" fill="#6BAFFF"/>
<path d="M166.104 157.55C166.192 157.55 166.276 157.515 166.339 157.453C166.401 157.391 166.436 157.306 166.436 157.218C166.436 157.13 166.401 157.046 166.339 156.984C166.276 156.922 166.192 156.887 166.104 156.887C166.016 156.887 165.932 156.922 165.87 156.984C165.807 157.046 165.772 157.13 165.772 157.218C165.772 157.306 165.807 157.391 165.87 157.453C165.932 157.515 166.016 157.55 166.104 157.55ZM167.431 157.55C167.519 157.55 167.603 157.515 167.666 157.453C167.728 157.391 167.763 157.306 167.763 157.218C167.763 157.13 167.728 157.046 167.666 156.984C167.603 156.922 167.519 156.887 167.431 156.887C167.343 156.887 167.259 156.922 167.197 156.984C167.134 157.046 167.099 157.13 167.099 157.218C167.099 157.306 167.134 157.391 167.197 157.453C167.259 157.515 167.343 157.55 167.431 157.55ZM168.758 157.55C168.846 157.55 168.93 157.515 168.993 157.453C169.055 157.391 169.09 157.306 169.09 157.218C169.09 157.13 169.055 157.046 168.993 156.984C168.93 156.922 168.846 156.887 168.758 156.887C168.67 156.887 168.586 156.922 168.524 156.984C168.461 157.046 168.426 157.13 168.426 157.218C168.426 157.306 168.461 157.391 168.524 157.453C168.586 157.515 168.67 157.55 168.758 157.55Z" fill="#2E3ECD"/>
<path d="M171.478 162.062C171.452 162.027 171.432 161.988 171.422 161.945C171.411 161.903 171.408 161.859 171.414 161.816C171.421 161.773 171.435 161.731 171.457 161.694C171.48 161.656 171.509 161.624 171.544 161.597L172.517 160.868L171.544 160.138C171.508 160.112 171.478 160.079 171.455 160.042C171.433 160.004 171.417 159.962 171.411 159.919C171.404 159.875 171.407 159.831 171.417 159.788C171.428 159.746 171.447 159.706 171.474 159.67C171.5 159.635 171.533 159.605 171.571 159.583C171.609 159.561 171.651 159.546 171.694 159.54C171.738 159.535 171.782 159.537 171.825 159.549C171.867 159.56 171.907 159.58 171.942 159.607L173.269 160.602C173.31 160.633 173.344 160.673 173.367 160.719C173.39 160.765 173.402 160.816 173.402 160.868C173.402 160.919 173.39 160.97 173.367 161.016C173.344 161.062 173.31 161.102 173.269 161.133L171.942 162.128C171.908 162.154 171.868 162.173 171.826 162.184C171.783 162.195 171.739 162.198 171.696 162.191C171.653 162.185 171.612 162.171 171.574 162.148C171.537 162.126 171.504 162.097 171.478 162.062ZM167.895 162.128L166.568 161.133C166.527 161.102 166.494 161.062 166.471 161.016C166.448 160.97 166.436 160.919 166.436 160.867C166.436 160.816 166.448 160.765 166.471 160.719C166.494 160.673 166.527 160.633 166.568 160.602L167.895 159.607C167.93 159.581 167.969 159.562 168.012 159.551C168.054 159.54 168.098 159.538 168.141 159.544C168.184 159.55 168.226 159.565 168.263 159.587C168.301 159.609 168.333 159.638 168.359 159.673C168.386 159.708 168.405 159.748 168.415 159.79C168.426 159.832 168.429 159.876 168.422 159.919C168.416 159.962 168.402 160.004 168.379 160.041C168.357 160.079 168.328 160.112 168.293 160.138L167.32 160.868L168.293 161.597C168.363 161.65 168.41 161.729 168.422 161.816C168.435 161.903 168.412 161.991 168.359 162.062C168.306 162.132 168.228 162.179 168.141 162.191C168.054 162.204 167.965 162.181 167.895 162.128ZM169.272 162.16C169.233 162.14 169.199 162.113 169.17 162.08C169.141 162.048 169.12 162.009 169.106 161.968C169.092 161.927 169.087 161.883 169.09 161.839C169.093 161.796 169.105 161.754 169.124 161.715L170.119 159.724C170.139 159.685 170.166 159.651 170.199 159.622C170.232 159.594 170.27 159.572 170.311 159.558C170.352 159.544 170.396 159.539 170.439 159.542C170.483 159.545 170.525 159.557 170.564 159.576C170.603 159.595 170.638 159.622 170.666 159.655C170.695 159.688 170.717 159.726 170.73 159.768C170.744 159.809 170.75 159.853 170.747 159.896C170.743 159.939 170.732 159.982 170.712 160.021L169.718 162.011C169.678 162.09 169.609 162.15 169.526 162.177C169.442 162.205 169.351 162.199 169.272 162.16Z" fill="#6BAFFF"/>
<path d="M195.156 169.439C200.194 169.439 204.279 165.354 204.279 160.316C204.279 155.277 200.194 151.193 195.156 151.193C190.118 151.193 186.033 155.277 186.033 160.316C186.033 165.354 190.118 169.439 195.156 169.439Z" fill="white"/>
<path d="M191.176 155.645C191.176 155.561 191.192 155.478 191.224 155.401C191.256 155.324 191.303 155.253 191.362 155.194C191.421 155.135 191.492 155.088 191.569 155.056C191.646 155.024 191.729 155.008 191.813 155.008H196.484L199.138 157.237V164.987C199.138 165.07 199.121 165.153 199.089 165.23C199.057 165.308 199.01 165.378 198.951 165.437C198.892 165.496 198.822 165.543 198.744 165.575C198.667 165.607 198.584 165.624 198.501 165.624H191.813C191.729 165.624 191.646 165.607 191.569 165.575C191.492 165.543 191.421 165.496 191.362 165.437C191.303 165.378 191.256 165.308 191.224 165.23C191.192 165.153 191.176 165.07 191.176 164.987V155.645Z" fill="#2E3ECD"/>
<path d="M196.483 155.008V156.6C196.484 156.769 196.551 156.931 196.67 157.051C196.79 157.17 196.952 157.237 197.121 157.237H199.137M196.767 162.574C196.702 162.574 196.639 162.554 196.585 162.518C196.532 162.482 196.491 162.43 196.467 162.37C196.443 162.31 196.438 162.244 196.453 162.181C196.467 162.118 196.5 162.061 196.547 162.017L197.344 161.275L196.551 160.559C196.489 160.502 196.453 160.422 196.45 160.338C196.447 160.254 196.476 160.172 196.533 160.109C196.589 160.047 196.668 160.009 196.752 160.004C196.836 159.999 196.918 160.026 196.982 160.081L198.036 161.033C198.069 161.063 198.096 161.099 198.114 161.14C198.132 161.181 198.142 161.225 198.142 161.269C198.142 161.314 198.133 161.358 198.116 161.399C198.098 161.44 198.072 161.477 198.039 161.507L196.986 162.488C196.926 162.544 196.848 162.574 196.767 162.574ZM193.547 162.574C193.465 162.574 193.387 162.543 193.328 162.488L192.274 161.507C192.241 161.477 192.215 161.44 192.197 161.399C192.18 161.358 192.171 161.314 192.171 161.269C192.171 161.225 192.181 161.181 192.199 161.14C192.218 161.099 192.244 161.063 192.277 161.033L193.331 160.081C193.395 160.03 193.477 160.004 193.559 160.011C193.641 160.017 193.718 160.055 193.773 160.116C193.829 160.177 193.858 160.257 193.856 160.34C193.854 160.422 193.821 160.501 193.763 160.559L192.97 161.275L193.766 162.017C193.813 162.061 193.846 162.118 193.861 162.181C193.875 162.244 193.87 162.31 193.846 162.37C193.823 162.43 193.781 162.482 193.728 162.518C193.674 162.555 193.611 162.574 193.547 162.574ZM194.513 163.219C194.46 163.218 194.409 163.206 194.362 163.181C194.316 163.156 194.276 163.12 194.247 163.077C194.217 163.033 194.199 162.983 194.193 162.931C194.187 162.879 194.195 162.826 194.214 162.777L195.502 159.557C195.518 159.518 195.541 159.482 195.571 159.452C195.6 159.421 195.635 159.397 195.674 159.381C195.713 159.364 195.755 159.355 195.797 159.355C195.839 159.354 195.881 159.362 195.921 159.378C195.96 159.393 195.996 159.417 196.026 159.446C196.056 159.476 196.08 159.511 196.097 159.55C196.114 159.589 196.122 159.631 196.123 159.673C196.123 159.715 196.116 159.757 196.1 159.796L194.812 163.016C194.788 163.076 194.747 163.127 194.693 163.163C194.64 163.199 194.577 163.218 194.513 163.219Z" fill="#6BAFFF"/>
<rect x="133.755" y="179.264" width="17.8948" height="16.1404" rx="2.80702" fill="#33E664"/>
<rect x="153.755" y="179.264" width="17.8948" height="16.1404" rx="2.80702" fill="#B0FFD1"/>
<rect x="173.755" y="179.264" width="17.8948" height="16.1404" rx="2.80702" fill="#33ADE6"/>
</g>
<defs>
<clipPath id="clip0_23196_6639">
<rect width="220" height="250" rx="8" fill="white"/>
</clipPath>
</defs>
</svg>
