<svg width="327" height="258" viewBox="0 0 327 258" fill="none" xmlns="http://www.w3.org/2000/svg">
<path d="M241.5 193H137.5L48 258H326L241.5 193Z" fill="#565A72"/>
<rect x="178.316" y="150.315" width="25.0526" height="32.4211" fill="white"/>
<ellipse cx="190.842" cy="154.369" rx="12.5263" ry="6.26316" fill="#D9DBE5"/>
<path d="M190.842 168.737L239.105 188.264H142.947L190.842 168.737Z" fill="white"/>
<ellipse cx="190.842" cy="192.685" rx="52.3158" ry="11.4211" fill="white"/>
<rect x="66.3157" width="249.053" height="154" rx="14.7368" fill="white"/>
<rect x="73.6841" y="7.36816" width="234.316" height="139.263" rx="10.3158" fill="#383C4A"/>
<path d="M162.354 6.30108C161.536 4.35836 162.963 2.20996 165.071 2.20996H216.614C218.722 2.20996 220.148 4.35836 219.33 6.30108L215.918 14.4063C215.457 15.4993 214.387 16.21 213.201 16.21H168.484C167.298 16.21 166.227 15.4993 165.767 14.4063L162.354 6.30108Z" fill="white"/>
<rect x="82.5264" y="28" width="74.4211" height="12.5263" rx="2.94737" fill="#33E664"/>
<rect x="82.5264" y="55.2637" width="74.4211" height="5.89474" rx="2.94737" fill="#B2B6C2"/>
<rect x="82.5264" y="95.0527" width="74.4211" height="5.89474" rx="2.94737" fill="#B2B6C2"/>
<rect x="82.5264" y="68.5254" width="74.4211" height="5.89474" rx="2.94737" fill="#B2B6C2"/>
<rect x="82.5264" y="108.315" width="74.4211" height="5.89474" rx="2.94737" fill="#B2B6C2"/>
<rect x="82.5264" y="81.79" width="74.4211" height="5.89474" rx="2.94737" fill="#B2B6C2"/>
<rect x="82.5264" y="121.579" width="74.4211" height="5.89474" rx="2.94737" fill="#B2B6C2"/>
<rect x="2.94727" y="69.2627" width="114.211" height="66.3158" rx="5.89474" fill="#ACDAE6"/>
<path d="M2.94751 117.158H117.158V129.685C117.158 132.94 114.519 135.579 111.263 135.579H8.84224C5.58667 135.579 2.94751 132.94 2.94751 129.685V117.158Z" fill="#1CA843"/>
<path d="M117.158 117.158L114.21 113.474V117.158H117.158Z" fill="#1CA843"/>
<path d="M2.21059 131.157L4.78954 133.736L5.15796 131.157H2.21059Z" fill="#1CA843"/>
<rect y="66.3154" width="114.211" height="66.3158" rx="5.89474" fill="white"/>
<path d="M0 113.474H114.211V126.737C114.211 129.992 111.571 132.632 108.316 132.632H5.89473C2.63916 132.632 0 129.992 0 126.737V113.474Z" fill="#33E664"/>
<rect x="7.36816" y="75.1592" width="31.6842" height="31.6842" rx="2.94737" fill="#67AFF7"/>
<rect x="43.4734" y="78.1055" width="61.8948" height="4.42105" rx="2.21053" fill="#D9D9D9"/>
<rect x="43.4734" y="85.4736" width="61.8948" height="4.42105" rx="2.21053" fill="#D9D9D9"/>
<rect x="43.4734" y="99.4736" width="33.1579" height="4.42105" rx="2.21053" fill="#D9D9D9"/>
<path d="M27.1082 81.8168C26.212 80.8492 24.9603 80.3164 23.5787 80.3164C22.1898 80.3164 20.9339 80.846 20.0419 81.8076C19.1402 82.7798 18.7008 84.101 18.804 85.5277C19.0085 88.3425 21.1504 90.6322 23.5787 90.6322C26.0071 90.6322 28.1453 88.3429 28.353 85.5286C28.4575 84.1148 28.0154 82.7963 27.1082 81.8168ZM31.684 100.948H15.4735C15.2613 100.951 15.0512 100.906 14.8584 100.818C14.6656 100.729 14.495 100.598 14.359 100.435C14.0596 100.078 13.939 99.589 14.0283 99.0948C14.417 96.9387 15.63 95.1274 17.5366 93.8559C19.2304 92.7271 21.376 92.1059 23.5787 92.1059C25.7814 92.1059 27.927 92.7276 29.6208 93.8559C31.5274 95.1269 32.7404 96.9382 33.1291 99.0944C33.2185 99.5885 33.0978 100.077 32.7985 100.435C32.6625 100.598 32.4919 100.729 32.2992 100.817C32.1064 100.906 31.8962 100.951 31.684 100.948Z" fill="white"/>
<path d="M10.6005 122.82C10.4969 122.129 9.96587 121.71 9.23623 121.706C8.2648 121.71 7.62151 122.453 7.62151 123.77C7.62151 125.117 8.27344 125.829 9.22759 125.833C9.93997 125.829 10.4753 125.441 10.6005 124.763L11.913 124.771C11.7706 125.928 10.7991 126.982 9.21032 126.982C7.53947 126.982 6.30037 125.803 6.30037 123.77C6.30037 121.728 7.56106 120.558 9.21032 120.558C10.6523 120.558 11.7403 121.382 11.913 122.82H10.6005ZM18.2794 123.77C18.2794 125.812 17.0143 126.982 15.3608 126.982C13.6942 126.982 12.4335 125.803 12.4335 123.77C12.4335 121.728 13.6942 120.558 15.3608 120.558C17.0143 120.558 18.2794 121.728 18.2794 123.77ZM13.7547 123.77C13.7547 125.104 14.3893 125.829 15.3608 125.833C16.3236 125.829 16.9625 125.104 16.9582 123.77C16.9625 122.431 16.3236 121.71 15.3608 121.706C14.3893 121.71 13.7547 122.431 13.7547 123.77ZM21.1485 126.896H18.9467V120.644H21.1745C23.0569 120.644 24.2096 121.814 24.2053 123.761C24.2096 125.717 23.0569 126.896 21.1485 126.896ZM20.2419 125.782H21.0967C22.2884 125.782 22.9101 125.164 22.9101 123.761C22.9101 122.371 22.2884 121.758 21.1054 121.758H20.2419V125.782ZM24.8812 126.896V120.644H29.0778V121.715H26.1765V123.234H28.8619V124.305H26.1765V125.825H29.0864V126.896H24.8812ZM32.0247 126.896H29.8228V120.644H32.0506C33.933 120.644 35.0858 121.814 35.0814 123.761C35.0858 125.717 33.933 126.896 32.0247 126.896ZM31.118 125.782H31.9729C33.1645 125.782 33.7862 125.164 33.7862 123.761C33.7862 122.371 33.1645 121.758 31.9815 121.758H31.118V125.782ZM36.4482 126.896H35.0493L37.2167 120.644H38.8832L41.0419 126.896H39.6517L39.1811 125.453H36.9188L36.4482 126.896ZM37.2469 124.443H38.853L38.0715 122.051H38.0283L37.2469 124.443ZM46.7002 120.644V126.896H45.5776L42.8317 122.923H42.7799V126.896H41.4847V120.644H42.6245L45.3531 124.616H45.4136V120.644H46.7002ZM51.6417 122.656C51.4647 122.069 50.9941 121.71 50.312 121.706C49.3449 121.71 48.6886 122.449 48.6886 123.761C48.6886 125.082 49.3233 125.829 50.3206 125.833C51.2143 125.829 51.7454 125.324 51.7626 124.538H50.4069V123.562H53.0147V124.34C53.0147 125.98 51.8878 126.982 50.312 126.982C48.5591 126.982 47.3675 125.756 47.3675 123.778C47.3675 121.749 48.6368 120.558 50.2861 120.558C51.6979 120.558 52.7815 121.425 52.9542 122.656H51.6417Z" fill="white"/>
<rect x="175.368" y="32.4209" width="160.632" height="55.2632" rx="7.36842" fill="#2E3ECD"/>
<rect x="171.684" y="28" width="160.632" height="55.2632" rx="7.36842" fill="#4784FF"/>
<rect x="184.21" y="36.1055" width="38.3158" height="38.3158" rx="19.1579" fill="white"/>
<path d="M200.755 54.3877H205.981C205.812 51.8362 205.1 49.3503 203.893 47.096H202.843C201.636 49.3503 200.924 51.8362 200.755 54.3877ZM199.016 54.3877C199.152 52.0213 199.722 49.7001 200.696 47.5394C199.223 48.0391 197.924 48.949 196.95 50.1622C195.977 51.3754 195.37 52.8414 195.201 54.3877H199.016ZM207.72 54.3877H211.535C211.37 52.8469 210.77 51.3848 209.805 50.1722C208.84 48.9595 207.551 48.0464 206.086 47.5394C207.045 49.7032 207.598 52.0243 207.72 54.3877ZM207.72 56.1377C207.583 58.5041 207.014 60.8253 206.04 62.986C207.513 62.4863 208.812 61.5764 209.786 60.3632C210.759 59.15 211.366 57.684 211.535 56.1377H207.72ZM199.016 56.1377H195.201C195.366 57.6785 195.966 59.1406 196.931 60.3532C197.895 61.5659 199.185 62.479 200.65 62.986C199.691 60.8222 199.138 58.5011 199.016 56.1377ZM205.981 56.1377H200.755C200.927 58.6886 201.639 61.1738 202.843 63.4294H203.893C205.1 61.1751 205.812 58.6892 205.981 56.1377ZM203.368 41.2627C203.022 41.2627 202.683 41.3653 202.396 41.5576C202.108 41.7499 201.884 42.0232 201.751 42.343C201.619 42.6628 201.584 43.0146 201.652 43.3541C201.719 43.6936 201.886 44.0054 202.13 44.2501C202.375 44.4949 202.687 44.6615 203.027 44.7291C203.366 44.7966 203.718 44.7619 204.038 44.6295C204.357 44.497 204.631 44.2727 204.823 43.9849C205.015 43.6972 205.118 43.3588 205.118 43.0127C205.118 42.5486 204.934 42.1034 204.605 41.7753C204.277 41.4471 203.832 41.2627 203.368 41.2627ZM203.368 65.7627C203.022 65.7627 202.683 65.8653 202.396 66.0576C202.108 66.2499 201.884 66.5232 201.751 66.843C201.619 67.1628 201.584 67.5146 201.652 67.8541C201.719 68.1936 201.886 68.5054 202.13 68.7501C202.375 68.9949 202.687 69.1616 203.027 69.2291C203.366 69.2966 203.718 69.2619 204.038 69.1295C204.357 68.997 204.631 68.7727 204.823 68.485C205.015 68.1972 205.118 67.8588 205.118 67.5127C205.118 67.0486 204.934 66.6035 204.605 66.2753C204.277 65.9471 203.832 65.7627 203.368 65.7627ZM213.273 45.3577C213.027 45.1104 212.713 44.9417 212.371 44.873C212.029 44.8043 211.674 44.8387 211.352 44.9718C211.03 45.1048 210.754 45.3306 210.56 45.6205C210.366 45.9104 210.262 46.2514 210.262 46.6002C210.262 46.949 210.366 47.29 210.56 47.5799C210.754 47.8698 211.03 48.0956 211.352 48.2286C211.674 48.3617 212.029 48.3961 212.371 48.3274C212.713 48.2586 213.027 48.09 213.273 47.8427C213.599 47.5111 213.781 47.0649 213.781 46.6002C213.781 46.1355 213.599 45.6893 213.273 45.3577ZM195.948 62.6827C195.702 62.4354 195.388 62.2668 195.046 62.198C194.704 62.1293 194.349 62.1637 194.027 62.2968C193.705 62.4298 193.429 62.6556 193.235 62.9455C193.041 63.2354 192.937 63.5764 192.937 63.9252C192.937 64.274 193.041 64.615 193.235 64.9049C193.429 65.1948 193.705 65.4206 194.027 65.5536C194.349 65.6867 194.704 65.7211 195.046 65.6524C195.388 65.5837 195.702 65.415 195.948 65.1677C196.274 64.8361 196.456 64.3899 196.456 63.9252C196.456 63.4605 196.274 63.0143 195.948 62.6827ZM217.368 55.2627C217.368 54.9166 217.265 54.5782 217.073 54.2905C216.881 54.0027 216.607 53.7784 216.288 53.6459C215.968 53.5135 215.616 53.4788 215.277 53.5463C214.937 53.6138 214.625 53.7805 214.38 54.0253C214.136 54.27 213.969 54.5818 213.902 54.9213C213.834 55.2608 213.869 55.6126 214.001 55.9324C214.134 56.2522 214.358 56.5255 214.646 56.7178C214.933 56.9101 215.272 57.0127 215.618 57.0127C216.082 57.0127 216.527 56.8283 216.855 56.5001C217.184 56.1719 217.368 55.7268 217.368 55.2627ZM192.868 55.2627C192.868 54.9166 192.765 54.5782 192.573 54.2905C192.381 54.0027 192.107 53.7784 191.788 53.6459C191.468 53.5135 191.116 53.4788 190.777 53.5463C190.437 53.6138 190.125 53.7805 189.88 54.0253C189.636 54.27 189.469 54.5818 189.402 54.9213C189.334 55.2608 189.369 55.6126 189.501 55.9324C189.634 56.2522 189.858 56.5255 190.146 56.7178C190.433 56.9101 190.772 57.0127 191.118 57.0127C191.582 57.0127 192.027 56.8283 192.355 56.5001C192.684 56.1719 192.868 55.7268 192.868 55.2627ZM213.273 65.1677C213.52 64.9217 213.689 64.6078 213.758 64.2658C213.826 63.9239 213.792 63.5692 213.659 63.2468C213.526 62.9243 213.3 62.6487 213.01 62.4547C212.72 62.2607 212.379 62.1572 212.03 62.1572C211.682 62.1572 211.341 62.2607 211.051 62.4547C210.761 62.6487 210.535 62.9243 210.402 63.2468C210.269 63.5692 210.235 63.9239 210.303 64.2658C210.372 64.6078 210.541 64.9217 210.788 65.1677C211.12 65.4933 211.566 65.6758 212.03 65.6758C212.495 65.6758 212.941 65.4933 213.273 65.1677ZM195.948 47.8427C196.195 47.5967 196.364 47.2828 196.433 46.9408C196.501 46.5989 196.467 46.2442 196.334 45.9218C196.201 45.5993 195.975 45.3237 195.685 45.1297C195.395 44.9357 195.054 44.8322 194.705 44.8322C194.357 44.8322 194.016 44.9357 193.726 45.1297C193.436 45.3237 193.21 45.5993 193.077 45.9218C192.944 46.2442 192.91 46.5989 192.978 46.9408C193.047 47.2828 193.216 47.5967 193.463 47.8427C193.795 48.1683 194.241 48.3508 194.705 48.3508C195.17 48.3508 195.616 48.1683 195.948 47.8427Z" fill="#2E3ECD"/>
<path d="M251.998 74.4174C262.578 74.4174 271.155 65.8402 271.155 55.2595C271.155 44.6787 262.578 36.1016 251.998 36.1016C241.417 36.1016 232.84 44.6795 232.84 55.2595C232.84 65.8394 241.417 74.4174 251.998 74.4174Z" fill="white"/>
<path d="M263.143 60.832C263.143 61.5709 262.85 62.2795 262.327 62.8019C261.805 63.3244 261.096 63.6179 260.357 63.6179H243.636C242.898 63.6179 242.189 63.3244 241.667 62.8019C241.144 62.2795 240.851 61.5709 240.851 60.832V49.6853C240.851 48.9464 241.144 48.2378 241.667 47.7154C242.189 47.1929 242.898 46.8994 243.636 46.8994H260.357C260.722 46.8993 261.085 46.9713 261.423 47.1112C261.761 47.2512 262.068 47.4564 262.327 47.7151C262.586 47.9738 262.791 48.2809 262.931 48.619C263.071 48.957 263.143 49.3194 263.143 49.6853V60.832Z" fill="#2E3ECD"/>
<path d="M260.356 46.8994H243.637C242.898 46.8994 242.19 47.1929 241.667 47.7154C241.145 48.2378 240.851 48.9464 240.851 49.6853V51.079H263.142V49.6853C263.142 49.3194 263.07 48.9572 262.93 48.6192C262.79 48.2812 262.585 47.9741 262.326 47.7154C262.068 47.4567 261.761 47.2515 261.423 47.1115C261.085 46.9715 260.722 46.8994 260.356 46.8994Z" fill="#6BAFFF"/>
<path d="M243.986 50.0345C244.17 50.0345 244.348 49.9612 244.478 49.8305C244.609 49.6999 244.682 49.5228 244.682 49.3381C244.682 49.1534 244.609 48.9762 244.478 48.8456C244.348 48.715 244.17 48.6416 243.986 48.6416C243.801 48.6416 243.624 48.715 243.493 48.8456C243.363 48.9762 243.289 49.1534 243.289 49.3381C243.289 49.5228 243.363 49.6999 243.493 49.8305C243.624 49.9612 243.801 50.0345 243.986 50.0345ZM246.772 50.0345C246.957 50.0345 247.134 49.9612 247.265 49.8305C247.396 49.6999 247.469 49.5228 247.469 49.3381C247.469 49.1534 247.396 48.9762 247.265 48.8456C247.134 48.715 246.957 48.6416 246.772 48.6416C246.588 48.6416 246.411 48.715 246.28 48.8456C246.149 48.9762 246.076 49.1534 246.076 49.3381C246.076 49.5228 246.149 49.6999 246.28 49.8305C246.411 49.9612 246.588 50.0345 246.772 50.0345ZM249.559 50.0345C249.744 50.0345 249.921 49.9612 250.052 49.8305C250.182 49.6999 250.256 49.5228 250.256 49.3381C250.256 49.1534 250.182 48.9762 250.052 48.8456C249.921 48.715 249.744 48.6416 249.559 48.6416C249.374 48.6416 249.197 48.715 249.067 48.8456C248.936 48.9762 248.863 49.1534 248.863 49.3381C248.863 49.5228 248.936 49.6999 249.067 49.8305C249.197 49.9612 249.374 50.0345 249.559 50.0345Z" fill="#2E3ECD"/>
<path d="M255.272 59.5095C255.217 59.4364 255.177 59.3532 255.154 59.2645C255.131 59.1759 255.126 59.0835 255.139 58.9929C255.152 58.9022 255.182 58.815 255.229 58.7363C255.276 58.6575 255.338 58.5888 255.411 58.534L257.455 57.0014L255.411 55.4688C255.336 55.4145 255.273 55.3459 255.225 55.2669C255.177 55.188 255.145 55.1002 255.131 55.0089C255.118 54.9175 255.122 54.8243 255.145 54.7347C255.167 54.6451 255.207 54.5609 255.263 54.4869C255.318 54.413 255.388 54.3508 255.467 54.304C255.547 54.2572 255.635 54.2267 255.727 54.2143C255.818 54.2019 255.912 54.2078 256.001 54.2318C256.09 54.2557 256.174 54.2971 256.247 54.3536L259.033 56.4442C259.12 56.5092 259.19 56.5933 259.238 56.69C259.287 56.7867 259.312 56.8933 259.312 57.0014C259.312 57.1095 259.287 57.2161 259.238 57.3128C259.19 57.4095 259.12 57.4937 259.033 57.5586L256.248 59.6484C256.174 59.7034 256.091 59.7435 256.002 59.7663C255.914 59.7891 255.821 59.7942 255.731 59.7813C255.64 59.7684 255.553 59.7378 255.474 59.6911C255.395 59.6445 255.327 59.5828 255.272 59.5095ZM247.748 59.6484L244.962 57.5586C244.875 57.4937 244.805 57.4095 244.757 57.3127C244.708 57.2159 244.683 57.1092 244.683 57.001C244.683 56.8928 244.708 56.7861 244.757 56.6893C244.805 56.5925 244.875 56.5083 244.962 56.4434L247.748 54.3536C247.821 54.2987 247.904 54.2588 247.993 54.2362C248.082 54.2135 248.174 54.2085 248.264 54.2214C248.355 54.2344 248.442 54.2651 248.521 54.3118C248.6 54.3584 248.668 54.4201 248.723 54.4933C248.778 54.5665 248.818 54.6499 248.841 54.7385C248.863 54.8272 248.868 54.9194 248.855 55.01C248.843 55.1006 248.812 55.1877 248.765 55.2664C248.719 55.3451 248.657 55.4139 248.584 55.4688L246.54 57.0014L248.584 58.534C248.731 58.6449 248.829 58.8099 248.855 58.9927C248.881 59.1756 248.834 59.3613 248.723 59.5091C248.612 59.6569 248.447 59.7546 248.264 59.7807C248.081 59.8068 247.896 59.7592 247.748 59.6484ZM250.641 59.7146C250.559 59.6739 250.486 59.6174 250.425 59.5483C250.365 59.4792 250.32 59.3989 250.291 59.312C250.262 59.2252 250.25 59.1334 250.257 59.0421C250.263 58.9508 250.288 58.8617 250.329 58.7799L252.419 54.6003C252.46 54.5185 252.517 54.4456 252.586 54.3857C252.655 54.3258 252.735 54.2801 252.822 54.2512C252.908 54.2223 253 54.2107 253.091 54.2172C253.182 54.2237 253.271 54.2481 253.353 54.289C253.435 54.3299 253.508 54.3864 253.568 54.4555C253.628 54.5246 253.673 54.6047 253.702 54.6915C253.731 54.7782 253.743 54.8698 253.736 54.9609C253.73 55.0521 253.705 55.1412 253.664 55.2229L251.575 59.4025C251.493 59.5677 251.348 59.6933 251.173 59.7517C250.997 59.8101 250.806 59.7973 250.641 59.7146Z" fill="#6BAFFF"/>
<path d="M300.629 74.4203C311.21 74.4203 319.787 65.8431 319.787 55.2624C319.787 44.6816 311.21 36.1045 300.629 36.1045C290.049 36.1045 281.471 44.6816 281.471 55.2624C281.471 65.8431 290.049 74.4203 300.629 74.4203Z" fill="white"/>
<path d="M292.269 45.4541C292.269 45.2784 292.304 45.1043 292.371 44.942C292.438 44.7796 292.537 44.6321 292.661 44.5078C292.785 44.3836 292.933 44.285 293.095 44.2178C293.257 44.1506 293.431 44.1161 293.607 44.1162H303.416L308.989 48.7979V65.0718C308.989 65.2475 308.955 65.4214 308.888 65.5837C308.82 65.7461 308.722 65.8935 308.597 66.0178C308.473 66.142 308.326 66.2406 308.163 66.3078C308.001 66.375 307.827 66.4096 307.651 66.4096H293.607C293.431 66.4097 293.257 66.3752 293.095 66.308C292.933 66.2408 292.785 66.1423 292.661 66.018C292.537 65.8938 292.438 65.7462 292.371 65.5839C292.304 65.4215 292.269 65.2475 292.269 65.0718V45.4541Z" fill="#2E3ECD"/>
<path d="M303.415 44.1162V47.4609C303.415 47.8155 303.556 48.1556 303.807 48.4064C304.058 48.6571 304.398 48.7979 304.753 48.7979H308.989M304.01 60.0053C303.874 60.0053 303.742 59.9644 303.63 59.8881C303.517 59.8117 303.431 59.7034 303.381 59.5772C303.331 59.451 303.321 59.3127 303.35 59.1803C303.38 59.048 303.449 58.9277 303.549 58.8351L305.222 57.2785L303.556 55.7746C303.428 55.6533 303.352 55.4865 303.345 55.3098C303.338 55.1332 303.4 54.9609 303.519 54.8297C303.637 54.6985 303.802 54.6189 303.979 54.6079C304.155 54.597 304.329 54.6556 304.462 54.7712L306.675 56.7692C306.745 56.8319 306.801 56.9085 306.839 56.9939C306.878 57.0794 306.898 57.172 306.899 57.2657C306.899 57.3595 306.88 57.4523 306.843 57.5383C306.806 57.6244 306.751 57.7017 306.682 57.7654L304.47 59.8249C304.345 59.9416 304.181 60.0056 304.01 60.0053ZM297.248 60.0061C297.077 60.0056 296.913 59.9409 296.788 59.8249L294.575 57.7654C294.506 57.7017 294.451 57.6243 294.414 57.5382C294.377 57.4522 294.358 57.3593 294.359 57.2656C294.36 57.1718 294.38 57.0793 294.418 56.9938C294.457 56.9083 294.513 56.8319 294.583 56.7692L296.795 54.7712C296.93 54.6621 297.101 54.6087 297.274 54.6222C297.447 54.6356 297.608 54.7148 297.724 54.8434C297.84 54.972 297.903 55.1403 297.898 55.3135C297.894 55.4868 297.824 55.6518 297.701 55.7746L296.036 57.2785L297.709 58.8351C297.808 58.9276 297.877 59.0479 297.907 59.1803C297.937 59.3127 297.927 59.4511 297.877 59.5775C297.827 59.7038 297.741 59.8123 297.629 59.8887C297.516 59.9652 297.384 60.0061 297.248 60.0061ZM299.277 61.3591C299.167 61.3589 299.058 61.3317 298.96 61.2798C298.863 61.2279 298.78 61.1529 298.718 61.0615C298.656 60.97 298.617 60.8648 298.605 60.755C298.594 60.6452 298.609 60.5341 298.65 60.4316L301.354 53.6696C301.387 53.5872 301.436 53.512 301.498 53.4485C301.56 53.385 301.634 53.3343 301.716 53.2993C301.797 53.2644 301.885 53.2459 301.974 53.2448C302.063 53.2438 302.151 53.2602 302.233 53.2932C302.316 53.3263 302.391 53.3752 302.455 53.4373C302.518 53.4993 302.569 53.5733 302.604 53.6549C302.639 53.7366 302.657 53.8243 302.658 53.9131C302.659 54.0019 302.643 54.0901 302.61 54.1725L299.905 60.9337C299.855 61.0591 299.768 61.1666 299.656 61.2424C299.544 61.3182 299.412 61.3589 299.277 61.3591Z" fill="#6BAFFF"/>
<rect x="171.684" y="95.0527" width="37.579" height="33.8948" rx="5.89474" fill="#33E664"/>
<rect x="213.684" y="95.0527" width="37.579" height="33.8948" rx="5.89474" fill="#B0FFD1"/>
<rect x="255.684" y="95.0527" width="37.579" height="33.8948" rx="5.89474" fill="#33ADE6"/>
</svg>
