<svg width="335" height="164" viewBox="0 0 335 164" fill="none" xmlns="http://www.w3.org/2000/svg">
<g clip-path="url(#clip0_1826_12)">
<rect width="335" height="164" rx="8" fill="#0C1421"/>
<rect width="80.5466" height="127.217" rx="4" transform="matrix(0.906308 0.422618 0 1 263.001 -82)" fill="#203456"/>
<line x1="0.5" y1="-0.5" x2="61.5" y2="-0.5" transform="matrix(0.906308 0.422618 0 1 272.064 -21.7537)" stroke="#637189" stroke-linecap="round"/>
<line x1="0.5" y1="-0.5" x2="61.5" y2="-0.5" transform="matrix(0.906308 0.422618 0 1 272.064 -16.7537)" stroke="#637189" stroke-linecap="round"/>
<line x1="0.5" y1="-0.5" x2="61.5" y2="-0.5" transform="matrix(0.906308 0.422618 0 1 272.064 -11.7537)" stroke="#637189" stroke-linecap="round"/>
<line x1="0.5" y1="-0.5" x2="61.5" y2="-0.5" transform="matrix(0.906308 0.422618 0 1 272.064 -6.75366)" stroke="#637189" stroke-linecap="round"/>
<line x1="0.5" y1="-0.5" x2="61.5" y2="-0.5" transform="matrix(0.906308 0.422618 0 1 272.064 -1.75366)" stroke="#637189" stroke-linecap="round"/>
<line x1="0.5" y1="-0.5" x2="46.5" y2="-0.5" transform="matrix(0.906308 0.422618 0 1 272.064 3.24634)" stroke="#637189" stroke-linecap="round"/>
<line x1="0.5" y1="-0.5" x2="27.5" y2="-0.5" transform="matrix(0.906308 0.422618 0 1 272.064 8.24634)" stroke="#637189" stroke-linecap="round"/>
<rect width="47.4453" height="68.8516" rx="4" transform="matrix(0.906308 0.422618 0 1 292.234 25)" fill="#2E4872"/>
<line x1="0.5" y1="-0.5" x2="32.2174" y2="-0.5" transform="matrix(0.906308 0.422618 0 1 299.012 36.3827)" stroke="#6D7F9C" stroke-linecap="round"/>
<line x1="0.5" y1="-0.5" x2="32.2174" y2="-0.5" transform="matrix(0.906308 0.422618 0 1 299.012 41.3827)" stroke="#6D7F9C" stroke-linecap="round"/>
<line x1="0.5" y1="-0.5" x2="32.2174" y2="-0.5" transform="matrix(0.906308 0.422618 0 1 299.012 46.3827)" stroke="#6D7F9C" stroke-linecap="round"/>
<line x1="0.5" y1="-0.5" x2="32.2174" y2="-0.5" transform="matrix(0.906308 0.422618 0 1 299.012 51.3827)" stroke="#6D7F9C" stroke-linecap="round"/>
<line x1="0.5" y1="-0.5" x2="32.2174" y2="-0.5" transform="matrix(0.906308 0.422618 0 1 299.012 56.3827)" stroke="#6D7F9C" stroke-linecap="round"/>
<line x1="0.5" y1="-0.5" x2="32.2174" y2="-0.5" transform="matrix(0.906308 0.422618 0 1 299.012 61.3827)" stroke="#6D7F9C" stroke-linecap="round"/>
<line x1="0.5" y1="-0.5" x2="32.2174" y2="-0.5" transform="matrix(0.906308 0.422618 0 1 299.012 66.3827)" stroke="#6D7F9C" stroke-linecap="round"/>
<line x1="0.5" y1="-0.5" x2="13.5217" y2="-0.5" transform="matrix(0.906308 0.422618 0 1 299.012 71.3827)" stroke="#6D7F9C" stroke-linecap="round"/>
<rect width="38.6182" height="52.3871" rx="4" transform="matrix(0.906308 0.422618 0 1 277.234 67)" fill="#4D6EA4"/>
<line x1="0.5" y1="-0.5" x2="26.5" y2="-0.5" transform="matrix(0.906308 0.422618 0 1 282.672 78.5001)" stroke="#8299BF" stroke-linecap="round"/>
<line x1="0.5" y1="-0.5" x2="26.5" y2="-0.5" transform="matrix(0.906308 0.422618 0 1 282.672 83.5001)" stroke="#8299BF" stroke-linecap="round"/>
<line x1="0.5" y1="-0.5" x2="26.5" y2="-0.5" transform="matrix(0.906308 0.422618 0 1 282.672 88.5001)" stroke="#8299BF" stroke-linecap="round"/>
<line x1="0.5" y1="-0.5" x2="26.5" y2="-0.5" transform="matrix(0.906308 0.422618 0 1 282.672 93.5001)" stroke="#8299BF" stroke-linecap="round"/>
<line x1="0.5" y1="-0.5" x2="26.5" y2="-0.5" transform="matrix(0.906308 0.422618 0 1 282.672 98.5001)" stroke="#8299BF" stroke-linecap="round"/>
<rect width="42.479" height="20.482" rx="2" transform="matrix(0.906308 0.422618 -0.766044 0.642788 250.281 142)" fill="#3581FA"/>
<path d="M235.559 153.539L237.233 153V155L235.566 154.977L235.559 153.539Z" fill="#3581FA"/>
<path d="M287.809 158.879L286.233 158V160L287.809 160.273V158.879Z" fill="#3581FA"/>
<rect width="42.479" height="20.482" rx="2" transform="matrix(0.906308 0.422618 -0.766044 0.642788 250.281 140.624)" fill="#88B4FC"/>
<mask id="mask0_1826_12" style="mask-type:alpha" maskUnits="userSpaceOnUse" x="235" y="141" width="53" height="31">
<rect width="42.479" height="20.482" rx="2" transform="matrix(0.906308 0.422618 -0.766044 0.642788 250.282 140.624)" fill="#88B4FC"/>
</mask>
<g mask="url(#mask0_1826_12)">
<path d="M262.717 146.575C263.563 145.865 265.061 145.667 266.062 146.134L274.598 150.115C275.59 150.577 275.724 151.52 274.897 152.23L268.892 157.385C268.046 158.11 266.523 158.313 265.515 157.835L256.944 153.767C255.955 153.297 255.836 152.348 256.678 151.642L262.717 146.575Z" fill="#1063EB"/>
</g>
<path d="M257.234 129C257.234 127.895 258.046 127.378 259.047 127.845L267.422 131.75C268.423 132.217 269.234 133.491 269.234 134.596V156.359C269.234 157.517 268.346 158.019 267.298 157.451L258.923 152.915C257.973 152.4 257.234 151.184 257.234 150.132V129Z" fill="#3581FA"/>
<path d="M267.157 158.78C266.855 158.951 266.545 159.003 266.094 158.926L266.234 157.5C267.068 157 268.44 155.975 268.84 156.375C269.24 156.775 269.125 157.059 268.852 157.41C268.48 157.758 267.773 158.43 267.157 158.78Z" fill="#3581FA"/>
<rect width="13.2405" height="25" rx="2" transform="matrix(0.906308 0.422618 0 1 255.234 129)" fill="#5A98FF"/>
<path d="M231.314 71.3477C227.672 71.3841 226.235 74.0004 226.305 76.0159L230.235 77.0003C231.735 75.0003 232.384 71.3282 231.314 71.3477Z" fill="#3581FA"/>
<path d="M293.065 156.005C296.706 155.968 298.229 154.409 298.227 150.79L293.853 150C292.353 152 291.995 156.024 293.065 156.005Z" fill="#3581FA"/>
<rect x="0.906308" y="1.42262" width="74.1331" height="50.3871" rx="3" transform="matrix(0.906308 0.422618 0 1 229.319 69.617)" fill="#3581FA" stroke="#3581FA" stroke-width="2"/>
<rect x="0.906308" y="1.42262" width="74.1331" height="50.3871" rx="3" transform="matrix(0.906308 0.422618 0 1 226.319 72.4148)" fill="#0C1421" stroke="#88B4FC" stroke-width="2"/>
<path d="M272.333 119.615C273.966 119.691 275.691 119.591 277.676 119.277L275.798 114.751C273.859 115.053 272.21 115.155 270.623 115.034C269.997 113.168 269.401 111.132 268.79 108.838L265.172 108.473C265.737 110.596 266.302 112.533 266.882 114.344C265.187 113.856 263.37 113.126 261.157 112.143C258.958 111.085 257.126 110.08 255.431 108.955C256.011 107.701 256.561 106.3 257.126 104.721L253.507 101.711C252.897 103.402 252.316 104.857 251.706 106.129C250.103 104.745 248.438 103.115 246.469 101.058L244.683 103.926C246.652 105.999 248.362 107.668 250.011 109.123C247.889 112.152 245.263 113.59 241.049 114.522L243.079 119.018L243.095 119.025C248.179 117.88 251.263 116.053 253.767 112.097C255.965 113.641 258.271 114.95 261.126 116.332L261.157 116.346C261.157 116.33 261.187 116.344 261.187 116.344C264.027 117.601 266.332 118.509 268.561 119.046C271.05 125.296 274.134 130 279.203 135.863L281.234 133.26C277.05 128.429 274.44 124.566 272.333 119.615Z" fill="#3581FA"/>
<path d="M256.746 125.794L232.998 145.721L168.127 115.471L139.017 139.897L171.863 155.213L147.217 174.312L56.0691 131.809L28.6726 151.845L-43.9996 117.957" stroke="#88B4FC" stroke-dasharray="3 3"/>
<path d="M28.2344 132C25.4701 132 23.2344 134.191 23.2344 136.9C23.2344 140.575 28.2344 146 28.2344 146C28.2344 146 33.2344 140.575 33.2344 136.9C33.2344 134.191 30.9987 132 28.2344 132ZM28.2344 138.65C27.7608 138.65 27.3066 138.466 26.9717 138.137C26.6368 137.809 26.4487 137.364 26.4487 136.9C26.4487 136.436 26.6368 135.991 26.9717 135.663C27.3066 135.334 27.7608 135.15 28.2344 135.15C28.708 135.15 29.1622 135.334 29.4971 135.663C29.832 135.991 30.0201 136.436 30.0201 136.9C30.0201 137.364 29.832 137.809 29.4971 138.137C29.1622 138.466 28.708 138.65 28.2344 138.65Z" fill="#88B4FC" fill-opacity="0.3"/>
<path d="M150.001 111C147.237 111 145.001 113.191 145.001 115.9C145.001 119.575 150.001 125 150.001 125C150.001 125 155.001 119.575 155.001 115.9C155.001 113.191 152.765 111 150.001 111ZM150.001 117.65C149.527 117.65 149.073 117.466 148.738 117.137C148.403 116.809 148.215 116.364 148.215 115.9C148.215 115.436 148.403 114.991 148.738 114.663C149.073 114.334 149.527 114.15 150.001 114.15C150.475 114.15 150.929 114.334 151.264 114.663C151.599 114.991 151.787 115.436 151.787 115.9C151.787 116.364 151.599 116.809 151.264 117.137C150.929 117.466 150.475 117.65 150.001 117.65Z" fill="#88B4FC"/>
<path d="M82.2344 125C79.4701 125 77.2344 127.191 77.2344 129.9C77.2344 133.575 82.2344 139 82.2344 139C82.2344 139 87.2344 133.575 87.2344 129.9C87.2344 127.191 84.9987 125 82.2344 125ZM82.2344 131.65C81.7608 131.65 81.3066 131.466 80.9717 131.137C80.6368 130.809 80.4487 130.364 80.4487 129.9C80.4487 129.436 80.6368 128.991 80.9717 128.663C81.3066 128.334 81.7608 128.15 82.2344 128.15C82.708 128.15 83.1622 128.334 83.4971 128.663C83.832 128.991 84.0201 129.436 84.0201 129.9C84.0201 130.364 83.832 130.809 83.4971 131.137C83.1622 131.466 82.708 131.65 82.2344 131.65Z" fill="#88B4FC" fill-opacity="0.6"/>
</g>
<defs>
<clipPath id="clip0_1826_12">
<rect width="335" height="164" rx="8" fill="white"/>
</clipPath>
</defs>
</svg>
