<svg width="322" height="338" viewBox="0 0 322 338" fill="none" xmlns="http://www.w3.org/2000/svg">
<mask id="mask0_15732_10231" style="mask-type:alpha" maskUnits="userSpaceOnUse" x="0" y="0" width="322" height="338">
<rect width="322" height="338" rx="20" fill="#3581FA"/>
</mask>
<g mask="url(#mask0_15732_10231)">
<path d="M276.111 217C284.581 216.988 292.699 220.34 298.68 226.32C304.66 232.301 308.013 240.419 308 248.889C307.987 257.359 304.611 265.487 298.612 271.485C293.203 276.895 283.557 280.736 273.411 283.438C283.557 286.139 293.203 289.981 298.612 295.39C304.61 301.388 307.987 309.516 308 317.986C308.013 326.457 304.66 334.575 298.68 340.556C292.699 346.536 284.581 349.889 276.111 349.876C267.641 349.863 259.513 346.486 253.515 340.488C247.353 334.327 243.226 322.667 240.5 311.033C237.774 322.667 233.647 334.327 227.485 340.488C221.487 346.486 213.359 349.863 204.889 349.876C196.419 349.889 188.301 346.536 182.32 340.556C176.34 334.575 172.987 326.457 173 317.986C173.013 309.516 176.39 301.388 182.388 295.39C187.797 289.981 197.442 286.139 207.588 283.438C197.442 280.736 187.797 276.894 182.388 271.485C176.39 265.487 173.013 257.359 173 248.889C172.987 240.419 176.34 232.301 182.32 226.32C188.301 220.34 196.419 216.988 204.889 217C213.359 217.013 221.487 220.39 227.485 226.388C233.647 232.549 237.774 244.208 240.5 255.842C243.226 244.208 247.353 232.549 253.515 226.388C259.513 220.39 267.641 217.013 276.111 217Z" fill="white"/>
</g>
</svg>
