<svg width="220" height="250" viewBox="0 0 220 250" fill="none" xmlns="http://www.w3.org/2000/svg">
<g id="problems">
<g clip-path="url(#clip0_23196_6619)">
<rect width="220" height="250" rx="8" fill="#3581FA"/>
<g id="Mask group" opacity="0.6">
<mask id="mask0_23196_6619" style="mask-type:alpha" maskUnits="userSpaceOnUse" x="0" y="-13" width="284" height="326">
<rect id="Rectangle 42058" y="-13" width="284" height="326" fill="#3581FA"/>
</mask>
<g mask="url(#mask0_23196_6619)">
<g id="Group 1171278070">
<rect id="Rectangle 42061" x="-17.2246" y="-22.645" width="69.2096" height="71.1317" fill="#0760EF"/>
<rect id="Rectangle 42065" x="-17.2246" y="119.618" width="69.2096" height="71.1317" fill="#0760EF"/>
<rect id="Rectangle 42062" x="51.9844" y="48.4866" width="69.2096" height="71.1317" fill="#0760EF"/>
<rect id="Rectangle 42067" x="51.9844" y="190.75" width="69.2096" height="71.1317" fill="#0760EF"/>
<rect id="Rectangle 42063" x="121.195" y="-22.645" width="69.2096" height="71.1317" fill="#0760EF"/>
<rect id="Rectangle 42066" x="121.195" y="119.618" width="69.2096" height="71.1317" fill="#0760EF"/>
<rect id="Rectangle 42064" x="190.404" y="48.4866" width="69.2096" height="71.1317" fill="#0760EF"/>
<rect id="Rectangle 42068" x="190.404" y="190.75" width="69.2096" height="71.1317" fill="#0760EF"/>
</g>
</g>
</g>
<path id="Union" d="M196.473 132C204.315 131.988 211.833 135.092 217.37 140.63C222.907 146.167 226.012 153.684 226 161.526C225.988 169.369 222.861 176.895 217.308 182.449C212.299 187.458 203.366 191.015 193.971 193.517C203.366 196.018 212.299 199.574 217.308 204.583C222.861 210.137 225.988 217.663 226 225.506C226.012 233.349 222.908 240.866 217.37 246.403C211.833 251.941 204.315 255.045 196.473 255.033C188.63 255.021 181.104 251.895 175.55 246.341C169.845 240.636 166.024 229.841 163.5 219.069C160.976 229.841 157.155 240.636 151.45 246.341C145.896 251.895 138.37 255.021 130.527 255.033C122.685 255.045 115.167 251.941 109.63 246.403C104.092 240.866 100.988 233.349 101 225.506C101.012 217.663 104.139 210.137 109.692 204.583C114.701 199.574 123.633 196.018 133.028 193.517C123.633 191.015 114.701 187.458 109.692 182.449C104.139 176.895 101.012 169.369 101 161.526C100.988 153.684 104.093 146.167 109.63 140.63C115.167 135.092 122.685 131.988 130.527 132C138.37 132.012 145.896 135.139 151.45 140.692C157.155 146.397 160.976 157.192 163.5 167.963C166.024 157.192 169.845 146.397 175.55 140.692C181.104 135.139 188.63 132.012 196.473 132Z" fill="white"/>
</g>
</g>
<defs>
<clipPath id="clip0_23196_6619">
<rect width="220" height="250" rx="8" fill="white"/>
</clipPath>
</defs>
</svg>
